%
M48
M72
T01C0.02362
T02C0.02500
T03C0.02756
T04C0.03543
T05C0.03937
T06C0.04331
T07C0.08661
%
T01
X55902Y64051
X51965Y83736
X93304Y75862
X140548Y132949
X162201Y140823
X168107Y142791
X164170Y158539
X146453Y182161
X136611Y197909
X140548Y205783
X126768Y205783
X116926Y195941
X105115Y178224
X128737Y172319
X93304Y221531
X40154Y168382
X57871Y152634
X225194Y99484
X244879Y81768
X231099Y71925
X262595Y125075
T02
X242910Y132949
X231099Y144760
X240942Y154602
X222241Y155587
X195666Y159524
X184839Y153618
X173028Y165429
X158264Y174287
X141532Y157555
X128737Y152634
X122831Y156571
X107083Y163461
X103146Y155587
X97241Y155587
X82477Y162476
X71650Y168382
X84446Y186098
X99209Y179209
X84446Y204799
X97241Y212673
X113973Y212673
X129721Y190035
X114957Y138854
X128737Y127043
X133658Y129012
X116926Y115232
X105115Y124091
X100194Y83736
X105115Y81768
X146453Y81768
X151375Y82752
X160233Y81768
X163186Y91610
X160233Y97516
X163186Y104406
X159249Y108343
X180902Y122122
X185823Y120154
X193698Y129996
X205509Y116217
X209446Y112280
X209446Y104406
X212398Y94563
X218304Y90626
X219288Y99484
X236020Y86689
X245863Y103421
X244879Y113264
X259642Y99484
X273422Y92594
X284249Y96531
X275390Y77831
X254721Y77831
X252753Y69957
X213383Y79799
X200587Y81768
X189760Y72909
X180902Y91610
X173028Y135902
X226178Y124091
X266532Y150665
X274406Y147713
X60823Y138854
X59839Y130980
T03
X58408Y72462
X53397Y67451
T04
X67713Y134917
X75587Y134917
X75587Y142791
X67713Y142791
X67713Y150665
X75587Y150665
T05
X162201Y185941
X162201Y195941
X162201Y205941
X232910Y56177
X242910Y56177
X252910Y56177
T06
X48028Y97201
X48028Y107201
X48028Y117201
X48028Y127201
X48028Y137201
T07
X44091Y184130
X44091Y199878
X44091Y215626
X133658Y231374
X133658Y160508
X181886Y160508
X207477Y84720
X272438Y121138
X278343Y84720
X272438Y184130
X272438Y199878
X272438Y215626
M30
