G75*
%MOIN*%
%OFA0B0*%
%FSLAX25Y25*%
%IPPOS*%
%LPD*%
%AMOC8*
5,1,8,0,0,1.08239X$1,22.5*
%
%ADD10C,0.01600*%
%ADD11C,0.00000*%
%ADD12R,0.06299X0.07098*%
%ADD13R,0.05118X0.06299*%
%ADD14R,0.11811X0.06299*%
%ADD15R,0.22835X0.24409*%
%ADD16C,0.08600*%
%ADD17R,0.04200X0.08600*%
%ADD18R,0.08600X0.04200*%
%ADD19R,0.08800X0.04800*%
%ADD20R,0.08661X0.14173*%
%ADD21R,0.05906X0.05118*%
%ADD22R,0.05000X0.05787*%
%ADD23R,0.04331X0.05512*%
%ADD24R,0.03937X0.18110*%
%ADD25R,0.13386X0.06299*%
%ADD26C,0.06496*%
%ADD27C,0.06600*%
%ADD28C,0.05315*%
%ADD29C,0.03962*%
%ADD30C,0.03200*%
%ADD31C,0.01500*%
%ADD32C,0.04100*%
%ADD33C,0.00800*%
D10*
X0055902Y0050272D02*
X0036217Y0069957D01*
X0036093Y0069959D01*
X0035970Y0069965D01*
X0035846Y0069974D01*
X0035724Y0069988D01*
X0035601Y0070005D01*
X0035479Y0070027D01*
X0035358Y0070052D01*
X0035238Y0070081D01*
X0035119Y0070113D01*
X0035000Y0070150D01*
X0034883Y0070190D01*
X0034768Y0070233D01*
X0034653Y0070281D01*
X0034541Y0070332D01*
X0034430Y0070386D01*
X0034320Y0070444D01*
X0034213Y0070505D01*
X0034107Y0070570D01*
X0034004Y0070638D01*
X0033903Y0070709D01*
X0033804Y0070783D01*
X0033707Y0070860D01*
X0033613Y0070941D01*
X0033522Y0071024D01*
X0033433Y0071110D01*
X0033347Y0071199D01*
X0033264Y0071290D01*
X0033183Y0071384D01*
X0033106Y0071481D01*
X0033032Y0071580D01*
X0032961Y0071681D01*
X0032893Y0071784D01*
X0032828Y0071890D01*
X0032767Y0071997D01*
X0032709Y0072107D01*
X0032655Y0072218D01*
X0032604Y0072330D01*
X0032556Y0072445D01*
X0032513Y0072560D01*
X0032473Y0072677D01*
X0032436Y0072796D01*
X0032404Y0072915D01*
X0032375Y0073035D01*
X0032350Y0073156D01*
X0032328Y0073278D01*
X0032311Y0073401D01*
X0032297Y0073523D01*
X0032288Y0073647D01*
X0032282Y0073770D01*
X0032280Y0073894D01*
X0032280Y0219563D01*
X0035080Y0219563D02*
X0035143Y0220357D01*
X0035633Y0221867D01*
X0036566Y0223151D01*
X0037851Y0224084D01*
X0039360Y0224575D01*
X0040154Y0224637D01*
X0053067Y0224637D01*
X0053067Y0221044D01*
X0054238Y0219872D01*
X0064495Y0219872D01*
X0065667Y0221044D01*
X0065667Y0221172D01*
X0089323Y0221172D01*
X0089323Y0220740D01*
X0089929Y0219276D01*
X0091049Y0218156D01*
X0092512Y0217550D01*
X0094096Y0217550D01*
X0095559Y0218156D01*
X0096679Y0219276D01*
X0097285Y0220740D01*
X0097285Y0222323D01*
X0096679Y0223787D01*
X0095828Y0224637D01*
X0111577Y0224637D01*
X0112606Y0225063D01*
X0113394Y0225851D01*
X0113820Y0226880D01*
X0113820Y0235311D01*
X0113931Y0237001D01*
X0114806Y0240266D01*
X0116496Y0243193D01*
X0118886Y0245583D01*
X0121813Y0247273D01*
X0125078Y0248148D01*
X0126768Y0248259D01*
X0138579Y0248259D01*
X0140269Y0248148D01*
X0143534Y0247273D01*
X0146462Y0245583D01*
X0148852Y0243193D01*
X0150542Y0240266D01*
X0151417Y0237001D01*
X0151527Y0235311D01*
X0151527Y0226880D01*
X0151954Y0225851D01*
X0152741Y0225063D01*
X0153770Y0224637D01*
X0162201Y0224637D01*
X0162995Y0224575D01*
X0164505Y0224084D01*
X0164505Y0224084D01*
X0165789Y0223151D01*
X0166722Y0221867D01*
X0167213Y0220357D01*
X0167275Y0219563D01*
X0167275Y0209776D01*
X0165770Y0211282D01*
X0163455Y0212241D01*
X0160948Y0212241D01*
X0158633Y0211282D01*
X0156861Y0209510D01*
X0155901Y0207194D01*
X0155901Y0204688D01*
X0156861Y0202372D01*
X0158292Y0200941D01*
X0156861Y0199510D01*
X0155901Y0197194D01*
X0155901Y0194688D01*
X0156861Y0192372D01*
X0158292Y0190941D01*
X0156861Y0189510D01*
X0156856Y0189498D01*
X0151222Y0195132D01*
X0151222Y0204372D01*
X0150796Y0205401D01*
X0148827Y0207370D01*
X0148039Y0208157D01*
X0147010Y0208583D01*
X0143378Y0208583D01*
X0142803Y0209158D01*
X0141340Y0209765D01*
X0139756Y0209765D01*
X0138293Y0209158D01*
X0137718Y0208583D01*
X0129598Y0208583D01*
X0129023Y0209158D01*
X0127560Y0209765D01*
X0125976Y0209765D01*
X0124513Y0209158D01*
X0123393Y0208039D01*
X0122986Y0207055D01*
X0118023Y0212017D01*
X0118023Y0213479D01*
X0117407Y0214967D01*
X0116267Y0216107D01*
X0114779Y0216723D01*
X0113167Y0216723D01*
X0111679Y0216107D01*
X0110540Y0214967D01*
X0109923Y0213479D01*
X0109923Y0211868D01*
X0110540Y0210379D01*
X0111679Y0209240D01*
X0113167Y0208623D01*
X0114629Y0208623D01*
X0129167Y0194085D01*
X0128916Y0194085D01*
X0128153Y0193770D01*
X0120336Y0193770D01*
X0120907Y0195149D01*
X0120907Y0196733D01*
X0120301Y0198196D01*
X0119181Y0199316D01*
X0117718Y0199922D01*
X0116134Y0199922D01*
X0114671Y0199316D01*
X0114096Y0198741D01*
X0063219Y0198741D01*
X0062190Y0198315D01*
X0061403Y0197527D01*
X0056993Y0193118D01*
X0056567Y0192088D01*
X0056567Y0172009D01*
X0054238Y0172009D01*
X0053067Y0170838D01*
X0053067Y0166211D01*
X0052797Y0166211D01*
X0052797Y0166970D01*
X0052370Y0167999D01*
X0051583Y0168787D01*
X0049614Y0170756D01*
X0048585Y0171182D01*
X0042984Y0171182D01*
X0042409Y0171757D01*
X0040946Y0172363D01*
X0039362Y0172363D01*
X0037899Y0171757D01*
X0036779Y0170637D01*
X0036173Y0169174D01*
X0036173Y0168290D01*
X0035644Y0167760D01*
X0035080Y0167197D01*
X0035080Y0219563D01*
X0035080Y0218974D02*
X0038626Y0218974D01*
X0038724Y0219212D02*
X0037760Y0216885D01*
X0037760Y0214367D01*
X0038724Y0212040D01*
X0040505Y0210259D01*
X0042832Y0209295D01*
X0045350Y0209295D01*
X0047677Y0210259D01*
X0049458Y0212040D01*
X0050422Y0214367D01*
X0050422Y0216885D01*
X0049458Y0219212D01*
X0047677Y0220993D01*
X0045350Y0221957D01*
X0042832Y0221957D01*
X0040505Y0220993D01*
X0038724Y0219212D01*
X0032280Y0219563D02*
X0032282Y0219753D01*
X0032289Y0219943D01*
X0032301Y0220133D01*
X0032317Y0220323D01*
X0032337Y0220512D01*
X0032363Y0220701D01*
X0032392Y0220889D01*
X0032427Y0221076D01*
X0032466Y0221262D01*
X0032509Y0221447D01*
X0032557Y0221632D01*
X0032609Y0221815D01*
X0032665Y0221996D01*
X0032726Y0222176D01*
X0032792Y0222355D01*
X0032861Y0222532D01*
X0032935Y0222708D01*
X0033013Y0222881D01*
X0033096Y0223053D01*
X0033182Y0223222D01*
X0033272Y0223390D01*
X0033367Y0223555D01*
X0033465Y0223718D01*
X0033568Y0223878D01*
X0033674Y0224036D01*
X0033784Y0224191D01*
X0033897Y0224344D01*
X0034015Y0224494D01*
X0034136Y0224640D01*
X0034260Y0224784D01*
X0034388Y0224925D01*
X0034519Y0225063D01*
X0034654Y0225198D01*
X0034792Y0225329D01*
X0034933Y0225457D01*
X0035077Y0225581D01*
X0035223Y0225702D01*
X0035373Y0225820D01*
X0035526Y0225933D01*
X0035681Y0226043D01*
X0035839Y0226149D01*
X0035999Y0226252D01*
X0036162Y0226350D01*
X0036327Y0226445D01*
X0036495Y0226535D01*
X0036664Y0226621D01*
X0036836Y0226704D01*
X0037009Y0226782D01*
X0037185Y0226856D01*
X0037362Y0226925D01*
X0037541Y0226991D01*
X0037721Y0227052D01*
X0037902Y0227108D01*
X0038085Y0227160D01*
X0038270Y0227208D01*
X0038455Y0227251D01*
X0038641Y0227290D01*
X0038828Y0227325D01*
X0039016Y0227354D01*
X0039205Y0227380D01*
X0039394Y0227400D01*
X0039584Y0227416D01*
X0039774Y0227428D01*
X0039964Y0227435D01*
X0040154Y0227437D01*
X0111020Y0227437D01*
X0111020Y0235311D01*
X0113820Y0234959D02*
X0128291Y0234959D01*
X0128291Y0234960D02*
X0127327Y0232633D01*
X0127327Y0230115D01*
X0128291Y0227788D01*
X0130072Y0226007D01*
X0132399Y0225043D01*
X0134917Y0225043D01*
X0137244Y0226007D01*
X0139025Y0227788D01*
X0139989Y0230115D01*
X0139989Y0232633D01*
X0139025Y0234960D01*
X0137244Y0236741D01*
X0134917Y0237705D01*
X0132399Y0237705D01*
X0130072Y0236741D01*
X0128291Y0234960D01*
X0126768Y0251059D02*
X0126387Y0251054D01*
X0126007Y0251041D01*
X0125627Y0251018D01*
X0125248Y0250985D01*
X0124870Y0250944D01*
X0124493Y0250894D01*
X0124117Y0250834D01*
X0123742Y0250766D01*
X0123370Y0250688D01*
X0122999Y0250601D01*
X0122631Y0250506D01*
X0122265Y0250401D01*
X0121902Y0250288D01*
X0121541Y0250166D01*
X0121184Y0250036D01*
X0120830Y0249896D01*
X0120479Y0249749D01*
X0120132Y0249592D01*
X0119789Y0249428D01*
X0119450Y0249255D01*
X0119115Y0249074D01*
X0118784Y0248885D01*
X0118459Y0248688D01*
X0118138Y0248484D01*
X0117822Y0248271D01*
X0117512Y0248051D01*
X0117206Y0247824D01*
X0116907Y0247589D01*
X0116613Y0247347D01*
X0116325Y0247099D01*
X0116043Y0246843D01*
X0115768Y0246580D01*
X0115499Y0246311D01*
X0115236Y0246036D01*
X0114980Y0245754D01*
X0114732Y0245466D01*
X0114490Y0245172D01*
X0114255Y0244873D01*
X0114028Y0244567D01*
X0113808Y0244257D01*
X0113595Y0243941D01*
X0113391Y0243620D01*
X0113194Y0243295D01*
X0113005Y0242964D01*
X0112824Y0242629D01*
X0112651Y0242290D01*
X0112487Y0241947D01*
X0112330Y0241600D01*
X0112183Y0241249D01*
X0112043Y0240895D01*
X0111913Y0240538D01*
X0111791Y0240177D01*
X0111678Y0239814D01*
X0111573Y0239448D01*
X0111478Y0239080D01*
X0111391Y0238709D01*
X0111313Y0238337D01*
X0111245Y0237962D01*
X0111185Y0237586D01*
X0111135Y0237209D01*
X0111094Y0236831D01*
X0111061Y0236452D01*
X0111038Y0236072D01*
X0111025Y0235692D01*
X0111020Y0235311D01*
X0113902Y0236557D02*
X0129889Y0236557D01*
X0127629Y0233360D02*
X0113820Y0233360D01*
X0113820Y0231762D02*
X0127327Y0231762D01*
X0127327Y0230163D02*
X0113820Y0230163D01*
X0113820Y0228565D02*
X0127969Y0228565D01*
X0129113Y0226966D02*
X0113820Y0226966D01*
X0112911Y0225368D02*
X0131615Y0225368D01*
X0135701Y0225368D02*
X0152437Y0225368D01*
X0151527Y0226966D02*
X0138204Y0226966D01*
X0139347Y0228565D02*
X0151527Y0228565D01*
X0151527Y0230163D02*
X0139989Y0230163D01*
X0139989Y0231762D02*
X0151527Y0231762D01*
X0151527Y0233360D02*
X0139688Y0233360D01*
X0139025Y0234959D02*
X0151527Y0234959D01*
X0151446Y0236557D02*
X0137428Y0236557D01*
X0138579Y0251059D02*
X0138960Y0251054D01*
X0139340Y0251041D01*
X0139720Y0251018D01*
X0140099Y0250985D01*
X0140477Y0250944D01*
X0140854Y0250894D01*
X0141230Y0250834D01*
X0141605Y0250766D01*
X0141977Y0250688D01*
X0142348Y0250601D01*
X0142716Y0250506D01*
X0143082Y0250401D01*
X0143445Y0250288D01*
X0143806Y0250166D01*
X0144163Y0250036D01*
X0144517Y0249896D01*
X0144868Y0249749D01*
X0145215Y0249592D01*
X0145558Y0249428D01*
X0145897Y0249255D01*
X0146232Y0249074D01*
X0146563Y0248885D01*
X0146888Y0248688D01*
X0147209Y0248484D01*
X0147525Y0248271D01*
X0147835Y0248051D01*
X0148141Y0247824D01*
X0148440Y0247589D01*
X0148734Y0247347D01*
X0149022Y0247099D01*
X0149304Y0246843D01*
X0149579Y0246580D01*
X0149848Y0246311D01*
X0150111Y0246036D01*
X0150367Y0245754D01*
X0150615Y0245466D01*
X0150857Y0245172D01*
X0151092Y0244873D01*
X0151319Y0244567D01*
X0151539Y0244257D01*
X0151752Y0243941D01*
X0151956Y0243620D01*
X0152153Y0243295D01*
X0152342Y0242964D01*
X0152523Y0242629D01*
X0152696Y0242290D01*
X0152860Y0241947D01*
X0153017Y0241600D01*
X0153164Y0241249D01*
X0153304Y0240895D01*
X0153434Y0240538D01*
X0153556Y0240177D01*
X0153669Y0239814D01*
X0153774Y0239448D01*
X0153869Y0239080D01*
X0153956Y0238709D01*
X0154034Y0238337D01*
X0154102Y0237962D01*
X0154162Y0237586D01*
X0154212Y0237209D01*
X0154253Y0236831D01*
X0154286Y0236452D01*
X0154309Y0236072D01*
X0154322Y0235692D01*
X0154327Y0235311D01*
X0154327Y0227437D01*
X0162201Y0227437D01*
X0164938Y0223769D02*
X0096686Y0223769D01*
X0097285Y0222171D02*
X0166501Y0222171D01*
X0167143Y0220572D02*
X0097216Y0220572D01*
X0096376Y0218974D02*
X0167275Y0218974D01*
X0167275Y0217375D02*
X0050219Y0217375D01*
X0050422Y0215777D02*
X0094617Y0215777D01*
X0094947Y0216107D02*
X0093913Y0215073D01*
X0091842Y0215073D01*
X0090960Y0214708D01*
X0090285Y0214033D01*
X0085101Y0208849D01*
X0083640Y0208849D01*
X0082151Y0208233D01*
X0081012Y0207093D01*
X0080396Y0205605D01*
X0080396Y0203994D01*
X0081012Y0202505D01*
X0082151Y0201366D01*
X0083640Y0200749D01*
X0085251Y0200749D01*
X0086740Y0201366D01*
X0087879Y0202505D01*
X0088496Y0203994D01*
X0088496Y0205455D01*
X0093314Y0210273D01*
X0093913Y0210273D01*
X0094947Y0209240D01*
X0096435Y0208623D01*
X0098046Y0208623D01*
X0099535Y0209240D01*
X0100674Y0210379D01*
X0101291Y0211868D01*
X0101291Y0213479D01*
X0100674Y0214967D01*
X0099535Y0216107D01*
X0098046Y0216723D01*
X0096435Y0216723D01*
X0094947Y0216107D01*
X0090431Y0214178D02*
X0050344Y0214178D01*
X0049682Y0212580D02*
X0088832Y0212580D01*
X0087234Y0210981D02*
X0048399Y0210981D01*
X0045562Y0209383D02*
X0085635Y0209383D01*
X0081703Y0207784D02*
X0035080Y0207784D01*
X0035080Y0206186D02*
X0042777Y0206186D01*
X0042832Y0206209D02*
X0040505Y0205245D01*
X0038724Y0203464D01*
X0037760Y0201137D01*
X0037760Y0198619D01*
X0038724Y0196292D01*
X0040505Y0194511D01*
X0042832Y0193547D01*
X0045350Y0193547D01*
X0047677Y0194511D01*
X0049458Y0196292D01*
X0050422Y0198619D01*
X0050422Y0201137D01*
X0049458Y0203464D01*
X0047677Y0205245D01*
X0045350Y0206209D01*
X0042832Y0206209D01*
X0045406Y0206186D02*
X0080636Y0206186D01*
X0080396Y0204587D02*
X0048335Y0204587D01*
X0049655Y0202989D02*
X0080812Y0202989D01*
X0082127Y0201390D02*
X0050317Y0201390D01*
X0050422Y0199792D02*
X0115819Y0199792D01*
X0118032Y0199792D02*
X0123460Y0199792D01*
X0121862Y0201390D02*
X0086764Y0201390D01*
X0088079Y0202989D02*
X0120263Y0202989D01*
X0118665Y0204587D02*
X0088496Y0204587D01*
X0089226Y0206186D02*
X0117066Y0206186D01*
X0115468Y0207784D02*
X0090825Y0207784D01*
X0092423Y0209383D02*
X0094804Y0209383D01*
X0099678Y0209383D02*
X0111536Y0209383D01*
X0110290Y0210981D02*
X0100924Y0210981D01*
X0101291Y0212580D02*
X0109923Y0212580D01*
X0110213Y0214178D02*
X0101001Y0214178D01*
X0099865Y0215777D02*
X0111349Y0215777D01*
X0116597Y0215777D02*
X0167275Y0215777D01*
X0167275Y0214178D02*
X0117733Y0214178D01*
X0118023Y0212580D02*
X0167275Y0212580D01*
X0167275Y0210981D02*
X0166071Y0210981D01*
X0158332Y0210981D02*
X0119059Y0210981D01*
X0120658Y0209383D02*
X0125055Y0209383D01*
X0123288Y0207784D02*
X0122256Y0207784D01*
X0126768Y0205783D02*
X0140548Y0205783D01*
X0146453Y0205783D01*
X0148422Y0203815D01*
X0148422Y0193972D01*
X0156453Y0185941D01*
X0162201Y0185941D01*
X0157552Y0190201D02*
X0156153Y0190201D01*
X0157434Y0191799D02*
X0154555Y0191799D01*
X0152956Y0193398D02*
X0156436Y0193398D01*
X0155901Y0194996D02*
X0151358Y0194996D01*
X0151222Y0196595D02*
X0155901Y0196595D01*
X0156315Y0198193D02*
X0151222Y0198193D01*
X0151222Y0199792D02*
X0157143Y0199792D01*
X0157843Y0201390D02*
X0151222Y0201390D01*
X0151222Y0202989D02*
X0156605Y0202989D01*
X0155943Y0204587D02*
X0151133Y0204587D01*
X0150011Y0206186D02*
X0155901Y0206186D01*
X0156146Y0207784D02*
X0148412Y0207784D01*
X0145294Y0202983D02*
X0145622Y0202655D01*
X0145622Y0193415D01*
X0146016Y0192464D01*
X0140592Y0197888D01*
X0140592Y0198701D01*
X0139986Y0200165D01*
X0138866Y0201284D01*
X0137403Y0201891D01*
X0135819Y0201891D01*
X0134356Y0201284D01*
X0133236Y0200165D01*
X0132630Y0198701D01*
X0132630Y0198341D01*
X0131699Y0198341D01*
X0128040Y0202001D01*
X0129023Y0202408D01*
X0129598Y0202983D01*
X0137718Y0202983D01*
X0138293Y0202408D01*
X0139756Y0201802D01*
X0141340Y0201802D01*
X0142803Y0202408D01*
X0143378Y0202983D01*
X0145294Y0202983D01*
X0145622Y0201390D02*
X0138611Y0201390D01*
X0140140Y0199792D02*
X0145622Y0199792D01*
X0145622Y0198193D02*
X0140592Y0198193D01*
X0141885Y0196595D02*
X0145622Y0196595D01*
X0145622Y0194996D02*
X0143484Y0194996D01*
X0145082Y0193398D02*
X0145629Y0193398D01*
X0148859Y0189575D02*
X0154867Y0183567D01*
X0155896Y0183141D01*
X0156542Y0183141D01*
X0156861Y0182372D01*
X0158608Y0180624D01*
X0150126Y0180624D01*
X0150434Y0181370D01*
X0150434Y0182953D01*
X0149828Y0184417D01*
X0149253Y0184992D01*
X0149253Y0188624D01*
X0148859Y0189575D01*
X0149253Y0188602D02*
X0149832Y0188602D01*
X0149253Y0187004D02*
X0151431Y0187004D01*
X0153029Y0185405D02*
X0149253Y0185405D01*
X0150081Y0183807D02*
X0154628Y0183807D01*
X0157025Y0182208D02*
X0150434Y0182208D01*
X0146453Y0182161D02*
X0146453Y0188067D01*
X0136611Y0197909D01*
X0133081Y0199792D02*
X0130249Y0199792D01*
X0128650Y0201390D02*
X0134611Y0201390D01*
X0128256Y0194996D02*
X0120844Y0194996D01*
X0120907Y0196595D02*
X0126657Y0196595D01*
X0125059Y0198193D02*
X0120302Y0198193D01*
X0116926Y0195941D02*
X0063776Y0195941D01*
X0059367Y0191531D01*
X0059367Y0167909D01*
X0062167Y0172009D02*
X0062167Y0190372D01*
X0064936Y0193141D01*
X0081693Y0193141D01*
X0064187Y0175634D01*
X0063413Y0174861D01*
X0062995Y0173850D01*
X0062995Y0172009D01*
X0062167Y0172009D01*
X0062167Y0172617D02*
X0062995Y0172617D01*
X0063146Y0174216D02*
X0062167Y0174216D01*
X0062167Y0175814D02*
X0064367Y0175814D01*
X0065965Y0177413D02*
X0062167Y0177413D01*
X0062167Y0179011D02*
X0067564Y0179011D01*
X0069162Y0180610D02*
X0062167Y0180610D01*
X0062167Y0182208D02*
X0070761Y0182208D01*
X0072359Y0183807D02*
X0062167Y0183807D01*
X0062167Y0185405D02*
X0073958Y0185405D01*
X0075556Y0187004D02*
X0062167Y0187004D01*
X0062167Y0188602D02*
X0077155Y0188602D01*
X0078753Y0190201D02*
X0062167Y0190201D01*
X0063594Y0191799D02*
X0080352Y0191799D01*
X0087930Y0188270D02*
X0088496Y0186904D01*
X0088496Y0185443D01*
X0092872Y0181066D01*
X0092872Y0186576D01*
X0093238Y0187458D01*
X0093913Y0188133D01*
X0094243Y0188270D01*
X0087930Y0188270D01*
X0088454Y0187004D02*
X0093050Y0187004D01*
X0092872Y0185405D02*
X0088533Y0185405D01*
X0090131Y0183807D02*
X0092872Y0183807D01*
X0092872Y0182208D02*
X0091730Y0182208D01*
X0088139Y0179011D02*
X0075342Y0179011D01*
X0076940Y0180610D02*
X0086540Y0180610D01*
X0085101Y0182048D02*
X0103033Y0164117D01*
X0103033Y0162655D01*
X0103650Y0161166D01*
X0104789Y0160027D01*
X0106278Y0159411D01*
X0107889Y0159411D01*
X0109377Y0160027D01*
X0110517Y0161166D01*
X0111133Y0162655D01*
X0111133Y0164266D01*
X0110703Y0165305D01*
X0118781Y0157227D01*
X0118781Y0155765D01*
X0119398Y0154277D01*
X0119625Y0154050D01*
X0106893Y0154050D01*
X0107196Y0154781D01*
X0107196Y0156392D01*
X0106580Y0157881D01*
X0105440Y0159020D01*
X0103952Y0159637D01*
X0102490Y0159637D01*
X0092386Y0169741D01*
X0091711Y0170416D01*
X0090828Y0170782D01*
X0074978Y0170782D01*
X0073944Y0171815D01*
X0072456Y0172432D01*
X0070845Y0172432D01*
X0069356Y0171815D01*
X0068495Y0170954D01*
X0068495Y0172164D01*
X0080755Y0184425D01*
X0081012Y0183804D01*
X0082151Y0182665D01*
X0083640Y0182048D01*
X0085101Y0182048D01*
X0083254Y0182208D02*
X0078539Y0182208D01*
X0080137Y0183807D02*
X0081011Y0183807D01*
X0073743Y0177413D02*
X0089737Y0177413D01*
X0091336Y0175814D02*
X0072145Y0175814D01*
X0070546Y0174216D02*
X0092934Y0174216D01*
X0094533Y0172617D02*
X0068948Y0172617D01*
X0068559Y0171019D02*
X0068495Y0171019D01*
X0068495Y0165810D02*
X0069356Y0164948D01*
X0070845Y0164332D01*
X0072456Y0164332D01*
X0073944Y0164948D01*
X0074978Y0165982D01*
X0080357Y0165982D01*
X0080183Y0165910D01*
X0079044Y0164771D01*
X0078427Y0163282D01*
X0078427Y0161820D01*
X0077546Y0160939D01*
X0068220Y0160939D01*
X0067338Y0160574D01*
X0061365Y0154601D01*
X0061246Y0154889D01*
X0060126Y0156009D01*
X0058663Y0156615D01*
X0057079Y0156615D01*
X0055616Y0156009D01*
X0054496Y0154889D01*
X0054229Y0154246D01*
X0049649Y0154246D01*
X0048477Y0153074D01*
X0048477Y0144319D01*
X0049649Y0143148D01*
X0056801Y0143148D01*
X0055527Y0141873D01*
X0054852Y0141198D01*
X0054486Y0140316D01*
X0054486Y0134440D01*
X0054852Y0133558D01*
X0055527Y0132883D01*
X0056139Y0132629D01*
X0055789Y0131786D01*
X0055789Y0130175D01*
X0056406Y0128686D01*
X0057545Y0127547D01*
X0059034Y0126930D01*
X0060645Y0126930D01*
X0062133Y0127547D01*
X0063167Y0128580D01*
X0106210Y0128580D01*
X0105771Y0128141D01*
X0104309Y0128141D01*
X0102821Y0127524D01*
X0101681Y0126385D01*
X0101065Y0124896D01*
X0101065Y0123285D01*
X0101681Y0121796D01*
X0102821Y0120657D01*
X0103441Y0120400D01*
X0098070Y0115030D01*
X0089592Y0115030D01*
X0085835Y0118787D01*
X0085047Y0119575D01*
X0084018Y0120001D01*
X0080540Y0120001D01*
X0080540Y0121966D01*
X0079368Y0123138D01*
X0071806Y0123138D01*
X0070635Y0121966D01*
X0070635Y0120935D01*
X0070119Y0120935D01*
X0069108Y0120516D01*
X0068335Y0119743D01*
X0067916Y0118732D01*
X0067916Y0113419D01*
X0053160Y0098662D01*
X0052521Y0100203D01*
X0051030Y0101694D01*
X0050405Y0101953D01*
X0052320Y0101953D01*
X0054249Y0102752D01*
X0055725Y0104228D01*
X0056524Y0106157D01*
X0056524Y0108245D01*
X0055725Y0110174D01*
X0054249Y0111650D01*
X0052919Y0112201D01*
X0054249Y0112752D01*
X0055725Y0114228D01*
X0056524Y0116157D01*
X0056524Y0118245D01*
X0055725Y0120174D01*
X0054249Y0121650D01*
X0052919Y0122201D01*
X0054249Y0122752D01*
X0055725Y0124228D01*
X0056524Y0126157D01*
X0056524Y0128245D01*
X0055725Y0130174D01*
X0054249Y0131650D01*
X0052320Y0132449D01*
X0050405Y0132449D01*
X0051030Y0132708D01*
X0052521Y0134199D01*
X0053328Y0136147D01*
X0053328Y0138255D01*
X0052521Y0140203D01*
X0051030Y0141694D01*
X0049082Y0142501D01*
X0046974Y0142501D01*
X0045026Y0141694D01*
X0043535Y0140203D01*
X0042728Y0138255D01*
X0042728Y0136147D01*
X0043535Y0134199D01*
X0045026Y0132708D01*
X0045651Y0132449D01*
X0043736Y0132449D01*
X0041807Y0131650D01*
X0040331Y0130174D01*
X0039951Y0129257D01*
X0039951Y0143148D01*
X0046408Y0143148D01*
X0047579Y0144319D01*
X0047579Y0153074D01*
X0046408Y0154246D01*
X0045120Y0154246D01*
X0045120Y0155358D01*
X0045707Y0155358D01*
X0046060Y0155711D01*
X0046412Y0155358D01*
X0053187Y0155358D01*
X0054359Y0156530D01*
X0054359Y0160711D01*
X0066292Y0160711D01*
X0067302Y0161129D01*
X0068076Y0161903D01*
X0068495Y0162914D01*
X0068495Y0165810D01*
X0068495Y0164624D02*
X0070138Y0164624D01*
X0068495Y0163026D02*
X0078427Y0163026D01*
X0078034Y0161427D02*
X0067601Y0161427D01*
X0066593Y0159829D02*
X0054359Y0159829D01*
X0054359Y0158230D02*
X0064994Y0158230D01*
X0063396Y0156632D02*
X0054359Y0156632D01*
X0054640Y0155033D02*
X0045120Y0155033D01*
X0047219Y0153435D02*
X0048837Y0153435D01*
X0048477Y0151836D02*
X0047579Y0151836D01*
X0047579Y0150238D02*
X0048477Y0150238D01*
X0048477Y0148639D02*
X0047579Y0148639D01*
X0047579Y0147041D02*
X0048477Y0147041D01*
X0048477Y0145442D02*
X0047579Y0145442D01*
X0047104Y0143844D02*
X0048952Y0143844D01*
X0049699Y0142245D02*
X0055899Y0142245D01*
X0054624Y0140647D02*
X0052077Y0140647D01*
X0053000Y0139048D02*
X0054486Y0139048D01*
X0054486Y0137450D02*
X0053328Y0137450D01*
X0053206Y0135851D02*
X0054486Y0135851D01*
X0054564Y0134253D02*
X0052544Y0134253D01*
X0050901Y0132654D02*
X0056079Y0132654D01*
X0055789Y0131056D02*
X0054843Y0131056D01*
X0056022Y0129457D02*
X0056086Y0129457D01*
X0056524Y0127859D02*
X0057233Y0127859D01*
X0056524Y0126260D02*
X0101630Y0126260D01*
X0101065Y0124662D02*
X0055905Y0124662D01*
X0054560Y0123063D02*
X0071731Y0123063D01*
X0070635Y0121465D02*
X0054434Y0121465D01*
X0055853Y0119866D02*
X0068458Y0119866D01*
X0067916Y0118268D02*
X0056515Y0118268D01*
X0056524Y0116669D02*
X0067916Y0116669D01*
X0067916Y0115071D02*
X0056074Y0115071D01*
X0054969Y0113472D02*
X0067916Y0113472D01*
X0066371Y0111874D02*
X0053709Y0111874D01*
X0055624Y0110275D02*
X0064773Y0110275D01*
X0063174Y0108677D02*
X0056345Y0108677D01*
X0056524Y0107078D02*
X0061575Y0107078D01*
X0059977Y0105480D02*
X0056244Y0105480D01*
X0055378Y0103881D02*
X0058378Y0103881D01*
X0056780Y0102283D02*
X0053116Y0102283D01*
X0052040Y0100684D02*
X0055181Y0100684D01*
X0053583Y0099086D02*
X0052984Y0099086D01*
X0056566Y0094290D02*
X0060619Y0094290D01*
X0060619Y0095888D02*
X0058164Y0095888D01*
X0059763Y0097487D02*
X0060619Y0097487D01*
X0060619Y0097715D02*
X0060619Y0086536D01*
X0054795Y0086536D01*
X0054220Y0087111D01*
X0052757Y0087717D01*
X0051173Y0087717D01*
X0049710Y0087111D01*
X0048590Y0085991D01*
X0047984Y0084528D01*
X0047984Y0082944D01*
X0048590Y0081481D01*
X0049710Y0080361D01*
X0051173Y0079755D01*
X0052757Y0079755D01*
X0054220Y0080361D01*
X0054795Y0080936D01*
X0055702Y0080936D01*
X0053624Y0078858D01*
X0053624Y0077202D01*
X0055997Y0074828D01*
X0055544Y0074376D01*
X0055030Y0073134D01*
X0055030Y0071790D01*
X0055544Y0070549D01*
X0056426Y0069666D01*
X0056192Y0069433D01*
X0055310Y0070315D01*
X0054069Y0070829D01*
X0052725Y0070829D01*
X0051483Y0070315D01*
X0050533Y0069365D01*
X0050019Y0068123D01*
X0050019Y0066779D01*
X0050533Y0065538D01*
X0051483Y0064587D01*
X0051921Y0064406D01*
X0051921Y0063259D01*
X0052527Y0061796D01*
X0053647Y0060676D01*
X0055110Y0060070D01*
X0056694Y0060070D01*
X0058157Y0060676D01*
X0059277Y0061796D01*
X0059658Y0062716D01*
X0064621Y0067678D01*
X0064804Y0067678D01*
X0078781Y0081656D01*
X0078781Y0083313D01*
X0074826Y0087268D01*
X0073214Y0087268D01*
X0073214Y0088880D01*
X0072484Y0089610D01*
X0079368Y0089610D01*
X0080327Y0090569D01*
X0080753Y0090569D01*
X0080753Y0086506D01*
X0081239Y0086020D01*
X0081239Y0080484D01*
X0080339Y0079584D01*
X0080339Y0072140D01*
X0081511Y0070969D01*
X0086967Y0070969D01*
X0086967Y0068820D01*
X0086841Y0068820D01*
X0086653Y0068742D01*
X0085220Y0068537D01*
X0081846Y0067281D01*
X0078817Y0065335D01*
X0077938Y0064456D01*
X0077186Y0063704D01*
X0077151Y0063669D01*
X0077151Y0063669D01*
X0062343Y0048861D01*
X0061298Y0048853D01*
X0061081Y0048922D01*
X0070151Y0057993D01*
X0070151Y0059650D01*
X0064526Y0065275D01*
X0062869Y0065275D01*
X0053863Y0056270D01*
X0042216Y0067918D01*
X0051221Y0076923D01*
X0051221Y0078580D01*
X0045595Y0084206D01*
X0043938Y0084206D01*
X0035080Y0075348D01*
X0035080Y0089842D01*
X0035644Y0089279D01*
X0036654Y0088860D01*
X0050544Y0088860D01*
X0051554Y0089279D01*
X0070704Y0108429D01*
X0071806Y0107327D01*
X0071987Y0107327D01*
X0071987Y0105421D01*
X0071806Y0105421D01*
X0070638Y0104253D01*
X0067156Y0104253D01*
X0066127Y0103826D01*
X0065340Y0103039D01*
X0061045Y0098744D01*
X0060619Y0097715D01*
X0061361Y0099086D02*
X0061386Y0099086D01*
X0062960Y0100684D02*
X0062985Y0100684D01*
X0064558Y0102283D02*
X0064583Y0102283D01*
X0066157Y0103881D02*
X0066259Y0103881D01*
X0067755Y0105480D02*
X0071987Y0105480D01*
X0071987Y0107078D02*
X0069354Y0107078D01*
X0067713Y0101453D02*
X0074997Y0101453D01*
X0075587Y0100862D01*
X0070635Y0098653D02*
X0070635Y0097475D01*
X0070635Y0091459D01*
X0069258Y0092836D01*
X0067601Y0092836D01*
X0066219Y0091453D01*
X0066219Y0095998D01*
X0068873Y0098653D01*
X0070635Y0098653D01*
X0070635Y0097487D02*
X0067707Y0097487D01*
X0066219Y0095888D02*
X0070635Y0095888D01*
X0070635Y0094290D02*
X0066219Y0094290D01*
X0066219Y0092691D02*
X0067457Y0092691D01*
X0069402Y0092691D02*
X0070635Y0092691D01*
X0072599Y0089494D02*
X0080753Y0089494D01*
X0080753Y0087896D02*
X0073214Y0087896D01*
X0075797Y0086297D02*
X0080961Y0086297D01*
X0081239Y0084699D02*
X0077395Y0084699D01*
X0078781Y0083100D02*
X0081239Y0083100D01*
X0081239Y0081502D02*
X0078628Y0081502D01*
X0077029Y0079903D02*
X0080658Y0079903D01*
X0080339Y0078305D02*
X0075430Y0078305D01*
X0073832Y0076706D02*
X0080339Y0076706D01*
X0080339Y0075108D02*
X0072233Y0075108D01*
X0070635Y0073509D02*
X0080339Y0073509D01*
X0080568Y0071911D02*
X0069036Y0071911D01*
X0067438Y0070312D02*
X0086967Y0070312D01*
X0086458Y0068714D02*
X0065839Y0068714D01*
X0064057Y0067115D02*
X0081589Y0067115D01*
X0081846Y0067281D02*
X0081846Y0067281D01*
X0079100Y0065517D02*
X0062459Y0065517D01*
X0061512Y0063918D02*
X0060860Y0063918D01*
X0059913Y0062320D02*
X0059494Y0062320D01*
X0058315Y0060721D02*
X0058202Y0060721D01*
X0056716Y0059123D02*
X0051011Y0059123D01*
X0049412Y0060721D02*
X0053602Y0060721D01*
X0052310Y0062320D02*
X0047814Y0062320D01*
X0046215Y0063918D02*
X0051921Y0063918D01*
X0050554Y0065517D02*
X0044617Y0065517D01*
X0043018Y0067115D02*
X0050019Y0067115D01*
X0050263Y0068714D02*
X0043012Y0068714D01*
X0044610Y0070312D02*
X0051481Y0070312D01*
X0055313Y0070312D02*
X0055780Y0070312D01*
X0055030Y0071911D02*
X0046209Y0071911D01*
X0047807Y0073509D02*
X0055185Y0073509D01*
X0055718Y0075108D02*
X0049406Y0075108D01*
X0051004Y0076706D02*
X0054119Y0076706D01*
X0053624Y0078305D02*
X0051221Y0078305D01*
X0050815Y0079903D02*
X0049897Y0079903D01*
X0048582Y0081502D02*
X0048299Y0081502D01*
X0047984Y0083100D02*
X0046700Y0083100D01*
X0048055Y0084699D02*
X0035080Y0084699D01*
X0035080Y0086297D02*
X0048896Y0086297D01*
X0051965Y0083736D02*
X0062723Y0083736D01*
X0063419Y0083041D01*
X0063419Y0097158D01*
X0067713Y0101453D01*
X0060619Y0092691D02*
X0054967Y0092691D01*
X0053369Y0091093D02*
X0060619Y0091093D01*
X0060619Y0089494D02*
X0051770Y0089494D01*
X0043468Y0094360D02*
X0039951Y0094360D01*
X0039951Y0105145D01*
X0040331Y0104228D01*
X0041807Y0102752D01*
X0043736Y0101953D01*
X0045651Y0101953D01*
X0045026Y0101694D01*
X0043535Y0100203D01*
X0042728Y0098255D01*
X0042728Y0096147D01*
X0043468Y0094360D01*
X0042835Y0095888D02*
X0039951Y0095888D01*
X0039951Y0097487D02*
X0042728Y0097487D01*
X0043072Y0099086D02*
X0039951Y0099086D01*
X0039951Y0100684D02*
X0044016Y0100684D01*
X0042940Y0102283D02*
X0039951Y0102283D01*
X0039951Y0103881D02*
X0040678Y0103881D01*
X0039951Y0109257D02*
X0039951Y0115145D01*
X0040331Y0114228D01*
X0041807Y0112752D01*
X0043137Y0112201D01*
X0041807Y0111650D01*
X0040331Y0110174D01*
X0039951Y0109257D01*
X0039951Y0110275D02*
X0040433Y0110275D01*
X0039951Y0111874D02*
X0042348Y0111874D01*
X0041087Y0113472D02*
X0039951Y0113472D01*
X0039951Y0115071D02*
X0039982Y0115071D01*
X0039951Y0119257D02*
X0039951Y0125145D01*
X0040331Y0124228D01*
X0041807Y0122752D01*
X0043137Y0122201D01*
X0041807Y0121650D01*
X0040331Y0120174D01*
X0039951Y0119257D01*
X0039951Y0119866D02*
X0040204Y0119866D01*
X0039951Y0121465D02*
X0041622Y0121465D01*
X0041496Y0123063D02*
X0039951Y0123063D01*
X0039951Y0124662D02*
X0040151Y0124662D01*
X0040034Y0129457D02*
X0039951Y0129457D01*
X0039951Y0131056D02*
X0041213Y0131056D01*
X0039951Y0132654D02*
X0045155Y0132654D01*
X0043513Y0134253D02*
X0039951Y0134253D01*
X0039951Y0135851D02*
X0042851Y0135851D01*
X0042728Y0137450D02*
X0039951Y0137450D01*
X0039951Y0139048D02*
X0043057Y0139048D01*
X0043979Y0140647D02*
X0039951Y0140647D01*
X0039951Y0142245D02*
X0046357Y0142245D01*
X0042430Y0148697D02*
X0042320Y0148807D01*
X0042320Y0160508D01*
X0046060Y0165305D02*
X0046337Y0165582D01*
X0045783Y0165582D01*
X0046060Y0165305D01*
X0048028Y0168382D02*
X0040154Y0168382D01*
X0037161Y0171019D02*
X0035080Y0171019D01*
X0035080Y0172617D02*
X0056567Y0172617D01*
X0056567Y0174216D02*
X0035080Y0174216D01*
X0035080Y0175814D02*
X0056567Y0175814D01*
X0056567Y0177413D02*
X0035080Y0177413D01*
X0035080Y0179011D02*
X0040257Y0179011D01*
X0040505Y0178763D02*
X0042832Y0177799D01*
X0045350Y0177799D01*
X0047677Y0178763D01*
X0049458Y0180544D01*
X0050422Y0182871D01*
X0050422Y0185389D01*
X0049458Y0187716D01*
X0047677Y0189497D01*
X0045350Y0190461D01*
X0042832Y0190461D01*
X0040505Y0189497D01*
X0038724Y0187716D01*
X0037760Y0185389D01*
X0037760Y0182871D01*
X0038724Y0180544D01*
X0040505Y0178763D01*
X0038697Y0180610D02*
X0035080Y0180610D01*
X0035080Y0182208D02*
X0038035Y0182208D01*
X0037760Y0183807D02*
X0035080Y0183807D01*
X0035080Y0185405D02*
X0037767Y0185405D01*
X0038429Y0187004D02*
X0035080Y0187004D01*
X0035080Y0188602D02*
X0039610Y0188602D01*
X0042204Y0190201D02*
X0035080Y0190201D01*
X0035080Y0191799D02*
X0056567Y0191799D01*
X0056567Y0190201D02*
X0045978Y0190201D01*
X0048572Y0188602D02*
X0056567Y0188602D01*
X0056567Y0187004D02*
X0049753Y0187004D01*
X0050415Y0185405D02*
X0056567Y0185405D01*
X0056567Y0183807D02*
X0050422Y0183807D01*
X0050147Y0182208D02*
X0056567Y0182208D01*
X0056567Y0180610D02*
X0049485Y0180610D01*
X0047925Y0179011D02*
X0056567Y0179011D01*
X0053247Y0171019D02*
X0048980Y0171019D01*
X0050950Y0169420D02*
X0053067Y0169420D01*
X0053067Y0167822D02*
X0052444Y0167822D01*
X0052797Y0166223D02*
X0053067Y0166223D01*
X0049997Y0166413D02*
X0049997Y0163461D01*
X0049997Y0160705D01*
X0049800Y0160508D01*
X0049997Y0166413D02*
X0048028Y0168382D01*
X0036275Y0169420D02*
X0035080Y0169420D01*
X0035080Y0167822D02*
X0035705Y0167822D01*
X0053627Y0148697D02*
X0057564Y0152634D01*
X0057871Y0152634D01*
X0059408Y0148961D02*
X0059408Y0145191D01*
X0059362Y0145191D01*
X0058776Y0144949D01*
X0058776Y0148700D01*
X0059408Y0148961D01*
X0059408Y0148639D02*
X0058776Y0148639D01*
X0058776Y0147041D02*
X0059408Y0147041D01*
X0059408Y0145442D02*
X0058776Y0145442D01*
X0064208Y0145872D02*
X0064208Y0147584D01*
X0065064Y0146728D01*
X0064208Y0145872D01*
X0064208Y0147041D02*
X0064751Y0147041D01*
X0061797Y0155033D02*
X0061101Y0155033D01*
X0073162Y0164624D02*
X0078983Y0164624D01*
X0084597Y0165982D02*
X0089357Y0165982D01*
X0095917Y0159422D01*
X0094947Y0159020D01*
X0094263Y0158337D01*
X0081731Y0158337D01*
X0081821Y0158426D01*
X0083283Y0158426D01*
X0084771Y0159043D01*
X0085910Y0160182D01*
X0086527Y0161671D01*
X0086527Y0163282D01*
X0085910Y0164771D01*
X0084771Y0165910D01*
X0084597Y0165982D01*
X0085971Y0164624D02*
X0090714Y0164624D01*
X0092313Y0163026D02*
X0086527Y0163026D01*
X0086426Y0161427D02*
X0093911Y0161427D01*
X0095510Y0159829D02*
X0085557Y0159829D01*
X0094306Y0167822D02*
X0099328Y0167822D01*
X0097730Y0169420D02*
X0092707Y0169420D01*
X0096131Y0171019D02*
X0074741Y0171019D01*
X0095904Y0166223D02*
X0100927Y0166223D01*
X0102525Y0164624D02*
X0097503Y0164624D01*
X0099101Y0163026D02*
X0103033Y0163026D01*
X0103542Y0161427D02*
X0100700Y0161427D01*
X0102298Y0159829D02*
X0105268Y0159829D01*
X0106230Y0158230D02*
X0117778Y0158230D01*
X0118781Y0156632D02*
X0107097Y0156632D01*
X0107196Y0155033D02*
X0119084Y0155033D01*
X0116179Y0159829D02*
X0108899Y0159829D01*
X0110625Y0161427D02*
X0114581Y0161427D01*
X0112982Y0163026D02*
X0111133Y0163026D01*
X0110985Y0164624D02*
X0111384Y0164624D01*
X0108928Y0167080D02*
X0104121Y0171887D01*
X0102051Y0171887D01*
X0106427Y0167511D01*
X0107889Y0167511D01*
X0108928Y0167080D01*
X0108187Y0167822D02*
X0106117Y0167822D01*
X0106588Y0169420D02*
X0104518Y0169420D01*
X0104990Y0171019D02*
X0102920Y0171019D01*
X0107658Y0175138D02*
X0107945Y0175424D01*
X0115766Y0175424D01*
X0120458Y0170733D01*
X0121245Y0169945D01*
X0122274Y0169519D01*
X0125907Y0169519D01*
X0126482Y0168944D01*
X0127945Y0168338D01*
X0129529Y0168338D01*
X0130992Y0168944D01*
X0132112Y0170064D01*
X0132718Y0171527D01*
X0132718Y0173111D01*
X0132112Y0174574D01*
X0130992Y0175694D01*
X0130677Y0175824D01*
X0154517Y0175824D01*
X0154214Y0175093D01*
X0154214Y0173632D01*
X0142188Y0161605D01*
X0140727Y0161605D01*
X0139989Y0161300D01*
X0139989Y0161767D01*
X0139025Y0164094D01*
X0137244Y0165875D01*
X0134917Y0166839D01*
X0132399Y0166839D01*
X0130072Y0165875D01*
X0128291Y0164094D01*
X0127327Y0161767D01*
X0127327Y0159249D01*
X0127442Y0158971D01*
X0127275Y0158971D01*
X0126393Y0158605D01*
X0126378Y0158591D01*
X0126265Y0158865D01*
X0125125Y0160004D01*
X0123637Y0160621D01*
X0122175Y0160621D01*
X0107658Y0175138D01*
X0108581Y0174216D02*
X0116975Y0174216D01*
X0118573Y0172617D02*
X0110179Y0172617D01*
X0111778Y0171019D02*
X0120172Y0171019D01*
X0122831Y0172319D02*
X0128737Y0172319D01*
X0125907Y0175119D02*
X0123991Y0175119D01*
X0123286Y0175824D01*
X0126797Y0175824D01*
X0126482Y0175694D01*
X0125907Y0175119D01*
X0126772Y0175814D02*
X0123296Y0175814D01*
X0121857Y0180624D02*
X0118960Y0183521D01*
X0118783Y0183698D01*
X0132167Y0183698D01*
X0133049Y0184064D01*
X0135018Y0186032D01*
X0135693Y0186707D01*
X0136058Y0187590D01*
X0136058Y0193928D01*
X0136632Y0193928D01*
X0143653Y0186907D01*
X0143653Y0184992D01*
X0143078Y0184417D01*
X0142472Y0182953D01*
X0142472Y0181370D01*
X0142781Y0180624D01*
X0121857Y0180624D01*
X0120273Y0182208D02*
X0142472Y0182208D01*
X0142826Y0183807D02*
X0132428Y0183807D01*
X0134390Y0185405D02*
X0143653Y0185405D01*
X0143557Y0187004D02*
X0135815Y0187004D01*
X0136058Y0188602D02*
X0141958Y0188602D01*
X0140360Y0190201D02*
X0136058Y0190201D01*
X0136058Y0191799D02*
X0138761Y0191799D01*
X0137163Y0193398D02*
X0136058Y0193398D01*
X0130702Y0175814D02*
X0154513Y0175814D01*
X0154214Y0174216D02*
X0132260Y0174216D01*
X0132718Y0172617D02*
X0153200Y0172617D01*
X0151601Y0171019D02*
X0132507Y0171019D01*
X0131468Y0169420D02*
X0150003Y0169420D01*
X0148404Y0167822D02*
X0114975Y0167822D01*
X0113376Y0169420D02*
X0126006Y0169420D01*
X0122831Y0172319D02*
X0116926Y0178224D01*
X0105115Y0178224D01*
X0099865Y0183259D02*
X0098404Y0183259D01*
X0097672Y0182956D01*
X0097672Y0183698D01*
X0100305Y0183698D01*
X0099865Y0183259D01*
X0116573Y0166223D02*
X0130913Y0166223D01*
X0128822Y0164624D02*
X0118172Y0164624D01*
X0119770Y0163026D02*
X0127849Y0163026D01*
X0127327Y0161427D02*
X0121369Y0161427D01*
X0125301Y0159829D02*
X0127327Y0159829D01*
X0125190Y0150614D02*
X0125303Y0150340D01*
X0125531Y0150113D01*
X0124688Y0150113D01*
X0125190Y0150614D01*
X0125405Y0150238D02*
X0124814Y0150238D01*
X0117251Y0142288D02*
X0115763Y0142904D01*
X0114152Y0142904D01*
X0112663Y0142288D01*
X0111630Y0141254D01*
X0079992Y0141254D01*
X0080245Y0141865D01*
X0080245Y0143718D01*
X0079584Y0145313D01*
X0137288Y0145313D01*
X0136383Y0144407D01*
X0136383Y0137317D01*
X0118704Y0137317D01*
X0119007Y0138049D01*
X0119007Y0139660D01*
X0118391Y0141148D01*
X0117251Y0142288D01*
X0117294Y0142245D02*
X0136383Y0142245D01*
X0136383Y0140647D02*
X0118599Y0140647D01*
X0119007Y0139048D02*
X0136383Y0139048D01*
X0136383Y0137450D02*
X0118759Y0137450D01*
X0112999Y0132517D02*
X0109925Y0129443D01*
X0125409Y0129443D01*
X0126443Y0130477D01*
X0127931Y0131093D01*
X0129542Y0131093D01*
X0130050Y0130883D01*
X0130225Y0131306D01*
X0131364Y0132445D01*
X0131538Y0132517D01*
X0112999Y0132517D01*
X0111537Y0131056D02*
X0127841Y0131056D01*
X0129633Y0131056D02*
X0130121Y0131056D01*
X0135778Y0132517D02*
X0136383Y0132517D01*
X0136383Y0132015D01*
X0135952Y0132445D01*
X0135778Y0132517D01*
X0140548Y0132949D02*
X0140548Y0129012D01*
X0141808Y0124256D02*
X0143542Y0124256D01*
X0144485Y0125199D01*
X0145428Y0124256D01*
X0151416Y0124256D01*
X0152587Y0125427D01*
X0152587Y0126212D01*
X0155871Y0126212D01*
X0155871Y0125034D01*
X0157042Y0123862D01*
X0163817Y0123862D01*
X0164170Y0124215D01*
X0164523Y0123862D01*
X0171298Y0123862D01*
X0172469Y0125034D01*
X0172469Y0126612D01*
X0173018Y0126612D01*
X0176852Y0122778D01*
X0176852Y0121316D01*
X0177155Y0120585D01*
X0145479Y0120585D01*
X0141808Y0124256D01*
X0143001Y0123063D02*
X0176567Y0123063D01*
X0176852Y0121465D02*
X0144599Y0121465D01*
X0145022Y0124662D02*
X0143947Y0124662D01*
X0148422Y0129012D02*
X0160430Y0129012D01*
X0160430Y0131177D01*
X0164170Y0134917D01*
X0166138Y0134917D01*
X0168107Y0136886D01*
X0168107Y0140823D01*
X0168107Y0142791D01*
X0164847Y0145313D02*
X0164170Y0144635D01*
X0163493Y0145313D01*
X0164847Y0145313D01*
X0162201Y0140823D02*
X0160233Y0140823D01*
X0156068Y0140647D02*
X0152587Y0140647D01*
X0152587Y0142245D02*
X0155416Y0142245D01*
X0156068Y0141594D02*
X0156068Y0137238D01*
X0157239Y0136067D01*
X0161360Y0136067D01*
X0159454Y0134161D01*
X0157042Y0134161D01*
X0155871Y0132990D01*
X0155871Y0131812D01*
X0152587Y0131812D01*
X0152587Y0132596D01*
X0151416Y0133768D01*
X0151222Y0133768D01*
X0151222Y0136067D01*
X0151416Y0136067D01*
X0152587Y0137238D01*
X0152587Y0143344D01*
X0154318Y0143344D01*
X0156068Y0141594D01*
X0156068Y0139048D02*
X0152587Y0139048D01*
X0152587Y0137450D02*
X0156068Y0137450D01*
X0159546Y0134253D02*
X0151222Y0134253D01*
X0151222Y0135851D02*
X0161144Y0135851D01*
X0155871Y0132654D02*
X0152529Y0132654D01*
X0148422Y0129012D02*
X0148422Y0140823D01*
X0144485Y0137010D02*
X0145428Y0136067D01*
X0145622Y0136067D01*
X0145622Y0133768D01*
X0145428Y0133768D01*
X0144529Y0132869D01*
X0144529Y0133741D01*
X0143923Y0135204D01*
X0143060Y0136067D01*
X0143542Y0136067D01*
X0144485Y0137010D01*
X0145622Y0135851D02*
X0143276Y0135851D01*
X0144317Y0134253D02*
X0145622Y0134253D01*
X0151821Y0124662D02*
X0156243Y0124662D01*
X0169342Y0134161D02*
X0169365Y0134161D01*
X0169359Y0134178D01*
X0169342Y0134161D01*
X0172469Y0131852D02*
X0173834Y0131852D01*
X0175322Y0132468D01*
X0176462Y0133607D01*
X0177078Y0135096D01*
X0177078Y0136707D01*
X0176462Y0138196D01*
X0175428Y0139229D01*
X0175428Y0144871D01*
X0189648Y0130652D01*
X0189648Y0129190D01*
X0190264Y0127702D01*
X0191403Y0126563D01*
X0192892Y0125946D01*
X0194503Y0125946D01*
X0195992Y0126563D01*
X0197131Y0127702D01*
X0197747Y0129190D01*
X0197747Y0130802D01*
X0197131Y0132290D01*
X0195992Y0133429D01*
X0194503Y0134046D01*
X0193042Y0134046D01*
X0179807Y0147281D01*
X0186301Y0147281D01*
X0187183Y0147646D01*
X0187858Y0148322D01*
X0195010Y0155474D01*
X0196472Y0155474D01*
X0197960Y0156090D01*
X0199099Y0157229D01*
X0199716Y0158718D01*
X0199716Y0160180D01*
X0202566Y0163029D01*
X0210779Y0163029D01*
X0210779Y0153883D01*
X0211950Y0152712D01*
X0212079Y0152712D01*
X0212079Y0115374D01*
X0211740Y0115713D01*
X0210251Y0116330D01*
X0209559Y0116330D01*
X0209559Y0117022D01*
X0208942Y0118511D01*
X0207803Y0119650D01*
X0206314Y0120267D01*
X0204703Y0120267D01*
X0203214Y0119650D01*
X0202075Y0118511D01*
X0201856Y0117982D01*
X0189308Y0117982D01*
X0189873Y0119348D01*
X0189873Y0120959D01*
X0189257Y0122448D01*
X0188118Y0123587D01*
X0186629Y0124204D01*
X0185018Y0124204D01*
X0184511Y0123993D01*
X0184336Y0124416D01*
X0183196Y0125555D01*
X0181708Y0126172D01*
X0180246Y0126172D01*
X0176047Y0130371D01*
X0175372Y0131046D01*
X0174490Y0131412D01*
X0172469Y0131412D01*
X0172469Y0131852D01*
X0175349Y0131056D02*
X0189244Y0131056D01*
X0189648Y0129457D02*
X0176961Y0129457D01*
X0178560Y0127859D02*
X0190199Y0127859D01*
X0192133Y0126260D02*
X0180158Y0126260D01*
X0184090Y0124662D02*
X0212079Y0124662D01*
X0212079Y0126260D02*
X0195262Y0126260D01*
X0197196Y0127859D02*
X0212079Y0127859D01*
X0212079Y0129457D02*
X0197747Y0129457D01*
X0197642Y0131056D02*
X0212079Y0131056D01*
X0212079Y0132654D02*
X0196767Y0132654D01*
X0192835Y0134253D02*
X0212079Y0134253D01*
X0212079Y0135851D02*
X0191236Y0135851D01*
X0189638Y0137450D02*
X0212079Y0137450D01*
X0212079Y0139048D02*
X0188039Y0139048D01*
X0186441Y0140647D02*
X0212079Y0140647D01*
X0212079Y0142245D02*
X0184842Y0142245D01*
X0183244Y0143844D02*
X0212079Y0143844D01*
X0212079Y0145442D02*
X0181645Y0145442D01*
X0180047Y0147041D02*
X0212079Y0147041D01*
X0212079Y0148639D02*
X0188176Y0148639D01*
X0187858Y0148322D02*
X0187858Y0148322D01*
X0189774Y0150238D02*
X0212079Y0150238D01*
X0212079Y0151836D02*
X0191373Y0151836D01*
X0192971Y0153435D02*
X0211227Y0153435D01*
X0210779Y0155033D02*
X0194570Y0155033D01*
X0198502Y0156632D02*
X0210779Y0156632D01*
X0210779Y0158230D02*
X0199514Y0158230D01*
X0199716Y0159829D02*
X0210779Y0159829D01*
X0210779Y0161427D02*
X0200964Y0161427D01*
X0202562Y0163026D02*
X0210779Y0163026D01*
X0214879Y0159012D02*
X0214879Y0109799D01*
X0225194Y0099484D01*
X0226731Y0103157D02*
X0225985Y0103465D01*
X0225172Y0103465D01*
X0217679Y0110959D01*
X0217679Y0152712D01*
X0217807Y0152712D01*
X0218684Y0153589D01*
X0218807Y0153292D01*
X0219947Y0152153D01*
X0221435Y0151537D01*
X0223046Y0151537D01*
X0224535Y0152153D01*
X0225568Y0153187D01*
X0237144Y0153187D01*
X0237508Y0152308D01*
X0238647Y0151169D01*
X0240136Y0150552D01*
X0241747Y0150552D01*
X0243236Y0151169D01*
X0244375Y0152308D01*
X0244992Y0153797D01*
X0244992Y0155408D01*
X0244375Y0156896D01*
X0243236Y0158036D01*
X0241747Y0158652D01*
X0240136Y0158652D01*
X0238647Y0158036D01*
X0238598Y0157987D01*
X0225568Y0157987D01*
X0224535Y0159020D01*
X0223046Y0159637D01*
X0221435Y0159637D01*
X0219947Y0159020D01*
X0218979Y0158052D01*
X0218979Y0163029D01*
X0266842Y0163029D01*
X0266842Y0154715D01*
X0265727Y0154715D01*
X0264238Y0154099D01*
X0263099Y0152959D01*
X0262482Y0151471D01*
X0262482Y0150009D01*
X0259633Y0147160D01*
X0234427Y0147160D01*
X0233393Y0148193D01*
X0231905Y0148810D01*
X0230293Y0148810D01*
X0228805Y0148193D01*
X0227666Y0147054D01*
X0227049Y0145565D01*
X0227049Y0143954D01*
X0227666Y0142466D01*
X0228805Y0141326D01*
X0230293Y0140710D01*
X0231905Y0140710D01*
X0233393Y0141326D01*
X0234427Y0142360D01*
X0261104Y0142360D01*
X0261986Y0142725D01*
X0262661Y0143400D01*
X0265876Y0146615D01*
X0267338Y0146615D01*
X0267669Y0146753D01*
X0267669Y0135899D01*
X0262194Y0129056D01*
X0261803Y0129056D01*
X0260340Y0128450D01*
X0259220Y0127330D01*
X0258614Y0125867D01*
X0258614Y0125560D01*
X0245929Y0138245D01*
X0245254Y0138920D01*
X0244372Y0139286D01*
X0238496Y0139286D01*
X0237614Y0138920D01*
X0226834Y0128141D01*
X0225372Y0128141D01*
X0223884Y0127524D01*
X0222744Y0126385D01*
X0222128Y0124896D01*
X0222128Y0123285D01*
X0222744Y0121796D01*
X0223884Y0120657D01*
X0225372Y0120041D01*
X0226983Y0120041D01*
X0228472Y0120657D01*
X0229611Y0121796D01*
X0230228Y0123285D01*
X0230228Y0124746D01*
X0238860Y0133379D01*
X0238860Y0132143D01*
X0239477Y0130655D01*
X0240510Y0129621D01*
X0240510Y0118195D01*
X0227771Y0105456D01*
X0227096Y0104781D01*
X0226731Y0103899D01*
X0226731Y0103157D01*
X0226731Y0103881D02*
X0224757Y0103881D01*
X0223158Y0105480D02*
X0227795Y0105480D01*
X0229393Y0107078D02*
X0221560Y0107078D01*
X0219961Y0108677D02*
X0230992Y0108677D01*
X0232590Y0110275D02*
X0218362Y0110275D01*
X0217679Y0111874D02*
X0234189Y0111874D01*
X0235787Y0113472D02*
X0217679Y0113472D01*
X0217679Y0115071D02*
X0237386Y0115071D01*
X0238984Y0116669D02*
X0217679Y0116669D01*
X0217679Y0118268D02*
X0240510Y0118268D01*
X0240510Y0119866D02*
X0217679Y0119866D01*
X0217679Y0121465D02*
X0223076Y0121465D01*
X0222220Y0123063D02*
X0217679Y0123063D01*
X0217679Y0124662D02*
X0222128Y0124662D01*
X0222693Y0126260D02*
X0217679Y0126260D01*
X0217679Y0127859D02*
X0224692Y0127859D01*
X0228150Y0129457D02*
X0217679Y0129457D01*
X0217679Y0131056D02*
X0229749Y0131056D01*
X0231347Y0132654D02*
X0217679Y0132654D01*
X0217679Y0134253D02*
X0232946Y0134253D01*
X0234544Y0135851D02*
X0217679Y0135851D01*
X0217679Y0137450D02*
X0236143Y0137450D01*
X0237922Y0139048D02*
X0217679Y0139048D01*
X0217679Y0140647D02*
X0267669Y0140647D01*
X0267669Y0142245D02*
X0234312Y0142245D01*
X0227886Y0142245D02*
X0217679Y0142245D01*
X0217679Y0143844D02*
X0227095Y0143844D01*
X0227049Y0145442D02*
X0217679Y0145442D01*
X0217679Y0147041D02*
X0227660Y0147041D01*
X0229882Y0148639D02*
X0217679Y0148639D01*
X0217679Y0150238D02*
X0262482Y0150238D01*
X0262634Y0151836D02*
X0243903Y0151836D01*
X0244842Y0153435D02*
X0263574Y0153435D01*
X0266842Y0155033D02*
X0244992Y0155033D01*
X0244485Y0156632D02*
X0266842Y0156632D01*
X0266842Y0158230D02*
X0242766Y0158230D01*
X0239117Y0158230D02*
X0225325Y0158230D01*
X0219157Y0158230D02*
X0218979Y0158230D01*
X0218979Y0159829D02*
X0266842Y0159829D01*
X0266842Y0161427D02*
X0218979Y0161427D01*
X0218979Y0163026D02*
X0266842Y0163026D01*
X0270942Y0159012D02*
X0270469Y0158539D01*
X0270469Y0134917D01*
X0262595Y0125075D01*
X0259749Y0127859D02*
X0256316Y0127859D01*
X0257914Y0126260D02*
X0258777Y0126260D01*
X0262515Y0129457D02*
X0254717Y0129457D01*
X0253119Y0131056D02*
X0263794Y0131056D01*
X0265073Y0132654D02*
X0251520Y0132654D01*
X0249922Y0134253D02*
X0266352Y0134253D01*
X0267631Y0135851D02*
X0248323Y0135851D01*
X0246724Y0137450D02*
X0267669Y0137450D01*
X0267669Y0139048D02*
X0244945Y0139048D01*
X0246457Y0130929D02*
X0280199Y0097187D01*
X0280199Y0095726D01*
X0280279Y0095532D01*
X0269074Y0106737D01*
X0268063Y0107155D01*
X0254876Y0107155D01*
X0248929Y0113103D01*
X0248929Y0114069D01*
X0248312Y0115558D01*
X0247173Y0116697D01*
X0245684Y0117314D01*
X0245310Y0117314D01*
X0245310Y0129621D01*
X0246344Y0130655D01*
X0246457Y0130929D01*
X0245310Y0129457D02*
X0247929Y0129457D01*
X0249527Y0127859D02*
X0245310Y0127859D01*
X0245310Y0126260D02*
X0251126Y0126260D01*
X0252724Y0124662D02*
X0245310Y0124662D01*
X0245310Y0123063D02*
X0254323Y0123063D01*
X0255921Y0121465D02*
X0245310Y0121465D01*
X0245310Y0119866D02*
X0257520Y0119866D01*
X0259118Y0118268D02*
X0245310Y0118268D01*
X0247201Y0116669D02*
X0260717Y0116669D01*
X0262315Y0115071D02*
X0248514Y0115071D01*
X0248929Y0113472D02*
X0263914Y0113472D01*
X0265512Y0111874D02*
X0250158Y0111874D01*
X0251756Y0110275D02*
X0267111Y0110275D01*
X0268709Y0108677D02*
X0253355Y0108677D01*
X0249833Y0104421D02*
X0251406Y0102848D01*
X0252179Y0102074D01*
X0252638Y0101884D01*
X0249610Y0101884D01*
X0249913Y0102616D01*
X0249913Y0104227D01*
X0249833Y0104421D01*
X0249913Y0103881D02*
X0250372Y0103881D01*
X0249775Y0102283D02*
X0251971Y0102283D01*
X0256315Y0097084D02*
X0257348Y0096051D01*
X0258837Y0095434D01*
X0260448Y0095434D01*
X0261937Y0096051D01*
X0263076Y0097190D01*
X0263692Y0098679D01*
X0263692Y0100290D01*
X0263127Y0101656D01*
X0266377Y0101656D01*
X0271748Y0096285D01*
X0271128Y0096028D01*
X0270094Y0094994D01*
X0250307Y0094994D01*
X0249425Y0094629D01*
X0248749Y0093954D01*
X0239640Y0084844D01*
X0240070Y0085883D01*
X0240070Y0087495D01*
X0239454Y0088983D01*
X0238314Y0090122D01*
X0237344Y0090524D01*
X0243904Y0097084D01*
X0256315Y0097084D01*
X0257740Y0095888D02*
X0242708Y0095888D01*
X0241110Y0094290D02*
X0249086Y0094290D01*
X0247487Y0092691D02*
X0239511Y0092691D01*
X0237913Y0091093D02*
X0245888Y0091093D01*
X0244290Y0089494D02*
X0238942Y0089494D01*
X0239904Y0087896D02*
X0242691Y0087896D01*
X0241093Y0086297D02*
X0240070Y0086297D01*
X0237865Y0083069D02*
X0233058Y0078262D01*
X0231483Y0078262D01*
X0235859Y0082639D01*
X0236826Y0082639D01*
X0237865Y0083069D01*
X0236297Y0081502D02*
X0234722Y0081502D01*
X0234699Y0079903D02*
X0233124Y0079903D01*
X0233100Y0078305D02*
X0231525Y0078305D01*
X0227427Y0073462D02*
X0227118Y0072717D01*
X0227118Y0071372D01*
X0193508Y0071372D01*
X0193810Y0072104D01*
X0193810Y0073715D01*
X0193508Y0074446D01*
X0209436Y0074446D01*
X0210055Y0073828D01*
X0210937Y0073462D01*
X0227427Y0073462D01*
X0227118Y0071911D02*
X0193731Y0071911D01*
X0193810Y0073509D02*
X0210823Y0073509D01*
X0204150Y0079246D02*
X0203898Y0079351D01*
X0203794Y0079246D01*
X0204150Y0079246D01*
X0197381Y0079246D02*
X0163439Y0079246D01*
X0163560Y0079368D01*
X0197260Y0079368D01*
X0197381Y0079246D01*
X0197260Y0084168D02*
X0163560Y0084168D01*
X0163439Y0084289D01*
X0197381Y0084289D01*
X0197260Y0084168D01*
X0200577Y0089089D02*
X0184109Y0089089D01*
X0184336Y0089316D01*
X0184952Y0090805D01*
X0184952Y0092416D01*
X0184336Y0093904D01*
X0183196Y0095044D01*
X0181708Y0095660D01*
X0180097Y0095660D01*
X0178764Y0095108D01*
X0178764Y0096734D01*
X0208914Y0096734D01*
X0208348Y0095369D01*
X0208348Y0093757D01*
X0208651Y0093026D01*
X0205031Y0093026D01*
X0204149Y0092661D01*
X0203474Y0091985D01*
X0200577Y0089089D01*
X0200983Y0089494D02*
X0184410Y0089494D01*
X0184952Y0091093D02*
X0202581Y0091093D01*
X0204224Y0092691D02*
X0184838Y0092691D01*
X0183950Y0094290D02*
X0208348Y0094290D01*
X0208564Y0095888D02*
X0178764Y0095888D01*
X0178764Y0102234D02*
X0205961Y0102234D01*
X0205396Y0103600D01*
X0205396Y0105061D01*
X0204514Y0105943D01*
X0178253Y0105943D01*
X0178764Y0105431D01*
X0178764Y0102234D01*
X0178764Y0102283D02*
X0205941Y0102283D01*
X0205396Y0103881D02*
X0178764Y0103881D01*
X0178716Y0105480D02*
X0204977Y0105480D01*
X0210524Y0108343D02*
X0211740Y0108846D01*
X0212095Y0109202D01*
X0212505Y0108213D01*
X0217564Y0103154D01*
X0216994Y0102918D01*
X0216310Y0102234D01*
X0212930Y0102234D01*
X0213496Y0103600D01*
X0213496Y0105211D01*
X0212879Y0106700D01*
X0211740Y0107839D01*
X0210524Y0108343D01*
X0211330Y0108677D02*
X0212313Y0108677D01*
X0212501Y0107078D02*
X0213640Y0107078D01*
X0213384Y0105480D02*
X0215238Y0105480D01*
X0216837Y0103881D02*
X0213496Y0103881D01*
X0212950Y0102283D02*
X0216359Y0102283D01*
X0222354Y0090194D02*
X0230226Y0090194D01*
X0229121Y0089089D01*
X0222051Y0089089D01*
X0222354Y0089820D01*
X0222354Y0090194D01*
X0222219Y0089494D02*
X0229526Y0089494D01*
X0229731Y0084289D02*
X0227991Y0082549D01*
X0216360Y0082549D01*
X0215677Y0083233D01*
X0214188Y0083849D01*
X0213808Y0083849D01*
X0213808Y0085980D01*
X0213223Y0087391D01*
X0215285Y0085329D01*
X0215960Y0084654D01*
X0216842Y0084289D01*
X0229731Y0084289D01*
X0228543Y0083100D02*
X0215809Y0083100D01*
X0215915Y0084699D02*
X0213808Y0084699D01*
X0213676Y0086297D02*
X0214317Y0086297D01*
X0231531Y0094994D02*
X0231531Y0102427D01*
X0241043Y0111940D01*
X0241445Y0110970D01*
X0242584Y0109830D01*
X0244073Y0109214D01*
X0245040Y0109214D01*
X0246862Y0107391D01*
X0246668Y0107471D01*
X0245057Y0107471D01*
X0243569Y0106855D01*
X0242429Y0105715D01*
X0242171Y0105092D01*
X0241860Y0104781D01*
X0241860Y0104781D01*
X0232073Y0094994D01*
X0231531Y0094994D01*
X0231531Y0095888D02*
X0232967Y0095888D01*
X0231531Y0097487D02*
X0234566Y0097487D01*
X0236165Y0099086D02*
X0231531Y0099086D01*
X0231531Y0100684D02*
X0237763Y0100684D01*
X0239362Y0102283D02*
X0231531Y0102283D01*
X0232984Y0103881D02*
X0240960Y0103881D01*
X0242332Y0105480D02*
X0234583Y0105480D01*
X0236181Y0107078D02*
X0244108Y0107078D01*
X0245577Y0108677D02*
X0237780Y0108677D01*
X0239379Y0110275D02*
X0242140Y0110275D01*
X0241071Y0111874D02*
X0240977Y0111874D01*
X0240510Y0121465D02*
X0229280Y0121465D01*
X0230136Y0123063D02*
X0240510Y0123063D01*
X0240510Y0124662D02*
X0230228Y0124662D01*
X0231742Y0126260D02*
X0240510Y0126260D01*
X0240510Y0127859D02*
X0233340Y0127859D01*
X0234939Y0129457D02*
X0240510Y0129457D01*
X0239311Y0131056D02*
X0236537Y0131056D01*
X0238136Y0132654D02*
X0238860Y0132654D01*
X0232316Y0148639D02*
X0261112Y0148639D01*
X0264703Y0145442D02*
X0267669Y0145442D01*
X0267669Y0143844D02*
X0263105Y0143844D01*
X0273269Y0143800D02*
X0273269Y0135072D01*
X0273314Y0134673D01*
X0273269Y0134520D01*
X0273269Y0134360D01*
X0273115Y0133989D01*
X0273004Y0133603D01*
X0272904Y0133479D01*
X0272843Y0133331D01*
X0272559Y0133047D01*
X0266576Y0125569D01*
X0266576Y0124283D01*
X0265970Y0122820D01*
X0264850Y0121700D01*
X0263387Y0121094D01*
X0263081Y0121094D01*
X0283593Y0100581D01*
X0285054Y0100581D01*
X0286543Y0099965D01*
X0287682Y0098826D01*
X0288299Y0097337D01*
X0288299Y0095726D01*
X0287682Y0094237D01*
X0286543Y0093098D01*
X0285054Y0092481D01*
X0283443Y0092481D01*
X0283249Y0092562D01*
X0285806Y0090005D01*
X0286580Y0089231D01*
X0286999Y0088220D01*
X0286999Y0069410D01*
X0286908Y0069190D01*
X0289204Y0069805D01*
X0292131Y0071495D01*
X0294521Y0073885D01*
X0296211Y0076813D01*
X0297086Y0080078D01*
X0297086Y0080078D01*
X0297197Y0081768D01*
X0297197Y0089642D01*
X0297086Y0091332D01*
X0296211Y0094597D01*
X0294521Y0097524D01*
X0292131Y0099914D01*
X0289204Y0101604D01*
X0285939Y0102479D01*
X0284249Y0102590D01*
X0283692Y0102590D01*
X0282663Y0103016D01*
X0281875Y0103804D01*
X0281449Y0104833D01*
X0281449Y0219563D01*
X0281386Y0220357D01*
X0280896Y0221867D01*
X0279963Y0223151D01*
X0278678Y0224084D01*
X0277168Y0224575D01*
X0276375Y0224637D01*
X0268501Y0224637D01*
X0267707Y0224575D01*
X0266197Y0224084D01*
X0264913Y0223151D01*
X0263980Y0221867D01*
X0263489Y0220357D01*
X0263427Y0219563D01*
X0263427Y0174565D01*
X0262382Y0171350D01*
X0262382Y0171350D01*
X0260394Y0168614D01*
X0260394Y0168614D01*
X0259314Y0167829D01*
X0274884Y0167829D01*
X0275766Y0167464D01*
X0276441Y0166789D01*
X0276806Y0165907D01*
X0276806Y0151040D01*
X0277840Y0150007D01*
X0278456Y0148518D01*
X0278456Y0146907D01*
X0277840Y0145418D01*
X0276700Y0144279D01*
X0275212Y0143663D01*
X0273601Y0143663D01*
X0273269Y0143800D01*
X0273269Y0142245D02*
X0281449Y0142245D01*
X0281449Y0140647D02*
X0273269Y0140647D01*
X0273269Y0139048D02*
X0281449Y0139048D01*
X0281449Y0137450D02*
X0273269Y0137450D01*
X0273269Y0135851D02*
X0281449Y0135851D01*
X0281449Y0134253D02*
X0273225Y0134253D01*
X0272244Y0132654D02*
X0281449Y0132654D01*
X0281449Y0131056D02*
X0270966Y0131056D01*
X0269687Y0129457D02*
X0281449Y0129457D01*
X0281449Y0127859D02*
X0268408Y0127859D01*
X0268852Y0126505D02*
X0267071Y0124724D01*
X0266107Y0122397D01*
X0266107Y0119879D01*
X0267071Y0117552D01*
X0268852Y0115771D01*
X0271178Y0114807D01*
X0273697Y0114807D01*
X0276024Y0115771D01*
X0277805Y0117552D01*
X0278768Y0119879D01*
X0278768Y0122397D01*
X0277805Y0124724D01*
X0276024Y0126505D01*
X0273697Y0127468D01*
X0271178Y0127468D01*
X0268852Y0126505D01*
X0268607Y0126260D02*
X0267129Y0126260D01*
X0267045Y0124662D02*
X0266576Y0124662D01*
X0266383Y0123063D02*
X0266071Y0123063D01*
X0266107Y0121465D02*
X0264283Y0121465D01*
X0264308Y0119866D02*
X0266112Y0119866D01*
X0265907Y0118268D02*
X0266774Y0118268D01*
X0267505Y0116669D02*
X0267953Y0116669D01*
X0269104Y0115071D02*
X0270542Y0115071D01*
X0270702Y0113472D02*
X0281449Y0113472D01*
X0281449Y0111874D02*
X0272301Y0111874D01*
X0273899Y0110275D02*
X0281449Y0110275D01*
X0281449Y0108677D02*
X0275498Y0108677D01*
X0277096Y0107078D02*
X0281449Y0107078D01*
X0281449Y0105480D02*
X0278695Y0105480D01*
X0280293Y0103881D02*
X0281843Y0103881D01*
X0281892Y0102283D02*
X0286672Y0102283D01*
X0287422Y0099086D02*
X0292960Y0099086D01*
X0294542Y0097487D02*
X0288237Y0097487D01*
X0288299Y0095888D02*
X0295465Y0095888D01*
X0296293Y0094290D02*
X0287704Y0094290D01*
X0285561Y0092691D02*
X0296722Y0092691D01*
X0297102Y0091093D02*
X0284718Y0091093D01*
X0284249Y0105390D02*
X0284630Y0105385D01*
X0285010Y0105372D01*
X0285390Y0105349D01*
X0285769Y0105316D01*
X0286147Y0105275D01*
X0286524Y0105225D01*
X0286900Y0105165D01*
X0287275Y0105097D01*
X0287647Y0105019D01*
X0288018Y0104932D01*
X0288386Y0104837D01*
X0288752Y0104732D01*
X0289115Y0104619D01*
X0289476Y0104497D01*
X0289833Y0104367D01*
X0290187Y0104227D01*
X0290538Y0104080D01*
X0290885Y0103923D01*
X0291228Y0103759D01*
X0291567Y0103586D01*
X0291902Y0103405D01*
X0292233Y0103216D01*
X0292558Y0103019D01*
X0292879Y0102815D01*
X0293195Y0102602D01*
X0293505Y0102382D01*
X0293811Y0102155D01*
X0294110Y0101920D01*
X0294404Y0101678D01*
X0294692Y0101430D01*
X0294974Y0101174D01*
X0295249Y0100911D01*
X0295518Y0100642D01*
X0295781Y0100367D01*
X0296037Y0100085D01*
X0296285Y0099797D01*
X0296527Y0099503D01*
X0296762Y0099204D01*
X0296989Y0098898D01*
X0297209Y0098588D01*
X0297422Y0098272D01*
X0297626Y0097951D01*
X0297823Y0097626D01*
X0298012Y0097295D01*
X0298193Y0096960D01*
X0298366Y0096621D01*
X0298530Y0096278D01*
X0298687Y0095931D01*
X0298834Y0095580D01*
X0298974Y0095226D01*
X0299104Y0094869D01*
X0299226Y0094508D01*
X0299339Y0094145D01*
X0299444Y0093779D01*
X0299539Y0093411D01*
X0299626Y0093040D01*
X0299704Y0092668D01*
X0299772Y0092293D01*
X0299832Y0091917D01*
X0299882Y0091540D01*
X0299923Y0091162D01*
X0299956Y0090783D01*
X0299979Y0090403D01*
X0299992Y0090023D01*
X0299997Y0089642D01*
X0299997Y0081768D01*
X0297179Y0081502D02*
X0286999Y0081502D01*
X0286999Y0083100D02*
X0297197Y0083100D01*
X0297197Y0084699D02*
X0286999Y0084699D01*
X0286999Y0086297D02*
X0297197Y0086297D01*
X0297197Y0087896D02*
X0286999Y0087896D01*
X0286317Y0089494D02*
X0297197Y0089494D01*
X0297039Y0079903D02*
X0286999Y0079903D01*
X0286999Y0078305D02*
X0296611Y0078305D01*
X0296150Y0076706D02*
X0286999Y0076706D01*
X0286999Y0075108D02*
X0295227Y0075108D01*
X0294145Y0073509D02*
X0286999Y0073509D01*
X0286999Y0071911D02*
X0292546Y0071911D01*
X0290082Y0070312D02*
X0286999Y0070312D01*
X0284249Y0066020D02*
X0280312Y0066020D01*
X0274623Y0067207D02*
X0272670Y0065787D01*
X0270683Y0063052D01*
X0269638Y0059836D01*
X0269638Y0054209D01*
X0269575Y0053415D01*
X0269085Y0051905D01*
X0268152Y0050621D01*
X0266867Y0049688D01*
X0265357Y0049197D01*
X0264564Y0049135D01*
X0221257Y0049135D01*
X0220463Y0049197D01*
X0218953Y0049688D01*
X0217669Y0050621D01*
X0216736Y0051905D01*
X0216245Y0053415D01*
X0216183Y0054209D01*
X0216183Y0059836D01*
X0215138Y0063052D01*
X0213150Y0065787D01*
X0212070Y0066572D01*
X0228136Y0066572D01*
X0228755Y0065954D01*
X0229637Y0065588D01*
X0238590Y0065588D01*
X0235093Y0062092D01*
X0234163Y0062477D01*
X0231657Y0062477D01*
X0229341Y0061518D01*
X0227569Y0059746D01*
X0226610Y0057430D01*
X0226610Y0054924D01*
X0227569Y0052609D01*
X0229341Y0050836D01*
X0231657Y0049877D01*
X0234163Y0049877D01*
X0236479Y0050836D01*
X0237910Y0052268D01*
X0239341Y0050836D01*
X0241657Y0049877D01*
X0244163Y0049877D01*
X0246479Y0050836D01*
X0247910Y0052268D01*
X0249341Y0050836D01*
X0251657Y0049877D01*
X0254163Y0049877D01*
X0256479Y0050836D01*
X0258251Y0052609D01*
X0259210Y0054924D01*
X0259210Y0057430D01*
X0258251Y0059746D01*
X0256479Y0061518D01*
X0254163Y0062477D01*
X0251657Y0062477D01*
X0249341Y0061518D01*
X0247910Y0060087D01*
X0246479Y0061518D01*
X0244163Y0062477D01*
X0243257Y0062477D01*
X0249062Y0068283D01*
X0249319Y0067663D01*
X0250458Y0066523D01*
X0251947Y0065907D01*
X0253558Y0065907D01*
X0255047Y0066523D01*
X0255730Y0067207D01*
X0274623Y0067207D01*
X0274498Y0067115D02*
X0255639Y0067115D01*
X0255730Y0072707D02*
X0255047Y0073390D01*
X0254427Y0073647D01*
X0254560Y0073781D01*
X0255527Y0073781D01*
X0257015Y0074397D01*
X0258155Y0075537D01*
X0258771Y0077025D01*
X0258771Y0078636D01*
X0258468Y0079368D01*
X0270459Y0079368D01*
X0271340Y0078487D01*
X0271340Y0077025D01*
X0271957Y0075537D01*
X0273096Y0074397D01*
X0274585Y0073781D01*
X0276196Y0073781D01*
X0277685Y0074397D01*
X0278824Y0075537D01*
X0279440Y0077025D01*
X0279440Y0078390D01*
X0279602Y0078390D01*
X0281499Y0079175D01*
X0281499Y0072707D01*
X0255730Y0072707D01*
X0254759Y0073509D02*
X0281499Y0073509D01*
X0281499Y0075108D02*
X0278395Y0075108D01*
X0279308Y0076706D02*
X0281499Y0076706D01*
X0281499Y0078305D02*
X0279440Y0078305D01*
X0284249Y0066020D02*
X0284630Y0066025D01*
X0285010Y0066038D01*
X0285390Y0066061D01*
X0285769Y0066094D01*
X0286147Y0066135D01*
X0286524Y0066185D01*
X0286900Y0066245D01*
X0287275Y0066313D01*
X0287647Y0066391D01*
X0288018Y0066478D01*
X0288386Y0066573D01*
X0288752Y0066678D01*
X0289115Y0066791D01*
X0289476Y0066913D01*
X0289833Y0067043D01*
X0290187Y0067183D01*
X0290538Y0067330D01*
X0290885Y0067487D01*
X0291228Y0067651D01*
X0291567Y0067824D01*
X0291902Y0068005D01*
X0292233Y0068194D01*
X0292558Y0068391D01*
X0292879Y0068595D01*
X0293195Y0068808D01*
X0293505Y0069028D01*
X0293811Y0069255D01*
X0294110Y0069490D01*
X0294404Y0069732D01*
X0294692Y0069980D01*
X0294974Y0070236D01*
X0295249Y0070499D01*
X0295518Y0070768D01*
X0295781Y0071043D01*
X0296037Y0071325D01*
X0296285Y0071613D01*
X0296527Y0071907D01*
X0296762Y0072206D01*
X0296989Y0072512D01*
X0297209Y0072822D01*
X0297422Y0073138D01*
X0297626Y0073459D01*
X0297823Y0073784D01*
X0298012Y0074115D01*
X0298193Y0074450D01*
X0298366Y0074789D01*
X0298530Y0075132D01*
X0298687Y0075479D01*
X0298834Y0075830D01*
X0298974Y0076184D01*
X0299104Y0076541D01*
X0299226Y0076902D01*
X0299339Y0077265D01*
X0299444Y0077631D01*
X0299539Y0077999D01*
X0299626Y0078370D01*
X0299704Y0078742D01*
X0299772Y0079117D01*
X0299832Y0079493D01*
X0299882Y0079870D01*
X0299923Y0080248D01*
X0299956Y0080627D01*
X0299979Y0081007D01*
X0299992Y0081387D01*
X0299997Y0081768D01*
X0280199Y0095888D02*
X0279922Y0095888D01*
X0279899Y0097487D02*
X0278324Y0097487D01*
X0278301Y0099086D02*
X0276725Y0099086D01*
X0276702Y0100684D02*
X0275127Y0100684D01*
X0275104Y0102283D02*
X0273528Y0102283D01*
X0273505Y0103881D02*
X0271930Y0103881D01*
X0271906Y0105480D02*
X0270331Y0105480D01*
X0270308Y0107078D02*
X0268250Y0107078D01*
X0267349Y0100684D02*
X0263529Y0100684D01*
X0263692Y0099086D02*
X0268947Y0099086D01*
X0270546Y0097487D02*
X0263199Y0097487D01*
X0261545Y0095888D02*
X0270988Y0095888D01*
X0270094Y0090194D02*
X0271128Y0089161D01*
X0272616Y0088544D01*
X0273214Y0088544D01*
X0272976Y0088307D01*
X0272012Y0085980D01*
X0272012Y0084134D01*
X0271931Y0084168D01*
X0252275Y0084168D01*
X0251393Y0083802D01*
X0250718Y0083127D01*
X0248860Y0081269D01*
X0248860Y0082560D01*
X0248254Y0084023D01*
X0247134Y0085143D01*
X0246846Y0085262D01*
X0251778Y0090194D01*
X0270094Y0090194D01*
X0270794Y0089494D02*
X0251078Y0089494D01*
X0249480Y0087896D02*
X0272806Y0087896D01*
X0272144Y0086297D02*
X0247881Y0086297D01*
X0247578Y0084699D02*
X0272012Y0084699D01*
X0271340Y0078305D02*
X0258771Y0078305D01*
X0258639Y0076706D02*
X0271472Y0076706D01*
X0272386Y0075108D02*
X0257726Y0075108D01*
X0249866Y0067115D02*
X0247895Y0067115D01*
X0246296Y0065517D02*
X0272473Y0065517D01*
X0272670Y0065787D02*
X0272670Y0065787D01*
X0272670Y0065787D01*
X0271312Y0063918D02*
X0244698Y0063918D01*
X0244543Y0062320D02*
X0251277Y0062320D01*
X0248545Y0060721D02*
X0247276Y0060721D01*
X0254543Y0062320D02*
X0270445Y0062320D01*
X0270683Y0063052D02*
X0270683Y0063052D01*
X0269925Y0060721D02*
X0257276Y0060721D01*
X0258509Y0059123D02*
X0269638Y0059123D01*
X0269638Y0057524D02*
X0259171Y0057524D01*
X0259210Y0055926D02*
X0269638Y0055926D01*
X0269638Y0054327D02*
X0258963Y0054327D01*
X0258301Y0052729D02*
X0269352Y0052729D01*
X0268522Y0051130D02*
X0256773Y0051130D01*
X0264564Y0046335D02*
X0264754Y0046337D01*
X0264944Y0046344D01*
X0265134Y0046356D01*
X0265324Y0046372D01*
X0265513Y0046392D01*
X0265702Y0046418D01*
X0265890Y0046447D01*
X0266077Y0046482D01*
X0266263Y0046521D01*
X0266448Y0046564D01*
X0266633Y0046612D01*
X0266816Y0046664D01*
X0266997Y0046720D01*
X0267177Y0046781D01*
X0267356Y0046847D01*
X0267533Y0046916D01*
X0267709Y0046990D01*
X0267882Y0047068D01*
X0268054Y0047151D01*
X0268223Y0047237D01*
X0268391Y0047327D01*
X0268556Y0047422D01*
X0268719Y0047520D01*
X0268879Y0047623D01*
X0269037Y0047729D01*
X0269192Y0047839D01*
X0269345Y0047952D01*
X0269495Y0048070D01*
X0269641Y0048191D01*
X0269785Y0048315D01*
X0269926Y0048443D01*
X0270064Y0048574D01*
X0270199Y0048709D01*
X0270330Y0048847D01*
X0270458Y0048988D01*
X0270582Y0049132D01*
X0270703Y0049278D01*
X0270821Y0049428D01*
X0270934Y0049581D01*
X0271044Y0049736D01*
X0271150Y0049894D01*
X0271253Y0050054D01*
X0271351Y0050217D01*
X0271446Y0050382D01*
X0271536Y0050550D01*
X0271622Y0050719D01*
X0271705Y0050891D01*
X0271783Y0051064D01*
X0271857Y0051240D01*
X0271926Y0051417D01*
X0271992Y0051596D01*
X0272053Y0051776D01*
X0272109Y0051957D01*
X0272161Y0052140D01*
X0272209Y0052325D01*
X0272252Y0052510D01*
X0272291Y0052696D01*
X0272326Y0052883D01*
X0272355Y0053071D01*
X0272381Y0053260D01*
X0272401Y0053449D01*
X0272417Y0053639D01*
X0272429Y0053829D01*
X0272436Y0054019D01*
X0272438Y0054209D01*
X0272438Y0058146D01*
X0272440Y0058336D01*
X0272447Y0058526D01*
X0272459Y0058716D01*
X0272475Y0058906D01*
X0272495Y0059095D01*
X0272521Y0059284D01*
X0272550Y0059472D01*
X0272585Y0059659D01*
X0272624Y0059845D01*
X0272667Y0060030D01*
X0272715Y0060215D01*
X0272767Y0060398D01*
X0272823Y0060579D01*
X0272884Y0060759D01*
X0272950Y0060938D01*
X0273019Y0061115D01*
X0273093Y0061291D01*
X0273171Y0061464D01*
X0273254Y0061636D01*
X0273340Y0061805D01*
X0273430Y0061973D01*
X0273525Y0062138D01*
X0273623Y0062301D01*
X0273726Y0062461D01*
X0273832Y0062619D01*
X0273942Y0062774D01*
X0274055Y0062927D01*
X0274173Y0063077D01*
X0274294Y0063223D01*
X0274418Y0063367D01*
X0274546Y0063508D01*
X0274677Y0063646D01*
X0274812Y0063781D01*
X0274950Y0063912D01*
X0275091Y0064040D01*
X0275235Y0064164D01*
X0275381Y0064285D01*
X0275531Y0064403D01*
X0275684Y0064516D01*
X0275839Y0064626D01*
X0275997Y0064732D01*
X0276157Y0064835D01*
X0276320Y0064933D01*
X0276485Y0065028D01*
X0276653Y0065118D01*
X0276822Y0065204D01*
X0276994Y0065287D01*
X0277167Y0065365D01*
X0277343Y0065439D01*
X0277520Y0065508D01*
X0277699Y0065574D01*
X0277879Y0065635D01*
X0278060Y0065691D01*
X0278243Y0065743D01*
X0278428Y0065791D01*
X0278613Y0065834D01*
X0278799Y0065873D01*
X0278986Y0065908D01*
X0279174Y0065937D01*
X0279363Y0065963D01*
X0279552Y0065983D01*
X0279742Y0065999D01*
X0279932Y0066011D01*
X0280122Y0066018D01*
X0280312Y0066020D01*
X0266387Y0049532D02*
X0219433Y0049532D01*
X0217299Y0051130D02*
X0229048Y0051130D01*
X0227519Y0052729D02*
X0216468Y0052729D01*
X0216183Y0054327D02*
X0226857Y0054327D01*
X0226610Y0055926D02*
X0216183Y0055926D01*
X0216183Y0057524D02*
X0226649Y0057524D01*
X0227311Y0059123D02*
X0216183Y0059123D01*
X0215895Y0060721D02*
X0228545Y0060721D01*
X0231277Y0062320D02*
X0215376Y0062320D01*
X0215138Y0063052D02*
X0215138Y0063052D01*
X0214508Y0063918D02*
X0236920Y0063918D01*
X0238518Y0065517D02*
X0213347Y0065517D01*
X0213150Y0065787D02*
X0213150Y0065787D01*
X0213150Y0065787D01*
X0213383Y0058146D02*
X0213383Y0054209D01*
X0213385Y0054019D01*
X0213392Y0053829D01*
X0213404Y0053639D01*
X0213420Y0053449D01*
X0213440Y0053260D01*
X0213466Y0053071D01*
X0213495Y0052883D01*
X0213530Y0052696D01*
X0213569Y0052510D01*
X0213612Y0052325D01*
X0213660Y0052140D01*
X0213712Y0051957D01*
X0213768Y0051776D01*
X0213829Y0051596D01*
X0213895Y0051417D01*
X0213964Y0051240D01*
X0214038Y0051064D01*
X0214116Y0050891D01*
X0214199Y0050719D01*
X0214285Y0050550D01*
X0214375Y0050382D01*
X0214470Y0050217D01*
X0214568Y0050054D01*
X0214671Y0049894D01*
X0214777Y0049736D01*
X0214887Y0049581D01*
X0215000Y0049428D01*
X0215118Y0049278D01*
X0215239Y0049132D01*
X0215363Y0048988D01*
X0215491Y0048847D01*
X0215622Y0048709D01*
X0215757Y0048574D01*
X0215895Y0048443D01*
X0216036Y0048315D01*
X0216180Y0048191D01*
X0216326Y0048070D01*
X0216476Y0047952D01*
X0216629Y0047839D01*
X0216784Y0047729D01*
X0216942Y0047623D01*
X0217102Y0047520D01*
X0217265Y0047422D01*
X0217430Y0047327D01*
X0217598Y0047237D01*
X0217767Y0047151D01*
X0217939Y0047068D01*
X0218112Y0046990D01*
X0218288Y0046916D01*
X0218465Y0046847D01*
X0218644Y0046781D01*
X0218824Y0046720D01*
X0219005Y0046664D01*
X0219188Y0046612D01*
X0219373Y0046564D01*
X0219558Y0046521D01*
X0219744Y0046482D01*
X0219931Y0046447D01*
X0220119Y0046418D01*
X0220308Y0046392D01*
X0220497Y0046372D01*
X0220687Y0046356D01*
X0220877Y0046344D01*
X0221067Y0046337D01*
X0221257Y0046335D01*
X0264564Y0046335D01*
X0249048Y0051130D02*
X0246773Y0051130D01*
X0239048Y0051130D02*
X0236773Y0051130D01*
X0235321Y0062320D02*
X0234543Y0062320D01*
X0237459Y0070388D02*
X0244857Y0077787D01*
X0245377Y0077787D01*
X0237979Y0070388D01*
X0237459Y0070388D01*
X0238981Y0071911D02*
X0239502Y0071911D01*
X0240580Y0073509D02*
X0241100Y0073509D01*
X0242179Y0075108D02*
X0242699Y0075108D01*
X0243777Y0076706D02*
X0244297Y0076706D01*
X0244879Y0081768D02*
X0235036Y0071925D01*
X0231099Y0071925D01*
X0248860Y0081502D02*
X0249093Y0081502D01*
X0248636Y0083100D02*
X0250691Y0083100D01*
X0283490Y0100684D02*
X0290797Y0100684D01*
X0284249Y0105390D02*
X0284249Y0219563D01*
X0281449Y0218974D02*
X0277903Y0218974D01*
X0277805Y0219212D02*
X0276024Y0220993D01*
X0273697Y0221957D01*
X0271178Y0221957D01*
X0268852Y0220993D01*
X0267071Y0219212D01*
X0266107Y0216885D01*
X0266107Y0214367D01*
X0267071Y0212040D01*
X0268852Y0210259D01*
X0271178Y0209295D01*
X0273697Y0209295D01*
X0276024Y0210259D01*
X0277805Y0212040D01*
X0278768Y0214367D01*
X0278768Y0216885D01*
X0277805Y0219212D01*
X0284249Y0219563D02*
X0284247Y0219753D01*
X0284240Y0219943D01*
X0284228Y0220133D01*
X0284212Y0220323D01*
X0284192Y0220512D01*
X0284166Y0220701D01*
X0284137Y0220889D01*
X0284102Y0221076D01*
X0284063Y0221262D01*
X0284020Y0221447D01*
X0283972Y0221632D01*
X0283920Y0221815D01*
X0283864Y0221996D01*
X0283803Y0222176D01*
X0283737Y0222355D01*
X0283668Y0222532D01*
X0283594Y0222708D01*
X0283516Y0222881D01*
X0283433Y0223053D01*
X0283347Y0223222D01*
X0283257Y0223390D01*
X0283162Y0223555D01*
X0283064Y0223718D01*
X0282961Y0223878D01*
X0282855Y0224036D01*
X0282745Y0224191D01*
X0282632Y0224344D01*
X0282514Y0224494D01*
X0282393Y0224640D01*
X0282269Y0224784D01*
X0282141Y0224925D01*
X0282010Y0225063D01*
X0281875Y0225198D01*
X0281737Y0225329D01*
X0281596Y0225457D01*
X0281452Y0225581D01*
X0281306Y0225702D01*
X0281156Y0225820D01*
X0281003Y0225933D01*
X0280848Y0226043D01*
X0280690Y0226149D01*
X0280530Y0226252D01*
X0280367Y0226350D01*
X0280202Y0226445D01*
X0280034Y0226535D01*
X0279865Y0226621D01*
X0279693Y0226704D01*
X0279520Y0226782D01*
X0279344Y0226856D01*
X0279167Y0226925D01*
X0278988Y0226991D01*
X0278808Y0227052D01*
X0278627Y0227108D01*
X0278444Y0227160D01*
X0278259Y0227208D01*
X0278074Y0227251D01*
X0277888Y0227290D01*
X0277701Y0227325D01*
X0277513Y0227354D01*
X0277324Y0227380D01*
X0277135Y0227400D01*
X0276945Y0227416D01*
X0276755Y0227428D01*
X0276565Y0227435D01*
X0276375Y0227437D01*
X0268501Y0227437D01*
X0265764Y0223769D02*
X0279111Y0223769D01*
X0280675Y0222171D02*
X0264201Y0222171D01*
X0263559Y0220572D02*
X0268431Y0220572D01*
X0268501Y0227437D02*
X0268311Y0227435D01*
X0268121Y0227428D01*
X0267931Y0227416D01*
X0267741Y0227400D01*
X0267552Y0227380D01*
X0267363Y0227354D01*
X0267175Y0227325D01*
X0266988Y0227290D01*
X0266802Y0227251D01*
X0266617Y0227208D01*
X0266432Y0227160D01*
X0266249Y0227108D01*
X0266068Y0227052D01*
X0265888Y0226991D01*
X0265709Y0226925D01*
X0265532Y0226856D01*
X0265356Y0226782D01*
X0265183Y0226704D01*
X0265011Y0226621D01*
X0264842Y0226535D01*
X0264674Y0226445D01*
X0264509Y0226350D01*
X0264346Y0226252D01*
X0264186Y0226149D01*
X0264028Y0226043D01*
X0263873Y0225933D01*
X0263720Y0225820D01*
X0263570Y0225702D01*
X0263424Y0225581D01*
X0263280Y0225457D01*
X0263139Y0225329D01*
X0263001Y0225198D01*
X0262866Y0225063D01*
X0262735Y0224925D01*
X0262607Y0224784D01*
X0262483Y0224640D01*
X0262362Y0224494D01*
X0262244Y0224344D01*
X0262131Y0224191D01*
X0262021Y0224036D01*
X0261915Y0223878D01*
X0261812Y0223718D01*
X0261714Y0223555D01*
X0261619Y0223390D01*
X0261529Y0223222D01*
X0261443Y0223053D01*
X0261360Y0222881D01*
X0261282Y0222708D01*
X0261208Y0222532D01*
X0261139Y0222355D01*
X0261073Y0222176D01*
X0261012Y0221996D01*
X0260956Y0221815D01*
X0260904Y0221632D01*
X0260856Y0221447D01*
X0260813Y0221262D01*
X0260774Y0221076D01*
X0260739Y0220889D01*
X0260710Y0220701D01*
X0260684Y0220512D01*
X0260664Y0220323D01*
X0260648Y0220133D01*
X0260636Y0219943D01*
X0260629Y0219753D01*
X0260627Y0219563D01*
X0260627Y0176256D01*
X0263427Y0175814D02*
X0281449Y0175814D01*
X0281449Y0174216D02*
X0263313Y0174216D01*
X0262794Y0172617D02*
X0281449Y0172617D01*
X0281449Y0171019D02*
X0262141Y0171019D01*
X0260980Y0169420D02*
X0281449Y0169420D01*
X0281449Y0167822D02*
X0274902Y0167822D01*
X0276675Y0166223D02*
X0281449Y0166223D01*
X0281449Y0164624D02*
X0276806Y0164624D01*
X0276806Y0163026D02*
X0281449Y0163026D01*
X0281449Y0161427D02*
X0276806Y0161427D01*
X0276806Y0159829D02*
X0281449Y0159829D01*
X0281449Y0158230D02*
X0276806Y0158230D01*
X0276806Y0156632D02*
X0281449Y0156632D01*
X0281449Y0155033D02*
X0276806Y0155033D01*
X0276806Y0153435D02*
X0281449Y0153435D01*
X0281449Y0151836D02*
X0276806Y0151836D01*
X0277608Y0150238D02*
X0281449Y0150238D01*
X0281449Y0148639D02*
X0278406Y0148639D01*
X0278456Y0147041D02*
X0281449Y0147041D01*
X0281449Y0145442D02*
X0277849Y0145442D01*
X0275649Y0143844D02*
X0281449Y0143844D01*
X0281449Y0126260D02*
X0276268Y0126260D01*
X0277830Y0124662D02*
X0281449Y0124662D01*
X0281449Y0123063D02*
X0278492Y0123063D01*
X0278768Y0121465D02*
X0281449Y0121465D01*
X0281449Y0119866D02*
X0278763Y0119866D01*
X0278101Y0118268D02*
X0281449Y0118268D01*
X0281449Y0116669D02*
X0276922Y0116669D01*
X0274333Y0115071D02*
X0281449Y0115071D01*
X0237980Y0151836D02*
X0223770Y0151836D01*
X0220711Y0151836D02*
X0217679Y0151836D01*
X0218530Y0153435D02*
X0218748Y0153435D01*
X0198330Y0165582D02*
X0196322Y0163574D01*
X0194860Y0163574D01*
X0193372Y0162957D01*
X0192233Y0161818D01*
X0191616Y0160329D01*
X0191616Y0158868D01*
X0188386Y0155638D01*
X0188273Y0155912D01*
X0187256Y0156929D01*
X0188217Y0159249D01*
X0188217Y0161767D01*
X0187253Y0164094D01*
X0185765Y0165582D01*
X0198330Y0165582D01*
X0197373Y0164624D02*
X0186723Y0164624D01*
X0187696Y0163026D02*
X0193538Y0163026D01*
X0192071Y0161427D02*
X0188217Y0161427D01*
X0188217Y0159829D02*
X0191616Y0159829D01*
X0190979Y0158230D02*
X0187795Y0158230D01*
X0187553Y0156632D02*
X0189380Y0156632D01*
X0178061Y0152081D02*
X0177959Y0152081D01*
X0175063Y0154978D01*
X0174388Y0155653D01*
X0174388Y0155653D01*
X0170142Y0159899D01*
X0169466Y0160574D01*
X0168584Y0160939D01*
X0167400Y0160939D01*
X0166564Y0161776D01*
X0166564Y0163029D01*
X0167113Y0163029D01*
X0177883Y0152259D01*
X0178061Y0152081D01*
X0176707Y0153435D02*
X0176606Y0153435D01*
X0175063Y0154978D02*
X0175063Y0154978D01*
X0175109Y0155033D02*
X0175007Y0155033D01*
X0173510Y0156632D02*
X0173408Y0156632D01*
X0171912Y0158230D02*
X0171810Y0158230D01*
X0170313Y0159829D02*
X0170211Y0159829D01*
X0170142Y0159899D02*
X0170142Y0159899D01*
X0168715Y0161427D02*
X0166912Y0161427D01*
X0167116Y0163026D02*
X0166564Y0163026D01*
X0164170Y0158539D02*
X0163973Y0158539D01*
X0162005Y0160508D01*
X0167234Y0167829D02*
X0155200Y0167829D01*
X0157609Y0170237D01*
X0159070Y0170237D01*
X0160559Y0170854D01*
X0161698Y0171993D01*
X0162100Y0172963D01*
X0167234Y0167829D01*
X0165643Y0169420D02*
X0156791Y0169420D01*
X0160723Y0171019D02*
X0164045Y0171019D01*
X0162446Y0172617D02*
X0161956Y0172617D01*
X0166037Y0175814D02*
X0167275Y0175814D01*
X0167275Y0174576D02*
X0162268Y0179584D01*
X0162210Y0179641D01*
X0163455Y0179641D01*
X0165770Y0180600D01*
X0167275Y0182105D01*
X0167275Y0174576D01*
X0167275Y0177413D02*
X0164439Y0177413D01*
X0162840Y0179011D02*
X0167275Y0179011D01*
X0167275Y0180610D02*
X0165780Y0180610D01*
X0170075Y0176256D02*
X0170075Y0219563D01*
X0170073Y0219753D01*
X0170066Y0219943D01*
X0170054Y0220133D01*
X0170038Y0220323D01*
X0170018Y0220512D01*
X0169992Y0220701D01*
X0169963Y0220889D01*
X0169928Y0221076D01*
X0169889Y0221262D01*
X0169846Y0221447D01*
X0169798Y0221632D01*
X0169746Y0221815D01*
X0169690Y0221996D01*
X0169629Y0222176D01*
X0169563Y0222355D01*
X0169494Y0222532D01*
X0169420Y0222708D01*
X0169342Y0222881D01*
X0169259Y0223053D01*
X0169173Y0223222D01*
X0169083Y0223390D01*
X0168988Y0223555D01*
X0168890Y0223718D01*
X0168787Y0223878D01*
X0168681Y0224036D01*
X0168571Y0224191D01*
X0168458Y0224344D01*
X0168340Y0224494D01*
X0168219Y0224640D01*
X0168095Y0224784D01*
X0167967Y0224925D01*
X0167836Y0225063D01*
X0167701Y0225198D01*
X0167563Y0225329D01*
X0167422Y0225457D01*
X0167278Y0225581D01*
X0167132Y0225702D01*
X0166982Y0225820D01*
X0166829Y0225933D01*
X0166674Y0226043D01*
X0166516Y0226149D01*
X0166356Y0226252D01*
X0166193Y0226350D01*
X0166028Y0226445D01*
X0165860Y0226535D01*
X0165691Y0226621D01*
X0165519Y0226704D01*
X0165346Y0226782D01*
X0165170Y0226856D01*
X0164993Y0226925D01*
X0164814Y0226991D01*
X0164634Y0227052D01*
X0164453Y0227108D01*
X0164270Y0227160D01*
X0164085Y0227208D01*
X0163900Y0227251D01*
X0163714Y0227290D01*
X0163527Y0227325D01*
X0163339Y0227354D01*
X0163150Y0227380D01*
X0162961Y0227400D01*
X0162771Y0227416D01*
X0162581Y0227428D01*
X0162391Y0227435D01*
X0162201Y0227437D01*
X0151107Y0238156D02*
X0114241Y0238156D01*
X0114669Y0239755D02*
X0150679Y0239755D01*
X0149914Y0241353D02*
X0115434Y0241353D01*
X0116356Y0242952D02*
X0148991Y0242952D01*
X0147495Y0244550D02*
X0117853Y0244550D01*
X0119865Y0246149D02*
X0145483Y0246149D01*
X0141767Y0247747D02*
X0123581Y0247747D01*
X0126768Y0251059D02*
X0138579Y0251059D01*
X0138834Y0209383D02*
X0128482Y0209383D01*
X0142261Y0209383D02*
X0156808Y0209383D01*
X0166111Y0200941D02*
X0167275Y0202105D01*
X0167275Y0199776D01*
X0166111Y0200941D01*
X0166560Y0201390D02*
X0167275Y0201390D01*
X0167260Y0199792D02*
X0167275Y0199792D01*
X0167275Y0192105D02*
X0166111Y0190941D01*
X0167275Y0189776D01*
X0167275Y0192105D01*
X0167275Y0191799D02*
X0166969Y0191799D01*
X0166851Y0190201D02*
X0167275Y0190201D01*
X0170075Y0176256D02*
X0170077Y0176066D01*
X0170084Y0175876D01*
X0170096Y0175686D01*
X0170112Y0175496D01*
X0170132Y0175307D01*
X0170158Y0175118D01*
X0170187Y0174930D01*
X0170222Y0174743D01*
X0170261Y0174557D01*
X0170304Y0174372D01*
X0170352Y0174187D01*
X0170404Y0174004D01*
X0170460Y0173823D01*
X0170521Y0173643D01*
X0170587Y0173464D01*
X0170656Y0173287D01*
X0170730Y0173111D01*
X0170808Y0172938D01*
X0170891Y0172766D01*
X0170977Y0172597D01*
X0171067Y0172429D01*
X0171162Y0172264D01*
X0171260Y0172101D01*
X0171363Y0171941D01*
X0171469Y0171783D01*
X0171579Y0171628D01*
X0171692Y0171475D01*
X0171810Y0171325D01*
X0171931Y0171179D01*
X0172055Y0171035D01*
X0172183Y0170894D01*
X0172314Y0170756D01*
X0172449Y0170621D01*
X0172587Y0170490D01*
X0172728Y0170362D01*
X0172872Y0170238D01*
X0173018Y0170117D01*
X0173168Y0169999D01*
X0173321Y0169886D01*
X0173476Y0169776D01*
X0173634Y0169670D01*
X0173794Y0169567D01*
X0173957Y0169469D01*
X0174122Y0169374D01*
X0174290Y0169284D01*
X0174459Y0169198D01*
X0174631Y0169115D01*
X0174804Y0169037D01*
X0174980Y0168963D01*
X0175157Y0168894D01*
X0175336Y0168828D01*
X0175516Y0168767D01*
X0175697Y0168711D01*
X0175880Y0168659D01*
X0176065Y0168611D01*
X0176250Y0168568D01*
X0176436Y0168529D01*
X0176623Y0168494D01*
X0176811Y0168465D01*
X0177000Y0168439D01*
X0177189Y0168419D01*
X0177379Y0168403D01*
X0177569Y0168391D01*
X0177759Y0168384D01*
X0177949Y0168382D01*
X0252753Y0168382D01*
X0260394Y0168614D02*
X0260394Y0168614D01*
X0263427Y0177413D02*
X0281449Y0177413D01*
X0281449Y0179011D02*
X0276272Y0179011D01*
X0276024Y0178763D02*
X0277805Y0180544D01*
X0278768Y0182871D01*
X0278768Y0185389D01*
X0277805Y0187716D01*
X0276024Y0189497D01*
X0273697Y0190461D01*
X0271178Y0190461D01*
X0268852Y0189497D01*
X0267071Y0187716D01*
X0266107Y0185389D01*
X0266107Y0182871D01*
X0267071Y0180544D01*
X0268852Y0178763D01*
X0271178Y0177799D01*
X0273697Y0177799D01*
X0276024Y0178763D01*
X0277832Y0180610D02*
X0281449Y0180610D01*
X0281449Y0182208D02*
X0278494Y0182208D01*
X0278768Y0183807D02*
X0281449Y0183807D01*
X0281449Y0185405D02*
X0278762Y0185405D01*
X0278100Y0187004D02*
X0281449Y0187004D01*
X0281449Y0188602D02*
X0276918Y0188602D01*
X0274324Y0190201D02*
X0281449Y0190201D01*
X0281449Y0191799D02*
X0263427Y0191799D01*
X0263427Y0190201D02*
X0270551Y0190201D01*
X0267957Y0188602D02*
X0263427Y0188602D01*
X0263427Y0187004D02*
X0266776Y0187004D01*
X0266114Y0185405D02*
X0263427Y0185405D01*
X0263427Y0183807D02*
X0266107Y0183807D01*
X0266381Y0182208D02*
X0263427Y0182208D01*
X0263427Y0180610D02*
X0267044Y0180610D01*
X0268604Y0179011D02*
X0263427Y0179011D01*
X0260627Y0176256D02*
X0260625Y0176066D01*
X0260618Y0175876D01*
X0260606Y0175686D01*
X0260590Y0175496D01*
X0260570Y0175307D01*
X0260544Y0175118D01*
X0260515Y0174930D01*
X0260480Y0174743D01*
X0260441Y0174557D01*
X0260398Y0174372D01*
X0260350Y0174187D01*
X0260298Y0174004D01*
X0260242Y0173823D01*
X0260181Y0173643D01*
X0260115Y0173464D01*
X0260046Y0173287D01*
X0259972Y0173111D01*
X0259894Y0172938D01*
X0259811Y0172766D01*
X0259725Y0172597D01*
X0259635Y0172429D01*
X0259540Y0172264D01*
X0259442Y0172101D01*
X0259339Y0171941D01*
X0259233Y0171783D01*
X0259123Y0171628D01*
X0259010Y0171475D01*
X0258892Y0171325D01*
X0258771Y0171179D01*
X0258647Y0171035D01*
X0258519Y0170894D01*
X0258388Y0170756D01*
X0258253Y0170621D01*
X0258115Y0170490D01*
X0257974Y0170362D01*
X0257830Y0170238D01*
X0257684Y0170117D01*
X0257534Y0169999D01*
X0257381Y0169886D01*
X0257226Y0169776D01*
X0257068Y0169670D01*
X0256908Y0169567D01*
X0256745Y0169469D01*
X0256580Y0169374D01*
X0256412Y0169284D01*
X0256243Y0169198D01*
X0256071Y0169115D01*
X0255898Y0169037D01*
X0255722Y0168963D01*
X0255545Y0168894D01*
X0255366Y0168828D01*
X0255186Y0168767D01*
X0255005Y0168711D01*
X0254822Y0168659D01*
X0254637Y0168611D01*
X0254452Y0168568D01*
X0254266Y0168529D01*
X0254079Y0168494D01*
X0253891Y0168465D01*
X0253702Y0168439D01*
X0253513Y0168419D01*
X0253323Y0168403D01*
X0253133Y0168391D01*
X0252943Y0168384D01*
X0252753Y0168382D01*
X0263427Y0193398D02*
X0281449Y0193398D01*
X0281449Y0194996D02*
X0276509Y0194996D01*
X0276024Y0194511D02*
X0277805Y0196292D01*
X0278768Y0198619D01*
X0278768Y0201137D01*
X0277805Y0203464D01*
X0276024Y0205245D01*
X0273697Y0206209D01*
X0271178Y0206209D01*
X0268852Y0205245D01*
X0267071Y0203464D01*
X0266107Y0201137D01*
X0266107Y0198619D01*
X0267071Y0196292D01*
X0268852Y0194511D01*
X0271178Y0193547D01*
X0273697Y0193547D01*
X0276024Y0194511D01*
X0277930Y0196595D02*
X0281449Y0196595D01*
X0281449Y0198193D02*
X0278592Y0198193D01*
X0278768Y0199792D02*
X0281449Y0199792D01*
X0281449Y0201390D02*
X0278664Y0201390D01*
X0278001Y0202989D02*
X0281449Y0202989D01*
X0281449Y0204587D02*
X0276681Y0204587D01*
X0273752Y0206186D02*
X0281449Y0206186D01*
X0281449Y0207784D02*
X0263427Y0207784D01*
X0263427Y0206186D02*
X0271123Y0206186D01*
X0270967Y0209383D02*
X0263427Y0209383D01*
X0263427Y0210981D02*
X0268129Y0210981D01*
X0266847Y0212580D02*
X0263427Y0212580D01*
X0263427Y0214178D02*
X0266185Y0214178D01*
X0266107Y0215777D02*
X0263427Y0215777D01*
X0263427Y0217375D02*
X0266310Y0217375D01*
X0266972Y0218974D02*
X0263427Y0218974D01*
X0273908Y0209383D02*
X0281449Y0209383D01*
X0281449Y0210981D02*
X0276746Y0210981D01*
X0278028Y0212580D02*
X0281449Y0212580D01*
X0281449Y0214178D02*
X0278690Y0214178D01*
X0278768Y0215777D02*
X0281449Y0215777D01*
X0281449Y0217375D02*
X0278565Y0217375D01*
X0276444Y0220572D02*
X0281316Y0220572D01*
X0268194Y0204587D02*
X0263427Y0204587D01*
X0263427Y0202989D02*
X0266874Y0202989D01*
X0266212Y0201390D02*
X0263427Y0201390D01*
X0263427Y0199792D02*
X0266107Y0199792D01*
X0266283Y0198193D02*
X0263427Y0198193D01*
X0263427Y0196595D02*
X0266945Y0196595D01*
X0268366Y0194996D02*
X0263427Y0194996D01*
X0187645Y0132654D02*
X0175508Y0132654D01*
X0176729Y0134253D02*
X0186047Y0134253D01*
X0184448Y0135851D02*
X0177078Y0135851D01*
X0176771Y0137450D02*
X0182850Y0137450D01*
X0181251Y0139048D02*
X0175609Y0139048D01*
X0175428Y0140647D02*
X0179653Y0140647D01*
X0178054Y0142245D02*
X0175428Y0142245D01*
X0175428Y0143844D02*
X0176456Y0143844D01*
X0175556Y0161374D02*
X0175048Y0161882D01*
X0175322Y0161996D01*
X0175882Y0162556D01*
X0175556Y0161767D01*
X0175556Y0161374D01*
X0175556Y0161427D02*
X0175503Y0161427D01*
X0177078Y0164653D02*
X0177078Y0165582D01*
X0177393Y0165582D01*
X0178008Y0165582D01*
X0177078Y0164653D01*
X0149965Y0162594D02*
X0149965Y0156530D01*
X0150477Y0156018D01*
X0145279Y0156018D01*
X0145582Y0156750D01*
X0145582Y0158211D01*
X0149965Y0162594D01*
X0149965Y0161427D02*
X0148799Y0161427D01*
X0149965Y0159829D02*
X0147200Y0159829D01*
X0145602Y0158230D02*
X0149965Y0158230D01*
X0149965Y0156632D02*
X0145533Y0156632D01*
X0143609Y0163026D02*
X0139467Y0163026D01*
X0139989Y0161427D02*
X0140298Y0161427D01*
X0138494Y0164624D02*
X0145207Y0164624D01*
X0146806Y0166223D02*
X0136404Y0166223D01*
X0136383Y0143844D02*
X0080193Y0143844D01*
X0080245Y0142245D02*
X0112621Y0142245D01*
X0110148Y0136454D02*
X0109970Y0136277D01*
X0107073Y0133380D01*
X0079992Y0133380D01*
X0080245Y0133991D01*
X0080245Y0135844D01*
X0079992Y0136454D01*
X0110148Y0136454D01*
X0109544Y0135851D02*
X0080242Y0135851D01*
X0080245Y0134253D02*
X0107946Y0134253D01*
X0109939Y0129457D02*
X0125423Y0129457D01*
X0125409Y0124643D02*
X0126443Y0123610D01*
X0127931Y0122993D01*
X0129542Y0122993D01*
X0131031Y0123610D01*
X0132170Y0124749D01*
X0132345Y0125172D01*
X0132853Y0124962D01*
X0134314Y0124962D01*
X0136372Y0122904D01*
X0109007Y0122904D01*
X0109165Y0123285D01*
X0109165Y0124643D01*
X0125409Y0124643D01*
X0127763Y0123063D02*
X0109073Y0123063D01*
X0108222Y0117404D02*
X0113442Y0117404D01*
X0112876Y0116038D01*
X0112876Y0114427D01*
X0113181Y0113689D01*
X0104680Y0113689D01*
X0103509Y0112517D01*
X0103509Y0103218D01*
X0080540Y0103218D01*
X0080540Y0104250D01*
X0079368Y0105421D01*
X0079187Y0105421D01*
X0079187Y0107327D01*
X0079368Y0107327D01*
X0080540Y0108498D01*
X0080540Y0114401D01*
X0082301Y0114401D01*
X0083068Y0113634D01*
X0081924Y0113634D01*
X0080753Y0112462D01*
X0080753Y0104506D01*
X0081924Y0103335D01*
X0095392Y0103335D01*
X0096564Y0104506D01*
X0096564Y0109530D01*
X0099756Y0109530D01*
X0100767Y0109948D01*
X0101541Y0110722D01*
X0108222Y0117404D01*
X0107488Y0116669D02*
X0113137Y0116669D01*
X0112876Y0115071D02*
X0105889Y0115071D01*
X0104463Y0113472D02*
X0104291Y0113472D01*
X0103509Y0111874D02*
X0102692Y0111874D01*
X0101541Y0110722D02*
X0101541Y0110722D01*
X0101094Y0110275D02*
X0103509Y0110275D01*
X0103509Y0108677D02*
X0096564Y0108677D01*
X0096564Y0107078D02*
X0103509Y0107078D01*
X0103509Y0105480D02*
X0096564Y0105480D01*
X0095938Y0103881D02*
X0103509Y0103881D01*
X0103509Y0097719D02*
X0103509Y0086451D01*
X0104191Y0085769D01*
X0103802Y0085608D01*
X0103627Y0086030D01*
X0102488Y0087170D01*
X0100999Y0087786D01*
X0099388Y0087786D01*
X0097899Y0087170D01*
X0096760Y0086030D01*
X0096144Y0084542D01*
X0096144Y0083080D01*
X0095262Y0082199D01*
X0091842Y0082199D01*
X0090960Y0081834D01*
X0089025Y0079899D01*
X0088439Y0080484D01*
X0088439Y0085174D01*
X0088600Y0085335D01*
X0095392Y0085335D01*
X0096564Y0086506D01*
X0096564Y0094462D01*
X0095392Y0095634D01*
X0088600Y0095634D01*
X0087012Y0097221D01*
X0085812Y0097719D01*
X0103509Y0097719D01*
X0103509Y0097487D02*
X0086371Y0097487D01*
X0088345Y0095888D02*
X0103509Y0095888D01*
X0103509Y0094290D02*
X0096564Y0094290D01*
X0096564Y0092691D02*
X0103509Y0092691D01*
X0103509Y0091093D02*
X0096564Y0091093D01*
X0096564Y0089494D02*
X0103509Y0089494D01*
X0103509Y0087896D02*
X0096564Y0087896D01*
X0096355Y0086297D02*
X0097027Y0086297D01*
X0096209Y0084699D02*
X0088439Y0084699D01*
X0088439Y0083100D02*
X0096144Y0083100D01*
X0090628Y0081502D02*
X0088439Y0081502D01*
X0089020Y0079903D02*
X0089030Y0079903D01*
X0091767Y0072190D02*
X0092512Y0071881D01*
X0094096Y0071881D01*
X0095016Y0072262D01*
X0097268Y0072262D01*
X0097268Y0072140D01*
X0098036Y0071372D01*
X0091767Y0071372D01*
X0091767Y0072190D01*
X0091767Y0071911D02*
X0092440Y0071911D01*
X0094167Y0071911D02*
X0097498Y0071911D01*
X0105501Y0071372D02*
X0106268Y0072140D01*
X0106268Y0072262D01*
X0107898Y0072262D01*
X0107898Y0072140D01*
X0108666Y0071372D01*
X0105501Y0071372D01*
X0106039Y0071911D02*
X0108128Y0071911D01*
X0116131Y0071372D02*
X0116898Y0072140D01*
X0116898Y0075448D01*
X0120974Y0071372D01*
X0116131Y0071372D01*
X0116669Y0071911D02*
X0120436Y0071911D01*
X0118837Y0073509D02*
X0116898Y0073509D01*
X0116898Y0075108D02*
X0117239Y0075108D01*
X0120830Y0078305D02*
X0124827Y0078305D01*
X0124827Y0079584D02*
X0124827Y0074307D01*
X0116008Y0083127D01*
X0115333Y0083802D01*
X0114450Y0084168D01*
X0108442Y0084168D01*
X0107409Y0085201D01*
X0107220Y0085280D01*
X0129172Y0085280D01*
X0130343Y0086451D01*
X0130343Y0101212D01*
X0131658Y0101212D01*
X0131658Y0100624D01*
X0132830Y0099453D01*
X0138588Y0099453D01*
X0140525Y0097516D01*
X0138588Y0095579D01*
X0132830Y0095579D01*
X0131658Y0094407D01*
X0131658Y0086680D01*
X0127151Y0082173D01*
X0127151Y0082173D01*
X0126363Y0081385D01*
X0126102Y0080756D01*
X0125999Y0080756D01*
X0124827Y0079584D01*
X0125146Y0079903D02*
X0119232Y0079903D01*
X0117633Y0081502D02*
X0126480Y0081502D01*
X0128078Y0083100D02*
X0116034Y0083100D01*
X0107911Y0084699D02*
X0129677Y0084699D01*
X0130189Y0086297D02*
X0131275Y0086297D01*
X0131658Y0087896D02*
X0130343Y0087896D01*
X0130343Y0089494D02*
X0131658Y0089494D01*
X0131658Y0091093D02*
X0130343Y0091093D01*
X0130343Y0092691D02*
X0131658Y0092691D01*
X0131658Y0094290D02*
X0130343Y0094290D01*
X0130343Y0095888D02*
X0138898Y0095888D01*
X0140496Y0097487D02*
X0130343Y0097487D01*
X0130343Y0099086D02*
X0138955Y0099086D01*
X0137989Y0104012D02*
X0144485Y0097516D01*
X0148033Y0097516D01*
X0144485Y0097516D02*
X0137989Y0091020D01*
X0136611Y0091020D01*
X0141564Y0090635D02*
X0141633Y0090704D01*
X0141633Y0086813D01*
X0141564Y0086743D01*
X0141564Y0087632D01*
X0141564Y0090635D01*
X0141564Y0089494D02*
X0141633Y0089494D01*
X0141633Y0087896D02*
X0141564Y0087896D01*
X0143745Y0092816D02*
X0144045Y0093116D01*
X0153261Y0093116D01*
X0154433Y0094287D01*
X0154433Y0094766D01*
X0157255Y0094766D01*
X0157939Y0094082D01*
X0159427Y0093466D01*
X0159571Y0093466D01*
X0159136Y0092416D01*
X0159136Y0090805D01*
X0159752Y0089316D01*
X0159979Y0089089D01*
X0154834Y0089089D01*
X0154433Y0088923D01*
X0154433Y0091644D01*
X0153261Y0092816D01*
X0143745Y0092816D01*
X0147196Y0088416D02*
X0142516Y0083736D01*
X0137201Y0083736D01*
X0136611Y0084327D01*
X0133264Y0084327D01*
X0128737Y0079799D01*
X0128737Y0076453D01*
X0129327Y0075862D01*
X0124827Y0075108D02*
X0124027Y0075108D01*
X0124827Y0076706D02*
X0122429Y0076706D01*
X0133827Y0076706D02*
X0148121Y0076706D01*
X0147109Y0077718D02*
X0149340Y0075487D01*
X0150015Y0074812D01*
X0150897Y0074446D01*
X0186013Y0074446D01*
X0185710Y0073715D01*
X0185710Y0073341D01*
X0133827Y0073341D01*
X0133827Y0079584D01*
X0133644Y0079768D01*
X0140392Y0079768D01*
X0141561Y0080936D01*
X0142414Y0080936D01*
X0143020Y0079474D01*
X0144159Y0078334D01*
X0145648Y0077718D01*
X0147109Y0077718D01*
X0144230Y0078305D02*
X0133827Y0078305D01*
X0133827Y0075108D02*
X0149719Y0075108D01*
X0153495Y0079246D02*
X0153669Y0079319D01*
X0154808Y0080458D01*
X0155425Y0081946D01*
X0155425Y0083408D01*
X0156306Y0084289D01*
X0157027Y0084289D01*
X0156800Y0084062D01*
X0156183Y0082573D01*
X0156183Y0080962D01*
X0156800Y0079474D01*
X0157027Y0079246D01*
X0153495Y0079246D01*
X0154254Y0079903D02*
X0156621Y0079903D01*
X0156183Y0081502D02*
X0155241Y0081502D01*
X0155425Y0083100D02*
X0156401Y0083100D01*
X0154433Y0089494D02*
X0159678Y0089494D01*
X0159136Y0091093D02*
X0154433Y0091093D01*
X0153386Y0092691D02*
X0159250Y0092691D01*
X0157731Y0094290D02*
X0154433Y0094290D01*
X0154433Y0100266D02*
X0154433Y0100744D01*
X0153261Y0101916D01*
X0144045Y0101916D01*
X0143745Y0102216D01*
X0149405Y0102216D01*
X0149913Y0102006D01*
X0159858Y0102006D01*
X0160298Y0101566D01*
X0159427Y0101566D01*
X0157939Y0100949D01*
X0157255Y0100266D01*
X0154433Y0100266D01*
X0154433Y0100684D02*
X0157674Y0100684D01*
X0163121Y0100356D02*
X0163991Y0100356D01*
X0165480Y0100972D01*
X0166103Y0101595D01*
X0166103Y0100266D01*
X0163210Y0100266D01*
X0163121Y0100356D01*
X0164784Y0100684D02*
X0166103Y0100684D01*
X0166103Y0094766D02*
X0165758Y0094766D01*
X0166103Y0094420D01*
X0166103Y0094766D01*
X0155502Y0106805D02*
X0154433Y0106805D01*
X0154433Y0109844D01*
X0154398Y0109880D01*
X0155502Y0109880D01*
X0155199Y0109148D01*
X0155199Y0107537D01*
X0155502Y0106805D01*
X0155389Y0107078D02*
X0154433Y0107078D01*
X0154433Y0108677D02*
X0155199Y0108677D01*
X0141633Y0105943D02*
X0141633Y0104327D01*
X0141564Y0104397D01*
X0141564Y0105943D01*
X0141633Y0105943D01*
X0141633Y0105480D02*
X0141564Y0105480D01*
X0137989Y0104012D02*
X0136611Y0104012D01*
X0121453Y0104012D01*
X0116926Y0099484D01*
X0130343Y0100684D02*
X0131658Y0100684D01*
X0131658Y0106812D02*
X0130343Y0106812D01*
X0130343Y0112517D01*
X0130028Y0112832D01*
X0131658Y0112832D01*
X0131658Y0107399D01*
X0131658Y0106812D01*
X0131658Y0107078D02*
X0130343Y0107078D01*
X0130343Y0108677D02*
X0131658Y0108677D01*
X0131658Y0110275D02*
X0130343Y0110275D01*
X0130343Y0111874D02*
X0131658Y0111874D01*
X0129711Y0123063D02*
X0136213Y0123063D01*
X0134614Y0124662D02*
X0132083Y0124662D01*
X0103629Y0127859D02*
X0062445Y0127859D01*
X0075587Y0118579D02*
X0076965Y0117201D01*
X0083461Y0117201D01*
X0088658Y0112004D01*
X0088658Y0108484D01*
X0089551Y0115071D02*
X0098111Y0115071D01*
X0099710Y0116669D02*
X0087953Y0116669D01*
X0086354Y0118268D02*
X0101308Y0118268D01*
X0102907Y0119866D02*
X0084343Y0119866D01*
X0080540Y0121465D02*
X0102013Y0121465D01*
X0101157Y0123063D02*
X0079443Y0123063D01*
X0080540Y0113472D02*
X0081762Y0113472D01*
X0080753Y0111874D02*
X0080540Y0111874D01*
X0080540Y0110275D02*
X0080753Y0110275D01*
X0080753Y0108677D02*
X0080540Y0108677D01*
X0080753Y0107078D02*
X0079187Y0107078D01*
X0079187Y0105480D02*
X0080753Y0105480D01*
X0080540Y0103881D02*
X0081378Y0103881D01*
X0060619Y0087896D02*
X0035080Y0087896D01*
X0035080Y0089494D02*
X0035428Y0089494D01*
X0035080Y0083100D02*
X0042833Y0083100D01*
X0041234Y0081502D02*
X0035080Y0081502D01*
X0035080Y0079903D02*
X0039636Y0079903D01*
X0038037Y0078305D02*
X0035080Y0078305D01*
X0035080Y0076706D02*
X0036439Y0076706D01*
X0053115Y0079903D02*
X0054669Y0079903D01*
X0065883Y0063918D02*
X0077400Y0063918D01*
X0077938Y0064456D02*
X0077938Y0064456D01*
X0078817Y0065335D02*
X0078817Y0065335D01*
X0079524Y0062083D02*
X0063776Y0046335D01*
X0063013Y0049532D02*
X0061690Y0049532D01*
X0063289Y0051130D02*
X0064612Y0051130D01*
X0064887Y0052729D02*
X0066211Y0052729D01*
X0066486Y0054327D02*
X0067809Y0054327D01*
X0068084Y0055926D02*
X0069408Y0055926D01*
X0069683Y0057524D02*
X0071006Y0057524D01*
X0070151Y0059123D02*
X0072605Y0059123D01*
X0074203Y0060721D02*
X0069080Y0060721D01*
X0067481Y0062320D02*
X0075802Y0062320D01*
X0085220Y0068537D02*
X0085220Y0068537D01*
X0087398Y0066020D02*
X0205509Y0066020D01*
X0205699Y0066018D01*
X0205889Y0066011D01*
X0206079Y0065999D01*
X0206269Y0065983D01*
X0206458Y0065963D01*
X0206647Y0065937D01*
X0206835Y0065908D01*
X0207022Y0065873D01*
X0207208Y0065834D01*
X0207393Y0065791D01*
X0207578Y0065743D01*
X0207761Y0065691D01*
X0207942Y0065635D01*
X0208122Y0065574D01*
X0208301Y0065508D01*
X0208478Y0065439D01*
X0208654Y0065365D01*
X0208827Y0065287D01*
X0208999Y0065204D01*
X0209168Y0065118D01*
X0209336Y0065028D01*
X0209501Y0064933D01*
X0209664Y0064835D01*
X0209824Y0064732D01*
X0209982Y0064626D01*
X0210137Y0064516D01*
X0210290Y0064403D01*
X0210440Y0064285D01*
X0210586Y0064164D01*
X0210730Y0064040D01*
X0210871Y0063912D01*
X0211009Y0063781D01*
X0211144Y0063646D01*
X0211275Y0063508D01*
X0211403Y0063367D01*
X0211527Y0063223D01*
X0211648Y0063077D01*
X0211766Y0062927D01*
X0211879Y0062774D01*
X0211989Y0062619D01*
X0212095Y0062461D01*
X0212198Y0062301D01*
X0212296Y0062138D01*
X0212391Y0061973D01*
X0212481Y0061805D01*
X0212567Y0061636D01*
X0212650Y0061464D01*
X0212728Y0061291D01*
X0212802Y0061115D01*
X0212871Y0060938D01*
X0212937Y0060759D01*
X0212998Y0060579D01*
X0213054Y0060398D01*
X0213106Y0060215D01*
X0213154Y0060030D01*
X0213197Y0059845D01*
X0213236Y0059659D01*
X0213271Y0059472D01*
X0213300Y0059284D01*
X0213326Y0059095D01*
X0213346Y0058906D01*
X0213362Y0058716D01*
X0213374Y0058526D01*
X0213381Y0058336D01*
X0213383Y0058146D01*
X0185710Y0073509D02*
X0133827Y0073509D01*
X0140528Y0079903D02*
X0142842Y0079903D01*
X0147196Y0088416D02*
X0148033Y0088416D01*
X0172097Y0124662D02*
X0174968Y0124662D01*
X0173370Y0126260D02*
X0172469Y0126260D01*
X0188641Y0123063D02*
X0212079Y0123063D01*
X0212079Y0121465D02*
X0189664Y0121465D01*
X0189873Y0119866D02*
X0203736Y0119866D01*
X0201974Y0118268D02*
X0189426Y0118268D01*
X0207281Y0119866D02*
X0212079Y0119866D01*
X0212079Y0118268D02*
X0209043Y0118268D01*
X0209559Y0116669D02*
X0212079Y0116669D01*
X0103662Y0086297D02*
X0103360Y0086297D01*
X0087399Y0066019D02*
X0087071Y0065968D01*
X0086744Y0065910D01*
X0086419Y0065843D01*
X0086096Y0065769D01*
X0085774Y0065687D01*
X0085455Y0065598D01*
X0085138Y0065501D01*
X0084823Y0065396D01*
X0084511Y0065284D01*
X0084201Y0065165D01*
X0083895Y0065038D01*
X0083591Y0064904D01*
X0083291Y0064763D01*
X0082994Y0064614D01*
X0082701Y0064459D01*
X0082412Y0064297D01*
X0082127Y0064128D01*
X0081845Y0063952D01*
X0081568Y0063769D01*
X0081296Y0063580D01*
X0081028Y0063384D01*
X0080765Y0063183D01*
X0080506Y0062974D01*
X0080253Y0062760D01*
X0080005Y0062540D01*
X0079762Y0062314D01*
X0079525Y0062082D01*
X0063777Y0046334D02*
X0063629Y0046287D01*
X0063480Y0046244D01*
X0063330Y0046204D01*
X0063179Y0046168D01*
X0063027Y0046136D01*
X0062874Y0046107D01*
X0062721Y0046082D01*
X0062567Y0046061D01*
X0062413Y0046044D01*
X0062258Y0046031D01*
X0062103Y0046022D01*
X0061948Y0046017D01*
X0061793Y0046015D01*
X0061638Y0046017D01*
X0061483Y0046023D01*
X0061328Y0046034D01*
X0061173Y0046047D01*
X0061019Y0046065D01*
X0060866Y0046087D01*
X0060712Y0046112D01*
X0060560Y0046141D01*
X0060408Y0046174D01*
X0060258Y0046211D01*
X0060108Y0046252D01*
X0059959Y0046296D01*
X0059811Y0046344D01*
X0059665Y0046396D01*
X0059520Y0046451D01*
X0059376Y0046510D01*
X0059234Y0046572D01*
X0059094Y0046638D01*
X0058955Y0046707D01*
X0058818Y0046780D01*
X0058683Y0046856D01*
X0058549Y0046936D01*
X0058418Y0047019D01*
X0058289Y0047105D01*
X0058162Y0047194D01*
X0058038Y0047287D01*
X0057915Y0047382D01*
X0057795Y0047481D01*
X0057678Y0047582D01*
X0057563Y0047687D01*
X0057451Y0047794D01*
X0057341Y0047904D01*
X0057235Y0048017D01*
X0057131Y0048132D01*
X0057030Y0048250D01*
X0056932Y0048370D01*
X0056837Y0048493D01*
X0056745Y0048618D01*
X0056656Y0048746D01*
X0056571Y0048875D01*
X0056489Y0049007D01*
X0056410Y0049140D01*
X0056334Y0049276D01*
X0056262Y0049413D01*
X0056193Y0049552D01*
X0056128Y0049693D01*
X0056066Y0049836D01*
X0056008Y0049980D01*
X0055953Y0050125D01*
X0055902Y0050271D01*
X0055118Y0057524D02*
X0052609Y0057524D01*
X0057273Y0193398D02*
X0035080Y0193398D01*
X0035080Y0194996D02*
X0040020Y0194996D01*
X0038599Y0196595D02*
X0035080Y0196595D01*
X0035080Y0198193D02*
X0037937Y0198193D01*
X0037760Y0199792D02*
X0035080Y0199792D01*
X0035080Y0201390D02*
X0037865Y0201390D01*
X0038527Y0202989D02*
X0035080Y0202989D01*
X0035080Y0204587D02*
X0039848Y0204587D01*
X0042621Y0209383D02*
X0035080Y0209383D01*
X0035080Y0210981D02*
X0039783Y0210981D01*
X0038501Y0212580D02*
X0035080Y0212580D01*
X0035080Y0214178D02*
X0037839Y0214178D01*
X0037760Y0215777D02*
X0035080Y0215777D01*
X0035080Y0217375D02*
X0037964Y0217375D01*
X0040085Y0220572D02*
X0035213Y0220572D01*
X0035854Y0222171D02*
X0053067Y0222171D01*
X0053067Y0223769D02*
X0037418Y0223769D01*
X0048098Y0220572D02*
X0053538Y0220572D01*
X0059367Y0223972D02*
X0090863Y0223972D01*
X0093304Y0221531D01*
X0090231Y0218974D02*
X0049557Y0218974D01*
X0065195Y0220572D02*
X0089392Y0220572D01*
X0062069Y0198193D02*
X0050246Y0198193D01*
X0049584Y0196595D02*
X0060470Y0196595D01*
X0058872Y0194996D02*
X0048162Y0194996D01*
D11*
X0039760Y0199878D02*
X0039762Y0200009D01*
X0039768Y0200141D01*
X0039778Y0200272D01*
X0039792Y0200403D01*
X0039810Y0200533D01*
X0039832Y0200662D01*
X0039857Y0200791D01*
X0039887Y0200919D01*
X0039921Y0201046D01*
X0039958Y0201173D01*
X0039999Y0201297D01*
X0040044Y0201421D01*
X0040093Y0201543D01*
X0040145Y0201664D01*
X0040201Y0201782D01*
X0040261Y0201900D01*
X0040324Y0202015D01*
X0040391Y0202128D01*
X0040461Y0202240D01*
X0040534Y0202349D01*
X0040610Y0202455D01*
X0040690Y0202560D01*
X0040773Y0202662D01*
X0040859Y0202761D01*
X0040948Y0202858D01*
X0041040Y0202952D01*
X0041135Y0203043D01*
X0041232Y0203132D01*
X0041332Y0203217D01*
X0041435Y0203299D01*
X0041540Y0203378D01*
X0041647Y0203454D01*
X0041757Y0203526D01*
X0041869Y0203595D01*
X0041983Y0203661D01*
X0042098Y0203723D01*
X0042216Y0203782D01*
X0042335Y0203837D01*
X0042456Y0203889D01*
X0042579Y0203936D01*
X0042703Y0203980D01*
X0042828Y0204021D01*
X0042954Y0204057D01*
X0043082Y0204090D01*
X0043210Y0204118D01*
X0043339Y0204143D01*
X0043469Y0204164D01*
X0043599Y0204181D01*
X0043730Y0204194D01*
X0043861Y0204203D01*
X0043992Y0204208D01*
X0044124Y0204209D01*
X0044255Y0204206D01*
X0044387Y0204199D01*
X0044518Y0204188D01*
X0044648Y0204173D01*
X0044778Y0204154D01*
X0044908Y0204131D01*
X0045036Y0204105D01*
X0045164Y0204074D01*
X0045291Y0204039D01*
X0045417Y0204001D01*
X0045541Y0203959D01*
X0045665Y0203913D01*
X0045786Y0203863D01*
X0045906Y0203810D01*
X0046025Y0203753D01*
X0046142Y0203693D01*
X0046256Y0203629D01*
X0046369Y0203561D01*
X0046480Y0203490D01*
X0046589Y0203416D01*
X0046695Y0203339D01*
X0046799Y0203258D01*
X0046900Y0203175D01*
X0046999Y0203088D01*
X0047095Y0202998D01*
X0047188Y0202905D01*
X0047279Y0202810D01*
X0047366Y0202712D01*
X0047451Y0202611D01*
X0047532Y0202508D01*
X0047610Y0202402D01*
X0047685Y0202294D01*
X0047757Y0202184D01*
X0047825Y0202072D01*
X0047890Y0201958D01*
X0047951Y0201841D01*
X0048009Y0201723D01*
X0048063Y0201603D01*
X0048114Y0201482D01*
X0048161Y0201359D01*
X0048204Y0201235D01*
X0048243Y0201110D01*
X0048279Y0200983D01*
X0048310Y0200855D01*
X0048338Y0200727D01*
X0048362Y0200598D01*
X0048382Y0200468D01*
X0048398Y0200337D01*
X0048410Y0200206D01*
X0048418Y0200075D01*
X0048422Y0199944D01*
X0048422Y0199812D01*
X0048418Y0199681D01*
X0048410Y0199550D01*
X0048398Y0199419D01*
X0048382Y0199288D01*
X0048362Y0199158D01*
X0048338Y0199029D01*
X0048310Y0198901D01*
X0048279Y0198773D01*
X0048243Y0198646D01*
X0048204Y0198521D01*
X0048161Y0198397D01*
X0048114Y0198274D01*
X0048063Y0198153D01*
X0048009Y0198033D01*
X0047951Y0197915D01*
X0047890Y0197798D01*
X0047825Y0197684D01*
X0047757Y0197572D01*
X0047685Y0197462D01*
X0047610Y0197354D01*
X0047532Y0197248D01*
X0047451Y0197145D01*
X0047366Y0197044D01*
X0047279Y0196946D01*
X0047188Y0196851D01*
X0047095Y0196758D01*
X0046999Y0196668D01*
X0046900Y0196581D01*
X0046799Y0196498D01*
X0046695Y0196417D01*
X0046589Y0196340D01*
X0046480Y0196266D01*
X0046369Y0196195D01*
X0046257Y0196127D01*
X0046142Y0196063D01*
X0046025Y0196003D01*
X0045906Y0195946D01*
X0045786Y0195893D01*
X0045665Y0195843D01*
X0045541Y0195797D01*
X0045417Y0195755D01*
X0045291Y0195717D01*
X0045164Y0195682D01*
X0045036Y0195651D01*
X0044908Y0195625D01*
X0044778Y0195602D01*
X0044648Y0195583D01*
X0044518Y0195568D01*
X0044387Y0195557D01*
X0044255Y0195550D01*
X0044124Y0195547D01*
X0043992Y0195548D01*
X0043861Y0195553D01*
X0043730Y0195562D01*
X0043599Y0195575D01*
X0043469Y0195592D01*
X0043339Y0195613D01*
X0043210Y0195638D01*
X0043082Y0195666D01*
X0042954Y0195699D01*
X0042828Y0195735D01*
X0042703Y0195776D01*
X0042579Y0195820D01*
X0042456Y0195867D01*
X0042335Y0195919D01*
X0042216Y0195974D01*
X0042098Y0196033D01*
X0041983Y0196095D01*
X0041869Y0196161D01*
X0041757Y0196230D01*
X0041647Y0196302D01*
X0041540Y0196378D01*
X0041435Y0196457D01*
X0041332Y0196539D01*
X0041232Y0196624D01*
X0041135Y0196713D01*
X0041040Y0196804D01*
X0040948Y0196898D01*
X0040859Y0196995D01*
X0040773Y0197094D01*
X0040690Y0197196D01*
X0040610Y0197301D01*
X0040534Y0197407D01*
X0040461Y0197516D01*
X0040391Y0197628D01*
X0040324Y0197741D01*
X0040261Y0197856D01*
X0040201Y0197974D01*
X0040145Y0198092D01*
X0040093Y0198213D01*
X0040044Y0198335D01*
X0039999Y0198459D01*
X0039958Y0198583D01*
X0039921Y0198710D01*
X0039887Y0198837D01*
X0039857Y0198965D01*
X0039832Y0199094D01*
X0039810Y0199223D01*
X0039792Y0199353D01*
X0039778Y0199484D01*
X0039768Y0199615D01*
X0039762Y0199747D01*
X0039760Y0199878D01*
X0039760Y0184130D02*
X0039762Y0184261D01*
X0039768Y0184393D01*
X0039778Y0184524D01*
X0039792Y0184655D01*
X0039810Y0184785D01*
X0039832Y0184914D01*
X0039857Y0185043D01*
X0039887Y0185171D01*
X0039921Y0185298D01*
X0039958Y0185425D01*
X0039999Y0185549D01*
X0040044Y0185673D01*
X0040093Y0185795D01*
X0040145Y0185916D01*
X0040201Y0186034D01*
X0040261Y0186152D01*
X0040324Y0186267D01*
X0040391Y0186380D01*
X0040461Y0186492D01*
X0040534Y0186601D01*
X0040610Y0186707D01*
X0040690Y0186812D01*
X0040773Y0186914D01*
X0040859Y0187013D01*
X0040948Y0187110D01*
X0041040Y0187204D01*
X0041135Y0187295D01*
X0041232Y0187384D01*
X0041332Y0187469D01*
X0041435Y0187551D01*
X0041540Y0187630D01*
X0041647Y0187706D01*
X0041757Y0187778D01*
X0041869Y0187847D01*
X0041983Y0187913D01*
X0042098Y0187975D01*
X0042216Y0188034D01*
X0042335Y0188089D01*
X0042456Y0188141D01*
X0042579Y0188188D01*
X0042703Y0188232D01*
X0042828Y0188273D01*
X0042954Y0188309D01*
X0043082Y0188342D01*
X0043210Y0188370D01*
X0043339Y0188395D01*
X0043469Y0188416D01*
X0043599Y0188433D01*
X0043730Y0188446D01*
X0043861Y0188455D01*
X0043992Y0188460D01*
X0044124Y0188461D01*
X0044255Y0188458D01*
X0044387Y0188451D01*
X0044518Y0188440D01*
X0044648Y0188425D01*
X0044778Y0188406D01*
X0044908Y0188383D01*
X0045036Y0188357D01*
X0045164Y0188326D01*
X0045291Y0188291D01*
X0045417Y0188253D01*
X0045541Y0188211D01*
X0045665Y0188165D01*
X0045786Y0188115D01*
X0045906Y0188062D01*
X0046025Y0188005D01*
X0046142Y0187945D01*
X0046256Y0187881D01*
X0046369Y0187813D01*
X0046480Y0187742D01*
X0046589Y0187668D01*
X0046695Y0187591D01*
X0046799Y0187510D01*
X0046900Y0187427D01*
X0046999Y0187340D01*
X0047095Y0187250D01*
X0047188Y0187157D01*
X0047279Y0187062D01*
X0047366Y0186964D01*
X0047451Y0186863D01*
X0047532Y0186760D01*
X0047610Y0186654D01*
X0047685Y0186546D01*
X0047757Y0186436D01*
X0047825Y0186324D01*
X0047890Y0186210D01*
X0047951Y0186093D01*
X0048009Y0185975D01*
X0048063Y0185855D01*
X0048114Y0185734D01*
X0048161Y0185611D01*
X0048204Y0185487D01*
X0048243Y0185362D01*
X0048279Y0185235D01*
X0048310Y0185107D01*
X0048338Y0184979D01*
X0048362Y0184850D01*
X0048382Y0184720D01*
X0048398Y0184589D01*
X0048410Y0184458D01*
X0048418Y0184327D01*
X0048422Y0184196D01*
X0048422Y0184064D01*
X0048418Y0183933D01*
X0048410Y0183802D01*
X0048398Y0183671D01*
X0048382Y0183540D01*
X0048362Y0183410D01*
X0048338Y0183281D01*
X0048310Y0183153D01*
X0048279Y0183025D01*
X0048243Y0182898D01*
X0048204Y0182773D01*
X0048161Y0182649D01*
X0048114Y0182526D01*
X0048063Y0182405D01*
X0048009Y0182285D01*
X0047951Y0182167D01*
X0047890Y0182050D01*
X0047825Y0181936D01*
X0047757Y0181824D01*
X0047685Y0181714D01*
X0047610Y0181606D01*
X0047532Y0181500D01*
X0047451Y0181397D01*
X0047366Y0181296D01*
X0047279Y0181198D01*
X0047188Y0181103D01*
X0047095Y0181010D01*
X0046999Y0180920D01*
X0046900Y0180833D01*
X0046799Y0180750D01*
X0046695Y0180669D01*
X0046589Y0180592D01*
X0046480Y0180518D01*
X0046369Y0180447D01*
X0046257Y0180379D01*
X0046142Y0180315D01*
X0046025Y0180255D01*
X0045906Y0180198D01*
X0045786Y0180145D01*
X0045665Y0180095D01*
X0045541Y0180049D01*
X0045417Y0180007D01*
X0045291Y0179969D01*
X0045164Y0179934D01*
X0045036Y0179903D01*
X0044908Y0179877D01*
X0044778Y0179854D01*
X0044648Y0179835D01*
X0044518Y0179820D01*
X0044387Y0179809D01*
X0044255Y0179802D01*
X0044124Y0179799D01*
X0043992Y0179800D01*
X0043861Y0179805D01*
X0043730Y0179814D01*
X0043599Y0179827D01*
X0043469Y0179844D01*
X0043339Y0179865D01*
X0043210Y0179890D01*
X0043082Y0179918D01*
X0042954Y0179951D01*
X0042828Y0179987D01*
X0042703Y0180028D01*
X0042579Y0180072D01*
X0042456Y0180119D01*
X0042335Y0180171D01*
X0042216Y0180226D01*
X0042098Y0180285D01*
X0041983Y0180347D01*
X0041869Y0180413D01*
X0041757Y0180482D01*
X0041647Y0180554D01*
X0041540Y0180630D01*
X0041435Y0180709D01*
X0041332Y0180791D01*
X0041232Y0180876D01*
X0041135Y0180965D01*
X0041040Y0181056D01*
X0040948Y0181150D01*
X0040859Y0181247D01*
X0040773Y0181346D01*
X0040690Y0181448D01*
X0040610Y0181553D01*
X0040534Y0181659D01*
X0040461Y0181768D01*
X0040391Y0181880D01*
X0040324Y0181993D01*
X0040261Y0182108D01*
X0040201Y0182226D01*
X0040145Y0182344D01*
X0040093Y0182465D01*
X0040044Y0182587D01*
X0039999Y0182711D01*
X0039958Y0182835D01*
X0039921Y0182962D01*
X0039887Y0183089D01*
X0039857Y0183217D01*
X0039832Y0183346D01*
X0039810Y0183475D01*
X0039792Y0183605D01*
X0039778Y0183736D01*
X0039768Y0183867D01*
X0039762Y0183999D01*
X0039760Y0184130D01*
X0039760Y0215626D02*
X0039762Y0215757D01*
X0039768Y0215889D01*
X0039778Y0216020D01*
X0039792Y0216151D01*
X0039810Y0216281D01*
X0039832Y0216410D01*
X0039857Y0216539D01*
X0039887Y0216667D01*
X0039921Y0216794D01*
X0039958Y0216921D01*
X0039999Y0217045D01*
X0040044Y0217169D01*
X0040093Y0217291D01*
X0040145Y0217412D01*
X0040201Y0217530D01*
X0040261Y0217648D01*
X0040324Y0217763D01*
X0040391Y0217876D01*
X0040461Y0217988D01*
X0040534Y0218097D01*
X0040610Y0218203D01*
X0040690Y0218308D01*
X0040773Y0218410D01*
X0040859Y0218509D01*
X0040948Y0218606D01*
X0041040Y0218700D01*
X0041135Y0218791D01*
X0041232Y0218880D01*
X0041332Y0218965D01*
X0041435Y0219047D01*
X0041540Y0219126D01*
X0041647Y0219202D01*
X0041757Y0219274D01*
X0041869Y0219343D01*
X0041983Y0219409D01*
X0042098Y0219471D01*
X0042216Y0219530D01*
X0042335Y0219585D01*
X0042456Y0219637D01*
X0042579Y0219684D01*
X0042703Y0219728D01*
X0042828Y0219769D01*
X0042954Y0219805D01*
X0043082Y0219838D01*
X0043210Y0219866D01*
X0043339Y0219891D01*
X0043469Y0219912D01*
X0043599Y0219929D01*
X0043730Y0219942D01*
X0043861Y0219951D01*
X0043992Y0219956D01*
X0044124Y0219957D01*
X0044255Y0219954D01*
X0044387Y0219947D01*
X0044518Y0219936D01*
X0044648Y0219921D01*
X0044778Y0219902D01*
X0044908Y0219879D01*
X0045036Y0219853D01*
X0045164Y0219822D01*
X0045291Y0219787D01*
X0045417Y0219749D01*
X0045541Y0219707D01*
X0045665Y0219661D01*
X0045786Y0219611D01*
X0045906Y0219558D01*
X0046025Y0219501D01*
X0046142Y0219441D01*
X0046256Y0219377D01*
X0046369Y0219309D01*
X0046480Y0219238D01*
X0046589Y0219164D01*
X0046695Y0219087D01*
X0046799Y0219006D01*
X0046900Y0218923D01*
X0046999Y0218836D01*
X0047095Y0218746D01*
X0047188Y0218653D01*
X0047279Y0218558D01*
X0047366Y0218460D01*
X0047451Y0218359D01*
X0047532Y0218256D01*
X0047610Y0218150D01*
X0047685Y0218042D01*
X0047757Y0217932D01*
X0047825Y0217820D01*
X0047890Y0217706D01*
X0047951Y0217589D01*
X0048009Y0217471D01*
X0048063Y0217351D01*
X0048114Y0217230D01*
X0048161Y0217107D01*
X0048204Y0216983D01*
X0048243Y0216858D01*
X0048279Y0216731D01*
X0048310Y0216603D01*
X0048338Y0216475D01*
X0048362Y0216346D01*
X0048382Y0216216D01*
X0048398Y0216085D01*
X0048410Y0215954D01*
X0048418Y0215823D01*
X0048422Y0215692D01*
X0048422Y0215560D01*
X0048418Y0215429D01*
X0048410Y0215298D01*
X0048398Y0215167D01*
X0048382Y0215036D01*
X0048362Y0214906D01*
X0048338Y0214777D01*
X0048310Y0214649D01*
X0048279Y0214521D01*
X0048243Y0214394D01*
X0048204Y0214269D01*
X0048161Y0214145D01*
X0048114Y0214022D01*
X0048063Y0213901D01*
X0048009Y0213781D01*
X0047951Y0213663D01*
X0047890Y0213546D01*
X0047825Y0213432D01*
X0047757Y0213320D01*
X0047685Y0213210D01*
X0047610Y0213102D01*
X0047532Y0212996D01*
X0047451Y0212893D01*
X0047366Y0212792D01*
X0047279Y0212694D01*
X0047188Y0212599D01*
X0047095Y0212506D01*
X0046999Y0212416D01*
X0046900Y0212329D01*
X0046799Y0212246D01*
X0046695Y0212165D01*
X0046589Y0212088D01*
X0046480Y0212014D01*
X0046369Y0211943D01*
X0046257Y0211875D01*
X0046142Y0211811D01*
X0046025Y0211751D01*
X0045906Y0211694D01*
X0045786Y0211641D01*
X0045665Y0211591D01*
X0045541Y0211545D01*
X0045417Y0211503D01*
X0045291Y0211465D01*
X0045164Y0211430D01*
X0045036Y0211399D01*
X0044908Y0211373D01*
X0044778Y0211350D01*
X0044648Y0211331D01*
X0044518Y0211316D01*
X0044387Y0211305D01*
X0044255Y0211298D01*
X0044124Y0211295D01*
X0043992Y0211296D01*
X0043861Y0211301D01*
X0043730Y0211310D01*
X0043599Y0211323D01*
X0043469Y0211340D01*
X0043339Y0211361D01*
X0043210Y0211386D01*
X0043082Y0211414D01*
X0042954Y0211447D01*
X0042828Y0211483D01*
X0042703Y0211524D01*
X0042579Y0211568D01*
X0042456Y0211615D01*
X0042335Y0211667D01*
X0042216Y0211722D01*
X0042098Y0211781D01*
X0041983Y0211843D01*
X0041869Y0211909D01*
X0041757Y0211978D01*
X0041647Y0212050D01*
X0041540Y0212126D01*
X0041435Y0212205D01*
X0041332Y0212287D01*
X0041232Y0212372D01*
X0041135Y0212461D01*
X0041040Y0212552D01*
X0040948Y0212646D01*
X0040859Y0212743D01*
X0040773Y0212842D01*
X0040690Y0212944D01*
X0040610Y0213049D01*
X0040534Y0213155D01*
X0040461Y0213264D01*
X0040391Y0213376D01*
X0040324Y0213489D01*
X0040261Y0213604D01*
X0040201Y0213722D01*
X0040145Y0213840D01*
X0040093Y0213961D01*
X0040044Y0214083D01*
X0039999Y0214207D01*
X0039958Y0214331D01*
X0039921Y0214458D01*
X0039887Y0214585D01*
X0039857Y0214713D01*
X0039832Y0214842D01*
X0039810Y0214971D01*
X0039792Y0215101D01*
X0039778Y0215232D01*
X0039768Y0215363D01*
X0039762Y0215495D01*
X0039760Y0215626D01*
X0129327Y0231374D02*
X0129329Y0231505D01*
X0129335Y0231637D01*
X0129345Y0231768D01*
X0129359Y0231899D01*
X0129377Y0232029D01*
X0129399Y0232158D01*
X0129424Y0232287D01*
X0129454Y0232415D01*
X0129488Y0232542D01*
X0129525Y0232669D01*
X0129566Y0232793D01*
X0129611Y0232917D01*
X0129660Y0233039D01*
X0129712Y0233160D01*
X0129768Y0233278D01*
X0129828Y0233396D01*
X0129891Y0233511D01*
X0129958Y0233624D01*
X0130028Y0233736D01*
X0130101Y0233845D01*
X0130177Y0233951D01*
X0130257Y0234056D01*
X0130340Y0234158D01*
X0130426Y0234257D01*
X0130515Y0234354D01*
X0130607Y0234448D01*
X0130702Y0234539D01*
X0130799Y0234628D01*
X0130899Y0234713D01*
X0131002Y0234795D01*
X0131107Y0234874D01*
X0131214Y0234950D01*
X0131324Y0235022D01*
X0131436Y0235091D01*
X0131550Y0235157D01*
X0131665Y0235219D01*
X0131783Y0235278D01*
X0131902Y0235333D01*
X0132023Y0235385D01*
X0132146Y0235432D01*
X0132270Y0235476D01*
X0132395Y0235517D01*
X0132521Y0235553D01*
X0132649Y0235586D01*
X0132777Y0235614D01*
X0132906Y0235639D01*
X0133036Y0235660D01*
X0133166Y0235677D01*
X0133297Y0235690D01*
X0133428Y0235699D01*
X0133559Y0235704D01*
X0133691Y0235705D01*
X0133822Y0235702D01*
X0133954Y0235695D01*
X0134085Y0235684D01*
X0134215Y0235669D01*
X0134345Y0235650D01*
X0134475Y0235627D01*
X0134603Y0235601D01*
X0134731Y0235570D01*
X0134858Y0235535D01*
X0134984Y0235497D01*
X0135108Y0235455D01*
X0135232Y0235409D01*
X0135353Y0235359D01*
X0135473Y0235306D01*
X0135592Y0235249D01*
X0135709Y0235189D01*
X0135823Y0235125D01*
X0135936Y0235057D01*
X0136047Y0234986D01*
X0136156Y0234912D01*
X0136262Y0234835D01*
X0136366Y0234754D01*
X0136467Y0234671D01*
X0136566Y0234584D01*
X0136662Y0234494D01*
X0136755Y0234401D01*
X0136846Y0234306D01*
X0136933Y0234208D01*
X0137018Y0234107D01*
X0137099Y0234004D01*
X0137177Y0233898D01*
X0137252Y0233790D01*
X0137324Y0233680D01*
X0137392Y0233568D01*
X0137457Y0233454D01*
X0137518Y0233337D01*
X0137576Y0233219D01*
X0137630Y0233099D01*
X0137681Y0232978D01*
X0137728Y0232855D01*
X0137771Y0232731D01*
X0137810Y0232606D01*
X0137846Y0232479D01*
X0137877Y0232351D01*
X0137905Y0232223D01*
X0137929Y0232094D01*
X0137949Y0231964D01*
X0137965Y0231833D01*
X0137977Y0231702D01*
X0137985Y0231571D01*
X0137989Y0231440D01*
X0137989Y0231308D01*
X0137985Y0231177D01*
X0137977Y0231046D01*
X0137965Y0230915D01*
X0137949Y0230784D01*
X0137929Y0230654D01*
X0137905Y0230525D01*
X0137877Y0230397D01*
X0137846Y0230269D01*
X0137810Y0230142D01*
X0137771Y0230017D01*
X0137728Y0229893D01*
X0137681Y0229770D01*
X0137630Y0229649D01*
X0137576Y0229529D01*
X0137518Y0229411D01*
X0137457Y0229294D01*
X0137392Y0229180D01*
X0137324Y0229068D01*
X0137252Y0228958D01*
X0137177Y0228850D01*
X0137099Y0228744D01*
X0137018Y0228641D01*
X0136933Y0228540D01*
X0136846Y0228442D01*
X0136755Y0228347D01*
X0136662Y0228254D01*
X0136566Y0228164D01*
X0136467Y0228077D01*
X0136366Y0227994D01*
X0136262Y0227913D01*
X0136156Y0227836D01*
X0136047Y0227762D01*
X0135936Y0227691D01*
X0135824Y0227623D01*
X0135709Y0227559D01*
X0135592Y0227499D01*
X0135473Y0227442D01*
X0135353Y0227389D01*
X0135232Y0227339D01*
X0135108Y0227293D01*
X0134984Y0227251D01*
X0134858Y0227213D01*
X0134731Y0227178D01*
X0134603Y0227147D01*
X0134475Y0227121D01*
X0134345Y0227098D01*
X0134215Y0227079D01*
X0134085Y0227064D01*
X0133954Y0227053D01*
X0133822Y0227046D01*
X0133691Y0227043D01*
X0133559Y0227044D01*
X0133428Y0227049D01*
X0133297Y0227058D01*
X0133166Y0227071D01*
X0133036Y0227088D01*
X0132906Y0227109D01*
X0132777Y0227134D01*
X0132649Y0227162D01*
X0132521Y0227195D01*
X0132395Y0227231D01*
X0132270Y0227272D01*
X0132146Y0227316D01*
X0132023Y0227363D01*
X0131902Y0227415D01*
X0131783Y0227470D01*
X0131665Y0227529D01*
X0131550Y0227591D01*
X0131436Y0227657D01*
X0131324Y0227726D01*
X0131214Y0227798D01*
X0131107Y0227874D01*
X0131002Y0227953D01*
X0130899Y0228035D01*
X0130799Y0228120D01*
X0130702Y0228209D01*
X0130607Y0228300D01*
X0130515Y0228394D01*
X0130426Y0228491D01*
X0130340Y0228590D01*
X0130257Y0228692D01*
X0130177Y0228797D01*
X0130101Y0228903D01*
X0130028Y0229012D01*
X0129958Y0229124D01*
X0129891Y0229237D01*
X0129828Y0229352D01*
X0129768Y0229470D01*
X0129712Y0229588D01*
X0129660Y0229709D01*
X0129611Y0229831D01*
X0129566Y0229955D01*
X0129525Y0230079D01*
X0129488Y0230206D01*
X0129454Y0230333D01*
X0129424Y0230461D01*
X0129399Y0230590D01*
X0129377Y0230719D01*
X0129359Y0230849D01*
X0129345Y0230980D01*
X0129335Y0231111D01*
X0129329Y0231243D01*
X0129327Y0231374D01*
X0129327Y0160508D02*
X0129329Y0160639D01*
X0129335Y0160771D01*
X0129345Y0160902D01*
X0129359Y0161033D01*
X0129377Y0161163D01*
X0129399Y0161292D01*
X0129424Y0161421D01*
X0129454Y0161549D01*
X0129488Y0161676D01*
X0129525Y0161803D01*
X0129566Y0161927D01*
X0129611Y0162051D01*
X0129660Y0162173D01*
X0129712Y0162294D01*
X0129768Y0162412D01*
X0129828Y0162530D01*
X0129891Y0162645D01*
X0129958Y0162758D01*
X0130028Y0162870D01*
X0130101Y0162979D01*
X0130177Y0163085D01*
X0130257Y0163190D01*
X0130340Y0163292D01*
X0130426Y0163391D01*
X0130515Y0163488D01*
X0130607Y0163582D01*
X0130702Y0163673D01*
X0130799Y0163762D01*
X0130899Y0163847D01*
X0131002Y0163929D01*
X0131107Y0164008D01*
X0131214Y0164084D01*
X0131324Y0164156D01*
X0131436Y0164225D01*
X0131550Y0164291D01*
X0131665Y0164353D01*
X0131783Y0164412D01*
X0131902Y0164467D01*
X0132023Y0164519D01*
X0132146Y0164566D01*
X0132270Y0164610D01*
X0132395Y0164651D01*
X0132521Y0164687D01*
X0132649Y0164720D01*
X0132777Y0164748D01*
X0132906Y0164773D01*
X0133036Y0164794D01*
X0133166Y0164811D01*
X0133297Y0164824D01*
X0133428Y0164833D01*
X0133559Y0164838D01*
X0133691Y0164839D01*
X0133822Y0164836D01*
X0133954Y0164829D01*
X0134085Y0164818D01*
X0134215Y0164803D01*
X0134345Y0164784D01*
X0134475Y0164761D01*
X0134603Y0164735D01*
X0134731Y0164704D01*
X0134858Y0164669D01*
X0134984Y0164631D01*
X0135108Y0164589D01*
X0135232Y0164543D01*
X0135353Y0164493D01*
X0135473Y0164440D01*
X0135592Y0164383D01*
X0135709Y0164323D01*
X0135823Y0164259D01*
X0135936Y0164191D01*
X0136047Y0164120D01*
X0136156Y0164046D01*
X0136262Y0163969D01*
X0136366Y0163888D01*
X0136467Y0163805D01*
X0136566Y0163718D01*
X0136662Y0163628D01*
X0136755Y0163535D01*
X0136846Y0163440D01*
X0136933Y0163342D01*
X0137018Y0163241D01*
X0137099Y0163138D01*
X0137177Y0163032D01*
X0137252Y0162924D01*
X0137324Y0162814D01*
X0137392Y0162702D01*
X0137457Y0162588D01*
X0137518Y0162471D01*
X0137576Y0162353D01*
X0137630Y0162233D01*
X0137681Y0162112D01*
X0137728Y0161989D01*
X0137771Y0161865D01*
X0137810Y0161740D01*
X0137846Y0161613D01*
X0137877Y0161485D01*
X0137905Y0161357D01*
X0137929Y0161228D01*
X0137949Y0161098D01*
X0137965Y0160967D01*
X0137977Y0160836D01*
X0137985Y0160705D01*
X0137989Y0160574D01*
X0137989Y0160442D01*
X0137985Y0160311D01*
X0137977Y0160180D01*
X0137965Y0160049D01*
X0137949Y0159918D01*
X0137929Y0159788D01*
X0137905Y0159659D01*
X0137877Y0159531D01*
X0137846Y0159403D01*
X0137810Y0159276D01*
X0137771Y0159151D01*
X0137728Y0159027D01*
X0137681Y0158904D01*
X0137630Y0158783D01*
X0137576Y0158663D01*
X0137518Y0158545D01*
X0137457Y0158428D01*
X0137392Y0158314D01*
X0137324Y0158202D01*
X0137252Y0158092D01*
X0137177Y0157984D01*
X0137099Y0157878D01*
X0137018Y0157775D01*
X0136933Y0157674D01*
X0136846Y0157576D01*
X0136755Y0157481D01*
X0136662Y0157388D01*
X0136566Y0157298D01*
X0136467Y0157211D01*
X0136366Y0157128D01*
X0136262Y0157047D01*
X0136156Y0156970D01*
X0136047Y0156896D01*
X0135936Y0156825D01*
X0135824Y0156757D01*
X0135709Y0156693D01*
X0135592Y0156633D01*
X0135473Y0156576D01*
X0135353Y0156523D01*
X0135232Y0156473D01*
X0135108Y0156427D01*
X0134984Y0156385D01*
X0134858Y0156347D01*
X0134731Y0156312D01*
X0134603Y0156281D01*
X0134475Y0156255D01*
X0134345Y0156232D01*
X0134215Y0156213D01*
X0134085Y0156198D01*
X0133954Y0156187D01*
X0133822Y0156180D01*
X0133691Y0156177D01*
X0133559Y0156178D01*
X0133428Y0156183D01*
X0133297Y0156192D01*
X0133166Y0156205D01*
X0133036Y0156222D01*
X0132906Y0156243D01*
X0132777Y0156268D01*
X0132649Y0156296D01*
X0132521Y0156329D01*
X0132395Y0156365D01*
X0132270Y0156406D01*
X0132146Y0156450D01*
X0132023Y0156497D01*
X0131902Y0156549D01*
X0131783Y0156604D01*
X0131665Y0156663D01*
X0131550Y0156725D01*
X0131436Y0156791D01*
X0131324Y0156860D01*
X0131214Y0156932D01*
X0131107Y0157008D01*
X0131002Y0157087D01*
X0130899Y0157169D01*
X0130799Y0157254D01*
X0130702Y0157343D01*
X0130607Y0157434D01*
X0130515Y0157528D01*
X0130426Y0157625D01*
X0130340Y0157724D01*
X0130257Y0157826D01*
X0130177Y0157931D01*
X0130101Y0158037D01*
X0130028Y0158146D01*
X0129958Y0158258D01*
X0129891Y0158371D01*
X0129828Y0158486D01*
X0129768Y0158604D01*
X0129712Y0158722D01*
X0129660Y0158843D01*
X0129611Y0158965D01*
X0129566Y0159089D01*
X0129525Y0159213D01*
X0129488Y0159340D01*
X0129454Y0159467D01*
X0129424Y0159595D01*
X0129399Y0159724D01*
X0129377Y0159853D01*
X0129359Y0159983D01*
X0129345Y0160114D01*
X0129335Y0160245D01*
X0129329Y0160377D01*
X0129327Y0160508D01*
X0177555Y0160508D02*
X0177557Y0160639D01*
X0177563Y0160771D01*
X0177573Y0160902D01*
X0177587Y0161033D01*
X0177605Y0161163D01*
X0177627Y0161292D01*
X0177652Y0161421D01*
X0177682Y0161549D01*
X0177716Y0161676D01*
X0177753Y0161803D01*
X0177794Y0161927D01*
X0177839Y0162051D01*
X0177888Y0162173D01*
X0177940Y0162294D01*
X0177996Y0162412D01*
X0178056Y0162530D01*
X0178119Y0162645D01*
X0178186Y0162758D01*
X0178256Y0162870D01*
X0178329Y0162979D01*
X0178405Y0163085D01*
X0178485Y0163190D01*
X0178568Y0163292D01*
X0178654Y0163391D01*
X0178743Y0163488D01*
X0178835Y0163582D01*
X0178930Y0163673D01*
X0179027Y0163762D01*
X0179127Y0163847D01*
X0179230Y0163929D01*
X0179335Y0164008D01*
X0179442Y0164084D01*
X0179552Y0164156D01*
X0179664Y0164225D01*
X0179778Y0164291D01*
X0179893Y0164353D01*
X0180011Y0164412D01*
X0180130Y0164467D01*
X0180251Y0164519D01*
X0180374Y0164566D01*
X0180498Y0164610D01*
X0180623Y0164651D01*
X0180749Y0164687D01*
X0180877Y0164720D01*
X0181005Y0164748D01*
X0181134Y0164773D01*
X0181264Y0164794D01*
X0181394Y0164811D01*
X0181525Y0164824D01*
X0181656Y0164833D01*
X0181787Y0164838D01*
X0181919Y0164839D01*
X0182050Y0164836D01*
X0182182Y0164829D01*
X0182313Y0164818D01*
X0182443Y0164803D01*
X0182573Y0164784D01*
X0182703Y0164761D01*
X0182831Y0164735D01*
X0182959Y0164704D01*
X0183086Y0164669D01*
X0183212Y0164631D01*
X0183336Y0164589D01*
X0183460Y0164543D01*
X0183581Y0164493D01*
X0183701Y0164440D01*
X0183820Y0164383D01*
X0183937Y0164323D01*
X0184051Y0164259D01*
X0184164Y0164191D01*
X0184275Y0164120D01*
X0184384Y0164046D01*
X0184490Y0163969D01*
X0184594Y0163888D01*
X0184695Y0163805D01*
X0184794Y0163718D01*
X0184890Y0163628D01*
X0184983Y0163535D01*
X0185074Y0163440D01*
X0185161Y0163342D01*
X0185246Y0163241D01*
X0185327Y0163138D01*
X0185405Y0163032D01*
X0185480Y0162924D01*
X0185552Y0162814D01*
X0185620Y0162702D01*
X0185685Y0162588D01*
X0185746Y0162471D01*
X0185804Y0162353D01*
X0185858Y0162233D01*
X0185909Y0162112D01*
X0185956Y0161989D01*
X0185999Y0161865D01*
X0186038Y0161740D01*
X0186074Y0161613D01*
X0186105Y0161485D01*
X0186133Y0161357D01*
X0186157Y0161228D01*
X0186177Y0161098D01*
X0186193Y0160967D01*
X0186205Y0160836D01*
X0186213Y0160705D01*
X0186217Y0160574D01*
X0186217Y0160442D01*
X0186213Y0160311D01*
X0186205Y0160180D01*
X0186193Y0160049D01*
X0186177Y0159918D01*
X0186157Y0159788D01*
X0186133Y0159659D01*
X0186105Y0159531D01*
X0186074Y0159403D01*
X0186038Y0159276D01*
X0185999Y0159151D01*
X0185956Y0159027D01*
X0185909Y0158904D01*
X0185858Y0158783D01*
X0185804Y0158663D01*
X0185746Y0158545D01*
X0185685Y0158428D01*
X0185620Y0158314D01*
X0185552Y0158202D01*
X0185480Y0158092D01*
X0185405Y0157984D01*
X0185327Y0157878D01*
X0185246Y0157775D01*
X0185161Y0157674D01*
X0185074Y0157576D01*
X0184983Y0157481D01*
X0184890Y0157388D01*
X0184794Y0157298D01*
X0184695Y0157211D01*
X0184594Y0157128D01*
X0184490Y0157047D01*
X0184384Y0156970D01*
X0184275Y0156896D01*
X0184164Y0156825D01*
X0184052Y0156757D01*
X0183937Y0156693D01*
X0183820Y0156633D01*
X0183701Y0156576D01*
X0183581Y0156523D01*
X0183460Y0156473D01*
X0183336Y0156427D01*
X0183212Y0156385D01*
X0183086Y0156347D01*
X0182959Y0156312D01*
X0182831Y0156281D01*
X0182703Y0156255D01*
X0182573Y0156232D01*
X0182443Y0156213D01*
X0182313Y0156198D01*
X0182182Y0156187D01*
X0182050Y0156180D01*
X0181919Y0156177D01*
X0181787Y0156178D01*
X0181656Y0156183D01*
X0181525Y0156192D01*
X0181394Y0156205D01*
X0181264Y0156222D01*
X0181134Y0156243D01*
X0181005Y0156268D01*
X0180877Y0156296D01*
X0180749Y0156329D01*
X0180623Y0156365D01*
X0180498Y0156406D01*
X0180374Y0156450D01*
X0180251Y0156497D01*
X0180130Y0156549D01*
X0180011Y0156604D01*
X0179893Y0156663D01*
X0179778Y0156725D01*
X0179664Y0156791D01*
X0179552Y0156860D01*
X0179442Y0156932D01*
X0179335Y0157008D01*
X0179230Y0157087D01*
X0179127Y0157169D01*
X0179027Y0157254D01*
X0178930Y0157343D01*
X0178835Y0157434D01*
X0178743Y0157528D01*
X0178654Y0157625D01*
X0178568Y0157724D01*
X0178485Y0157826D01*
X0178405Y0157931D01*
X0178329Y0158037D01*
X0178256Y0158146D01*
X0178186Y0158258D01*
X0178119Y0158371D01*
X0178056Y0158486D01*
X0177996Y0158604D01*
X0177940Y0158722D01*
X0177888Y0158843D01*
X0177839Y0158965D01*
X0177794Y0159089D01*
X0177753Y0159213D01*
X0177716Y0159340D01*
X0177682Y0159467D01*
X0177652Y0159595D01*
X0177627Y0159724D01*
X0177605Y0159853D01*
X0177587Y0159983D01*
X0177573Y0160114D01*
X0177563Y0160245D01*
X0177557Y0160377D01*
X0177555Y0160508D01*
X0203146Y0084720D02*
X0203148Y0084851D01*
X0203154Y0084983D01*
X0203164Y0085114D01*
X0203178Y0085245D01*
X0203196Y0085375D01*
X0203218Y0085504D01*
X0203243Y0085633D01*
X0203273Y0085761D01*
X0203307Y0085888D01*
X0203344Y0086015D01*
X0203385Y0086139D01*
X0203430Y0086263D01*
X0203479Y0086385D01*
X0203531Y0086506D01*
X0203587Y0086624D01*
X0203647Y0086742D01*
X0203710Y0086857D01*
X0203777Y0086970D01*
X0203847Y0087082D01*
X0203920Y0087191D01*
X0203996Y0087297D01*
X0204076Y0087402D01*
X0204159Y0087504D01*
X0204245Y0087603D01*
X0204334Y0087700D01*
X0204426Y0087794D01*
X0204521Y0087885D01*
X0204618Y0087974D01*
X0204718Y0088059D01*
X0204821Y0088141D01*
X0204926Y0088220D01*
X0205033Y0088296D01*
X0205143Y0088368D01*
X0205255Y0088437D01*
X0205369Y0088503D01*
X0205484Y0088565D01*
X0205602Y0088624D01*
X0205721Y0088679D01*
X0205842Y0088731D01*
X0205965Y0088778D01*
X0206089Y0088822D01*
X0206214Y0088863D01*
X0206340Y0088899D01*
X0206468Y0088932D01*
X0206596Y0088960D01*
X0206725Y0088985D01*
X0206855Y0089006D01*
X0206985Y0089023D01*
X0207116Y0089036D01*
X0207247Y0089045D01*
X0207378Y0089050D01*
X0207510Y0089051D01*
X0207641Y0089048D01*
X0207773Y0089041D01*
X0207904Y0089030D01*
X0208034Y0089015D01*
X0208164Y0088996D01*
X0208294Y0088973D01*
X0208422Y0088947D01*
X0208550Y0088916D01*
X0208677Y0088881D01*
X0208803Y0088843D01*
X0208927Y0088801D01*
X0209051Y0088755D01*
X0209172Y0088705D01*
X0209292Y0088652D01*
X0209411Y0088595D01*
X0209528Y0088535D01*
X0209642Y0088471D01*
X0209755Y0088403D01*
X0209866Y0088332D01*
X0209975Y0088258D01*
X0210081Y0088181D01*
X0210185Y0088100D01*
X0210286Y0088017D01*
X0210385Y0087930D01*
X0210481Y0087840D01*
X0210574Y0087747D01*
X0210665Y0087652D01*
X0210752Y0087554D01*
X0210837Y0087453D01*
X0210918Y0087350D01*
X0210996Y0087244D01*
X0211071Y0087136D01*
X0211143Y0087026D01*
X0211211Y0086914D01*
X0211276Y0086800D01*
X0211337Y0086683D01*
X0211395Y0086565D01*
X0211449Y0086445D01*
X0211500Y0086324D01*
X0211547Y0086201D01*
X0211590Y0086077D01*
X0211629Y0085952D01*
X0211665Y0085825D01*
X0211696Y0085697D01*
X0211724Y0085569D01*
X0211748Y0085440D01*
X0211768Y0085310D01*
X0211784Y0085179D01*
X0211796Y0085048D01*
X0211804Y0084917D01*
X0211808Y0084786D01*
X0211808Y0084654D01*
X0211804Y0084523D01*
X0211796Y0084392D01*
X0211784Y0084261D01*
X0211768Y0084130D01*
X0211748Y0084000D01*
X0211724Y0083871D01*
X0211696Y0083743D01*
X0211665Y0083615D01*
X0211629Y0083488D01*
X0211590Y0083363D01*
X0211547Y0083239D01*
X0211500Y0083116D01*
X0211449Y0082995D01*
X0211395Y0082875D01*
X0211337Y0082757D01*
X0211276Y0082640D01*
X0211211Y0082526D01*
X0211143Y0082414D01*
X0211071Y0082304D01*
X0210996Y0082196D01*
X0210918Y0082090D01*
X0210837Y0081987D01*
X0210752Y0081886D01*
X0210665Y0081788D01*
X0210574Y0081693D01*
X0210481Y0081600D01*
X0210385Y0081510D01*
X0210286Y0081423D01*
X0210185Y0081340D01*
X0210081Y0081259D01*
X0209975Y0081182D01*
X0209866Y0081108D01*
X0209755Y0081037D01*
X0209643Y0080969D01*
X0209528Y0080905D01*
X0209411Y0080845D01*
X0209292Y0080788D01*
X0209172Y0080735D01*
X0209051Y0080685D01*
X0208927Y0080639D01*
X0208803Y0080597D01*
X0208677Y0080559D01*
X0208550Y0080524D01*
X0208422Y0080493D01*
X0208294Y0080467D01*
X0208164Y0080444D01*
X0208034Y0080425D01*
X0207904Y0080410D01*
X0207773Y0080399D01*
X0207641Y0080392D01*
X0207510Y0080389D01*
X0207378Y0080390D01*
X0207247Y0080395D01*
X0207116Y0080404D01*
X0206985Y0080417D01*
X0206855Y0080434D01*
X0206725Y0080455D01*
X0206596Y0080480D01*
X0206468Y0080508D01*
X0206340Y0080541D01*
X0206214Y0080577D01*
X0206089Y0080618D01*
X0205965Y0080662D01*
X0205842Y0080709D01*
X0205721Y0080761D01*
X0205602Y0080816D01*
X0205484Y0080875D01*
X0205369Y0080937D01*
X0205255Y0081003D01*
X0205143Y0081072D01*
X0205033Y0081144D01*
X0204926Y0081220D01*
X0204821Y0081299D01*
X0204718Y0081381D01*
X0204618Y0081466D01*
X0204521Y0081555D01*
X0204426Y0081646D01*
X0204334Y0081740D01*
X0204245Y0081837D01*
X0204159Y0081936D01*
X0204076Y0082038D01*
X0203996Y0082143D01*
X0203920Y0082249D01*
X0203847Y0082358D01*
X0203777Y0082470D01*
X0203710Y0082583D01*
X0203647Y0082698D01*
X0203587Y0082816D01*
X0203531Y0082934D01*
X0203479Y0083055D01*
X0203430Y0083177D01*
X0203385Y0083301D01*
X0203344Y0083425D01*
X0203307Y0083552D01*
X0203273Y0083679D01*
X0203243Y0083807D01*
X0203218Y0083936D01*
X0203196Y0084065D01*
X0203178Y0084195D01*
X0203164Y0084326D01*
X0203154Y0084457D01*
X0203148Y0084589D01*
X0203146Y0084720D01*
X0268107Y0121138D02*
X0268109Y0121269D01*
X0268115Y0121401D01*
X0268125Y0121532D01*
X0268139Y0121663D01*
X0268157Y0121793D01*
X0268179Y0121922D01*
X0268204Y0122051D01*
X0268234Y0122179D01*
X0268268Y0122306D01*
X0268305Y0122433D01*
X0268346Y0122557D01*
X0268391Y0122681D01*
X0268440Y0122803D01*
X0268492Y0122924D01*
X0268548Y0123042D01*
X0268608Y0123160D01*
X0268671Y0123275D01*
X0268738Y0123388D01*
X0268808Y0123500D01*
X0268881Y0123609D01*
X0268957Y0123715D01*
X0269037Y0123820D01*
X0269120Y0123922D01*
X0269206Y0124021D01*
X0269295Y0124118D01*
X0269387Y0124212D01*
X0269482Y0124303D01*
X0269579Y0124392D01*
X0269679Y0124477D01*
X0269782Y0124559D01*
X0269887Y0124638D01*
X0269994Y0124714D01*
X0270104Y0124786D01*
X0270216Y0124855D01*
X0270330Y0124921D01*
X0270445Y0124983D01*
X0270563Y0125042D01*
X0270682Y0125097D01*
X0270803Y0125149D01*
X0270926Y0125196D01*
X0271050Y0125240D01*
X0271175Y0125281D01*
X0271301Y0125317D01*
X0271429Y0125350D01*
X0271557Y0125378D01*
X0271686Y0125403D01*
X0271816Y0125424D01*
X0271946Y0125441D01*
X0272077Y0125454D01*
X0272208Y0125463D01*
X0272339Y0125468D01*
X0272471Y0125469D01*
X0272602Y0125466D01*
X0272734Y0125459D01*
X0272865Y0125448D01*
X0272995Y0125433D01*
X0273125Y0125414D01*
X0273255Y0125391D01*
X0273383Y0125365D01*
X0273511Y0125334D01*
X0273638Y0125299D01*
X0273764Y0125261D01*
X0273888Y0125219D01*
X0274012Y0125173D01*
X0274133Y0125123D01*
X0274253Y0125070D01*
X0274372Y0125013D01*
X0274489Y0124953D01*
X0274603Y0124889D01*
X0274716Y0124821D01*
X0274827Y0124750D01*
X0274936Y0124676D01*
X0275042Y0124599D01*
X0275146Y0124518D01*
X0275247Y0124435D01*
X0275346Y0124348D01*
X0275442Y0124258D01*
X0275535Y0124165D01*
X0275626Y0124070D01*
X0275713Y0123972D01*
X0275798Y0123871D01*
X0275879Y0123768D01*
X0275957Y0123662D01*
X0276032Y0123554D01*
X0276104Y0123444D01*
X0276172Y0123332D01*
X0276237Y0123218D01*
X0276298Y0123101D01*
X0276356Y0122983D01*
X0276410Y0122863D01*
X0276461Y0122742D01*
X0276508Y0122619D01*
X0276551Y0122495D01*
X0276590Y0122370D01*
X0276626Y0122243D01*
X0276657Y0122115D01*
X0276685Y0121987D01*
X0276709Y0121858D01*
X0276729Y0121728D01*
X0276745Y0121597D01*
X0276757Y0121466D01*
X0276765Y0121335D01*
X0276769Y0121204D01*
X0276769Y0121072D01*
X0276765Y0120941D01*
X0276757Y0120810D01*
X0276745Y0120679D01*
X0276729Y0120548D01*
X0276709Y0120418D01*
X0276685Y0120289D01*
X0276657Y0120161D01*
X0276626Y0120033D01*
X0276590Y0119906D01*
X0276551Y0119781D01*
X0276508Y0119657D01*
X0276461Y0119534D01*
X0276410Y0119413D01*
X0276356Y0119293D01*
X0276298Y0119175D01*
X0276237Y0119058D01*
X0276172Y0118944D01*
X0276104Y0118832D01*
X0276032Y0118722D01*
X0275957Y0118614D01*
X0275879Y0118508D01*
X0275798Y0118405D01*
X0275713Y0118304D01*
X0275626Y0118206D01*
X0275535Y0118111D01*
X0275442Y0118018D01*
X0275346Y0117928D01*
X0275247Y0117841D01*
X0275146Y0117758D01*
X0275042Y0117677D01*
X0274936Y0117600D01*
X0274827Y0117526D01*
X0274716Y0117455D01*
X0274604Y0117387D01*
X0274489Y0117323D01*
X0274372Y0117263D01*
X0274253Y0117206D01*
X0274133Y0117153D01*
X0274012Y0117103D01*
X0273888Y0117057D01*
X0273764Y0117015D01*
X0273638Y0116977D01*
X0273511Y0116942D01*
X0273383Y0116911D01*
X0273255Y0116885D01*
X0273125Y0116862D01*
X0272995Y0116843D01*
X0272865Y0116828D01*
X0272734Y0116817D01*
X0272602Y0116810D01*
X0272471Y0116807D01*
X0272339Y0116808D01*
X0272208Y0116813D01*
X0272077Y0116822D01*
X0271946Y0116835D01*
X0271816Y0116852D01*
X0271686Y0116873D01*
X0271557Y0116898D01*
X0271429Y0116926D01*
X0271301Y0116959D01*
X0271175Y0116995D01*
X0271050Y0117036D01*
X0270926Y0117080D01*
X0270803Y0117127D01*
X0270682Y0117179D01*
X0270563Y0117234D01*
X0270445Y0117293D01*
X0270330Y0117355D01*
X0270216Y0117421D01*
X0270104Y0117490D01*
X0269994Y0117562D01*
X0269887Y0117638D01*
X0269782Y0117717D01*
X0269679Y0117799D01*
X0269579Y0117884D01*
X0269482Y0117973D01*
X0269387Y0118064D01*
X0269295Y0118158D01*
X0269206Y0118255D01*
X0269120Y0118354D01*
X0269037Y0118456D01*
X0268957Y0118561D01*
X0268881Y0118667D01*
X0268808Y0118776D01*
X0268738Y0118888D01*
X0268671Y0119001D01*
X0268608Y0119116D01*
X0268548Y0119234D01*
X0268492Y0119352D01*
X0268440Y0119473D01*
X0268391Y0119595D01*
X0268346Y0119719D01*
X0268305Y0119843D01*
X0268268Y0119970D01*
X0268234Y0120097D01*
X0268204Y0120225D01*
X0268179Y0120354D01*
X0268157Y0120483D01*
X0268139Y0120613D01*
X0268125Y0120744D01*
X0268115Y0120875D01*
X0268109Y0121007D01*
X0268107Y0121138D01*
X0274012Y0084720D02*
X0274014Y0084851D01*
X0274020Y0084983D01*
X0274030Y0085114D01*
X0274044Y0085245D01*
X0274062Y0085375D01*
X0274084Y0085504D01*
X0274109Y0085633D01*
X0274139Y0085761D01*
X0274173Y0085888D01*
X0274210Y0086015D01*
X0274251Y0086139D01*
X0274296Y0086263D01*
X0274345Y0086385D01*
X0274397Y0086506D01*
X0274453Y0086624D01*
X0274513Y0086742D01*
X0274576Y0086857D01*
X0274643Y0086970D01*
X0274713Y0087082D01*
X0274786Y0087191D01*
X0274862Y0087297D01*
X0274942Y0087402D01*
X0275025Y0087504D01*
X0275111Y0087603D01*
X0275200Y0087700D01*
X0275292Y0087794D01*
X0275387Y0087885D01*
X0275484Y0087974D01*
X0275584Y0088059D01*
X0275687Y0088141D01*
X0275792Y0088220D01*
X0275899Y0088296D01*
X0276009Y0088368D01*
X0276121Y0088437D01*
X0276235Y0088503D01*
X0276350Y0088565D01*
X0276468Y0088624D01*
X0276587Y0088679D01*
X0276708Y0088731D01*
X0276831Y0088778D01*
X0276955Y0088822D01*
X0277080Y0088863D01*
X0277206Y0088899D01*
X0277334Y0088932D01*
X0277462Y0088960D01*
X0277591Y0088985D01*
X0277721Y0089006D01*
X0277851Y0089023D01*
X0277982Y0089036D01*
X0278113Y0089045D01*
X0278244Y0089050D01*
X0278376Y0089051D01*
X0278507Y0089048D01*
X0278639Y0089041D01*
X0278770Y0089030D01*
X0278900Y0089015D01*
X0279030Y0088996D01*
X0279160Y0088973D01*
X0279288Y0088947D01*
X0279416Y0088916D01*
X0279543Y0088881D01*
X0279669Y0088843D01*
X0279793Y0088801D01*
X0279917Y0088755D01*
X0280038Y0088705D01*
X0280158Y0088652D01*
X0280277Y0088595D01*
X0280394Y0088535D01*
X0280508Y0088471D01*
X0280621Y0088403D01*
X0280732Y0088332D01*
X0280841Y0088258D01*
X0280947Y0088181D01*
X0281051Y0088100D01*
X0281152Y0088017D01*
X0281251Y0087930D01*
X0281347Y0087840D01*
X0281440Y0087747D01*
X0281531Y0087652D01*
X0281618Y0087554D01*
X0281703Y0087453D01*
X0281784Y0087350D01*
X0281862Y0087244D01*
X0281937Y0087136D01*
X0282009Y0087026D01*
X0282077Y0086914D01*
X0282142Y0086800D01*
X0282203Y0086683D01*
X0282261Y0086565D01*
X0282315Y0086445D01*
X0282366Y0086324D01*
X0282413Y0086201D01*
X0282456Y0086077D01*
X0282495Y0085952D01*
X0282531Y0085825D01*
X0282562Y0085697D01*
X0282590Y0085569D01*
X0282614Y0085440D01*
X0282634Y0085310D01*
X0282650Y0085179D01*
X0282662Y0085048D01*
X0282670Y0084917D01*
X0282674Y0084786D01*
X0282674Y0084654D01*
X0282670Y0084523D01*
X0282662Y0084392D01*
X0282650Y0084261D01*
X0282634Y0084130D01*
X0282614Y0084000D01*
X0282590Y0083871D01*
X0282562Y0083743D01*
X0282531Y0083615D01*
X0282495Y0083488D01*
X0282456Y0083363D01*
X0282413Y0083239D01*
X0282366Y0083116D01*
X0282315Y0082995D01*
X0282261Y0082875D01*
X0282203Y0082757D01*
X0282142Y0082640D01*
X0282077Y0082526D01*
X0282009Y0082414D01*
X0281937Y0082304D01*
X0281862Y0082196D01*
X0281784Y0082090D01*
X0281703Y0081987D01*
X0281618Y0081886D01*
X0281531Y0081788D01*
X0281440Y0081693D01*
X0281347Y0081600D01*
X0281251Y0081510D01*
X0281152Y0081423D01*
X0281051Y0081340D01*
X0280947Y0081259D01*
X0280841Y0081182D01*
X0280732Y0081108D01*
X0280621Y0081037D01*
X0280509Y0080969D01*
X0280394Y0080905D01*
X0280277Y0080845D01*
X0280158Y0080788D01*
X0280038Y0080735D01*
X0279917Y0080685D01*
X0279793Y0080639D01*
X0279669Y0080597D01*
X0279543Y0080559D01*
X0279416Y0080524D01*
X0279288Y0080493D01*
X0279160Y0080467D01*
X0279030Y0080444D01*
X0278900Y0080425D01*
X0278770Y0080410D01*
X0278639Y0080399D01*
X0278507Y0080392D01*
X0278376Y0080389D01*
X0278244Y0080390D01*
X0278113Y0080395D01*
X0277982Y0080404D01*
X0277851Y0080417D01*
X0277721Y0080434D01*
X0277591Y0080455D01*
X0277462Y0080480D01*
X0277334Y0080508D01*
X0277206Y0080541D01*
X0277080Y0080577D01*
X0276955Y0080618D01*
X0276831Y0080662D01*
X0276708Y0080709D01*
X0276587Y0080761D01*
X0276468Y0080816D01*
X0276350Y0080875D01*
X0276235Y0080937D01*
X0276121Y0081003D01*
X0276009Y0081072D01*
X0275899Y0081144D01*
X0275792Y0081220D01*
X0275687Y0081299D01*
X0275584Y0081381D01*
X0275484Y0081466D01*
X0275387Y0081555D01*
X0275292Y0081646D01*
X0275200Y0081740D01*
X0275111Y0081837D01*
X0275025Y0081936D01*
X0274942Y0082038D01*
X0274862Y0082143D01*
X0274786Y0082249D01*
X0274713Y0082358D01*
X0274643Y0082470D01*
X0274576Y0082583D01*
X0274513Y0082698D01*
X0274453Y0082816D01*
X0274397Y0082934D01*
X0274345Y0083055D01*
X0274296Y0083177D01*
X0274251Y0083301D01*
X0274210Y0083425D01*
X0274173Y0083552D01*
X0274139Y0083679D01*
X0274109Y0083807D01*
X0274084Y0083936D01*
X0274062Y0084065D01*
X0274044Y0084195D01*
X0274030Y0084326D01*
X0274020Y0084457D01*
X0274014Y0084589D01*
X0274012Y0084720D01*
X0268107Y0184130D02*
X0268109Y0184261D01*
X0268115Y0184393D01*
X0268125Y0184524D01*
X0268139Y0184655D01*
X0268157Y0184785D01*
X0268179Y0184914D01*
X0268204Y0185043D01*
X0268234Y0185171D01*
X0268268Y0185298D01*
X0268305Y0185425D01*
X0268346Y0185549D01*
X0268391Y0185673D01*
X0268440Y0185795D01*
X0268492Y0185916D01*
X0268548Y0186034D01*
X0268608Y0186152D01*
X0268671Y0186267D01*
X0268738Y0186380D01*
X0268808Y0186492D01*
X0268881Y0186601D01*
X0268957Y0186707D01*
X0269037Y0186812D01*
X0269120Y0186914D01*
X0269206Y0187013D01*
X0269295Y0187110D01*
X0269387Y0187204D01*
X0269482Y0187295D01*
X0269579Y0187384D01*
X0269679Y0187469D01*
X0269782Y0187551D01*
X0269887Y0187630D01*
X0269994Y0187706D01*
X0270104Y0187778D01*
X0270216Y0187847D01*
X0270330Y0187913D01*
X0270445Y0187975D01*
X0270563Y0188034D01*
X0270682Y0188089D01*
X0270803Y0188141D01*
X0270926Y0188188D01*
X0271050Y0188232D01*
X0271175Y0188273D01*
X0271301Y0188309D01*
X0271429Y0188342D01*
X0271557Y0188370D01*
X0271686Y0188395D01*
X0271816Y0188416D01*
X0271946Y0188433D01*
X0272077Y0188446D01*
X0272208Y0188455D01*
X0272339Y0188460D01*
X0272471Y0188461D01*
X0272602Y0188458D01*
X0272734Y0188451D01*
X0272865Y0188440D01*
X0272995Y0188425D01*
X0273125Y0188406D01*
X0273255Y0188383D01*
X0273383Y0188357D01*
X0273511Y0188326D01*
X0273638Y0188291D01*
X0273764Y0188253D01*
X0273888Y0188211D01*
X0274012Y0188165D01*
X0274133Y0188115D01*
X0274253Y0188062D01*
X0274372Y0188005D01*
X0274489Y0187945D01*
X0274603Y0187881D01*
X0274716Y0187813D01*
X0274827Y0187742D01*
X0274936Y0187668D01*
X0275042Y0187591D01*
X0275146Y0187510D01*
X0275247Y0187427D01*
X0275346Y0187340D01*
X0275442Y0187250D01*
X0275535Y0187157D01*
X0275626Y0187062D01*
X0275713Y0186964D01*
X0275798Y0186863D01*
X0275879Y0186760D01*
X0275957Y0186654D01*
X0276032Y0186546D01*
X0276104Y0186436D01*
X0276172Y0186324D01*
X0276237Y0186210D01*
X0276298Y0186093D01*
X0276356Y0185975D01*
X0276410Y0185855D01*
X0276461Y0185734D01*
X0276508Y0185611D01*
X0276551Y0185487D01*
X0276590Y0185362D01*
X0276626Y0185235D01*
X0276657Y0185107D01*
X0276685Y0184979D01*
X0276709Y0184850D01*
X0276729Y0184720D01*
X0276745Y0184589D01*
X0276757Y0184458D01*
X0276765Y0184327D01*
X0276769Y0184196D01*
X0276769Y0184064D01*
X0276765Y0183933D01*
X0276757Y0183802D01*
X0276745Y0183671D01*
X0276729Y0183540D01*
X0276709Y0183410D01*
X0276685Y0183281D01*
X0276657Y0183153D01*
X0276626Y0183025D01*
X0276590Y0182898D01*
X0276551Y0182773D01*
X0276508Y0182649D01*
X0276461Y0182526D01*
X0276410Y0182405D01*
X0276356Y0182285D01*
X0276298Y0182167D01*
X0276237Y0182050D01*
X0276172Y0181936D01*
X0276104Y0181824D01*
X0276032Y0181714D01*
X0275957Y0181606D01*
X0275879Y0181500D01*
X0275798Y0181397D01*
X0275713Y0181296D01*
X0275626Y0181198D01*
X0275535Y0181103D01*
X0275442Y0181010D01*
X0275346Y0180920D01*
X0275247Y0180833D01*
X0275146Y0180750D01*
X0275042Y0180669D01*
X0274936Y0180592D01*
X0274827Y0180518D01*
X0274716Y0180447D01*
X0274604Y0180379D01*
X0274489Y0180315D01*
X0274372Y0180255D01*
X0274253Y0180198D01*
X0274133Y0180145D01*
X0274012Y0180095D01*
X0273888Y0180049D01*
X0273764Y0180007D01*
X0273638Y0179969D01*
X0273511Y0179934D01*
X0273383Y0179903D01*
X0273255Y0179877D01*
X0273125Y0179854D01*
X0272995Y0179835D01*
X0272865Y0179820D01*
X0272734Y0179809D01*
X0272602Y0179802D01*
X0272471Y0179799D01*
X0272339Y0179800D01*
X0272208Y0179805D01*
X0272077Y0179814D01*
X0271946Y0179827D01*
X0271816Y0179844D01*
X0271686Y0179865D01*
X0271557Y0179890D01*
X0271429Y0179918D01*
X0271301Y0179951D01*
X0271175Y0179987D01*
X0271050Y0180028D01*
X0270926Y0180072D01*
X0270803Y0180119D01*
X0270682Y0180171D01*
X0270563Y0180226D01*
X0270445Y0180285D01*
X0270330Y0180347D01*
X0270216Y0180413D01*
X0270104Y0180482D01*
X0269994Y0180554D01*
X0269887Y0180630D01*
X0269782Y0180709D01*
X0269679Y0180791D01*
X0269579Y0180876D01*
X0269482Y0180965D01*
X0269387Y0181056D01*
X0269295Y0181150D01*
X0269206Y0181247D01*
X0269120Y0181346D01*
X0269037Y0181448D01*
X0268957Y0181553D01*
X0268881Y0181659D01*
X0268808Y0181768D01*
X0268738Y0181880D01*
X0268671Y0181993D01*
X0268608Y0182108D01*
X0268548Y0182226D01*
X0268492Y0182344D01*
X0268440Y0182465D01*
X0268391Y0182587D01*
X0268346Y0182711D01*
X0268305Y0182835D01*
X0268268Y0182962D01*
X0268234Y0183089D01*
X0268204Y0183217D01*
X0268179Y0183346D01*
X0268157Y0183475D01*
X0268139Y0183605D01*
X0268125Y0183736D01*
X0268115Y0183867D01*
X0268109Y0183999D01*
X0268107Y0184130D01*
X0268107Y0199878D02*
X0268109Y0200009D01*
X0268115Y0200141D01*
X0268125Y0200272D01*
X0268139Y0200403D01*
X0268157Y0200533D01*
X0268179Y0200662D01*
X0268204Y0200791D01*
X0268234Y0200919D01*
X0268268Y0201046D01*
X0268305Y0201173D01*
X0268346Y0201297D01*
X0268391Y0201421D01*
X0268440Y0201543D01*
X0268492Y0201664D01*
X0268548Y0201782D01*
X0268608Y0201900D01*
X0268671Y0202015D01*
X0268738Y0202128D01*
X0268808Y0202240D01*
X0268881Y0202349D01*
X0268957Y0202455D01*
X0269037Y0202560D01*
X0269120Y0202662D01*
X0269206Y0202761D01*
X0269295Y0202858D01*
X0269387Y0202952D01*
X0269482Y0203043D01*
X0269579Y0203132D01*
X0269679Y0203217D01*
X0269782Y0203299D01*
X0269887Y0203378D01*
X0269994Y0203454D01*
X0270104Y0203526D01*
X0270216Y0203595D01*
X0270330Y0203661D01*
X0270445Y0203723D01*
X0270563Y0203782D01*
X0270682Y0203837D01*
X0270803Y0203889D01*
X0270926Y0203936D01*
X0271050Y0203980D01*
X0271175Y0204021D01*
X0271301Y0204057D01*
X0271429Y0204090D01*
X0271557Y0204118D01*
X0271686Y0204143D01*
X0271816Y0204164D01*
X0271946Y0204181D01*
X0272077Y0204194D01*
X0272208Y0204203D01*
X0272339Y0204208D01*
X0272471Y0204209D01*
X0272602Y0204206D01*
X0272734Y0204199D01*
X0272865Y0204188D01*
X0272995Y0204173D01*
X0273125Y0204154D01*
X0273255Y0204131D01*
X0273383Y0204105D01*
X0273511Y0204074D01*
X0273638Y0204039D01*
X0273764Y0204001D01*
X0273888Y0203959D01*
X0274012Y0203913D01*
X0274133Y0203863D01*
X0274253Y0203810D01*
X0274372Y0203753D01*
X0274489Y0203693D01*
X0274603Y0203629D01*
X0274716Y0203561D01*
X0274827Y0203490D01*
X0274936Y0203416D01*
X0275042Y0203339D01*
X0275146Y0203258D01*
X0275247Y0203175D01*
X0275346Y0203088D01*
X0275442Y0202998D01*
X0275535Y0202905D01*
X0275626Y0202810D01*
X0275713Y0202712D01*
X0275798Y0202611D01*
X0275879Y0202508D01*
X0275957Y0202402D01*
X0276032Y0202294D01*
X0276104Y0202184D01*
X0276172Y0202072D01*
X0276237Y0201958D01*
X0276298Y0201841D01*
X0276356Y0201723D01*
X0276410Y0201603D01*
X0276461Y0201482D01*
X0276508Y0201359D01*
X0276551Y0201235D01*
X0276590Y0201110D01*
X0276626Y0200983D01*
X0276657Y0200855D01*
X0276685Y0200727D01*
X0276709Y0200598D01*
X0276729Y0200468D01*
X0276745Y0200337D01*
X0276757Y0200206D01*
X0276765Y0200075D01*
X0276769Y0199944D01*
X0276769Y0199812D01*
X0276765Y0199681D01*
X0276757Y0199550D01*
X0276745Y0199419D01*
X0276729Y0199288D01*
X0276709Y0199158D01*
X0276685Y0199029D01*
X0276657Y0198901D01*
X0276626Y0198773D01*
X0276590Y0198646D01*
X0276551Y0198521D01*
X0276508Y0198397D01*
X0276461Y0198274D01*
X0276410Y0198153D01*
X0276356Y0198033D01*
X0276298Y0197915D01*
X0276237Y0197798D01*
X0276172Y0197684D01*
X0276104Y0197572D01*
X0276032Y0197462D01*
X0275957Y0197354D01*
X0275879Y0197248D01*
X0275798Y0197145D01*
X0275713Y0197044D01*
X0275626Y0196946D01*
X0275535Y0196851D01*
X0275442Y0196758D01*
X0275346Y0196668D01*
X0275247Y0196581D01*
X0275146Y0196498D01*
X0275042Y0196417D01*
X0274936Y0196340D01*
X0274827Y0196266D01*
X0274716Y0196195D01*
X0274604Y0196127D01*
X0274489Y0196063D01*
X0274372Y0196003D01*
X0274253Y0195946D01*
X0274133Y0195893D01*
X0274012Y0195843D01*
X0273888Y0195797D01*
X0273764Y0195755D01*
X0273638Y0195717D01*
X0273511Y0195682D01*
X0273383Y0195651D01*
X0273255Y0195625D01*
X0273125Y0195602D01*
X0272995Y0195583D01*
X0272865Y0195568D01*
X0272734Y0195557D01*
X0272602Y0195550D01*
X0272471Y0195547D01*
X0272339Y0195548D01*
X0272208Y0195553D01*
X0272077Y0195562D01*
X0271946Y0195575D01*
X0271816Y0195592D01*
X0271686Y0195613D01*
X0271557Y0195638D01*
X0271429Y0195666D01*
X0271301Y0195699D01*
X0271175Y0195735D01*
X0271050Y0195776D01*
X0270926Y0195820D01*
X0270803Y0195867D01*
X0270682Y0195919D01*
X0270563Y0195974D01*
X0270445Y0196033D01*
X0270330Y0196095D01*
X0270216Y0196161D01*
X0270104Y0196230D01*
X0269994Y0196302D01*
X0269887Y0196378D01*
X0269782Y0196457D01*
X0269679Y0196539D01*
X0269579Y0196624D01*
X0269482Y0196713D01*
X0269387Y0196804D01*
X0269295Y0196898D01*
X0269206Y0196995D01*
X0269120Y0197094D01*
X0269037Y0197196D01*
X0268957Y0197301D01*
X0268881Y0197407D01*
X0268808Y0197516D01*
X0268738Y0197628D01*
X0268671Y0197741D01*
X0268608Y0197856D01*
X0268548Y0197974D01*
X0268492Y0198092D01*
X0268440Y0198213D01*
X0268391Y0198335D01*
X0268346Y0198459D01*
X0268305Y0198583D01*
X0268268Y0198710D01*
X0268234Y0198837D01*
X0268204Y0198965D01*
X0268179Y0199094D01*
X0268157Y0199223D01*
X0268139Y0199353D01*
X0268125Y0199484D01*
X0268115Y0199615D01*
X0268109Y0199747D01*
X0268107Y0199878D01*
X0268107Y0215626D02*
X0268109Y0215757D01*
X0268115Y0215889D01*
X0268125Y0216020D01*
X0268139Y0216151D01*
X0268157Y0216281D01*
X0268179Y0216410D01*
X0268204Y0216539D01*
X0268234Y0216667D01*
X0268268Y0216794D01*
X0268305Y0216921D01*
X0268346Y0217045D01*
X0268391Y0217169D01*
X0268440Y0217291D01*
X0268492Y0217412D01*
X0268548Y0217530D01*
X0268608Y0217648D01*
X0268671Y0217763D01*
X0268738Y0217876D01*
X0268808Y0217988D01*
X0268881Y0218097D01*
X0268957Y0218203D01*
X0269037Y0218308D01*
X0269120Y0218410D01*
X0269206Y0218509D01*
X0269295Y0218606D01*
X0269387Y0218700D01*
X0269482Y0218791D01*
X0269579Y0218880D01*
X0269679Y0218965D01*
X0269782Y0219047D01*
X0269887Y0219126D01*
X0269994Y0219202D01*
X0270104Y0219274D01*
X0270216Y0219343D01*
X0270330Y0219409D01*
X0270445Y0219471D01*
X0270563Y0219530D01*
X0270682Y0219585D01*
X0270803Y0219637D01*
X0270926Y0219684D01*
X0271050Y0219728D01*
X0271175Y0219769D01*
X0271301Y0219805D01*
X0271429Y0219838D01*
X0271557Y0219866D01*
X0271686Y0219891D01*
X0271816Y0219912D01*
X0271946Y0219929D01*
X0272077Y0219942D01*
X0272208Y0219951D01*
X0272339Y0219956D01*
X0272471Y0219957D01*
X0272602Y0219954D01*
X0272734Y0219947D01*
X0272865Y0219936D01*
X0272995Y0219921D01*
X0273125Y0219902D01*
X0273255Y0219879D01*
X0273383Y0219853D01*
X0273511Y0219822D01*
X0273638Y0219787D01*
X0273764Y0219749D01*
X0273888Y0219707D01*
X0274012Y0219661D01*
X0274133Y0219611D01*
X0274253Y0219558D01*
X0274372Y0219501D01*
X0274489Y0219441D01*
X0274603Y0219377D01*
X0274716Y0219309D01*
X0274827Y0219238D01*
X0274936Y0219164D01*
X0275042Y0219087D01*
X0275146Y0219006D01*
X0275247Y0218923D01*
X0275346Y0218836D01*
X0275442Y0218746D01*
X0275535Y0218653D01*
X0275626Y0218558D01*
X0275713Y0218460D01*
X0275798Y0218359D01*
X0275879Y0218256D01*
X0275957Y0218150D01*
X0276032Y0218042D01*
X0276104Y0217932D01*
X0276172Y0217820D01*
X0276237Y0217706D01*
X0276298Y0217589D01*
X0276356Y0217471D01*
X0276410Y0217351D01*
X0276461Y0217230D01*
X0276508Y0217107D01*
X0276551Y0216983D01*
X0276590Y0216858D01*
X0276626Y0216731D01*
X0276657Y0216603D01*
X0276685Y0216475D01*
X0276709Y0216346D01*
X0276729Y0216216D01*
X0276745Y0216085D01*
X0276757Y0215954D01*
X0276765Y0215823D01*
X0276769Y0215692D01*
X0276769Y0215560D01*
X0276765Y0215429D01*
X0276757Y0215298D01*
X0276745Y0215167D01*
X0276729Y0215036D01*
X0276709Y0214906D01*
X0276685Y0214777D01*
X0276657Y0214649D01*
X0276626Y0214521D01*
X0276590Y0214394D01*
X0276551Y0214269D01*
X0276508Y0214145D01*
X0276461Y0214022D01*
X0276410Y0213901D01*
X0276356Y0213781D01*
X0276298Y0213663D01*
X0276237Y0213546D01*
X0276172Y0213432D01*
X0276104Y0213320D01*
X0276032Y0213210D01*
X0275957Y0213102D01*
X0275879Y0212996D01*
X0275798Y0212893D01*
X0275713Y0212792D01*
X0275626Y0212694D01*
X0275535Y0212599D01*
X0275442Y0212506D01*
X0275346Y0212416D01*
X0275247Y0212329D01*
X0275146Y0212246D01*
X0275042Y0212165D01*
X0274936Y0212088D01*
X0274827Y0212014D01*
X0274716Y0211943D01*
X0274604Y0211875D01*
X0274489Y0211811D01*
X0274372Y0211751D01*
X0274253Y0211694D01*
X0274133Y0211641D01*
X0274012Y0211591D01*
X0273888Y0211545D01*
X0273764Y0211503D01*
X0273638Y0211465D01*
X0273511Y0211430D01*
X0273383Y0211399D01*
X0273255Y0211373D01*
X0273125Y0211350D01*
X0272995Y0211331D01*
X0272865Y0211316D01*
X0272734Y0211305D01*
X0272602Y0211298D01*
X0272471Y0211295D01*
X0272339Y0211296D01*
X0272208Y0211301D01*
X0272077Y0211310D01*
X0271946Y0211323D01*
X0271816Y0211340D01*
X0271686Y0211361D01*
X0271557Y0211386D01*
X0271429Y0211414D01*
X0271301Y0211447D01*
X0271175Y0211483D01*
X0271050Y0211524D01*
X0270926Y0211568D01*
X0270803Y0211615D01*
X0270682Y0211667D01*
X0270563Y0211722D01*
X0270445Y0211781D01*
X0270330Y0211843D01*
X0270216Y0211909D01*
X0270104Y0211978D01*
X0269994Y0212050D01*
X0269887Y0212126D01*
X0269782Y0212205D01*
X0269679Y0212287D01*
X0269579Y0212372D01*
X0269482Y0212461D01*
X0269387Y0212552D01*
X0269295Y0212646D01*
X0269206Y0212743D01*
X0269120Y0212842D01*
X0269037Y0212944D01*
X0268957Y0213049D01*
X0268881Y0213155D01*
X0268808Y0213264D01*
X0268738Y0213376D01*
X0268671Y0213489D01*
X0268608Y0213604D01*
X0268548Y0213722D01*
X0268492Y0213840D01*
X0268440Y0213961D01*
X0268391Y0214083D01*
X0268346Y0214207D01*
X0268305Y0214331D01*
X0268268Y0214458D01*
X0268234Y0214585D01*
X0268204Y0214713D01*
X0268179Y0214842D01*
X0268157Y0214971D01*
X0268139Y0215101D01*
X0268125Y0215232D01*
X0268115Y0215363D01*
X0268109Y0215495D01*
X0268107Y0215626D01*
X0057030Y0072462D02*
X0057032Y0072536D01*
X0057038Y0072610D01*
X0057048Y0072683D01*
X0057062Y0072756D01*
X0057079Y0072828D01*
X0057101Y0072898D01*
X0057126Y0072968D01*
X0057155Y0073036D01*
X0057188Y0073102D01*
X0057224Y0073167D01*
X0057264Y0073229D01*
X0057306Y0073290D01*
X0057352Y0073348D01*
X0057401Y0073403D01*
X0057453Y0073456D01*
X0057508Y0073506D01*
X0057565Y0073552D01*
X0057625Y0073596D01*
X0057687Y0073636D01*
X0057751Y0073673D01*
X0057817Y0073707D01*
X0057885Y0073737D01*
X0057954Y0073763D01*
X0058025Y0073786D01*
X0058096Y0073804D01*
X0058169Y0073819D01*
X0058242Y0073830D01*
X0058316Y0073837D01*
X0058390Y0073840D01*
X0058463Y0073839D01*
X0058537Y0073834D01*
X0058611Y0073825D01*
X0058684Y0073812D01*
X0058756Y0073795D01*
X0058827Y0073775D01*
X0058897Y0073750D01*
X0058965Y0073722D01*
X0059032Y0073691D01*
X0059097Y0073655D01*
X0059160Y0073617D01*
X0059221Y0073575D01*
X0059280Y0073529D01*
X0059336Y0073481D01*
X0059389Y0073430D01*
X0059439Y0073376D01*
X0059487Y0073319D01*
X0059531Y0073260D01*
X0059573Y0073198D01*
X0059611Y0073135D01*
X0059645Y0073069D01*
X0059676Y0073002D01*
X0059703Y0072933D01*
X0059726Y0072863D01*
X0059746Y0072792D01*
X0059762Y0072719D01*
X0059774Y0072646D01*
X0059782Y0072573D01*
X0059786Y0072499D01*
X0059786Y0072425D01*
X0059782Y0072351D01*
X0059774Y0072278D01*
X0059762Y0072205D01*
X0059746Y0072132D01*
X0059726Y0072061D01*
X0059703Y0071991D01*
X0059676Y0071922D01*
X0059645Y0071855D01*
X0059611Y0071789D01*
X0059573Y0071726D01*
X0059531Y0071664D01*
X0059487Y0071605D01*
X0059439Y0071548D01*
X0059389Y0071494D01*
X0059336Y0071443D01*
X0059280Y0071395D01*
X0059221Y0071349D01*
X0059160Y0071307D01*
X0059097Y0071269D01*
X0059032Y0071233D01*
X0058965Y0071202D01*
X0058897Y0071174D01*
X0058827Y0071149D01*
X0058756Y0071129D01*
X0058684Y0071112D01*
X0058611Y0071099D01*
X0058537Y0071090D01*
X0058463Y0071085D01*
X0058390Y0071084D01*
X0058316Y0071087D01*
X0058242Y0071094D01*
X0058169Y0071105D01*
X0058096Y0071120D01*
X0058025Y0071138D01*
X0057954Y0071161D01*
X0057885Y0071187D01*
X0057817Y0071217D01*
X0057751Y0071251D01*
X0057687Y0071288D01*
X0057625Y0071328D01*
X0057565Y0071372D01*
X0057508Y0071418D01*
X0057453Y0071468D01*
X0057401Y0071521D01*
X0057352Y0071576D01*
X0057306Y0071634D01*
X0057264Y0071695D01*
X0057224Y0071757D01*
X0057188Y0071822D01*
X0057155Y0071888D01*
X0057126Y0071956D01*
X0057101Y0072026D01*
X0057079Y0072096D01*
X0057062Y0072168D01*
X0057048Y0072241D01*
X0057038Y0072314D01*
X0057032Y0072388D01*
X0057030Y0072462D01*
X0052019Y0067451D02*
X0052021Y0067525D01*
X0052027Y0067599D01*
X0052037Y0067672D01*
X0052051Y0067745D01*
X0052068Y0067817D01*
X0052090Y0067887D01*
X0052115Y0067957D01*
X0052144Y0068025D01*
X0052177Y0068091D01*
X0052213Y0068156D01*
X0052253Y0068218D01*
X0052295Y0068279D01*
X0052341Y0068337D01*
X0052390Y0068392D01*
X0052442Y0068445D01*
X0052497Y0068495D01*
X0052554Y0068541D01*
X0052614Y0068585D01*
X0052676Y0068625D01*
X0052740Y0068662D01*
X0052806Y0068696D01*
X0052874Y0068726D01*
X0052943Y0068752D01*
X0053014Y0068775D01*
X0053085Y0068793D01*
X0053158Y0068808D01*
X0053231Y0068819D01*
X0053305Y0068826D01*
X0053379Y0068829D01*
X0053452Y0068828D01*
X0053526Y0068823D01*
X0053600Y0068814D01*
X0053673Y0068801D01*
X0053745Y0068784D01*
X0053816Y0068764D01*
X0053886Y0068739D01*
X0053954Y0068711D01*
X0054021Y0068680D01*
X0054086Y0068644D01*
X0054149Y0068606D01*
X0054210Y0068564D01*
X0054269Y0068518D01*
X0054325Y0068470D01*
X0054378Y0068419D01*
X0054428Y0068365D01*
X0054476Y0068308D01*
X0054520Y0068249D01*
X0054562Y0068187D01*
X0054600Y0068124D01*
X0054634Y0068058D01*
X0054665Y0067991D01*
X0054692Y0067922D01*
X0054715Y0067852D01*
X0054735Y0067781D01*
X0054751Y0067708D01*
X0054763Y0067635D01*
X0054771Y0067562D01*
X0054775Y0067488D01*
X0054775Y0067414D01*
X0054771Y0067340D01*
X0054763Y0067267D01*
X0054751Y0067194D01*
X0054735Y0067121D01*
X0054715Y0067050D01*
X0054692Y0066980D01*
X0054665Y0066911D01*
X0054634Y0066844D01*
X0054600Y0066778D01*
X0054562Y0066715D01*
X0054520Y0066653D01*
X0054476Y0066594D01*
X0054428Y0066537D01*
X0054378Y0066483D01*
X0054325Y0066432D01*
X0054269Y0066384D01*
X0054210Y0066338D01*
X0054149Y0066296D01*
X0054086Y0066258D01*
X0054021Y0066222D01*
X0053954Y0066191D01*
X0053886Y0066163D01*
X0053816Y0066138D01*
X0053745Y0066118D01*
X0053673Y0066101D01*
X0053600Y0066088D01*
X0053526Y0066079D01*
X0053452Y0066074D01*
X0053379Y0066073D01*
X0053305Y0066076D01*
X0053231Y0066083D01*
X0053158Y0066094D01*
X0053085Y0066109D01*
X0053014Y0066127D01*
X0052943Y0066150D01*
X0052874Y0066176D01*
X0052806Y0066206D01*
X0052740Y0066240D01*
X0052676Y0066277D01*
X0052614Y0066317D01*
X0052554Y0066361D01*
X0052497Y0066407D01*
X0052442Y0066457D01*
X0052390Y0066510D01*
X0052341Y0066565D01*
X0052295Y0066623D01*
X0052253Y0066684D01*
X0052213Y0066746D01*
X0052177Y0066811D01*
X0052144Y0066877D01*
X0052115Y0066945D01*
X0052090Y0067015D01*
X0052068Y0067085D01*
X0052051Y0067157D01*
X0052037Y0067230D01*
X0052027Y0067303D01*
X0052021Y0067377D01*
X0052019Y0067451D01*
D12*
X0053627Y0148697D03*
X0042430Y0148697D03*
D13*
X0042320Y0160508D03*
X0049800Y0160508D03*
X0154524Y0160508D03*
X0162005Y0160508D03*
X0160430Y0129012D03*
X0167910Y0129012D03*
D14*
X0088658Y0108484D03*
X0088658Y0090484D03*
D15*
X0116926Y0099484D03*
D16*
X0162201Y0185941D03*
X0162201Y0195941D03*
X0162201Y0205941D03*
X0232910Y0056177D03*
X0242910Y0056177D03*
X0252910Y0056177D03*
D17*
X0270942Y0159012D03*
X0214879Y0159012D03*
D18*
X0059367Y0167909D03*
X0059367Y0223972D03*
D19*
X0148033Y0106616D03*
X0148033Y0097516D03*
X0148033Y0088416D03*
D20*
X0172434Y0097516D03*
D21*
X0136611Y0104012D03*
X0136611Y0110705D03*
X0136611Y0091020D03*
X0136611Y0084327D03*
X0075587Y0094169D03*
X0075587Y0100862D03*
X0075587Y0111886D03*
X0075587Y0118579D03*
D22*
X0084839Y0075862D03*
X0101768Y0075862D03*
X0112398Y0075862D03*
X0129327Y0075862D03*
D23*
X0140548Y0129012D03*
X0148422Y0129012D03*
X0148422Y0140823D03*
X0140548Y0140823D03*
X0160233Y0140823D03*
X0168107Y0140823D03*
D24*
G36*
X0063975Y0069679D02*
X0061192Y0072462D01*
X0073997Y0085267D01*
X0076780Y0082484D01*
X0063975Y0069679D01*
G37*
G36*
X0058408Y0075247D02*
X0055625Y0078030D01*
X0068430Y0090835D01*
X0071213Y0088052D01*
X0058408Y0075247D01*
G37*
D25*
G36*
X0035302Y0072741D02*
X0044766Y0082205D01*
X0049220Y0077751D01*
X0039756Y0068287D01*
X0035302Y0072741D01*
G37*
G36*
X0054233Y0053811D02*
X0063697Y0063275D01*
X0068151Y0058821D01*
X0058687Y0049357D01*
X0054233Y0053811D01*
G37*
D26*
X0051276Y0107201D02*
X0044780Y0107201D01*
X0044780Y0117201D02*
X0051276Y0117201D01*
X0051276Y0127201D02*
X0044780Y0127201D01*
D27*
X0048028Y0137201D03*
X0048028Y0097201D03*
D28*
X0067713Y0134917D03*
X0075587Y0134917D03*
X0075587Y0142791D03*
X0067713Y0142791D03*
X0067713Y0150665D03*
X0075587Y0150665D03*
D29*
X0057871Y0152634D03*
X0040154Y0168382D03*
X0093304Y0221531D03*
X0116926Y0195941D03*
X0126768Y0205783D03*
X0136611Y0197909D03*
X0140548Y0205783D03*
X0146453Y0182161D03*
X0128737Y0172319D03*
X0105115Y0178224D03*
X0140548Y0132949D03*
X0162201Y0140823D03*
X0168107Y0142791D03*
X0164170Y0158539D03*
X0225194Y0099484D03*
X0244879Y0081768D03*
X0231099Y0071925D03*
X0262595Y0125075D03*
X0093304Y0075862D03*
X0055902Y0064051D03*
X0051965Y0083736D03*
D30*
X0068986Y0077473D02*
X0068986Y0077135D01*
X0055902Y0064051D01*
X0084839Y0075862D02*
X0084839Y0086665D01*
X0088658Y0090484D01*
X0084973Y0094169D01*
X0075587Y0094169D01*
X0075587Y0100862D02*
X0075587Y0111886D01*
X0093304Y0075862D02*
X0101768Y0075862D01*
X0112398Y0075862D01*
D31*
X0116926Y0099484D02*
X0116926Y0100469D01*
X0076572Y0100469D01*
X0075587Y0100862D01*
X0070666Y0112280D02*
X0070666Y0118185D01*
X0075587Y0118185D01*
X0075587Y0118579D01*
X0070666Y0112280D02*
X0049997Y0091610D01*
X0037201Y0091610D01*
X0037201Y0165429D01*
X0040154Y0168382D01*
X0049997Y0163461D02*
X0049800Y0160508D01*
X0049997Y0163461D02*
X0065745Y0163461D01*
X0065745Y0173303D01*
X0083461Y0191020D01*
X0128737Y0191020D01*
X0129721Y0190035D01*
X0097241Y0155587D02*
X0072635Y0155587D01*
X0067713Y0150665D01*
X0088658Y0112004D02*
X0089367Y0112280D01*
X0099209Y0112280D01*
X0107083Y0120154D01*
X0138579Y0120154D01*
X0143501Y0115232D01*
X0204524Y0115232D01*
X0205509Y0116217D01*
X0219288Y0099484D02*
X0174997Y0099484D01*
X0173028Y0097516D01*
X0172434Y0097516D01*
X0160233Y0097516D01*
X0148033Y0097516D01*
X0213383Y0079799D02*
X0229131Y0079799D01*
X0236020Y0086689D01*
X0254721Y0077831D02*
X0233068Y0056177D01*
X0232910Y0056177D01*
X0252753Y0069957D02*
X0284249Y0069957D01*
X0284249Y0087673D01*
X0267516Y0104406D01*
X0253737Y0104406D01*
X0244879Y0113264D01*
D32*
X0244879Y0113264D03*
X0245863Y0103421D03*
X0259642Y0099484D03*
X0273422Y0092594D03*
X0284249Y0096531D03*
X0275390Y0077831D03*
X0254721Y0077831D03*
X0252753Y0069957D03*
X0236020Y0086689D03*
X0218304Y0090626D03*
X0212398Y0094563D03*
X0219288Y0099484D03*
X0209446Y0104406D03*
X0209446Y0112280D03*
X0205509Y0116217D03*
X0193698Y0129996D03*
X0185823Y0120154D03*
X0180902Y0122122D03*
X0173028Y0135902D03*
X0184839Y0153618D03*
X0195666Y0159524D03*
X0173028Y0165429D03*
X0158264Y0174287D03*
X0141532Y0157555D03*
X0128737Y0152634D03*
X0122831Y0156571D03*
X0107083Y0163461D03*
X0103146Y0155587D03*
X0097241Y0155587D03*
X0082477Y0162476D03*
X0071650Y0168382D03*
X0084446Y0186098D03*
X0099209Y0179209D03*
X0084446Y0204799D03*
X0097241Y0212673D03*
X0113973Y0212673D03*
X0129721Y0190035D03*
X0114957Y0138854D03*
X0128737Y0127043D03*
X0133658Y0129012D03*
X0116926Y0115232D03*
X0105115Y0124091D03*
X0100194Y0083736D03*
X0105115Y0081768D03*
X0146453Y0081768D03*
X0151375Y0082752D03*
X0160233Y0081768D03*
X0163186Y0091610D03*
X0160233Y0097516D03*
X0163186Y0104406D03*
X0159249Y0108343D03*
X0180902Y0091610D03*
X0189760Y0072909D03*
X0200587Y0081768D03*
X0213383Y0079799D03*
X0226178Y0124091D03*
X0242910Y0132949D03*
X0231099Y0144760D03*
X0240942Y0154602D03*
X0222241Y0155587D03*
X0266532Y0150665D03*
X0274406Y0147713D03*
X0060823Y0138854D03*
X0059839Y0130980D03*
D33*
X0108068Y0130980D01*
X0112005Y0134917D01*
X0138579Y0134917D01*
X0140548Y0132949D01*
X0133658Y0129012D02*
X0144485Y0118185D01*
X0183855Y0118185D01*
X0185823Y0120154D01*
X0180902Y0122122D02*
X0174012Y0129012D01*
X0167910Y0129012D01*
X0173028Y0135902D02*
X0173028Y0147713D01*
X0078540Y0147713D01*
X0077556Y0146728D01*
X0071650Y0146728D01*
X0067713Y0142791D01*
X0061808Y0142791D02*
X0059839Y0142791D01*
X0056886Y0139839D01*
X0056886Y0134917D01*
X0067713Y0134917D01*
X0060823Y0138854D02*
X0114957Y0138854D01*
X0108068Y0127043D02*
X0128737Y0127043D01*
X0139564Y0115232D02*
X0116926Y0115232D01*
X0108068Y0127043D02*
X0105115Y0124091D01*
X0131690Y0149681D02*
X0174012Y0149681D01*
X0193698Y0129996D01*
X0209446Y0112280D02*
X0142516Y0112280D01*
X0139564Y0115232D01*
X0136611Y0110705D02*
X0136611Y0110311D01*
X0138579Y0108343D01*
X0146453Y0108343D01*
X0147438Y0107358D01*
X0148033Y0106616D01*
X0148422Y0106374D01*
X0150390Y0104406D01*
X0163186Y0104406D01*
X0159249Y0108343D02*
X0205509Y0108343D01*
X0209446Y0104406D01*
X0212398Y0094563D02*
X0229131Y0094563D01*
X0229131Y0103421D01*
X0242910Y0117201D01*
X0242910Y0132949D01*
X0243894Y0136886D02*
X0238973Y0136886D01*
X0226178Y0124091D01*
X0243894Y0136886D02*
X0284249Y0096531D01*
X0273422Y0092594D02*
X0250784Y0092594D01*
X0234052Y0075862D01*
X0211414Y0075862D01*
X0210430Y0076846D01*
X0151375Y0076846D01*
X0146453Y0081768D01*
X0151375Y0082752D02*
X0155312Y0086689D01*
X0201572Y0086689D01*
X0205509Y0090626D01*
X0213383Y0090626D01*
X0217320Y0086689D01*
X0230115Y0086689D01*
X0242910Y0099484D01*
X0259642Y0099484D01*
X0245863Y0103421D02*
X0243894Y0103421D01*
X0233068Y0092594D01*
X0220272Y0092594D01*
X0218304Y0090626D01*
X0200587Y0081768D02*
X0160233Y0081768D01*
X0166138Y0088657D02*
X0177949Y0088657D01*
X0180902Y0091610D01*
X0166138Y0088657D02*
X0163186Y0091610D01*
X0187792Y0070941D02*
X0124800Y0070941D01*
X0113973Y0081768D01*
X0105115Y0081768D01*
X0100194Y0083736D02*
X0096257Y0079799D01*
X0092320Y0079799D01*
X0089367Y0076846D01*
X0089367Y0068972D01*
X0229131Y0068972D01*
X0230115Y0067988D01*
X0238973Y0067988D01*
X0252753Y0081768D01*
X0271453Y0081768D01*
X0275390Y0077831D01*
X0260627Y0144760D02*
X0231099Y0144760D01*
X0240942Y0154602D02*
X0239957Y0155587D01*
X0222241Y0155587D01*
X0201572Y0165429D02*
X0195666Y0159524D01*
X0185823Y0149681D01*
X0176965Y0149681D01*
X0173028Y0153618D01*
X0132674Y0153618D01*
X0129721Y0156571D01*
X0127753Y0156571D01*
X0122831Y0151650D01*
X0076572Y0151650D01*
X0075587Y0150665D01*
X0078540Y0158539D02*
X0068698Y0158539D01*
X0061808Y0151650D01*
X0061808Y0142791D01*
X0078540Y0158539D02*
X0082477Y0162476D01*
X0090351Y0168382D02*
X0071650Y0168382D01*
X0090351Y0168382D02*
X0103146Y0155587D01*
X0107083Y0163461D02*
X0084446Y0186098D01*
X0095272Y0186098D02*
X0095272Y0178224D01*
X0099209Y0174287D01*
X0105115Y0174287D01*
X0122831Y0156571D01*
X0128737Y0152634D02*
X0131690Y0149681D01*
X0140548Y0140823D02*
X0145469Y0145744D01*
X0155312Y0145744D01*
X0160233Y0140823D01*
X0173028Y0153618D02*
X0168107Y0158539D01*
X0164170Y0158539D01*
X0162005Y0160508D01*
X0155312Y0160508D02*
X0155312Y0165429D01*
X0168107Y0165429D01*
X0179918Y0153618D01*
X0184839Y0153618D01*
X0173028Y0165429D02*
X0160233Y0178224D01*
X0120863Y0178224D01*
X0116926Y0182161D01*
X0102162Y0182161D01*
X0099209Y0179209D01*
X0095272Y0186098D02*
X0131690Y0186098D01*
X0133658Y0188067D01*
X0133658Y0195941D01*
X0130705Y0195941D01*
X0113973Y0212673D01*
X0097241Y0212673D02*
X0092320Y0212673D01*
X0084446Y0204799D01*
X0141532Y0157555D02*
X0158264Y0174287D01*
X0155312Y0160508D02*
X0154524Y0160508D01*
X0201572Y0165429D02*
X0274406Y0165429D01*
X0274406Y0147713D01*
X0266532Y0150665D02*
X0260627Y0144760D01*
X0189760Y0072909D02*
X0187792Y0070941D01*
M02*
