G75*
%MOIN*%
%OFA0B0*%
%FSLAX25Y25*%
%IPPOS*%
%LPD*%
%AMOC8*
5,1,8,0,0,1.08239X$1,22.5*
%
%ADD10C,0.01600*%
%ADD11C,0.00000*%
%ADD12C,0.00400*%
%ADD13C,0.00040*%
%ADD14R,0.00787X0.00787*%
%ADD15R,0.00591X0.00984*%
%ADD16C,0.00600*%
%ADD17R,0.02362X0.04488*%
%ADD18R,0.03937X0.03465*%
%ADD19C,0.00500*%
%ADD20C,0.00800*%
D10*
X0055902Y0050272D02*
X0036217Y0069957D01*
X0036093Y0069959D01*
X0035970Y0069965D01*
X0035846Y0069974D01*
X0035724Y0069988D01*
X0035601Y0070005D01*
X0035479Y0070027D01*
X0035358Y0070052D01*
X0035238Y0070081D01*
X0035119Y0070113D01*
X0035000Y0070150D01*
X0034883Y0070190D01*
X0034768Y0070233D01*
X0034653Y0070281D01*
X0034541Y0070332D01*
X0034430Y0070386D01*
X0034320Y0070444D01*
X0034213Y0070505D01*
X0034107Y0070570D01*
X0034004Y0070638D01*
X0033903Y0070709D01*
X0033804Y0070783D01*
X0033707Y0070860D01*
X0033613Y0070941D01*
X0033522Y0071024D01*
X0033433Y0071110D01*
X0033347Y0071199D01*
X0033264Y0071290D01*
X0033183Y0071384D01*
X0033106Y0071481D01*
X0033032Y0071580D01*
X0032961Y0071681D01*
X0032893Y0071784D01*
X0032828Y0071890D01*
X0032767Y0071997D01*
X0032709Y0072107D01*
X0032655Y0072218D01*
X0032604Y0072330D01*
X0032556Y0072445D01*
X0032513Y0072560D01*
X0032473Y0072677D01*
X0032436Y0072796D01*
X0032404Y0072915D01*
X0032375Y0073035D01*
X0032350Y0073156D01*
X0032328Y0073278D01*
X0032311Y0073401D01*
X0032297Y0073523D01*
X0032288Y0073647D01*
X0032282Y0073770D01*
X0032280Y0073894D01*
X0032280Y0219563D01*
X0032282Y0219753D01*
X0032289Y0219943D01*
X0032301Y0220133D01*
X0032317Y0220323D01*
X0032337Y0220512D01*
X0032363Y0220701D01*
X0032392Y0220889D01*
X0032427Y0221076D01*
X0032466Y0221262D01*
X0032509Y0221447D01*
X0032557Y0221632D01*
X0032609Y0221815D01*
X0032665Y0221996D01*
X0032726Y0222176D01*
X0032792Y0222355D01*
X0032861Y0222532D01*
X0032935Y0222708D01*
X0033013Y0222881D01*
X0033096Y0223053D01*
X0033182Y0223222D01*
X0033272Y0223390D01*
X0033367Y0223555D01*
X0033465Y0223718D01*
X0033568Y0223878D01*
X0033674Y0224036D01*
X0033784Y0224191D01*
X0033897Y0224344D01*
X0034015Y0224494D01*
X0034136Y0224640D01*
X0034260Y0224784D01*
X0034388Y0224925D01*
X0034519Y0225063D01*
X0034654Y0225198D01*
X0034792Y0225329D01*
X0034933Y0225457D01*
X0035077Y0225581D01*
X0035223Y0225702D01*
X0035373Y0225820D01*
X0035526Y0225933D01*
X0035681Y0226043D01*
X0035839Y0226149D01*
X0035999Y0226252D01*
X0036162Y0226350D01*
X0036327Y0226445D01*
X0036495Y0226535D01*
X0036664Y0226621D01*
X0036836Y0226704D01*
X0037009Y0226782D01*
X0037185Y0226856D01*
X0037362Y0226925D01*
X0037541Y0226991D01*
X0037721Y0227052D01*
X0037902Y0227108D01*
X0038085Y0227160D01*
X0038270Y0227208D01*
X0038455Y0227251D01*
X0038641Y0227290D01*
X0038828Y0227325D01*
X0039016Y0227354D01*
X0039205Y0227380D01*
X0039394Y0227400D01*
X0039584Y0227416D01*
X0039774Y0227428D01*
X0039964Y0227435D01*
X0040154Y0227437D01*
X0111020Y0227437D01*
X0111020Y0235311D01*
X0116926Y0233343D02*
X0116926Y0225469D01*
X0112989Y0225469D01*
X0109052Y0225469D02*
X0105115Y0225469D01*
X0105115Y0219563D01*
X0105115Y0214970D01*
X0105115Y0211033D02*
X0105115Y0206440D01*
X0105115Y0202503D02*
X0105115Y0197909D01*
X0105115Y0193972D02*
X0105115Y0189379D01*
X0105115Y0185442D02*
X0105115Y0180849D01*
X0105115Y0176912D02*
X0105115Y0172319D01*
X0105115Y0166413D01*
X0109052Y0166413D01*
X0112989Y0166413D02*
X0116926Y0166413D01*
X0116926Y0158539D01*
X0127172Y0143784D02*
X0127524Y0143657D01*
X0127880Y0143538D01*
X0128238Y0143429D01*
X0128599Y0143327D01*
X0128962Y0143235D01*
X0129327Y0143151D01*
X0129694Y0143075D01*
X0130063Y0143009D01*
X0130433Y0142951D01*
X0130805Y0142902D01*
X0131177Y0142862D01*
X0131551Y0142831D01*
X0131925Y0142809D01*
X0132299Y0142795D01*
X0132674Y0142791D01*
X0133658Y0142791D01*
X0134029Y0142773D01*
X0134401Y0142763D01*
X0134774Y0142763D01*
X0135146Y0142771D01*
X0135517Y0142788D01*
X0135889Y0142814D01*
X0136259Y0142848D01*
X0136629Y0142891D01*
X0136997Y0142943D01*
X0137365Y0143004D01*
X0137730Y0143073D01*
X0138094Y0143151D01*
X0138456Y0143237D01*
X0138816Y0143332D01*
X0139174Y0143436D01*
X0139529Y0143547D01*
X0149280Y0152725D02*
X0149413Y0153072D01*
X0149537Y0153423D01*
X0149654Y0153776D01*
X0149762Y0154132D01*
X0149862Y0154491D01*
X0149953Y0154852D01*
X0150036Y0155215D01*
X0150110Y0155579D01*
X0150175Y0155946D01*
X0150232Y0156313D01*
X0150280Y0156682D01*
X0150320Y0157053D01*
X0150351Y0157423D01*
X0150372Y0157795D01*
X0150386Y0158167D01*
X0150390Y0158539D01*
X0150390Y0163461D01*
X0150390Y0167398D02*
X0150390Y0172319D01*
X0150390Y0178224D01*
X0150390Y0182161D02*
X0150390Y0188067D01*
X0150390Y0193972D01*
X0150390Y0197909D02*
X0150390Y0203815D01*
X0150390Y0209720D01*
X0150390Y0213657D02*
X0150390Y0219563D01*
X0150390Y0224484D01*
X0150390Y0228421D02*
X0150390Y0233343D01*
X0154327Y0235311D02*
X0154327Y0227437D01*
X0162201Y0227437D01*
X0162391Y0227435D01*
X0162581Y0227428D01*
X0162771Y0227416D01*
X0162961Y0227400D01*
X0163150Y0227380D01*
X0163339Y0227354D01*
X0163527Y0227325D01*
X0163714Y0227290D01*
X0163900Y0227251D01*
X0164085Y0227208D01*
X0164270Y0227160D01*
X0164453Y0227108D01*
X0164634Y0227052D01*
X0164814Y0226991D01*
X0164993Y0226925D01*
X0165170Y0226856D01*
X0165346Y0226782D01*
X0165519Y0226704D01*
X0165691Y0226621D01*
X0165860Y0226535D01*
X0166028Y0226445D01*
X0166193Y0226350D01*
X0166356Y0226252D01*
X0166516Y0226149D01*
X0166674Y0226043D01*
X0166829Y0225933D01*
X0166982Y0225820D01*
X0167132Y0225702D01*
X0167278Y0225581D01*
X0167422Y0225457D01*
X0167563Y0225329D01*
X0167701Y0225198D01*
X0167836Y0225063D01*
X0167967Y0224925D01*
X0168095Y0224784D01*
X0168219Y0224640D01*
X0168340Y0224494D01*
X0168458Y0224344D01*
X0168571Y0224191D01*
X0168681Y0224036D01*
X0168787Y0223878D01*
X0168890Y0223718D01*
X0168988Y0223555D01*
X0169083Y0223390D01*
X0169173Y0223222D01*
X0169259Y0223053D01*
X0169342Y0222881D01*
X0169420Y0222708D01*
X0169494Y0222532D01*
X0169563Y0222355D01*
X0169629Y0222176D01*
X0169690Y0221996D01*
X0169746Y0221815D01*
X0169798Y0221632D01*
X0169846Y0221447D01*
X0169889Y0221262D01*
X0169928Y0221076D01*
X0169963Y0220889D01*
X0169992Y0220701D01*
X0170018Y0220512D01*
X0170038Y0220323D01*
X0170054Y0220133D01*
X0170066Y0219943D01*
X0170073Y0219753D01*
X0170075Y0219563D01*
X0170075Y0176256D01*
X0170077Y0176066D01*
X0170084Y0175876D01*
X0170096Y0175686D01*
X0170112Y0175496D01*
X0170132Y0175307D01*
X0170158Y0175118D01*
X0170187Y0174930D01*
X0170222Y0174743D01*
X0170261Y0174557D01*
X0170304Y0174372D01*
X0170352Y0174187D01*
X0170404Y0174004D01*
X0170460Y0173823D01*
X0170521Y0173643D01*
X0170587Y0173464D01*
X0170656Y0173287D01*
X0170730Y0173111D01*
X0170808Y0172938D01*
X0170891Y0172766D01*
X0170977Y0172597D01*
X0171067Y0172429D01*
X0171162Y0172264D01*
X0171260Y0172101D01*
X0171363Y0171941D01*
X0171469Y0171783D01*
X0171579Y0171628D01*
X0171692Y0171475D01*
X0171810Y0171325D01*
X0171931Y0171179D01*
X0172055Y0171035D01*
X0172183Y0170894D01*
X0172314Y0170756D01*
X0172449Y0170621D01*
X0172587Y0170490D01*
X0172728Y0170362D01*
X0172872Y0170238D01*
X0173018Y0170117D01*
X0173168Y0169999D01*
X0173321Y0169886D01*
X0173476Y0169776D01*
X0173634Y0169670D01*
X0173794Y0169567D01*
X0173957Y0169469D01*
X0174122Y0169374D01*
X0174290Y0169284D01*
X0174459Y0169198D01*
X0174631Y0169115D01*
X0174804Y0169037D01*
X0174980Y0168963D01*
X0175157Y0168894D01*
X0175336Y0168828D01*
X0175516Y0168767D01*
X0175697Y0168711D01*
X0175880Y0168659D01*
X0176065Y0168611D01*
X0176250Y0168568D01*
X0176436Y0168529D01*
X0176623Y0168494D01*
X0176811Y0168465D01*
X0177000Y0168439D01*
X0177189Y0168419D01*
X0177379Y0168403D01*
X0177569Y0168391D01*
X0177759Y0168384D01*
X0177949Y0168382D01*
X0252753Y0168382D01*
X0252943Y0168384D01*
X0253133Y0168391D01*
X0253323Y0168403D01*
X0253513Y0168419D01*
X0253702Y0168439D01*
X0253891Y0168465D01*
X0254079Y0168494D01*
X0254266Y0168529D01*
X0254452Y0168568D01*
X0254637Y0168611D01*
X0254822Y0168659D01*
X0255005Y0168711D01*
X0255186Y0168767D01*
X0255366Y0168828D01*
X0255545Y0168894D01*
X0255722Y0168963D01*
X0255898Y0169037D01*
X0256071Y0169115D01*
X0256243Y0169198D01*
X0256412Y0169284D01*
X0256580Y0169374D01*
X0256745Y0169469D01*
X0256908Y0169567D01*
X0257068Y0169670D01*
X0257226Y0169776D01*
X0257381Y0169886D01*
X0257534Y0169999D01*
X0257684Y0170117D01*
X0257830Y0170238D01*
X0257974Y0170362D01*
X0258115Y0170490D01*
X0258253Y0170621D01*
X0258388Y0170756D01*
X0258519Y0170894D01*
X0258647Y0171035D01*
X0258771Y0171179D01*
X0258892Y0171325D01*
X0259010Y0171475D01*
X0259123Y0171628D01*
X0259233Y0171783D01*
X0259339Y0171941D01*
X0259442Y0172101D01*
X0259540Y0172264D01*
X0259635Y0172429D01*
X0259725Y0172597D01*
X0259811Y0172766D01*
X0259894Y0172938D01*
X0259972Y0173111D01*
X0260046Y0173287D01*
X0260115Y0173464D01*
X0260181Y0173643D01*
X0260242Y0173823D01*
X0260298Y0174004D01*
X0260350Y0174187D01*
X0260398Y0174372D01*
X0260441Y0174557D01*
X0260480Y0174743D01*
X0260515Y0174930D01*
X0260544Y0175118D01*
X0260570Y0175307D01*
X0260590Y0175496D01*
X0260606Y0175686D01*
X0260618Y0175876D01*
X0260625Y0176066D01*
X0260627Y0176256D01*
X0260627Y0219563D01*
X0260629Y0219753D01*
X0260636Y0219943D01*
X0260648Y0220133D01*
X0260664Y0220323D01*
X0260684Y0220512D01*
X0260710Y0220701D01*
X0260739Y0220889D01*
X0260774Y0221076D01*
X0260813Y0221262D01*
X0260856Y0221447D01*
X0260904Y0221632D01*
X0260956Y0221815D01*
X0261012Y0221996D01*
X0261073Y0222176D01*
X0261139Y0222355D01*
X0261208Y0222532D01*
X0261282Y0222708D01*
X0261360Y0222881D01*
X0261443Y0223053D01*
X0261529Y0223222D01*
X0261619Y0223390D01*
X0261714Y0223555D01*
X0261812Y0223718D01*
X0261915Y0223878D01*
X0262021Y0224036D01*
X0262131Y0224191D01*
X0262244Y0224344D01*
X0262362Y0224494D01*
X0262483Y0224640D01*
X0262607Y0224784D01*
X0262735Y0224925D01*
X0262866Y0225063D01*
X0263001Y0225198D01*
X0263139Y0225329D01*
X0263280Y0225457D01*
X0263424Y0225581D01*
X0263570Y0225702D01*
X0263720Y0225820D01*
X0263873Y0225933D01*
X0264028Y0226043D01*
X0264186Y0226149D01*
X0264346Y0226252D01*
X0264509Y0226350D01*
X0264674Y0226445D01*
X0264842Y0226535D01*
X0265011Y0226621D01*
X0265183Y0226704D01*
X0265356Y0226782D01*
X0265532Y0226856D01*
X0265709Y0226925D01*
X0265888Y0226991D01*
X0266068Y0227052D01*
X0266249Y0227108D01*
X0266432Y0227160D01*
X0266617Y0227208D01*
X0266802Y0227251D01*
X0266988Y0227290D01*
X0267175Y0227325D01*
X0267363Y0227354D01*
X0267552Y0227380D01*
X0267741Y0227400D01*
X0267931Y0227416D01*
X0268121Y0227428D01*
X0268311Y0227435D01*
X0268501Y0227437D01*
X0276375Y0227437D01*
X0276565Y0227435D01*
X0276755Y0227428D01*
X0276945Y0227416D01*
X0277135Y0227400D01*
X0277324Y0227380D01*
X0277513Y0227354D01*
X0277701Y0227325D01*
X0277888Y0227290D01*
X0278074Y0227251D01*
X0278259Y0227208D01*
X0278444Y0227160D01*
X0278627Y0227108D01*
X0278808Y0227052D01*
X0278988Y0226991D01*
X0279167Y0226925D01*
X0279344Y0226856D01*
X0279520Y0226782D01*
X0279693Y0226704D01*
X0279865Y0226621D01*
X0280034Y0226535D01*
X0280202Y0226445D01*
X0280367Y0226350D01*
X0280530Y0226252D01*
X0280690Y0226149D01*
X0280848Y0226043D01*
X0281003Y0225933D01*
X0281156Y0225820D01*
X0281306Y0225702D01*
X0281452Y0225581D01*
X0281596Y0225457D01*
X0281737Y0225329D01*
X0281875Y0225198D01*
X0282010Y0225063D01*
X0282141Y0224925D01*
X0282269Y0224784D01*
X0282393Y0224640D01*
X0282514Y0224494D01*
X0282632Y0224344D01*
X0282745Y0224191D01*
X0282855Y0224036D01*
X0282961Y0223878D01*
X0283064Y0223718D01*
X0283162Y0223555D01*
X0283257Y0223390D01*
X0283347Y0223222D01*
X0283433Y0223053D01*
X0283516Y0222881D01*
X0283594Y0222708D01*
X0283668Y0222532D01*
X0283737Y0222355D01*
X0283803Y0222176D01*
X0283864Y0221996D01*
X0283920Y0221815D01*
X0283972Y0221632D01*
X0284020Y0221447D01*
X0284063Y0221262D01*
X0284102Y0221076D01*
X0284137Y0220889D01*
X0284166Y0220701D01*
X0284192Y0220512D01*
X0284212Y0220323D01*
X0284228Y0220133D01*
X0284240Y0219943D01*
X0284247Y0219753D01*
X0284249Y0219563D01*
X0284249Y0105390D01*
X0280312Y0101453D02*
X0272438Y0101453D01*
X0272438Y0105390D01*
X0272438Y0109327D02*
X0272438Y0113264D01*
X0266532Y0113264D01*
X0261939Y0113264D01*
X0258002Y0113264D02*
X0253409Y0113264D01*
X0249472Y0113264D02*
X0244879Y0113264D01*
X0240942Y0113264D02*
X0236348Y0113264D01*
X0232411Y0113264D02*
X0227818Y0113264D01*
X0223881Y0113264D02*
X0219288Y0113264D01*
X0213383Y0113264D01*
X0213383Y0109327D01*
X0213383Y0105390D02*
X0213383Y0101453D01*
X0205509Y0101453D01*
X0190754Y0091207D02*
X0190627Y0090855D01*
X0190508Y0090499D01*
X0190399Y0090141D01*
X0190297Y0089780D01*
X0190205Y0089417D01*
X0190121Y0089052D01*
X0190045Y0088685D01*
X0189979Y0088316D01*
X0189921Y0087946D01*
X0189872Y0087574D01*
X0189832Y0087202D01*
X0189801Y0086828D01*
X0189779Y0086454D01*
X0189765Y0086080D01*
X0189761Y0085705D01*
X0189760Y0085705D02*
X0189760Y0084720D01*
X0189761Y0084720D02*
X0189743Y0084349D01*
X0189733Y0083977D01*
X0189733Y0083604D01*
X0189741Y0083232D01*
X0189758Y0082861D01*
X0189784Y0082489D01*
X0189818Y0082119D01*
X0189861Y0081749D01*
X0189913Y0081381D01*
X0189974Y0081013D01*
X0190043Y0080648D01*
X0190121Y0080284D01*
X0190207Y0079922D01*
X0190302Y0079562D01*
X0190406Y0079204D01*
X0190517Y0078849D01*
X0199695Y0069098D02*
X0200042Y0068965D01*
X0200393Y0068841D01*
X0200746Y0068724D01*
X0201102Y0068616D01*
X0201461Y0068516D01*
X0201822Y0068425D01*
X0202185Y0068342D01*
X0202549Y0068268D01*
X0202916Y0068203D01*
X0203283Y0068146D01*
X0203652Y0068098D01*
X0204023Y0068058D01*
X0204393Y0068027D01*
X0204765Y0068006D01*
X0205137Y0067992D01*
X0205509Y0067988D01*
X0210430Y0067988D01*
X0214367Y0067988D02*
X0219288Y0067988D01*
X0225194Y0067988D01*
X0229131Y0067988D02*
X0235036Y0067988D01*
X0240942Y0067988D01*
X0244879Y0067988D02*
X0250784Y0067988D01*
X0256690Y0067988D01*
X0260627Y0067988D02*
X0266532Y0067988D01*
X0271453Y0067988D01*
X0275390Y0067988D02*
X0280312Y0067988D01*
X0280312Y0066020D02*
X0284249Y0066020D01*
X0280312Y0066020D02*
X0280122Y0066018D01*
X0279932Y0066011D01*
X0279742Y0065999D01*
X0279552Y0065983D01*
X0279363Y0065963D01*
X0279174Y0065937D01*
X0278986Y0065908D01*
X0278799Y0065873D01*
X0278613Y0065834D01*
X0278428Y0065791D01*
X0278243Y0065743D01*
X0278060Y0065691D01*
X0277879Y0065635D01*
X0277699Y0065574D01*
X0277520Y0065508D01*
X0277343Y0065439D01*
X0277167Y0065365D01*
X0276994Y0065287D01*
X0276822Y0065204D01*
X0276653Y0065118D01*
X0276485Y0065028D01*
X0276320Y0064933D01*
X0276157Y0064835D01*
X0275997Y0064732D01*
X0275839Y0064626D01*
X0275684Y0064516D01*
X0275531Y0064403D01*
X0275381Y0064285D01*
X0275235Y0064164D01*
X0275091Y0064040D01*
X0274950Y0063912D01*
X0274812Y0063781D01*
X0274677Y0063646D01*
X0274546Y0063508D01*
X0274418Y0063367D01*
X0274294Y0063223D01*
X0274173Y0063077D01*
X0274055Y0062927D01*
X0273942Y0062774D01*
X0273832Y0062619D01*
X0273726Y0062461D01*
X0273623Y0062301D01*
X0273525Y0062138D01*
X0273430Y0061973D01*
X0273340Y0061805D01*
X0273254Y0061636D01*
X0273171Y0061464D01*
X0273093Y0061291D01*
X0273019Y0061115D01*
X0272950Y0060938D01*
X0272884Y0060759D01*
X0272823Y0060579D01*
X0272767Y0060398D01*
X0272715Y0060215D01*
X0272667Y0060030D01*
X0272624Y0059845D01*
X0272585Y0059659D01*
X0272550Y0059472D01*
X0272521Y0059284D01*
X0272495Y0059095D01*
X0272475Y0058906D01*
X0272459Y0058716D01*
X0272447Y0058526D01*
X0272440Y0058336D01*
X0272438Y0058146D01*
X0272438Y0054209D01*
X0272436Y0054019D01*
X0272429Y0053829D01*
X0272417Y0053639D01*
X0272401Y0053449D01*
X0272381Y0053260D01*
X0272355Y0053071D01*
X0272326Y0052883D01*
X0272291Y0052696D01*
X0272252Y0052510D01*
X0272209Y0052325D01*
X0272161Y0052140D01*
X0272109Y0051957D01*
X0272053Y0051776D01*
X0271992Y0051596D01*
X0271926Y0051417D01*
X0271857Y0051240D01*
X0271783Y0051064D01*
X0271705Y0050891D01*
X0271622Y0050719D01*
X0271536Y0050550D01*
X0271446Y0050382D01*
X0271351Y0050217D01*
X0271253Y0050054D01*
X0271150Y0049894D01*
X0271044Y0049736D01*
X0270934Y0049581D01*
X0270821Y0049428D01*
X0270703Y0049278D01*
X0270582Y0049132D01*
X0270458Y0048988D01*
X0270330Y0048847D01*
X0270199Y0048709D01*
X0270064Y0048574D01*
X0269926Y0048443D01*
X0269785Y0048315D01*
X0269641Y0048191D01*
X0269495Y0048070D01*
X0269345Y0047952D01*
X0269192Y0047839D01*
X0269037Y0047729D01*
X0268879Y0047623D01*
X0268719Y0047520D01*
X0268556Y0047422D01*
X0268391Y0047327D01*
X0268223Y0047237D01*
X0268054Y0047151D01*
X0267882Y0047068D01*
X0267709Y0046990D01*
X0267533Y0046916D01*
X0267356Y0046847D01*
X0267177Y0046781D01*
X0266997Y0046720D01*
X0266816Y0046664D01*
X0266633Y0046612D01*
X0266448Y0046564D01*
X0266263Y0046521D01*
X0266077Y0046482D01*
X0265890Y0046447D01*
X0265702Y0046418D01*
X0265513Y0046392D01*
X0265324Y0046372D01*
X0265134Y0046356D01*
X0264944Y0046344D01*
X0264754Y0046337D01*
X0264564Y0046335D01*
X0221257Y0046335D01*
X0221067Y0046337D01*
X0220877Y0046344D01*
X0220687Y0046356D01*
X0220497Y0046372D01*
X0220308Y0046392D01*
X0220119Y0046418D01*
X0219931Y0046447D01*
X0219744Y0046482D01*
X0219558Y0046521D01*
X0219373Y0046564D01*
X0219188Y0046612D01*
X0219005Y0046664D01*
X0218824Y0046720D01*
X0218644Y0046781D01*
X0218465Y0046847D01*
X0218288Y0046916D01*
X0218112Y0046990D01*
X0217939Y0047068D01*
X0217767Y0047151D01*
X0217598Y0047237D01*
X0217430Y0047327D01*
X0217265Y0047422D01*
X0217102Y0047520D01*
X0216942Y0047623D01*
X0216784Y0047729D01*
X0216629Y0047839D01*
X0216476Y0047952D01*
X0216326Y0048070D01*
X0216180Y0048191D01*
X0216036Y0048315D01*
X0215895Y0048443D01*
X0215757Y0048574D01*
X0215622Y0048709D01*
X0215491Y0048847D01*
X0215363Y0048988D01*
X0215239Y0049132D01*
X0215118Y0049278D01*
X0215000Y0049428D01*
X0214887Y0049581D01*
X0214777Y0049736D01*
X0214671Y0049894D01*
X0214568Y0050054D01*
X0214470Y0050217D01*
X0214375Y0050382D01*
X0214285Y0050550D01*
X0214199Y0050719D01*
X0214116Y0050891D01*
X0214038Y0051064D01*
X0213964Y0051240D01*
X0213895Y0051417D01*
X0213829Y0051596D01*
X0213768Y0051776D01*
X0213712Y0051957D01*
X0213660Y0052140D01*
X0213612Y0052325D01*
X0213569Y0052510D01*
X0213530Y0052696D01*
X0213495Y0052883D01*
X0213466Y0053071D01*
X0213440Y0053260D01*
X0213420Y0053449D01*
X0213404Y0053639D01*
X0213392Y0053829D01*
X0213385Y0054019D01*
X0213383Y0054209D01*
X0213383Y0058146D01*
X0213381Y0058336D01*
X0213374Y0058526D01*
X0213362Y0058716D01*
X0213346Y0058906D01*
X0213326Y0059095D01*
X0213300Y0059284D01*
X0213271Y0059472D01*
X0213236Y0059659D01*
X0213197Y0059845D01*
X0213154Y0060030D01*
X0213106Y0060215D01*
X0213054Y0060398D01*
X0212998Y0060579D01*
X0212937Y0060759D01*
X0212871Y0060938D01*
X0212802Y0061115D01*
X0212728Y0061291D01*
X0212650Y0061464D01*
X0212567Y0061636D01*
X0212481Y0061805D01*
X0212391Y0061973D01*
X0212296Y0062138D01*
X0212198Y0062301D01*
X0212095Y0062461D01*
X0211989Y0062619D01*
X0211879Y0062774D01*
X0211766Y0062927D01*
X0211648Y0063077D01*
X0211527Y0063223D01*
X0211403Y0063367D01*
X0211275Y0063508D01*
X0211144Y0063646D01*
X0211009Y0063781D01*
X0210871Y0063912D01*
X0210730Y0064040D01*
X0210586Y0064164D01*
X0210440Y0064285D01*
X0210290Y0064403D01*
X0210137Y0064516D01*
X0209982Y0064626D01*
X0209824Y0064732D01*
X0209664Y0064835D01*
X0209501Y0064933D01*
X0209336Y0065028D01*
X0209168Y0065118D01*
X0208999Y0065204D01*
X0208827Y0065287D01*
X0208654Y0065365D01*
X0208478Y0065439D01*
X0208301Y0065508D01*
X0208122Y0065574D01*
X0207942Y0065635D01*
X0207761Y0065691D01*
X0207578Y0065743D01*
X0207393Y0065791D01*
X0207208Y0065834D01*
X0207022Y0065873D01*
X0206835Y0065908D01*
X0206647Y0065937D01*
X0206458Y0065963D01*
X0206269Y0065983D01*
X0206079Y0065999D01*
X0205889Y0066011D01*
X0205699Y0066018D01*
X0205509Y0066020D01*
X0087398Y0066020D01*
X0079524Y0062083D02*
X0063776Y0046335D01*
X0063777Y0046334D02*
X0063629Y0046287D01*
X0063480Y0046244D01*
X0063330Y0046204D01*
X0063179Y0046168D01*
X0063027Y0046136D01*
X0062874Y0046107D01*
X0062721Y0046082D01*
X0062567Y0046061D01*
X0062413Y0046044D01*
X0062258Y0046031D01*
X0062103Y0046022D01*
X0061948Y0046017D01*
X0061793Y0046015D01*
X0061638Y0046017D01*
X0061483Y0046023D01*
X0061328Y0046034D01*
X0061173Y0046047D01*
X0061019Y0046065D01*
X0060866Y0046087D01*
X0060712Y0046112D01*
X0060560Y0046141D01*
X0060408Y0046174D01*
X0060258Y0046211D01*
X0060108Y0046252D01*
X0059959Y0046296D01*
X0059811Y0046344D01*
X0059665Y0046396D01*
X0059520Y0046451D01*
X0059376Y0046510D01*
X0059234Y0046572D01*
X0059094Y0046638D01*
X0058955Y0046707D01*
X0058818Y0046780D01*
X0058683Y0046856D01*
X0058549Y0046936D01*
X0058418Y0047019D01*
X0058289Y0047105D01*
X0058162Y0047194D01*
X0058038Y0047287D01*
X0057915Y0047382D01*
X0057795Y0047481D01*
X0057678Y0047582D01*
X0057563Y0047687D01*
X0057451Y0047794D01*
X0057341Y0047904D01*
X0057235Y0048017D01*
X0057131Y0048132D01*
X0057030Y0048250D01*
X0056932Y0048370D01*
X0056837Y0048493D01*
X0056745Y0048618D01*
X0056656Y0048746D01*
X0056571Y0048875D01*
X0056489Y0049007D01*
X0056410Y0049140D01*
X0056334Y0049276D01*
X0056262Y0049413D01*
X0056193Y0049552D01*
X0056128Y0049693D01*
X0056066Y0049836D01*
X0056008Y0049980D01*
X0055953Y0050125D01*
X0055902Y0050271D01*
X0079525Y0062082D02*
X0079762Y0062314D01*
X0080005Y0062540D01*
X0080253Y0062760D01*
X0080506Y0062974D01*
X0080765Y0063183D01*
X0081028Y0063384D01*
X0081296Y0063580D01*
X0081568Y0063769D01*
X0081845Y0063952D01*
X0082127Y0064128D01*
X0082412Y0064297D01*
X0082701Y0064459D01*
X0082994Y0064614D01*
X0083291Y0064763D01*
X0083591Y0064904D01*
X0083895Y0065038D01*
X0084201Y0065165D01*
X0084511Y0065284D01*
X0084823Y0065396D01*
X0085138Y0065501D01*
X0085455Y0065598D01*
X0085774Y0065687D01*
X0086096Y0065769D01*
X0086419Y0065843D01*
X0086744Y0065910D01*
X0087071Y0065968D01*
X0087399Y0066019D01*
X0117919Y0153037D02*
X0117792Y0153389D01*
X0117673Y0153745D01*
X0117564Y0154103D01*
X0117462Y0154464D01*
X0117370Y0154827D01*
X0117286Y0155192D01*
X0117210Y0155559D01*
X0117144Y0155928D01*
X0117086Y0156298D01*
X0117037Y0156670D01*
X0116997Y0157042D01*
X0116966Y0157416D01*
X0116944Y0157790D01*
X0116930Y0158164D01*
X0116926Y0158539D01*
X0119739Y0149557D02*
X0119956Y0149252D01*
X0120181Y0148952D01*
X0120412Y0148657D01*
X0120651Y0148368D01*
X0120896Y0148085D01*
X0121148Y0147808D01*
X0121407Y0147537D01*
X0121672Y0147272D01*
X0121943Y0147013D01*
X0122220Y0146761D01*
X0122503Y0146516D01*
X0122792Y0146277D01*
X0123087Y0146046D01*
X0123387Y0145821D01*
X0123692Y0145604D01*
X0143079Y0145226D02*
X0143390Y0145429D01*
X0143697Y0145640D01*
X0143999Y0145858D01*
X0144295Y0146083D01*
X0144587Y0146314D01*
X0144872Y0146553D01*
X0145152Y0146798D01*
X0145426Y0147050D01*
X0145694Y0147308D01*
X0145956Y0147573D01*
X0146211Y0147844D01*
X0146460Y0148120D01*
X0146703Y0148402D01*
X0146939Y0148690D01*
X0147167Y0148984D01*
X0147389Y0149283D01*
X0200007Y0100460D02*
X0200359Y0100587D01*
X0200715Y0100706D01*
X0201073Y0100815D01*
X0201434Y0100917D01*
X0201797Y0101009D01*
X0202162Y0101093D01*
X0202529Y0101169D01*
X0202898Y0101235D01*
X0203268Y0101293D01*
X0203640Y0101342D01*
X0204012Y0101382D01*
X0204386Y0101413D01*
X0204760Y0101435D01*
X0205134Y0101449D01*
X0205509Y0101453D01*
X0196527Y0098640D02*
X0196222Y0098423D01*
X0195922Y0098198D01*
X0195627Y0097967D01*
X0195338Y0097728D01*
X0195055Y0097483D01*
X0194778Y0097231D01*
X0194507Y0096972D01*
X0194242Y0096707D01*
X0193983Y0096436D01*
X0193731Y0096159D01*
X0193486Y0095876D01*
X0193247Y0095587D01*
X0193016Y0095292D01*
X0192791Y0094992D01*
X0192574Y0094687D01*
X0192196Y0075299D02*
X0192399Y0074988D01*
X0192610Y0074681D01*
X0192828Y0074379D01*
X0193053Y0074083D01*
X0193284Y0073791D01*
X0193523Y0073506D01*
X0193768Y0073226D01*
X0194020Y0072952D01*
X0194278Y0072684D01*
X0194543Y0072422D01*
X0194814Y0072167D01*
X0195090Y0071918D01*
X0195372Y0071675D01*
X0195660Y0071439D01*
X0195954Y0071211D01*
X0196253Y0070989D01*
X0289568Y0070989D02*
X0289867Y0071211D01*
X0290161Y0071439D01*
X0290449Y0071675D01*
X0290731Y0071918D01*
X0291007Y0072167D01*
X0291278Y0072422D01*
X0291543Y0072684D01*
X0291801Y0072952D01*
X0292053Y0073226D01*
X0292298Y0073506D01*
X0292537Y0073791D01*
X0292768Y0074083D01*
X0292993Y0074379D01*
X0293211Y0074681D01*
X0293422Y0074988D01*
X0293625Y0075299D01*
X0299997Y0081768D02*
X0299997Y0089642D01*
X0296060Y0085705D02*
X0296060Y0084720D01*
X0299997Y0081768D02*
X0299992Y0081387D01*
X0299979Y0081007D01*
X0299956Y0080627D01*
X0299923Y0080248D01*
X0299882Y0079870D01*
X0299832Y0079493D01*
X0299772Y0079117D01*
X0299704Y0078742D01*
X0299626Y0078370D01*
X0299539Y0077999D01*
X0299444Y0077631D01*
X0299339Y0077265D01*
X0299226Y0076902D01*
X0299104Y0076541D01*
X0298974Y0076184D01*
X0298834Y0075830D01*
X0298687Y0075479D01*
X0298530Y0075132D01*
X0298366Y0074789D01*
X0298193Y0074450D01*
X0298012Y0074115D01*
X0297823Y0073784D01*
X0297626Y0073459D01*
X0297422Y0073138D01*
X0297209Y0072822D01*
X0296989Y0072512D01*
X0296762Y0072206D01*
X0296527Y0071907D01*
X0296285Y0071613D01*
X0296037Y0071325D01*
X0295781Y0071043D01*
X0295518Y0070768D01*
X0295249Y0070499D01*
X0294974Y0070236D01*
X0294692Y0069980D01*
X0294404Y0069732D01*
X0294110Y0069490D01*
X0293811Y0069255D01*
X0293505Y0069028D01*
X0293195Y0068808D01*
X0292879Y0068595D01*
X0292558Y0068391D01*
X0292233Y0068194D01*
X0291902Y0068005D01*
X0291567Y0067824D01*
X0291228Y0067651D01*
X0290885Y0067487D01*
X0290538Y0067330D01*
X0290187Y0067183D01*
X0289833Y0067043D01*
X0289476Y0066913D01*
X0289115Y0066791D01*
X0288752Y0066678D01*
X0288386Y0066573D01*
X0288018Y0066478D01*
X0287647Y0066391D01*
X0287275Y0066313D01*
X0286900Y0066245D01*
X0286524Y0066185D01*
X0286147Y0066135D01*
X0285769Y0066094D01*
X0285390Y0066061D01*
X0285010Y0066038D01*
X0284630Y0066025D01*
X0284249Y0066020D01*
X0286126Y0069098D02*
X0285779Y0068965D01*
X0285428Y0068841D01*
X0285075Y0068724D01*
X0284719Y0068616D01*
X0284360Y0068516D01*
X0283999Y0068425D01*
X0283636Y0068342D01*
X0283272Y0068268D01*
X0282905Y0068203D01*
X0282538Y0068146D01*
X0282169Y0068098D01*
X0281798Y0068058D01*
X0281428Y0068027D01*
X0281056Y0068006D01*
X0280684Y0067992D01*
X0280312Y0067988D01*
X0295304Y0078849D02*
X0295415Y0079204D01*
X0295519Y0079562D01*
X0295614Y0079922D01*
X0295700Y0080284D01*
X0295778Y0080648D01*
X0295847Y0081013D01*
X0295908Y0081381D01*
X0295960Y0081749D01*
X0296003Y0082119D01*
X0296037Y0082489D01*
X0296063Y0082861D01*
X0296080Y0083232D01*
X0296088Y0083604D01*
X0296088Y0083977D01*
X0296078Y0084349D01*
X0296060Y0084720D01*
X0299997Y0089642D02*
X0299992Y0090023D01*
X0299979Y0090403D01*
X0299956Y0090783D01*
X0299923Y0091162D01*
X0299882Y0091540D01*
X0299832Y0091917D01*
X0299772Y0092293D01*
X0299704Y0092668D01*
X0299626Y0093040D01*
X0299539Y0093411D01*
X0299444Y0093779D01*
X0299339Y0094145D01*
X0299226Y0094508D01*
X0299104Y0094869D01*
X0298974Y0095226D01*
X0298834Y0095580D01*
X0298687Y0095931D01*
X0298530Y0096278D01*
X0298366Y0096621D01*
X0298193Y0096960D01*
X0298012Y0097295D01*
X0297823Y0097626D01*
X0297626Y0097951D01*
X0297422Y0098272D01*
X0297209Y0098588D01*
X0296989Y0098898D01*
X0296762Y0099204D01*
X0296527Y0099503D01*
X0296285Y0099797D01*
X0296037Y0100085D01*
X0295781Y0100367D01*
X0295518Y0100642D01*
X0295249Y0100911D01*
X0294974Y0101174D01*
X0294692Y0101430D01*
X0294404Y0101678D01*
X0294110Y0101920D01*
X0293811Y0102155D01*
X0293505Y0102382D01*
X0293195Y0102602D01*
X0292879Y0102815D01*
X0292558Y0103019D01*
X0292233Y0103216D01*
X0291902Y0103405D01*
X0291567Y0103586D01*
X0291228Y0103759D01*
X0290885Y0103923D01*
X0290538Y0104080D01*
X0290187Y0104227D01*
X0289833Y0104367D01*
X0289476Y0104497D01*
X0289115Y0104619D01*
X0288752Y0104732D01*
X0288386Y0104837D01*
X0288018Y0104932D01*
X0287647Y0105019D01*
X0287275Y0105097D01*
X0286900Y0105165D01*
X0286524Y0105225D01*
X0286147Y0105275D01*
X0285769Y0105316D01*
X0285390Y0105349D01*
X0285010Y0105372D01*
X0284630Y0105385D01*
X0284249Y0105390D01*
X0295067Y0091207D02*
X0295194Y0090855D01*
X0295313Y0090499D01*
X0295422Y0090141D01*
X0295524Y0089780D01*
X0295616Y0089417D01*
X0295700Y0089052D01*
X0295776Y0088685D01*
X0295842Y0088316D01*
X0295900Y0087946D01*
X0295949Y0087574D01*
X0295989Y0087202D01*
X0296020Y0086828D01*
X0296042Y0086454D01*
X0296056Y0086080D01*
X0296060Y0085705D01*
X0285814Y0100460D02*
X0285462Y0100587D01*
X0285106Y0100706D01*
X0284748Y0100815D01*
X0284387Y0100917D01*
X0284024Y0101009D01*
X0283659Y0101093D01*
X0283292Y0101169D01*
X0282923Y0101235D01*
X0282553Y0101293D01*
X0282181Y0101342D01*
X0281809Y0101382D01*
X0281435Y0101413D01*
X0281061Y0101435D01*
X0280687Y0101449D01*
X0280312Y0101453D01*
X0289294Y0098640D02*
X0289599Y0098423D01*
X0289899Y0098198D01*
X0290194Y0097967D01*
X0290483Y0097728D01*
X0290766Y0097483D01*
X0291043Y0097231D01*
X0291314Y0096972D01*
X0291579Y0096707D01*
X0291838Y0096436D01*
X0292090Y0096159D01*
X0292335Y0095876D01*
X0292574Y0095587D01*
X0292805Y0095292D01*
X0293030Y0094992D01*
X0293247Y0094687D01*
X0154327Y0235311D02*
X0154322Y0235692D01*
X0154309Y0236072D01*
X0154286Y0236452D01*
X0154253Y0236831D01*
X0154212Y0237209D01*
X0154162Y0237586D01*
X0154102Y0237962D01*
X0154034Y0238337D01*
X0153956Y0238709D01*
X0153869Y0239080D01*
X0153774Y0239448D01*
X0153669Y0239814D01*
X0153556Y0240177D01*
X0153434Y0240538D01*
X0153304Y0240895D01*
X0153164Y0241249D01*
X0153017Y0241600D01*
X0152860Y0241947D01*
X0152696Y0242290D01*
X0152523Y0242629D01*
X0152342Y0242964D01*
X0152153Y0243295D01*
X0151956Y0243620D01*
X0151752Y0243941D01*
X0151539Y0244257D01*
X0151319Y0244567D01*
X0151092Y0244873D01*
X0150857Y0245172D01*
X0150615Y0245466D01*
X0150367Y0245754D01*
X0150111Y0246036D01*
X0149848Y0246311D01*
X0149579Y0246580D01*
X0149304Y0246843D01*
X0149022Y0247099D01*
X0148734Y0247347D01*
X0148440Y0247589D01*
X0148141Y0247824D01*
X0147835Y0248051D01*
X0147525Y0248271D01*
X0147209Y0248484D01*
X0146888Y0248688D01*
X0146563Y0248885D01*
X0146232Y0249074D01*
X0145897Y0249255D01*
X0145558Y0249428D01*
X0145215Y0249592D01*
X0144868Y0249749D01*
X0144517Y0249896D01*
X0144163Y0250036D01*
X0143806Y0250166D01*
X0143445Y0250288D01*
X0143082Y0250401D01*
X0142716Y0250506D01*
X0142348Y0250601D01*
X0141977Y0250688D01*
X0141605Y0250766D01*
X0141230Y0250834D01*
X0140854Y0250894D01*
X0140477Y0250944D01*
X0140099Y0250985D01*
X0139720Y0251018D01*
X0139340Y0251041D01*
X0138960Y0251054D01*
X0138579Y0251059D01*
X0126768Y0251059D01*
X0132674Y0249091D02*
X0133658Y0249091D01*
X0126768Y0251059D02*
X0126387Y0251054D01*
X0126007Y0251041D01*
X0125627Y0251018D01*
X0125248Y0250985D01*
X0124870Y0250944D01*
X0124493Y0250894D01*
X0124117Y0250834D01*
X0123742Y0250766D01*
X0123370Y0250688D01*
X0122999Y0250601D01*
X0122631Y0250506D01*
X0122265Y0250401D01*
X0121902Y0250288D01*
X0121541Y0250166D01*
X0121184Y0250036D01*
X0120830Y0249896D01*
X0120479Y0249749D01*
X0120132Y0249592D01*
X0119789Y0249428D01*
X0119450Y0249255D01*
X0119115Y0249074D01*
X0118784Y0248885D01*
X0118459Y0248688D01*
X0118138Y0248484D01*
X0117822Y0248271D01*
X0117512Y0248051D01*
X0117206Y0247824D01*
X0116907Y0247589D01*
X0116613Y0247347D01*
X0116325Y0247099D01*
X0116043Y0246843D01*
X0115768Y0246580D01*
X0115499Y0246311D01*
X0115236Y0246036D01*
X0114980Y0245754D01*
X0114732Y0245466D01*
X0114490Y0245172D01*
X0114255Y0244873D01*
X0114028Y0244567D01*
X0113808Y0244257D01*
X0113595Y0243941D01*
X0113391Y0243620D01*
X0113194Y0243295D01*
X0113005Y0242964D01*
X0112824Y0242629D01*
X0112651Y0242290D01*
X0112487Y0241947D01*
X0112330Y0241600D01*
X0112183Y0241249D01*
X0112043Y0240895D01*
X0111913Y0240538D01*
X0111791Y0240177D01*
X0111678Y0239814D01*
X0111573Y0239448D01*
X0111478Y0239080D01*
X0111391Y0238709D01*
X0111313Y0238337D01*
X0111245Y0237962D01*
X0111185Y0237586D01*
X0111135Y0237209D01*
X0111094Y0236831D01*
X0111061Y0236452D01*
X0111038Y0236072D01*
X0111025Y0235692D01*
X0111020Y0235311D01*
X0127172Y0248098D02*
X0127524Y0248225D01*
X0127880Y0248344D01*
X0128238Y0248453D01*
X0128599Y0248555D01*
X0128962Y0248647D01*
X0129327Y0248731D01*
X0129694Y0248807D01*
X0130063Y0248873D01*
X0130433Y0248931D01*
X0130805Y0248980D01*
X0131177Y0249020D01*
X0131551Y0249051D01*
X0131925Y0249073D01*
X0132299Y0249087D01*
X0132674Y0249091D01*
X0117919Y0238845D02*
X0117792Y0238493D01*
X0117673Y0238137D01*
X0117564Y0237779D01*
X0117462Y0237418D01*
X0117370Y0237055D01*
X0117286Y0236690D01*
X0117210Y0236323D01*
X0117144Y0235954D01*
X0117086Y0235584D01*
X0117037Y0235212D01*
X0116997Y0234840D01*
X0116966Y0234466D01*
X0116944Y0234092D01*
X0116930Y0233718D01*
X0116926Y0233343D01*
X0119739Y0242325D02*
X0119956Y0242630D01*
X0120181Y0242930D01*
X0120412Y0243225D01*
X0120651Y0243514D01*
X0120896Y0243797D01*
X0121148Y0244074D01*
X0121407Y0244345D01*
X0121672Y0244610D01*
X0121943Y0244869D01*
X0122220Y0245121D01*
X0122503Y0245366D01*
X0122792Y0245605D01*
X0123087Y0245836D01*
X0123387Y0246061D01*
X0123692Y0246278D01*
X0133658Y0249091D02*
X0134029Y0249109D01*
X0134401Y0249119D01*
X0134774Y0249119D01*
X0135146Y0249111D01*
X0135517Y0249094D01*
X0135889Y0249068D01*
X0136259Y0249034D01*
X0136629Y0248991D01*
X0136997Y0248939D01*
X0137365Y0248878D01*
X0137730Y0248809D01*
X0138094Y0248731D01*
X0138456Y0248645D01*
X0138816Y0248550D01*
X0139174Y0248446D01*
X0139529Y0248335D01*
X0149280Y0239157D02*
X0149413Y0238810D01*
X0149537Y0238459D01*
X0149654Y0238106D01*
X0149762Y0237750D01*
X0149862Y0237391D01*
X0149953Y0237030D01*
X0150036Y0236667D01*
X0150110Y0236303D01*
X0150175Y0235936D01*
X0150232Y0235569D01*
X0150280Y0235200D01*
X0150320Y0234829D01*
X0150351Y0234459D01*
X0150372Y0234087D01*
X0150386Y0233715D01*
X0150390Y0233343D01*
X0147389Y0242599D02*
X0147167Y0242898D01*
X0146939Y0243192D01*
X0146703Y0243480D01*
X0146460Y0243762D01*
X0146211Y0244038D01*
X0145956Y0244309D01*
X0145694Y0244574D01*
X0145426Y0244832D01*
X0145152Y0245084D01*
X0144872Y0245329D01*
X0144587Y0245568D01*
X0144295Y0245799D01*
X0143999Y0246024D01*
X0143697Y0246242D01*
X0143390Y0246453D01*
X0143079Y0246656D01*
D11*
X0129327Y0231374D02*
X0129329Y0231505D01*
X0129335Y0231637D01*
X0129345Y0231768D01*
X0129359Y0231899D01*
X0129377Y0232029D01*
X0129399Y0232158D01*
X0129424Y0232287D01*
X0129454Y0232415D01*
X0129488Y0232542D01*
X0129525Y0232669D01*
X0129566Y0232793D01*
X0129611Y0232917D01*
X0129660Y0233039D01*
X0129712Y0233160D01*
X0129768Y0233278D01*
X0129828Y0233396D01*
X0129891Y0233511D01*
X0129958Y0233624D01*
X0130028Y0233736D01*
X0130101Y0233845D01*
X0130177Y0233951D01*
X0130257Y0234056D01*
X0130340Y0234158D01*
X0130426Y0234257D01*
X0130515Y0234354D01*
X0130607Y0234448D01*
X0130702Y0234539D01*
X0130799Y0234628D01*
X0130899Y0234713D01*
X0131002Y0234795D01*
X0131107Y0234874D01*
X0131214Y0234950D01*
X0131324Y0235022D01*
X0131436Y0235091D01*
X0131550Y0235157D01*
X0131665Y0235219D01*
X0131783Y0235278D01*
X0131902Y0235333D01*
X0132023Y0235385D01*
X0132146Y0235432D01*
X0132270Y0235476D01*
X0132395Y0235517D01*
X0132521Y0235553D01*
X0132649Y0235586D01*
X0132777Y0235614D01*
X0132906Y0235639D01*
X0133036Y0235660D01*
X0133166Y0235677D01*
X0133297Y0235690D01*
X0133428Y0235699D01*
X0133559Y0235704D01*
X0133691Y0235705D01*
X0133822Y0235702D01*
X0133954Y0235695D01*
X0134085Y0235684D01*
X0134215Y0235669D01*
X0134345Y0235650D01*
X0134475Y0235627D01*
X0134603Y0235601D01*
X0134731Y0235570D01*
X0134858Y0235535D01*
X0134984Y0235497D01*
X0135108Y0235455D01*
X0135232Y0235409D01*
X0135353Y0235359D01*
X0135473Y0235306D01*
X0135592Y0235249D01*
X0135709Y0235189D01*
X0135823Y0235125D01*
X0135936Y0235057D01*
X0136047Y0234986D01*
X0136156Y0234912D01*
X0136262Y0234835D01*
X0136366Y0234754D01*
X0136467Y0234671D01*
X0136566Y0234584D01*
X0136662Y0234494D01*
X0136755Y0234401D01*
X0136846Y0234306D01*
X0136933Y0234208D01*
X0137018Y0234107D01*
X0137099Y0234004D01*
X0137177Y0233898D01*
X0137252Y0233790D01*
X0137324Y0233680D01*
X0137392Y0233568D01*
X0137457Y0233454D01*
X0137518Y0233337D01*
X0137576Y0233219D01*
X0137630Y0233099D01*
X0137681Y0232978D01*
X0137728Y0232855D01*
X0137771Y0232731D01*
X0137810Y0232606D01*
X0137846Y0232479D01*
X0137877Y0232351D01*
X0137905Y0232223D01*
X0137929Y0232094D01*
X0137949Y0231964D01*
X0137965Y0231833D01*
X0137977Y0231702D01*
X0137985Y0231571D01*
X0137989Y0231440D01*
X0137989Y0231308D01*
X0137985Y0231177D01*
X0137977Y0231046D01*
X0137965Y0230915D01*
X0137949Y0230784D01*
X0137929Y0230654D01*
X0137905Y0230525D01*
X0137877Y0230397D01*
X0137846Y0230269D01*
X0137810Y0230142D01*
X0137771Y0230017D01*
X0137728Y0229893D01*
X0137681Y0229770D01*
X0137630Y0229649D01*
X0137576Y0229529D01*
X0137518Y0229411D01*
X0137457Y0229294D01*
X0137392Y0229180D01*
X0137324Y0229068D01*
X0137252Y0228958D01*
X0137177Y0228850D01*
X0137099Y0228744D01*
X0137018Y0228641D01*
X0136933Y0228540D01*
X0136846Y0228442D01*
X0136755Y0228347D01*
X0136662Y0228254D01*
X0136566Y0228164D01*
X0136467Y0228077D01*
X0136366Y0227994D01*
X0136262Y0227913D01*
X0136156Y0227836D01*
X0136047Y0227762D01*
X0135936Y0227691D01*
X0135824Y0227623D01*
X0135709Y0227559D01*
X0135592Y0227499D01*
X0135473Y0227442D01*
X0135353Y0227389D01*
X0135232Y0227339D01*
X0135108Y0227293D01*
X0134984Y0227251D01*
X0134858Y0227213D01*
X0134731Y0227178D01*
X0134603Y0227147D01*
X0134475Y0227121D01*
X0134345Y0227098D01*
X0134215Y0227079D01*
X0134085Y0227064D01*
X0133954Y0227053D01*
X0133822Y0227046D01*
X0133691Y0227043D01*
X0133559Y0227044D01*
X0133428Y0227049D01*
X0133297Y0227058D01*
X0133166Y0227071D01*
X0133036Y0227088D01*
X0132906Y0227109D01*
X0132777Y0227134D01*
X0132649Y0227162D01*
X0132521Y0227195D01*
X0132395Y0227231D01*
X0132270Y0227272D01*
X0132146Y0227316D01*
X0132023Y0227363D01*
X0131902Y0227415D01*
X0131783Y0227470D01*
X0131665Y0227529D01*
X0131550Y0227591D01*
X0131436Y0227657D01*
X0131324Y0227726D01*
X0131214Y0227798D01*
X0131107Y0227874D01*
X0131002Y0227953D01*
X0130899Y0228035D01*
X0130799Y0228120D01*
X0130702Y0228209D01*
X0130607Y0228300D01*
X0130515Y0228394D01*
X0130426Y0228491D01*
X0130340Y0228590D01*
X0130257Y0228692D01*
X0130177Y0228797D01*
X0130101Y0228903D01*
X0130028Y0229012D01*
X0129958Y0229124D01*
X0129891Y0229237D01*
X0129828Y0229352D01*
X0129768Y0229470D01*
X0129712Y0229588D01*
X0129660Y0229709D01*
X0129611Y0229831D01*
X0129566Y0229955D01*
X0129525Y0230079D01*
X0129488Y0230206D01*
X0129454Y0230333D01*
X0129424Y0230461D01*
X0129399Y0230590D01*
X0129377Y0230719D01*
X0129359Y0230849D01*
X0129345Y0230980D01*
X0129335Y0231111D01*
X0129329Y0231243D01*
X0129327Y0231374D01*
X0129327Y0160508D02*
X0129329Y0160639D01*
X0129335Y0160771D01*
X0129345Y0160902D01*
X0129359Y0161033D01*
X0129377Y0161163D01*
X0129399Y0161292D01*
X0129424Y0161421D01*
X0129454Y0161549D01*
X0129488Y0161676D01*
X0129525Y0161803D01*
X0129566Y0161927D01*
X0129611Y0162051D01*
X0129660Y0162173D01*
X0129712Y0162294D01*
X0129768Y0162412D01*
X0129828Y0162530D01*
X0129891Y0162645D01*
X0129958Y0162758D01*
X0130028Y0162870D01*
X0130101Y0162979D01*
X0130177Y0163085D01*
X0130257Y0163190D01*
X0130340Y0163292D01*
X0130426Y0163391D01*
X0130515Y0163488D01*
X0130607Y0163582D01*
X0130702Y0163673D01*
X0130799Y0163762D01*
X0130899Y0163847D01*
X0131002Y0163929D01*
X0131107Y0164008D01*
X0131214Y0164084D01*
X0131324Y0164156D01*
X0131436Y0164225D01*
X0131550Y0164291D01*
X0131665Y0164353D01*
X0131783Y0164412D01*
X0131902Y0164467D01*
X0132023Y0164519D01*
X0132146Y0164566D01*
X0132270Y0164610D01*
X0132395Y0164651D01*
X0132521Y0164687D01*
X0132649Y0164720D01*
X0132777Y0164748D01*
X0132906Y0164773D01*
X0133036Y0164794D01*
X0133166Y0164811D01*
X0133297Y0164824D01*
X0133428Y0164833D01*
X0133559Y0164838D01*
X0133691Y0164839D01*
X0133822Y0164836D01*
X0133954Y0164829D01*
X0134085Y0164818D01*
X0134215Y0164803D01*
X0134345Y0164784D01*
X0134475Y0164761D01*
X0134603Y0164735D01*
X0134731Y0164704D01*
X0134858Y0164669D01*
X0134984Y0164631D01*
X0135108Y0164589D01*
X0135232Y0164543D01*
X0135353Y0164493D01*
X0135473Y0164440D01*
X0135592Y0164383D01*
X0135709Y0164323D01*
X0135823Y0164259D01*
X0135936Y0164191D01*
X0136047Y0164120D01*
X0136156Y0164046D01*
X0136262Y0163969D01*
X0136366Y0163888D01*
X0136467Y0163805D01*
X0136566Y0163718D01*
X0136662Y0163628D01*
X0136755Y0163535D01*
X0136846Y0163440D01*
X0136933Y0163342D01*
X0137018Y0163241D01*
X0137099Y0163138D01*
X0137177Y0163032D01*
X0137252Y0162924D01*
X0137324Y0162814D01*
X0137392Y0162702D01*
X0137457Y0162588D01*
X0137518Y0162471D01*
X0137576Y0162353D01*
X0137630Y0162233D01*
X0137681Y0162112D01*
X0137728Y0161989D01*
X0137771Y0161865D01*
X0137810Y0161740D01*
X0137846Y0161613D01*
X0137877Y0161485D01*
X0137905Y0161357D01*
X0137929Y0161228D01*
X0137949Y0161098D01*
X0137965Y0160967D01*
X0137977Y0160836D01*
X0137985Y0160705D01*
X0137989Y0160574D01*
X0137989Y0160442D01*
X0137985Y0160311D01*
X0137977Y0160180D01*
X0137965Y0160049D01*
X0137949Y0159918D01*
X0137929Y0159788D01*
X0137905Y0159659D01*
X0137877Y0159531D01*
X0137846Y0159403D01*
X0137810Y0159276D01*
X0137771Y0159151D01*
X0137728Y0159027D01*
X0137681Y0158904D01*
X0137630Y0158783D01*
X0137576Y0158663D01*
X0137518Y0158545D01*
X0137457Y0158428D01*
X0137392Y0158314D01*
X0137324Y0158202D01*
X0137252Y0158092D01*
X0137177Y0157984D01*
X0137099Y0157878D01*
X0137018Y0157775D01*
X0136933Y0157674D01*
X0136846Y0157576D01*
X0136755Y0157481D01*
X0136662Y0157388D01*
X0136566Y0157298D01*
X0136467Y0157211D01*
X0136366Y0157128D01*
X0136262Y0157047D01*
X0136156Y0156970D01*
X0136047Y0156896D01*
X0135936Y0156825D01*
X0135824Y0156757D01*
X0135709Y0156693D01*
X0135592Y0156633D01*
X0135473Y0156576D01*
X0135353Y0156523D01*
X0135232Y0156473D01*
X0135108Y0156427D01*
X0134984Y0156385D01*
X0134858Y0156347D01*
X0134731Y0156312D01*
X0134603Y0156281D01*
X0134475Y0156255D01*
X0134345Y0156232D01*
X0134215Y0156213D01*
X0134085Y0156198D01*
X0133954Y0156187D01*
X0133822Y0156180D01*
X0133691Y0156177D01*
X0133559Y0156178D01*
X0133428Y0156183D01*
X0133297Y0156192D01*
X0133166Y0156205D01*
X0133036Y0156222D01*
X0132906Y0156243D01*
X0132777Y0156268D01*
X0132649Y0156296D01*
X0132521Y0156329D01*
X0132395Y0156365D01*
X0132270Y0156406D01*
X0132146Y0156450D01*
X0132023Y0156497D01*
X0131902Y0156549D01*
X0131783Y0156604D01*
X0131665Y0156663D01*
X0131550Y0156725D01*
X0131436Y0156791D01*
X0131324Y0156860D01*
X0131214Y0156932D01*
X0131107Y0157008D01*
X0131002Y0157087D01*
X0130899Y0157169D01*
X0130799Y0157254D01*
X0130702Y0157343D01*
X0130607Y0157434D01*
X0130515Y0157528D01*
X0130426Y0157625D01*
X0130340Y0157724D01*
X0130257Y0157826D01*
X0130177Y0157931D01*
X0130101Y0158037D01*
X0130028Y0158146D01*
X0129958Y0158258D01*
X0129891Y0158371D01*
X0129828Y0158486D01*
X0129768Y0158604D01*
X0129712Y0158722D01*
X0129660Y0158843D01*
X0129611Y0158965D01*
X0129566Y0159089D01*
X0129525Y0159213D01*
X0129488Y0159340D01*
X0129454Y0159467D01*
X0129424Y0159595D01*
X0129399Y0159724D01*
X0129377Y0159853D01*
X0129359Y0159983D01*
X0129345Y0160114D01*
X0129335Y0160245D01*
X0129329Y0160377D01*
X0129327Y0160508D01*
X0177555Y0160508D02*
X0177557Y0160639D01*
X0177563Y0160771D01*
X0177573Y0160902D01*
X0177587Y0161033D01*
X0177605Y0161163D01*
X0177627Y0161292D01*
X0177652Y0161421D01*
X0177682Y0161549D01*
X0177716Y0161676D01*
X0177753Y0161803D01*
X0177794Y0161927D01*
X0177839Y0162051D01*
X0177888Y0162173D01*
X0177940Y0162294D01*
X0177996Y0162412D01*
X0178056Y0162530D01*
X0178119Y0162645D01*
X0178186Y0162758D01*
X0178256Y0162870D01*
X0178329Y0162979D01*
X0178405Y0163085D01*
X0178485Y0163190D01*
X0178568Y0163292D01*
X0178654Y0163391D01*
X0178743Y0163488D01*
X0178835Y0163582D01*
X0178930Y0163673D01*
X0179027Y0163762D01*
X0179127Y0163847D01*
X0179230Y0163929D01*
X0179335Y0164008D01*
X0179442Y0164084D01*
X0179552Y0164156D01*
X0179664Y0164225D01*
X0179778Y0164291D01*
X0179893Y0164353D01*
X0180011Y0164412D01*
X0180130Y0164467D01*
X0180251Y0164519D01*
X0180374Y0164566D01*
X0180498Y0164610D01*
X0180623Y0164651D01*
X0180749Y0164687D01*
X0180877Y0164720D01*
X0181005Y0164748D01*
X0181134Y0164773D01*
X0181264Y0164794D01*
X0181394Y0164811D01*
X0181525Y0164824D01*
X0181656Y0164833D01*
X0181787Y0164838D01*
X0181919Y0164839D01*
X0182050Y0164836D01*
X0182182Y0164829D01*
X0182313Y0164818D01*
X0182443Y0164803D01*
X0182573Y0164784D01*
X0182703Y0164761D01*
X0182831Y0164735D01*
X0182959Y0164704D01*
X0183086Y0164669D01*
X0183212Y0164631D01*
X0183336Y0164589D01*
X0183460Y0164543D01*
X0183581Y0164493D01*
X0183701Y0164440D01*
X0183820Y0164383D01*
X0183937Y0164323D01*
X0184051Y0164259D01*
X0184164Y0164191D01*
X0184275Y0164120D01*
X0184384Y0164046D01*
X0184490Y0163969D01*
X0184594Y0163888D01*
X0184695Y0163805D01*
X0184794Y0163718D01*
X0184890Y0163628D01*
X0184983Y0163535D01*
X0185074Y0163440D01*
X0185161Y0163342D01*
X0185246Y0163241D01*
X0185327Y0163138D01*
X0185405Y0163032D01*
X0185480Y0162924D01*
X0185552Y0162814D01*
X0185620Y0162702D01*
X0185685Y0162588D01*
X0185746Y0162471D01*
X0185804Y0162353D01*
X0185858Y0162233D01*
X0185909Y0162112D01*
X0185956Y0161989D01*
X0185999Y0161865D01*
X0186038Y0161740D01*
X0186074Y0161613D01*
X0186105Y0161485D01*
X0186133Y0161357D01*
X0186157Y0161228D01*
X0186177Y0161098D01*
X0186193Y0160967D01*
X0186205Y0160836D01*
X0186213Y0160705D01*
X0186217Y0160574D01*
X0186217Y0160442D01*
X0186213Y0160311D01*
X0186205Y0160180D01*
X0186193Y0160049D01*
X0186177Y0159918D01*
X0186157Y0159788D01*
X0186133Y0159659D01*
X0186105Y0159531D01*
X0186074Y0159403D01*
X0186038Y0159276D01*
X0185999Y0159151D01*
X0185956Y0159027D01*
X0185909Y0158904D01*
X0185858Y0158783D01*
X0185804Y0158663D01*
X0185746Y0158545D01*
X0185685Y0158428D01*
X0185620Y0158314D01*
X0185552Y0158202D01*
X0185480Y0158092D01*
X0185405Y0157984D01*
X0185327Y0157878D01*
X0185246Y0157775D01*
X0185161Y0157674D01*
X0185074Y0157576D01*
X0184983Y0157481D01*
X0184890Y0157388D01*
X0184794Y0157298D01*
X0184695Y0157211D01*
X0184594Y0157128D01*
X0184490Y0157047D01*
X0184384Y0156970D01*
X0184275Y0156896D01*
X0184164Y0156825D01*
X0184052Y0156757D01*
X0183937Y0156693D01*
X0183820Y0156633D01*
X0183701Y0156576D01*
X0183581Y0156523D01*
X0183460Y0156473D01*
X0183336Y0156427D01*
X0183212Y0156385D01*
X0183086Y0156347D01*
X0182959Y0156312D01*
X0182831Y0156281D01*
X0182703Y0156255D01*
X0182573Y0156232D01*
X0182443Y0156213D01*
X0182313Y0156198D01*
X0182182Y0156187D01*
X0182050Y0156180D01*
X0181919Y0156177D01*
X0181787Y0156178D01*
X0181656Y0156183D01*
X0181525Y0156192D01*
X0181394Y0156205D01*
X0181264Y0156222D01*
X0181134Y0156243D01*
X0181005Y0156268D01*
X0180877Y0156296D01*
X0180749Y0156329D01*
X0180623Y0156365D01*
X0180498Y0156406D01*
X0180374Y0156450D01*
X0180251Y0156497D01*
X0180130Y0156549D01*
X0180011Y0156604D01*
X0179893Y0156663D01*
X0179778Y0156725D01*
X0179664Y0156791D01*
X0179552Y0156860D01*
X0179442Y0156932D01*
X0179335Y0157008D01*
X0179230Y0157087D01*
X0179127Y0157169D01*
X0179027Y0157254D01*
X0178930Y0157343D01*
X0178835Y0157434D01*
X0178743Y0157528D01*
X0178654Y0157625D01*
X0178568Y0157724D01*
X0178485Y0157826D01*
X0178405Y0157931D01*
X0178329Y0158037D01*
X0178256Y0158146D01*
X0178186Y0158258D01*
X0178119Y0158371D01*
X0178056Y0158486D01*
X0177996Y0158604D01*
X0177940Y0158722D01*
X0177888Y0158843D01*
X0177839Y0158965D01*
X0177794Y0159089D01*
X0177753Y0159213D01*
X0177716Y0159340D01*
X0177682Y0159467D01*
X0177652Y0159595D01*
X0177627Y0159724D01*
X0177605Y0159853D01*
X0177587Y0159983D01*
X0177573Y0160114D01*
X0177563Y0160245D01*
X0177557Y0160377D01*
X0177555Y0160508D01*
X0203146Y0084720D02*
X0203148Y0084851D01*
X0203154Y0084983D01*
X0203164Y0085114D01*
X0203178Y0085245D01*
X0203196Y0085375D01*
X0203218Y0085504D01*
X0203243Y0085633D01*
X0203273Y0085761D01*
X0203307Y0085888D01*
X0203344Y0086015D01*
X0203385Y0086139D01*
X0203430Y0086263D01*
X0203479Y0086385D01*
X0203531Y0086506D01*
X0203587Y0086624D01*
X0203647Y0086742D01*
X0203710Y0086857D01*
X0203777Y0086970D01*
X0203847Y0087082D01*
X0203920Y0087191D01*
X0203996Y0087297D01*
X0204076Y0087402D01*
X0204159Y0087504D01*
X0204245Y0087603D01*
X0204334Y0087700D01*
X0204426Y0087794D01*
X0204521Y0087885D01*
X0204618Y0087974D01*
X0204718Y0088059D01*
X0204821Y0088141D01*
X0204926Y0088220D01*
X0205033Y0088296D01*
X0205143Y0088368D01*
X0205255Y0088437D01*
X0205369Y0088503D01*
X0205484Y0088565D01*
X0205602Y0088624D01*
X0205721Y0088679D01*
X0205842Y0088731D01*
X0205965Y0088778D01*
X0206089Y0088822D01*
X0206214Y0088863D01*
X0206340Y0088899D01*
X0206468Y0088932D01*
X0206596Y0088960D01*
X0206725Y0088985D01*
X0206855Y0089006D01*
X0206985Y0089023D01*
X0207116Y0089036D01*
X0207247Y0089045D01*
X0207378Y0089050D01*
X0207510Y0089051D01*
X0207641Y0089048D01*
X0207773Y0089041D01*
X0207904Y0089030D01*
X0208034Y0089015D01*
X0208164Y0088996D01*
X0208294Y0088973D01*
X0208422Y0088947D01*
X0208550Y0088916D01*
X0208677Y0088881D01*
X0208803Y0088843D01*
X0208927Y0088801D01*
X0209051Y0088755D01*
X0209172Y0088705D01*
X0209292Y0088652D01*
X0209411Y0088595D01*
X0209528Y0088535D01*
X0209642Y0088471D01*
X0209755Y0088403D01*
X0209866Y0088332D01*
X0209975Y0088258D01*
X0210081Y0088181D01*
X0210185Y0088100D01*
X0210286Y0088017D01*
X0210385Y0087930D01*
X0210481Y0087840D01*
X0210574Y0087747D01*
X0210665Y0087652D01*
X0210752Y0087554D01*
X0210837Y0087453D01*
X0210918Y0087350D01*
X0210996Y0087244D01*
X0211071Y0087136D01*
X0211143Y0087026D01*
X0211211Y0086914D01*
X0211276Y0086800D01*
X0211337Y0086683D01*
X0211395Y0086565D01*
X0211449Y0086445D01*
X0211500Y0086324D01*
X0211547Y0086201D01*
X0211590Y0086077D01*
X0211629Y0085952D01*
X0211665Y0085825D01*
X0211696Y0085697D01*
X0211724Y0085569D01*
X0211748Y0085440D01*
X0211768Y0085310D01*
X0211784Y0085179D01*
X0211796Y0085048D01*
X0211804Y0084917D01*
X0211808Y0084786D01*
X0211808Y0084654D01*
X0211804Y0084523D01*
X0211796Y0084392D01*
X0211784Y0084261D01*
X0211768Y0084130D01*
X0211748Y0084000D01*
X0211724Y0083871D01*
X0211696Y0083743D01*
X0211665Y0083615D01*
X0211629Y0083488D01*
X0211590Y0083363D01*
X0211547Y0083239D01*
X0211500Y0083116D01*
X0211449Y0082995D01*
X0211395Y0082875D01*
X0211337Y0082757D01*
X0211276Y0082640D01*
X0211211Y0082526D01*
X0211143Y0082414D01*
X0211071Y0082304D01*
X0210996Y0082196D01*
X0210918Y0082090D01*
X0210837Y0081987D01*
X0210752Y0081886D01*
X0210665Y0081788D01*
X0210574Y0081693D01*
X0210481Y0081600D01*
X0210385Y0081510D01*
X0210286Y0081423D01*
X0210185Y0081340D01*
X0210081Y0081259D01*
X0209975Y0081182D01*
X0209866Y0081108D01*
X0209755Y0081037D01*
X0209643Y0080969D01*
X0209528Y0080905D01*
X0209411Y0080845D01*
X0209292Y0080788D01*
X0209172Y0080735D01*
X0209051Y0080685D01*
X0208927Y0080639D01*
X0208803Y0080597D01*
X0208677Y0080559D01*
X0208550Y0080524D01*
X0208422Y0080493D01*
X0208294Y0080467D01*
X0208164Y0080444D01*
X0208034Y0080425D01*
X0207904Y0080410D01*
X0207773Y0080399D01*
X0207641Y0080392D01*
X0207510Y0080389D01*
X0207378Y0080390D01*
X0207247Y0080395D01*
X0207116Y0080404D01*
X0206985Y0080417D01*
X0206855Y0080434D01*
X0206725Y0080455D01*
X0206596Y0080480D01*
X0206468Y0080508D01*
X0206340Y0080541D01*
X0206214Y0080577D01*
X0206089Y0080618D01*
X0205965Y0080662D01*
X0205842Y0080709D01*
X0205721Y0080761D01*
X0205602Y0080816D01*
X0205484Y0080875D01*
X0205369Y0080937D01*
X0205255Y0081003D01*
X0205143Y0081072D01*
X0205033Y0081144D01*
X0204926Y0081220D01*
X0204821Y0081299D01*
X0204718Y0081381D01*
X0204618Y0081466D01*
X0204521Y0081555D01*
X0204426Y0081646D01*
X0204334Y0081740D01*
X0204245Y0081837D01*
X0204159Y0081936D01*
X0204076Y0082038D01*
X0203996Y0082143D01*
X0203920Y0082249D01*
X0203847Y0082358D01*
X0203777Y0082470D01*
X0203710Y0082583D01*
X0203647Y0082698D01*
X0203587Y0082816D01*
X0203531Y0082934D01*
X0203479Y0083055D01*
X0203430Y0083177D01*
X0203385Y0083301D01*
X0203344Y0083425D01*
X0203307Y0083552D01*
X0203273Y0083679D01*
X0203243Y0083807D01*
X0203218Y0083936D01*
X0203196Y0084065D01*
X0203178Y0084195D01*
X0203164Y0084326D01*
X0203154Y0084457D01*
X0203148Y0084589D01*
X0203146Y0084720D01*
X0268107Y0121138D02*
X0268109Y0121269D01*
X0268115Y0121401D01*
X0268125Y0121532D01*
X0268139Y0121663D01*
X0268157Y0121793D01*
X0268179Y0121922D01*
X0268204Y0122051D01*
X0268234Y0122179D01*
X0268268Y0122306D01*
X0268305Y0122433D01*
X0268346Y0122557D01*
X0268391Y0122681D01*
X0268440Y0122803D01*
X0268492Y0122924D01*
X0268548Y0123042D01*
X0268608Y0123160D01*
X0268671Y0123275D01*
X0268738Y0123388D01*
X0268808Y0123500D01*
X0268881Y0123609D01*
X0268957Y0123715D01*
X0269037Y0123820D01*
X0269120Y0123922D01*
X0269206Y0124021D01*
X0269295Y0124118D01*
X0269387Y0124212D01*
X0269482Y0124303D01*
X0269579Y0124392D01*
X0269679Y0124477D01*
X0269782Y0124559D01*
X0269887Y0124638D01*
X0269994Y0124714D01*
X0270104Y0124786D01*
X0270216Y0124855D01*
X0270330Y0124921D01*
X0270445Y0124983D01*
X0270563Y0125042D01*
X0270682Y0125097D01*
X0270803Y0125149D01*
X0270926Y0125196D01*
X0271050Y0125240D01*
X0271175Y0125281D01*
X0271301Y0125317D01*
X0271429Y0125350D01*
X0271557Y0125378D01*
X0271686Y0125403D01*
X0271816Y0125424D01*
X0271946Y0125441D01*
X0272077Y0125454D01*
X0272208Y0125463D01*
X0272339Y0125468D01*
X0272471Y0125469D01*
X0272602Y0125466D01*
X0272734Y0125459D01*
X0272865Y0125448D01*
X0272995Y0125433D01*
X0273125Y0125414D01*
X0273255Y0125391D01*
X0273383Y0125365D01*
X0273511Y0125334D01*
X0273638Y0125299D01*
X0273764Y0125261D01*
X0273888Y0125219D01*
X0274012Y0125173D01*
X0274133Y0125123D01*
X0274253Y0125070D01*
X0274372Y0125013D01*
X0274489Y0124953D01*
X0274603Y0124889D01*
X0274716Y0124821D01*
X0274827Y0124750D01*
X0274936Y0124676D01*
X0275042Y0124599D01*
X0275146Y0124518D01*
X0275247Y0124435D01*
X0275346Y0124348D01*
X0275442Y0124258D01*
X0275535Y0124165D01*
X0275626Y0124070D01*
X0275713Y0123972D01*
X0275798Y0123871D01*
X0275879Y0123768D01*
X0275957Y0123662D01*
X0276032Y0123554D01*
X0276104Y0123444D01*
X0276172Y0123332D01*
X0276237Y0123218D01*
X0276298Y0123101D01*
X0276356Y0122983D01*
X0276410Y0122863D01*
X0276461Y0122742D01*
X0276508Y0122619D01*
X0276551Y0122495D01*
X0276590Y0122370D01*
X0276626Y0122243D01*
X0276657Y0122115D01*
X0276685Y0121987D01*
X0276709Y0121858D01*
X0276729Y0121728D01*
X0276745Y0121597D01*
X0276757Y0121466D01*
X0276765Y0121335D01*
X0276769Y0121204D01*
X0276769Y0121072D01*
X0276765Y0120941D01*
X0276757Y0120810D01*
X0276745Y0120679D01*
X0276729Y0120548D01*
X0276709Y0120418D01*
X0276685Y0120289D01*
X0276657Y0120161D01*
X0276626Y0120033D01*
X0276590Y0119906D01*
X0276551Y0119781D01*
X0276508Y0119657D01*
X0276461Y0119534D01*
X0276410Y0119413D01*
X0276356Y0119293D01*
X0276298Y0119175D01*
X0276237Y0119058D01*
X0276172Y0118944D01*
X0276104Y0118832D01*
X0276032Y0118722D01*
X0275957Y0118614D01*
X0275879Y0118508D01*
X0275798Y0118405D01*
X0275713Y0118304D01*
X0275626Y0118206D01*
X0275535Y0118111D01*
X0275442Y0118018D01*
X0275346Y0117928D01*
X0275247Y0117841D01*
X0275146Y0117758D01*
X0275042Y0117677D01*
X0274936Y0117600D01*
X0274827Y0117526D01*
X0274716Y0117455D01*
X0274604Y0117387D01*
X0274489Y0117323D01*
X0274372Y0117263D01*
X0274253Y0117206D01*
X0274133Y0117153D01*
X0274012Y0117103D01*
X0273888Y0117057D01*
X0273764Y0117015D01*
X0273638Y0116977D01*
X0273511Y0116942D01*
X0273383Y0116911D01*
X0273255Y0116885D01*
X0273125Y0116862D01*
X0272995Y0116843D01*
X0272865Y0116828D01*
X0272734Y0116817D01*
X0272602Y0116810D01*
X0272471Y0116807D01*
X0272339Y0116808D01*
X0272208Y0116813D01*
X0272077Y0116822D01*
X0271946Y0116835D01*
X0271816Y0116852D01*
X0271686Y0116873D01*
X0271557Y0116898D01*
X0271429Y0116926D01*
X0271301Y0116959D01*
X0271175Y0116995D01*
X0271050Y0117036D01*
X0270926Y0117080D01*
X0270803Y0117127D01*
X0270682Y0117179D01*
X0270563Y0117234D01*
X0270445Y0117293D01*
X0270330Y0117355D01*
X0270216Y0117421D01*
X0270104Y0117490D01*
X0269994Y0117562D01*
X0269887Y0117638D01*
X0269782Y0117717D01*
X0269679Y0117799D01*
X0269579Y0117884D01*
X0269482Y0117973D01*
X0269387Y0118064D01*
X0269295Y0118158D01*
X0269206Y0118255D01*
X0269120Y0118354D01*
X0269037Y0118456D01*
X0268957Y0118561D01*
X0268881Y0118667D01*
X0268808Y0118776D01*
X0268738Y0118888D01*
X0268671Y0119001D01*
X0268608Y0119116D01*
X0268548Y0119234D01*
X0268492Y0119352D01*
X0268440Y0119473D01*
X0268391Y0119595D01*
X0268346Y0119719D01*
X0268305Y0119843D01*
X0268268Y0119970D01*
X0268234Y0120097D01*
X0268204Y0120225D01*
X0268179Y0120354D01*
X0268157Y0120483D01*
X0268139Y0120613D01*
X0268125Y0120744D01*
X0268115Y0120875D01*
X0268109Y0121007D01*
X0268107Y0121138D01*
X0274012Y0084720D02*
X0274014Y0084851D01*
X0274020Y0084983D01*
X0274030Y0085114D01*
X0274044Y0085245D01*
X0274062Y0085375D01*
X0274084Y0085504D01*
X0274109Y0085633D01*
X0274139Y0085761D01*
X0274173Y0085888D01*
X0274210Y0086015D01*
X0274251Y0086139D01*
X0274296Y0086263D01*
X0274345Y0086385D01*
X0274397Y0086506D01*
X0274453Y0086624D01*
X0274513Y0086742D01*
X0274576Y0086857D01*
X0274643Y0086970D01*
X0274713Y0087082D01*
X0274786Y0087191D01*
X0274862Y0087297D01*
X0274942Y0087402D01*
X0275025Y0087504D01*
X0275111Y0087603D01*
X0275200Y0087700D01*
X0275292Y0087794D01*
X0275387Y0087885D01*
X0275484Y0087974D01*
X0275584Y0088059D01*
X0275687Y0088141D01*
X0275792Y0088220D01*
X0275899Y0088296D01*
X0276009Y0088368D01*
X0276121Y0088437D01*
X0276235Y0088503D01*
X0276350Y0088565D01*
X0276468Y0088624D01*
X0276587Y0088679D01*
X0276708Y0088731D01*
X0276831Y0088778D01*
X0276955Y0088822D01*
X0277080Y0088863D01*
X0277206Y0088899D01*
X0277334Y0088932D01*
X0277462Y0088960D01*
X0277591Y0088985D01*
X0277721Y0089006D01*
X0277851Y0089023D01*
X0277982Y0089036D01*
X0278113Y0089045D01*
X0278244Y0089050D01*
X0278376Y0089051D01*
X0278507Y0089048D01*
X0278639Y0089041D01*
X0278770Y0089030D01*
X0278900Y0089015D01*
X0279030Y0088996D01*
X0279160Y0088973D01*
X0279288Y0088947D01*
X0279416Y0088916D01*
X0279543Y0088881D01*
X0279669Y0088843D01*
X0279793Y0088801D01*
X0279917Y0088755D01*
X0280038Y0088705D01*
X0280158Y0088652D01*
X0280277Y0088595D01*
X0280394Y0088535D01*
X0280508Y0088471D01*
X0280621Y0088403D01*
X0280732Y0088332D01*
X0280841Y0088258D01*
X0280947Y0088181D01*
X0281051Y0088100D01*
X0281152Y0088017D01*
X0281251Y0087930D01*
X0281347Y0087840D01*
X0281440Y0087747D01*
X0281531Y0087652D01*
X0281618Y0087554D01*
X0281703Y0087453D01*
X0281784Y0087350D01*
X0281862Y0087244D01*
X0281937Y0087136D01*
X0282009Y0087026D01*
X0282077Y0086914D01*
X0282142Y0086800D01*
X0282203Y0086683D01*
X0282261Y0086565D01*
X0282315Y0086445D01*
X0282366Y0086324D01*
X0282413Y0086201D01*
X0282456Y0086077D01*
X0282495Y0085952D01*
X0282531Y0085825D01*
X0282562Y0085697D01*
X0282590Y0085569D01*
X0282614Y0085440D01*
X0282634Y0085310D01*
X0282650Y0085179D01*
X0282662Y0085048D01*
X0282670Y0084917D01*
X0282674Y0084786D01*
X0282674Y0084654D01*
X0282670Y0084523D01*
X0282662Y0084392D01*
X0282650Y0084261D01*
X0282634Y0084130D01*
X0282614Y0084000D01*
X0282590Y0083871D01*
X0282562Y0083743D01*
X0282531Y0083615D01*
X0282495Y0083488D01*
X0282456Y0083363D01*
X0282413Y0083239D01*
X0282366Y0083116D01*
X0282315Y0082995D01*
X0282261Y0082875D01*
X0282203Y0082757D01*
X0282142Y0082640D01*
X0282077Y0082526D01*
X0282009Y0082414D01*
X0281937Y0082304D01*
X0281862Y0082196D01*
X0281784Y0082090D01*
X0281703Y0081987D01*
X0281618Y0081886D01*
X0281531Y0081788D01*
X0281440Y0081693D01*
X0281347Y0081600D01*
X0281251Y0081510D01*
X0281152Y0081423D01*
X0281051Y0081340D01*
X0280947Y0081259D01*
X0280841Y0081182D01*
X0280732Y0081108D01*
X0280621Y0081037D01*
X0280509Y0080969D01*
X0280394Y0080905D01*
X0280277Y0080845D01*
X0280158Y0080788D01*
X0280038Y0080735D01*
X0279917Y0080685D01*
X0279793Y0080639D01*
X0279669Y0080597D01*
X0279543Y0080559D01*
X0279416Y0080524D01*
X0279288Y0080493D01*
X0279160Y0080467D01*
X0279030Y0080444D01*
X0278900Y0080425D01*
X0278770Y0080410D01*
X0278639Y0080399D01*
X0278507Y0080392D01*
X0278376Y0080389D01*
X0278244Y0080390D01*
X0278113Y0080395D01*
X0277982Y0080404D01*
X0277851Y0080417D01*
X0277721Y0080434D01*
X0277591Y0080455D01*
X0277462Y0080480D01*
X0277334Y0080508D01*
X0277206Y0080541D01*
X0277080Y0080577D01*
X0276955Y0080618D01*
X0276831Y0080662D01*
X0276708Y0080709D01*
X0276587Y0080761D01*
X0276468Y0080816D01*
X0276350Y0080875D01*
X0276235Y0080937D01*
X0276121Y0081003D01*
X0276009Y0081072D01*
X0275899Y0081144D01*
X0275792Y0081220D01*
X0275687Y0081299D01*
X0275584Y0081381D01*
X0275484Y0081466D01*
X0275387Y0081555D01*
X0275292Y0081646D01*
X0275200Y0081740D01*
X0275111Y0081837D01*
X0275025Y0081936D01*
X0274942Y0082038D01*
X0274862Y0082143D01*
X0274786Y0082249D01*
X0274713Y0082358D01*
X0274643Y0082470D01*
X0274576Y0082583D01*
X0274513Y0082698D01*
X0274453Y0082816D01*
X0274397Y0082934D01*
X0274345Y0083055D01*
X0274296Y0083177D01*
X0274251Y0083301D01*
X0274210Y0083425D01*
X0274173Y0083552D01*
X0274139Y0083679D01*
X0274109Y0083807D01*
X0274084Y0083936D01*
X0274062Y0084065D01*
X0274044Y0084195D01*
X0274030Y0084326D01*
X0274020Y0084457D01*
X0274014Y0084589D01*
X0274012Y0084720D01*
X0268107Y0184130D02*
X0268109Y0184261D01*
X0268115Y0184393D01*
X0268125Y0184524D01*
X0268139Y0184655D01*
X0268157Y0184785D01*
X0268179Y0184914D01*
X0268204Y0185043D01*
X0268234Y0185171D01*
X0268268Y0185298D01*
X0268305Y0185425D01*
X0268346Y0185549D01*
X0268391Y0185673D01*
X0268440Y0185795D01*
X0268492Y0185916D01*
X0268548Y0186034D01*
X0268608Y0186152D01*
X0268671Y0186267D01*
X0268738Y0186380D01*
X0268808Y0186492D01*
X0268881Y0186601D01*
X0268957Y0186707D01*
X0269037Y0186812D01*
X0269120Y0186914D01*
X0269206Y0187013D01*
X0269295Y0187110D01*
X0269387Y0187204D01*
X0269482Y0187295D01*
X0269579Y0187384D01*
X0269679Y0187469D01*
X0269782Y0187551D01*
X0269887Y0187630D01*
X0269994Y0187706D01*
X0270104Y0187778D01*
X0270216Y0187847D01*
X0270330Y0187913D01*
X0270445Y0187975D01*
X0270563Y0188034D01*
X0270682Y0188089D01*
X0270803Y0188141D01*
X0270926Y0188188D01*
X0271050Y0188232D01*
X0271175Y0188273D01*
X0271301Y0188309D01*
X0271429Y0188342D01*
X0271557Y0188370D01*
X0271686Y0188395D01*
X0271816Y0188416D01*
X0271946Y0188433D01*
X0272077Y0188446D01*
X0272208Y0188455D01*
X0272339Y0188460D01*
X0272471Y0188461D01*
X0272602Y0188458D01*
X0272734Y0188451D01*
X0272865Y0188440D01*
X0272995Y0188425D01*
X0273125Y0188406D01*
X0273255Y0188383D01*
X0273383Y0188357D01*
X0273511Y0188326D01*
X0273638Y0188291D01*
X0273764Y0188253D01*
X0273888Y0188211D01*
X0274012Y0188165D01*
X0274133Y0188115D01*
X0274253Y0188062D01*
X0274372Y0188005D01*
X0274489Y0187945D01*
X0274603Y0187881D01*
X0274716Y0187813D01*
X0274827Y0187742D01*
X0274936Y0187668D01*
X0275042Y0187591D01*
X0275146Y0187510D01*
X0275247Y0187427D01*
X0275346Y0187340D01*
X0275442Y0187250D01*
X0275535Y0187157D01*
X0275626Y0187062D01*
X0275713Y0186964D01*
X0275798Y0186863D01*
X0275879Y0186760D01*
X0275957Y0186654D01*
X0276032Y0186546D01*
X0276104Y0186436D01*
X0276172Y0186324D01*
X0276237Y0186210D01*
X0276298Y0186093D01*
X0276356Y0185975D01*
X0276410Y0185855D01*
X0276461Y0185734D01*
X0276508Y0185611D01*
X0276551Y0185487D01*
X0276590Y0185362D01*
X0276626Y0185235D01*
X0276657Y0185107D01*
X0276685Y0184979D01*
X0276709Y0184850D01*
X0276729Y0184720D01*
X0276745Y0184589D01*
X0276757Y0184458D01*
X0276765Y0184327D01*
X0276769Y0184196D01*
X0276769Y0184064D01*
X0276765Y0183933D01*
X0276757Y0183802D01*
X0276745Y0183671D01*
X0276729Y0183540D01*
X0276709Y0183410D01*
X0276685Y0183281D01*
X0276657Y0183153D01*
X0276626Y0183025D01*
X0276590Y0182898D01*
X0276551Y0182773D01*
X0276508Y0182649D01*
X0276461Y0182526D01*
X0276410Y0182405D01*
X0276356Y0182285D01*
X0276298Y0182167D01*
X0276237Y0182050D01*
X0276172Y0181936D01*
X0276104Y0181824D01*
X0276032Y0181714D01*
X0275957Y0181606D01*
X0275879Y0181500D01*
X0275798Y0181397D01*
X0275713Y0181296D01*
X0275626Y0181198D01*
X0275535Y0181103D01*
X0275442Y0181010D01*
X0275346Y0180920D01*
X0275247Y0180833D01*
X0275146Y0180750D01*
X0275042Y0180669D01*
X0274936Y0180592D01*
X0274827Y0180518D01*
X0274716Y0180447D01*
X0274604Y0180379D01*
X0274489Y0180315D01*
X0274372Y0180255D01*
X0274253Y0180198D01*
X0274133Y0180145D01*
X0274012Y0180095D01*
X0273888Y0180049D01*
X0273764Y0180007D01*
X0273638Y0179969D01*
X0273511Y0179934D01*
X0273383Y0179903D01*
X0273255Y0179877D01*
X0273125Y0179854D01*
X0272995Y0179835D01*
X0272865Y0179820D01*
X0272734Y0179809D01*
X0272602Y0179802D01*
X0272471Y0179799D01*
X0272339Y0179800D01*
X0272208Y0179805D01*
X0272077Y0179814D01*
X0271946Y0179827D01*
X0271816Y0179844D01*
X0271686Y0179865D01*
X0271557Y0179890D01*
X0271429Y0179918D01*
X0271301Y0179951D01*
X0271175Y0179987D01*
X0271050Y0180028D01*
X0270926Y0180072D01*
X0270803Y0180119D01*
X0270682Y0180171D01*
X0270563Y0180226D01*
X0270445Y0180285D01*
X0270330Y0180347D01*
X0270216Y0180413D01*
X0270104Y0180482D01*
X0269994Y0180554D01*
X0269887Y0180630D01*
X0269782Y0180709D01*
X0269679Y0180791D01*
X0269579Y0180876D01*
X0269482Y0180965D01*
X0269387Y0181056D01*
X0269295Y0181150D01*
X0269206Y0181247D01*
X0269120Y0181346D01*
X0269037Y0181448D01*
X0268957Y0181553D01*
X0268881Y0181659D01*
X0268808Y0181768D01*
X0268738Y0181880D01*
X0268671Y0181993D01*
X0268608Y0182108D01*
X0268548Y0182226D01*
X0268492Y0182344D01*
X0268440Y0182465D01*
X0268391Y0182587D01*
X0268346Y0182711D01*
X0268305Y0182835D01*
X0268268Y0182962D01*
X0268234Y0183089D01*
X0268204Y0183217D01*
X0268179Y0183346D01*
X0268157Y0183475D01*
X0268139Y0183605D01*
X0268125Y0183736D01*
X0268115Y0183867D01*
X0268109Y0183999D01*
X0268107Y0184130D01*
X0268107Y0199878D02*
X0268109Y0200009D01*
X0268115Y0200141D01*
X0268125Y0200272D01*
X0268139Y0200403D01*
X0268157Y0200533D01*
X0268179Y0200662D01*
X0268204Y0200791D01*
X0268234Y0200919D01*
X0268268Y0201046D01*
X0268305Y0201173D01*
X0268346Y0201297D01*
X0268391Y0201421D01*
X0268440Y0201543D01*
X0268492Y0201664D01*
X0268548Y0201782D01*
X0268608Y0201900D01*
X0268671Y0202015D01*
X0268738Y0202128D01*
X0268808Y0202240D01*
X0268881Y0202349D01*
X0268957Y0202455D01*
X0269037Y0202560D01*
X0269120Y0202662D01*
X0269206Y0202761D01*
X0269295Y0202858D01*
X0269387Y0202952D01*
X0269482Y0203043D01*
X0269579Y0203132D01*
X0269679Y0203217D01*
X0269782Y0203299D01*
X0269887Y0203378D01*
X0269994Y0203454D01*
X0270104Y0203526D01*
X0270216Y0203595D01*
X0270330Y0203661D01*
X0270445Y0203723D01*
X0270563Y0203782D01*
X0270682Y0203837D01*
X0270803Y0203889D01*
X0270926Y0203936D01*
X0271050Y0203980D01*
X0271175Y0204021D01*
X0271301Y0204057D01*
X0271429Y0204090D01*
X0271557Y0204118D01*
X0271686Y0204143D01*
X0271816Y0204164D01*
X0271946Y0204181D01*
X0272077Y0204194D01*
X0272208Y0204203D01*
X0272339Y0204208D01*
X0272471Y0204209D01*
X0272602Y0204206D01*
X0272734Y0204199D01*
X0272865Y0204188D01*
X0272995Y0204173D01*
X0273125Y0204154D01*
X0273255Y0204131D01*
X0273383Y0204105D01*
X0273511Y0204074D01*
X0273638Y0204039D01*
X0273764Y0204001D01*
X0273888Y0203959D01*
X0274012Y0203913D01*
X0274133Y0203863D01*
X0274253Y0203810D01*
X0274372Y0203753D01*
X0274489Y0203693D01*
X0274603Y0203629D01*
X0274716Y0203561D01*
X0274827Y0203490D01*
X0274936Y0203416D01*
X0275042Y0203339D01*
X0275146Y0203258D01*
X0275247Y0203175D01*
X0275346Y0203088D01*
X0275442Y0202998D01*
X0275535Y0202905D01*
X0275626Y0202810D01*
X0275713Y0202712D01*
X0275798Y0202611D01*
X0275879Y0202508D01*
X0275957Y0202402D01*
X0276032Y0202294D01*
X0276104Y0202184D01*
X0276172Y0202072D01*
X0276237Y0201958D01*
X0276298Y0201841D01*
X0276356Y0201723D01*
X0276410Y0201603D01*
X0276461Y0201482D01*
X0276508Y0201359D01*
X0276551Y0201235D01*
X0276590Y0201110D01*
X0276626Y0200983D01*
X0276657Y0200855D01*
X0276685Y0200727D01*
X0276709Y0200598D01*
X0276729Y0200468D01*
X0276745Y0200337D01*
X0276757Y0200206D01*
X0276765Y0200075D01*
X0276769Y0199944D01*
X0276769Y0199812D01*
X0276765Y0199681D01*
X0276757Y0199550D01*
X0276745Y0199419D01*
X0276729Y0199288D01*
X0276709Y0199158D01*
X0276685Y0199029D01*
X0276657Y0198901D01*
X0276626Y0198773D01*
X0276590Y0198646D01*
X0276551Y0198521D01*
X0276508Y0198397D01*
X0276461Y0198274D01*
X0276410Y0198153D01*
X0276356Y0198033D01*
X0276298Y0197915D01*
X0276237Y0197798D01*
X0276172Y0197684D01*
X0276104Y0197572D01*
X0276032Y0197462D01*
X0275957Y0197354D01*
X0275879Y0197248D01*
X0275798Y0197145D01*
X0275713Y0197044D01*
X0275626Y0196946D01*
X0275535Y0196851D01*
X0275442Y0196758D01*
X0275346Y0196668D01*
X0275247Y0196581D01*
X0275146Y0196498D01*
X0275042Y0196417D01*
X0274936Y0196340D01*
X0274827Y0196266D01*
X0274716Y0196195D01*
X0274604Y0196127D01*
X0274489Y0196063D01*
X0274372Y0196003D01*
X0274253Y0195946D01*
X0274133Y0195893D01*
X0274012Y0195843D01*
X0273888Y0195797D01*
X0273764Y0195755D01*
X0273638Y0195717D01*
X0273511Y0195682D01*
X0273383Y0195651D01*
X0273255Y0195625D01*
X0273125Y0195602D01*
X0272995Y0195583D01*
X0272865Y0195568D01*
X0272734Y0195557D01*
X0272602Y0195550D01*
X0272471Y0195547D01*
X0272339Y0195548D01*
X0272208Y0195553D01*
X0272077Y0195562D01*
X0271946Y0195575D01*
X0271816Y0195592D01*
X0271686Y0195613D01*
X0271557Y0195638D01*
X0271429Y0195666D01*
X0271301Y0195699D01*
X0271175Y0195735D01*
X0271050Y0195776D01*
X0270926Y0195820D01*
X0270803Y0195867D01*
X0270682Y0195919D01*
X0270563Y0195974D01*
X0270445Y0196033D01*
X0270330Y0196095D01*
X0270216Y0196161D01*
X0270104Y0196230D01*
X0269994Y0196302D01*
X0269887Y0196378D01*
X0269782Y0196457D01*
X0269679Y0196539D01*
X0269579Y0196624D01*
X0269482Y0196713D01*
X0269387Y0196804D01*
X0269295Y0196898D01*
X0269206Y0196995D01*
X0269120Y0197094D01*
X0269037Y0197196D01*
X0268957Y0197301D01*
X0268881Y0197407D01*
X0268808Y0197516D01*
X0268738Y0197628D01*
X0268671Y0197741D01*
X0268608Y0197856D01*
X0268548Y0197974D01*
X0268492Y0198092D01*
X0268440Y0198213D01*
X0268391Y0198335D01*
X0268346Y0198459D01*
X0268305Y0198583D01*
X0268268Y0198710D01*
X0268234Y0198837D01*
X0268204Y0198965D01*
X0268179Y0199094D01*
X0268157Y0199223D01*
X0268139Y0199353D01*
X0268125Y0199484D01*
X0268115Y0199615D01*
X0268109Y0199747D01*
X0268107Y0199878D01*
X0268107Y0215626D02*
X0268109Y0215757D01*
X0268115Y0215889D01*
X0268125Y0216020D01*
X0268139Y0216151D01*
X0268157Y0216281D01*
X0268179Y0216410D01*
X0268204Y0216539D01*
X0268234Y0216667D01*
X0268268Y0216794D01*
X0268305Y0216921D01*
X0268346Y0217045D01*
X0268391Y0217169D01*
X0268440Y0217291D01*
X0268492Y0217412D01*
X0268548Y0217530D01*
X0268608Y0217648D01*
X0268671Y0217763D01*
X0268738Y0217876D01*
X0268808Y0217988D01*
X0268881Y0218097D01*
X0268957Y0218203D01*
X0269037Y0218308D01*
X0269120Y0218410D01*
X0269206Y0218509D01*
X0269295Y0218606D01*
X0269387Y0218700D01*
X0269482Y0218791D01*
X0269579Y0218880D01*
X0269679Y0218965D01*
X0269782Y0219047D01*
X0269887Y0219126D01*
X0269994Y0219202D01*
X0270104Y0219274D01*
X0270216Y0219343D01*
X0270330Y0219409D01*
X0270445Y0219471D01*
X0270563Y0219530D01*
X0270682Y0219585D01*
X0270803Y0219637D01*
X0270926Y0219684D01*
X0271050Y0219728D01*
X0271175Y0219769D01*
X0271301Y0219805D01*
X0271429Y0219838D01*
X0271557Y0219866D01*
X0271686Y0219891D01*
X0271816Y0219912D01*
X0271946Y0219929D01*
X0272077Y0219942D01*
X0272208Y0219951D01*
X0272339Y0219956D01*
X0272471Y0219957D01*
X0272602Y0219954D01*
X0272734Y0219947D01*
X0272865Y0219936D01*
X0272995Y0219921D01*
X0273125Y0219902D01*
X0273255Y0219879D01*
X0273383Y0219853D01*
X0273511Y0219822D01*
X0273638Y0219787D01*
X0273764Y0219749D01*
X0273888Y0219707D01*
X0274012Y0219661D01*
X0274133Y0219611D01*
X0274253Y0219558D01*
X0274372Y0219501D01*
X0274489Y0219441D01*
X0274603Y0219377D01*
X0274716Y0219309D01*
X0274827Y0219238D01*
X0274936Y0219164D01*
X0275042Y0219087D01*
X0275146Y0219006D01*
X0275247Y0218923D01*
X0275346Y0218836D01*
X0275442Y0218746D01*
X0275535Y0218653D01*
X0275626Y0218558D01*
X0275713Y0218460D01*
X0275798Y0218359D01*
X0275879Y0218256D01*
X0275957Y0218150D01*
X0276032Y0218042D01*
X0276104Y0217932D01*
X0276172Y0217820D01*
X0276237Y0217706D01*
X0276298Y0217589D01*
X0276356Y0217471D01*
X0276410Y0217351D01*
X0276461Y0217230D01*
X0276508Y0217107D01*
X0276551Y0216983D01*
X0276590Y0216858D01*
X0276626Y0216731D01*
X0276657Y0216603D01*
X0276685Y0216475D01*
X0276709Y0216346D01*
X0276729Y0216216D01*
X0276745Y0216085D01*
X0276757Y0215954D01*
X0276765Y0215823D01*
X0276769Y0215692D01*
X0276769Y0215560D01*
X0276765Y0215429D01*
X0276757Y0215298D01*
X0276745Y0215167D01*
X0276729Y0215036D01*
X0276709Y0214906D01*
X0276685Y0214777D01*
X0276657Y0214649D01*
X0276626Y0214521D01*
X0276590Y0214394D01*
X0276551Y0214269D01*
X0276508Y0214145D01*
X0276461Y0214022D01*
X0276410Y0213901D01*
X0276356Y0213781D01*
X0276298Y0213663D01*
X0276237Y0213546D01*
X0276172Y0213432D01*
X0276104Y0213320D01*
X0276032Y0213210D01*
X0275957Y0213102D01*
X0275879Y0212996D01*
X0275798Y0212893D01*
X0275713Y0212792D01*
X0275626Y0212694D01*
X0275535Y0212599D01*
X0275442Y0212506D01*
X0275346Y0212416D01*
X0275247Y0212329D01*
X0275146Y0212246D01*
X0275042Y0212165D01*
X0274936Y0212088D01*
X0274827Y0212014D01*
X0274716Y0211943D01*
X0274604Y0211875D01*
X0274489Y0211811D01*
X0274372Y0211751D01*
X0274253Y0211694D01*
X0274133Y0211641D01*
X0274012Y0211591D01*
X0273888Y0211545D01*
X0273764Y0211503D01*
X0273638Y0211465D01*
X0273511Y0211430D01*
X0273383Y0211399D01*
X0273255Y0211373D01*
X0273125Y0211350D01*
X0272995Y0211331D01*
X0272865Y0211316D01*
X0272734Y0211305D01*
X0272602Y0211298D01*
X0272471Y0211295D01*
X0272339Y0211296D01*
X0272208Y0211301D01*
X0272077Y0211310D01*
X0271946Y0211323D01*
X0271816Y0211340D01*
X0271686Y0211361D01*
X0271557Y0211386D01*
X0271429Y0211414D01*
X0271301Y0211447D01*
X0271175Y0211483D01*
X0271050Y0211524D01*
X0270926Y0211568D01*
X0270803Y0211615D01*
X0270682Y0211667D01*
X0270563Y0211722D01*
X0270445Y0211781D01*
X0270330Y0211843D01*
X0270216Y0211909D01*
X0270104Y0211978D01*
X0269994Y0212050D01*
X0269887Y0212126D01*
X0269782Y0212205D01*
X0269679Y0212287D01*
X0269579Y0212372D01*
X0269482Y0212461D01*
X0269387Y0212552D01*
X0269295Y0212646D01*
X0269206Y0212743D01*
X0269120Y0212842D01*
X0269037Y0212944D01*
X0268957Y0213049D01*
X0268881Y0213155D01*
X0268808Y0213264D01*
X0268738Y0213376D01*
X0268671Y0213489D01*
X0268608Y0213604D01*
X0268548Y0213722D01*
X0268492Y0213840D01*
X0268440Y0213961D01*
X0268391Y0214083D01*
X0268346Y0214207D01*
X0268305Y0214331D01*
X0268268Y0214458D01*
X0268234Y0214585D01*
X0268204Y0214713D01*
X0268179Y0214842D01*
X0268157Y0214971D01*
X0268139Y0215101D01*
X0268125Y0215232D01*
X0268115Y0215363D01*
X0268109Y0215495D01*
X0268107Y0215626D01*
X0057030Y0072462D02*
X0057032Y0072536D01*
X0057038Y0072610D01*
X0057048Y0072683D01*
X0057062Y0072756D01*
X0057079Y0072828D01*
X0057101Y0072898D01*
X0057126Y0072968D01*
X0057155Y0073036D01*
X0057188Y0073102D01*
X0057224Y0073167D01*
X0057264Y0073229D01*
X0057306Y0073290D01*
X0057352Y0073348D01*
X0057401Y0073403D01*
X0057453Y0073456D01*
X0057508Y0073506D01*
X0057565Y0073552D01*
X0057625Y0073596D01*
X0057687Y0073636D01*
X0057751Y0073673D01*
X0057817Y0073707D01*
X0057885Y0073737D01*
X0057954Y0073763D01*
X0058025Y0073786D01*
X0058096Y0073804D01*
X0058169Y0073819D01*
X0058242Y0073830D01*
X0058316Y0073837D01*
X0058390Y0073840D01*
X0058463Y0073839D01*
X0058537Y0073834D01*
X0058611Y0073825D01*
X0058684Y0073812D01*
X0058756Y0073795D01*
X0058827Y0073775D01*
X0058897Y0073750D01*
X0058965Y0073722D01*
X0059032Y0073691D01*
X0059097Y0073655D01*
X0059160Y0073617D01*
X0059221Y0073575D01*
X0059280Y0073529D01*
X0059336Y0073481D01*
X0059389Y0073430D01*
X0059439Y0073376D01*
X0059487Y0073319D01*
X0059531Y0073260D01*
X0059573Y0073198D01*
X0059611Y0073135D01*
X0059645Y0073069D01*
X0059676Y0073002D01*
X0059703Y0072933D01*
X0059726Y0072863D01*
X0059746Y0072792D01*
X0059762Y0072719D01*
X0059774Y0072646D01*
X0059782Y0072573D01*
X0059786Y0072499D01*
X0059786Y0072425D01*
X0059782Y0072351D01*
X0059774Y0072278D01*
X0059762Y0072205D01*
X0059746Y0072132D01*
X0059726Y0072061D01*
X0059703Y0071991D01*
X0059676Y0071922D01*
X0059645Y0071855D01*
X0059611Y0071789D01*
X0059573Y0071726D01*
X0059531Y0071664D01*
X0059487Y0071605D01*
X0059439Y0071548D01*
X0059389Y0071494D01*
X0059336Y0071443D01*
X0059280Y0071395D01*
X0059221Y0071349D01*
X0059160Y0071307D01*
X0059097Y0071269D01*
X0059032Y0071233D01*
X0058965Y0071202D01*
X0058897Y0071174D01*
X0058827Y0071149D01*
X0058756Y0071129D01*
X0058684Y0071112D01*
X0058611Y0071099D01*
X0058537Y0071090D01*
X0058463Y0071085D01*
X0058390Y0071084D01*
X0058316Y0071087D01*
X0058242Y0071094D01*
X0058169Y0071105D01*
X0058096Y0071120D01*
X0058025Y0071138D01*
X0057954Y0071161D01*
X0057885Y0071187D01*
X0057817Y0071217D01*
X0057751Y0071251D01*
X0057687Y0071288D01*
X0057625Y0071328D01*
X0057565Y0071372D01*
X0057508Y0071418D01*
X0057453Y0071468D01*
X0057401Y0071521D01*
X0057352Y0071576D01*
X0057306Y0071634D01*
X0057264Y0071695D01*
X0057224Y0071757D01*
X0057188Y0071822D01*
X0057155Y0071888D01*
X0057126Y0071956D01*
X0057101Y0072026D01*
X0057079Y0072096D01*
X0057062Y0072168D01*
X0057048Y0072241D01*
X0057038Y0072314D01*
X0057032Y0072388D01*
X0057030Y0072462D01*
X0052019Y0067451D02*
X0052021Y0067525D01*
X0052027Y0067599D01*
X0052037Y0067672D01*
X0052051Y0067745D01*
X0052068Y0067817D01*
X0052090Y0067887D01*
X0052115Y0067957D01*
X0052144Y0068025D01*
X0052177Y0068091D01*
X0052213Y0068156D01*
X0052253Y0068218D01*
X0052295Y0068279D01*
X0052341Y0068337D01*
X0052390Y0068392D01*
X0052442Y0068445D01*
X0052497Y0068495D01*
X0052554Y0068541D01*
X0052614Y0068585D01*
X0052676Y0068625D01*
X0052740Y0068662D01*
X0052806Y0068696D01*
X0052874Y0068726D01*
X0052943Y0068752D01*
X0053014Y0068775D01*
X0053085Y0068793D01*
X0053158Y0068808D01*
X0053231Y0068819D01*
X0053305Y0068826D01*
X0053379Y0068829D01*
X0053452Y0068828D01*
X0053526Y0068823D01*
X0053600Y0068814D01*
X0053673Y0068801D01*
X0053745Y0068784D01*
X0053816Y0068764D01*
X0053886Y0068739D01*
X0053954Y0068711D01*
X0054021Y0068680D01*
X0054086Y0068644D01*
X0054149Y0068606D01*
X0054210Y0068564D01*
X0054269Y0068518D01*
X0054325Y0068470D01*
X0054378Y0068419D01*
X0054428Y0068365D01*
X0054476Y0068308D01*
X0054520Y0068249D01*
X0054562Y0068187D01*
X0054600Y0068124D01*
X0054634Y0068058D01*
X0054665Y0067991D01*
X0054692Y0067922D01*
X0054715Y0067852D01*
X0054735Y0067781D01*
X0054751Y0067708D01*
X0054763Y0067635D01*
X0054771Y0067562D01*
X0054775Y0067488D01*
X0054775Y0067414D01*
X0054771Y0067340D01*
X0054763Y0067267D01*
X0054751Y0067194D01*
X0054735Y0067121D01*
X0054715Y0067050D01*
X0054692Y0066980D01*
X0054665Y0066911D01*
X0054634Y0066844D01*
X0054600Y0066778D01*
X0054562Y0066715D01*
X0054520Y0066653D01*
X0054476Y0066594D01*
X0054428Y0066537D01*
X0054378Y0066483D01*
X0054325Y0066432D01*
X0054269Y0066384D01*
X0054210Y0066338D01*
X0054149Y0066296D01*
X0054086Y0066258D01*
X0054021Y0066222D01*
X0053954Y0066191D01*
X0053886Y0066163D01*
X0053816Y0066138D01*
X0053745Y0066118D01*
X0053673Y0066101D01*
X0053600Y0066088D01*
X0053526Y0066079D01*
X0053452Y0066074D01*
X0053379Y0066073D01*
X0053305Y0066076D01*
X0053231Y0066083D01*
X0053158Y0066094D01*
X0053085Y0066109D01*
X0053014Y0066127D01*
X0052943Y0066150D01*
X0052874Y0066176D01*
X0052806Y0066206D01*
X0052740Y0066240D01*
X0052676Y0066277D01*
X0052614Y0066317D01*
X0052554Y0066361D01*
X0052497Y0066407D01*
X0052442Y0066457D01*
X0052390Y0066510D01*
X0052341Y0066565D01*
X0052295Y0066623D01*
X0052253Y0066684D01*
X0052213Y0066746D01*
X0052177Y0066811D01*
X0052144Y0066877D01*
X0052115Y0066945D01*
X0052090Y0067015D01*
X0052068Y0067085D01*
X0052051Y0067157D01*
X0052037Y0067230D01*
X0052027Y0067303D01*
X0052021Y0067377D01*
X0052019Y0067451D01*
X0039760Y0184130D02*
X0039762Y0184261D01*
X0039768Y0184393D01*
X0039778Y0184524D01*
X0039792Y0184655D01*
X0039810Y0184785D01*
X0039832Y0184914D01*
X0039857Y0185043D01*
X0039887Y0185171D01*
X0039921Y0185298D01*
X0039958Y0185425D01*
X0039999Y0185549D01*
X0040044Y0185673D01*
X0040093Y0185795D01*
X0040145Y0185916D01*
X0040201Y0186034D01*
X0040261Y0186152D01*
X0040324Y0186267D01*
X0040391Y0186380D01*
X0040461Y0186492D01*
X0040534Y0186601D01*
X0040610Y0186707D01*
X0040690Y0186812D01*
X0040773Y0186914D01*
X0040859Y0187013D01*
X0040948Y0187110D01*
X0041040Y0187204D01*
X0041135Y0187295D01*
X0041232Y0187384D01*
X0041332Y0187469D01*
X0041435Y0187551D01*
X0041540Y0187630D01*
X0041647Y0187706D01*
X0041757Y0187778D01*
X0041869Y0187847D01*
X0041983Y0187913D01*
X0042098Y0187975D01*
X0042216Y0188034D01*
X0042335Y0188089D01*
X0042456Y0188141D01*
X0042579Y0188188D01*
X0042703Y0188232D01*
X0042828Y0188273D01*
X0042954Y0188309D01*
X0043082Y0188342D01*
X0043210Y0188370D01*
X0043339Y0188395D01*
X0043469Y0188416D01*
X0043599Y0188433D01*
X0043730Y0188446D01*
X0043861Y0188455D01*
X0043992Y0188460D01*
X0044124Y0188461D01*
X0044255Y0188458D01*
X0044387Y0188451D01*
X0044518Y0188440D01*
X0044648Y0188425D01*
X0044778Y0188406D01*
X0044908Y0188383D01*
X0045036Y0188357D01*
X0045164Y0188326D01*
X0045291Y0188291D01*
X0045417Y0188253D01*
X0045541Y0188211D01*
X0045665Y0188165D01*
X0045786Y0188115D01*
X0045906Y0188062D01*
X0046025Y0188005D01*
X0046142Y0187945D01*
X0046256Y0187881D01*
X0046369Y0187813D01*
X0046480Y0187742D01*
X0046589Y0187668D01*
X0046695Y0187591D01*
X0046799Y0187510D01*
X0046900Y0187427D01*
X0046999Y0187340D01*
X0047095Y0187250D01*
X0047188Y0187157D01*
X0047279Y0187062D01*
X0047366Y0186964D01*
X0047451Y0186863D01*
X0047532Y0186760D01*
X0047610Y0186654D01*
X0047685Y0186546D01*
X0047757Y0186436D01*
X0047825Y0186324D01*
X0047890Y0186210D01*
X0047951Y0186093D01*
X0048009Y0185975D01*
X0048063Y0185855D01*
X0048114Y0185734D01*
X0048161Y0185611D01*
X0048204Y0185487D01*
X0048243Y0185362D01*
X0048279Y0185235D01*
X0048310Y0185107D01*
X0048338Y0184979D01*
X0048362Y0184850D01*
X0048382Y0184720D01*
X0048398Y0184589D01*
X0048410Y0184458D01*
X0048418Y0184327D01*
X0048422Y0184196D01*
X0048422Y0184064D01*
X0048418Y0183933D01*
X0048410Y0183802D01*
X0048398Y0183671D01*
X0048382Y0183540D01*
X0048362Y0183410D01*
X0048338Y0183281D01*
X0048310Y0183153D01*
X0048279Y0183025D01*
X0048243Y0182898D01*
X0048204Y0182773D01*
X0048161Y0182649D01*
X0048114Y0182526D01*
X0048063Y0182405D01*
X0048009Y0182285D01*
X0047951Y0182167D01*
X0047890Y0182050D01*
X0047825Y0181936D01*
X0047757Y0181824D01*
X0047685Y0181714D01*
X0047610Y0181606D01*
X0047532Y0181500D01*
X0047451Y0181397D01*
X0047366Y0181296D01*
X0047279Y0181198D01*
X0047188Y0181103D01*
X0047095Y0181010D01*
X0046999Y0180920D01*
X0046900Y0180833D01*
X0046799Y0180750D01*
X0046695Y0180669D01*
X0046589Y0180592D01*
X0046480Y0180518D01*
X0046369Y0180447D01*
X0046257Y0180379D01*
X0046142Y0180315D01*
X0046025Y0180255D01*
X0045906Y0180198D01*
X0045786Y0180145D01*
X0045665Y0180095D01*
X0045541Y0180049D01*
X0045417Y0180007D01*
X0045291Y0179969D01*
X0045164Y0179934D01*
X0045036Y0179903D01*
X0044908Y0179877D01*
X0044778Y0179854D01*
X0044648Y0179835D01*
X0044518Y0179820D01*
X0044387Y0179809D01*
X0044255Y0179802D01*
X0044124Y0179799D01*
X0043992Y0179800D01*
X0043861Y0179805D01*
X0043730Y0179814D01*
X0043599Y0179827D01*
X0043469Y0179844D01*
X0043339Y0179865D01*
X0043210Y0179890D01*
X0043082Y0179918D01*
X0042954Y0179951D01*
X0042828Y0179987D01*
X0042703Y0180028D01*
X0042579Y0180072D01*
X0042456Y0180119D01*
X0042335Y0180171D01*
X0042216Y0180226D01*
X0042098Y0180285D01*
X0041983Y0180347D01*
X0041869Y0180413D01*
X0041757Y0180482D01*
X0041647Y0180554D01*
X0041540Y0180630D01*
X0041435Y0180709D01*
X0041332Y0180791D01*
X0041232Y0180876D01*
X0041135Y0180965D01*
X0041040Y0181056D01*
X0040948Y0181150D01*
X0040859Y0181247D01*
X0040773Y0181346D01*
X0040690Y0181448D01*
X0040610Y0181553D01*
X0040534Y0181659D01*
X0040461Y0181768D01*
X0040391Y0181880D01*
X0040324Y0181993D01*
X0040261Y0182108D01*
X0040201Y0182226D01*
X0040145Y0182344D01*
X0040093Y0182465D01*
X0040044Y0182587D01*
X0039999Y0182711D01*
X0039958Y0182835D01*
X0039921Y0182962D01*
X0039887Y0183089D01*
X0039857Y0183217D01*
X0039832Y0183346D01*
X0039810Y0183475D01*
X0039792Y0183605D01*
X0039778Y0183736D01*
X0039768Y0183867D01*
X0039762Y0183999D01*
X0039760Y0184130D01*
X0039760Y0199878D02*
X0039762Y0200009D01*
X0039768Y0200141D01*
X0039778Y0200272D01*
X0039792Y0200403D01*
X0039810Y0200533D01*
X0039832Y0200662D01*
X0039857Y0200791D01*
X0039887Y0200919D01*
X0039921Y0201046D01*
X0039958Y0201173D01*
X0039999Y0201297D01*
X0040044Y0201421D01*
X0040093Y0201543D01*
X0040145Y0201664D01*
X0040201Y0201782D01*
X0040261Y0201900D01*
X0040324Y0202015D01*
X0040391Y0202128D01*
X0040461Y0202240D01*
X0040534Y0202349D01*
X0040610Y0202455D01*
X0040690Y0202560D01*
X0040773Y0202662D01*
X0040859Y0202761D01*
X0040948Y0202858D01*
X0041040Y0202952D01*
X0041135Y0203043D01*
X0041232Y0203132D01*
X0041332Y0203217D01*
X0041435Y0203299D01*
X0041540Y0203378D01*
X0041647Y0203454D01*
X0041757Y0203526D01*
X0041869Y0203595D01*
X0041983Y0203661D01*
X0042098Y0203723D01*
X0042216Y0203782D01*
X0042335Y0203837D01*
X0042456Y0203889D01*
X0042579Y0203936D01*
X0042703Y0203980D01*
X0042828Y0204021D01*
X0042954Y0204057D01*
X0043082Y0204090D01*
X0043210Y0204118D01*
X0043339Y0204143D01*
X0043469Y0204164D01*
X0043599Y0204181D01*
X0043730Y0204194D01*
X0043861Y0204203D01*
X0043992Y0204208D01*
X0044124Y0204209D01*
X0044255Y0204206D01*
X0044387Y0204199D01*
X0044518Y0204188D01*
X0044648Y0204173D01*
X0044778Y0204154D01*
X0044908Y0204131D01*
X0045036Y0204105D01*
X0045164Y0204074D01*
X0045291Y0204039D01*
X0045417Y0204001D01*
X0045541Y0203959D01*
X0045665Y0203913D01*
X0045786Y0203863D01*
X0045906Y0203810D01*
X0046025Y0203753D01*
X0046142Y0203693D01*
X0046256Y0203629D01*
X0046369Y0203561D01*
X0046480Y0203490D01*
X0046589Y0203416D01*
X0046695Y0203339D01*
X0046799Y0203258D01*
X0046900Y0203175D01*
X0046999Y0203088D01*
X0047095Y0202998D01*
X0047188Y0202905D01*
X0047279Y0202810D01*
X0047366Y0202712D01*
X0047451Y0202611D01*
X0047532Y0202508D01*
X0047610Y0202402D01*
X0047685Y0202294D01*
X0047757Y0202184D01*
X0047825Y0202072D01*
X0047890Y0201958D01*
X0047951Y0201841D01*
X0048009Y0201723D01*
X0048063Y0201603D01*
X0048114Y0201482D01*
X0048161Y0201359D01*
X0048204Y0201235D01*
X0048243Y0201110D01*
X0048279Y0200983D01*
X0048310Y0200855D01*
X0048338Y0200727D01*
X0048362Y0200598D01*
X0048382Y0200468D01*
X0048398Y0200337D01*
X0048410Y0200206D01*
X0048418Y0200075D01*
X0048422Y0199944D01*
X0048422Y0199812D01*
X0048418Y0199681D01*
X0048410Y0199550D01*
X0048398Y0199419D01*
X0048382Y0199288D01*
X0048362Y0199158D01*
X0048338Y0199029D01*
X0048310Y0198901D01*
X0048279Y0198773D01*
X0048243Y0198646D01*
X0048204Y0198521D01*
X0048161Y0198397D01*
X0048114Y0198274D01*
X0048063Y0198153D01*
X0048009Y0198033D01*
X0047951Y0197915D01*
X0047890Y0197798D01*
X0047825Y0197684D01*
X0047757Y0197572D01*
X0047685Y0197462D01*
X0047610Y0197354D01*
X0047532Y0197248D01*
X0047451Y0197145D01*
X0047366Y0197044D01*
X0047279Y0196946D01*
X0047188Y0196851D01*
X0047095Y0196758D01*
X0046999Y0196668D01*
X0046900Y0196581D01*
X0046799Y0196498D01*
X0046695Y0196417D01*
X0046589Y0196340D01*
X0046480Y0196266D01*
X0046369Y0196195D01*
X0046257Y0196127D01*
X0046142Y0196063D01*
X0046025Y0196003D01*
X0045906Y0195946D01*
X0045786Y0195893D01*
X0045665Y0195843D01*
X0045541Y0195797D01*
X0045417Y0195755D01*
X0045291Y0195717D01*
X0045164Y0195682D01*
X0045036Y0195651D01*
X0044908Y0195625D01*
X0044778Y0195602D01*
X0044648Y0195583D01*
X0044518Y0195568D01*
X0044387Y0195557D01*
X0044255Y0195550D01*
X0044124Y0195547D01*
X0043992Y0195548D01*
X0043861Y0195553D01*
X0043730Y0195562D01*
X0043599Y0195575D01*
X0043469Y0195592D01*
X0043339Y0195613D01*
X0043210Y0195638D01*
X0043082Y0195666D01*
X0042954Y0195699D01*
X0042828Y0195735D01*
X0042703Y0195776D01*
X0042579Y0195820D01*
X0042456Y0195867D01*
X0042335Y0195919D01*
X0042216Y0195974D01*
X0042098Y0196033D01*
X0041983Y0196095D01*
X0041869Y0196161D01*
X0041757Y0196230D01*
X0041647Y0196302D01*
X0041540Y0196378D01*
X0041435Y0196457D01*
X0041332Y0196539D01*
X0041232Y0196624D01*
X0041135Y0196713D01*
X0041040Y0196804D01*
X0040948Y0196898D01*
X0040859Y0196995D01*
X0040773Y0197094D01*
X0040690Y0197196D01*
X0040610Y0197301D01*
X0040534Y0197407D01*
X0040461Y0197516D01*
X0040391Y0197628D01*
X0040324Y0197741D01*
X0040261Y0197856D01*
X0040201Y0197974D01*
X0040145Y0198092D01*
X0040093Y0198213D01*
X0040044Y0198335D01*
X0039999Y0198459D01*
X0039958Y0198583D01*
X0039921Y0198710D01*
X0039887Y0198837D01*
X0039857Y0198965D01*
X0039832Y0199094D01*
X0039810Y0199223D01*
X0039792Y0199353D01*
X0039778Y0199484D01*
X0039768Y0199615D01*
X0039762Y0199747D01*
X0039760Y0199878D01*
X0039760Y0215626D02*
X0039762Y0215757D01*
X0039768Y0215889D01*
X0039778Y0216020D01*
X0039792Y0216151D01*
X0039810Y0216281D01*
X0039832Y0216410D01*
X0039857Y0216539D01*
X0039887Y0216667D01*
X0039921Y0216794D01*
X0039958Y0216921D01*
X0039999Y0217045D01*
X0040044Y0217169D01*
X0040093Y0217291D01*
X0040145Y0217412D01*
X0040201Y0217530D01*
X0040261Y0217648D01*
X0040324Y0217763D01*
X0040391Y0217876D01*
X0040461Y0217988D01*
X0040534Y0218097D01*
X0040610Y0218203D01*
X0040690Y0218308D01*
X0040773Y0218410D01*
X0040859Y0218509D01*
X0040948Y0218606D01*
X0041040Y0218700D01*
X0041135Y0218791D01*
X0041232Y0218880D01*
X0041332Y0218965D01*
X0041435Y0219047D01*
X0041540Y0219126D01*
X0041647Y0219202D01*
X0041757Y0219274D01*
X0041869Y0219343D01*
X0041983Y0219409D01*
X0042098Y0219471D01*
X0042216Y0219530D01*
X0042335Y0219585D01*
X0042456Y0219637D01*
X0042579Y0219684D01*
X0042703Y0219728D01*
X0042828Y0219769D01*
X0042954Y0219805D01*
X0043082Y0219838D01*
X0043210Y0219866D01*
X0043339Y0219891D01*
X0043469Y0219912D01*
X0043599Y0219929D01*
X0043730Y0219942D01*
X0043861Y0219951D01*
X0043992Y0219956D01*
X0044124Y0219957D01*
X0044255Y0219954D01*
X0044387Y0219947D01*
X0044518Y0219936D01*
X0044648Y0219921D01*
X0044778Y0219902D01*
X0044908Y0219879D01*
X0045036Y0219853D01*
X0045164Y0219822D01*
X0045291Y0219787D01*
X0045417Y0219749D01*
X0045541Y0219707D01*
X0045665Y0219661D01*
X0045786Y0219611D01*
X0045906Y0219558D01*
X0046025Y0219501D01*
X0046142Y0219441D01*
X0046256Y0219377D01*
X0046369Y0219309D01*
X0046480Y0219238D01*
X0046589Y0219164D01*
X0046695Y0219087D01*
X0046799Y0219006D01*
X0046900Y0218923D01*
X0046999Y0218836D01*
X0047095Y0218746D01*
X0047188Y0218653D01*
X0047279Y0218558D01*
X0047366Y0218460D01*
X0047451Y0218359D01*
X0047532Y0218256D01*
X0047610Y0218150D01*
X0047685Y0218042D01*
X0047757Y0217932D01*
X0047825Y0217820D01*
X0047890Y0217706D01*
X0047951Y0217589D01*
X0048009Y0217471D01*
X0048063Y0217351D01*
X0048114Y0217230D01*
X0048161Y0217107D01*
X0048204Y0216983D01*
X0048243Y0216858D01*
X0048279Y0216731D01*
X0048310Y0216603D01*
X0048338Y0216475D01*
X0048362Y0216346D01*
X0048382Y0216216D01*
X0048398Y0216085D01*
X0048410Y0215954D01*
X0048418Y0215823D01*
X0048422Y0215692D01*
X0048422Y0215560D01*
X0048418Y0215429D01*
X0048410Y0215298D01*
X0048398Y0215167D01*
X0048382Y0215036D01*
X0048362Y0214906D01*
X0048338Y0214777D01*
X0048310Y0214649D01*
X0048279Y0214521D01*
X0048243Y0214394D01*
X0048204Y0214269D01*
X0048161Y0214145D01*
X0048114Y0214022D01*
X0048063Y0213901D01*
X0048009Y0213781D01*
X0047951Y0213663D01*
X0047890Y0213546D01*
X0047825Y0213432D01*
X0047757Y0213320D01*
X0047685Y0213210D01*
X0047610Y0213102D01*
X0047532Y0212996D01*
X0047451Y0212893D01*
X0047366Y0212792D01*
X0047279Y0212694D01*
X0047188Y0212599D01*
X0047095Y0212506D01*
X0046999Y0212416D01*
X0046900Y0212329D01*
X0046799Y0212246D01*
X0046695Y0212165D01*
X0046589Y0212088D01*
X0046480Y0212014D01*
X0046369Y0211943D01*
X0046257Y0211875D01*
X0046142Y0211811D01*
X0046025Y0211751D01*
X0045906Y0211694D01*
X0045786Y0211641D01*
X0045665Y0211591D01*
X0045541Y0211545D01*
X0045417Y0211503D01*
X0045291Y0211465D01*
X0045164Y0211430D01*
X0045036Y0211399D01*
X0044908Y0211373D01*
X0044778Y0211350D01*
X0044648Y0211331D01*
X0044518Y0211316D01*
X0044387Y0211305D01*
X0044255Y0211298D01*
X0044124Y0211295D01*
X0043992Y0211296D01*
X0043861Y0211301D01*
X0043730Y0211310D01*
X0043599Y0211323D01*
X0043469Y0211340D01*
X0043339Y0211361D01*
X0043210Y0211386D01*
X0043082Y0211414D01*
X0042954Y0211447D01*
X0042828Y0211483D01*
X0042703Y0211524D01*
X0042579Y0211568D01*
X0042456Y0211615D01*
X0042335Y0211667D01*
X0042216Y0211722D01*
X0042098Y0211781D01*
X0041983Y0211843D01*
X0041869Y0211909D01*
X0041757Y0211978D01*
X0041647Y0212050D01*
X0041540Y0212126D01*
X0041435Y0212205D01*
X0041332Y0212287D01*
X0041232Y0212372D01*
X0041135Y0212461D01*
X0041040Y0212552D01*
X0040948Y0212646D01*
X0040859Y0212743D01*
X0040773Y0212842D01*
X0040690Y0212944D01*
X0040610Y0213049D01*
X0040534Y0213155D01*
X0040461Y0213264D01*
X0040391Y0213376D01*
X0040324Y0213489D01*
X0040261Y0213604D01*
X0040201Y0213722D01*
X0040145Y0213840D01*
X0040093Y0213961D01*
X0040044Y0214083D01*
X0039999Y0214207D01*
X0039958Y0214331D01*
X0039921Y0214458D01*
X0039887Y0214585D01*
X0039857Y0214713D01*
X0039832Y0214842D01*
X0039810Y0214971D01*
X0039792Y0215101D01*
X0039778Y0215232D01*
X0039768Y0215363D01*
X0039762Y0215495D01*
X0039760Y0215626D01*
D12*
X0044284Y0167415D02*
X0044284Y0165413D01*
X0044951Y0166081D01*
X0045618Y0165413D01*
X0045618Y0167415D01*
X0046494Y0167081D02*
X0046494Y0166414D01*
X0046827Y0166081D01*
X0047828Y0166081D01*
X0047828Y0165413D02*
X0047828Y0167415D01*
X0046827Y0167415D01*
X0046494Y0167081D01*
X0048704Y0165080D02*
X0050038Y0165080D01*
X0050914Y0165413D02*
X0051581Y0166081D01*
X0051247Y0166081D02*
X0052248Y0166081D01*
X0052248Y0165413D02*
X0052248Y0167415D01*
X0051247Y0167415D01*
X0050914Y0167081D01*
X0050914Y0166414D01*
X0051247Y0166081D01*
X0050914Y0143793D02*
X0052248Y0143793D01*
X0052248Y0141791D01*
X0050914Y0141791D01*
X0050038Y0141791D02*
X0049037Y0141791D01*
X0048704Y0142125D01*
X0048704Y0143459D01*
X0049037Y0143793D01*
X0050038Y0143793D01*
X0050038Y0141791D01*
X0051581Y0142792D02*
X0052248Y0142792D01*
X0053123Y0141791D02*
X0054458Y0141791D01*
X0054458Y0143793D01*
X0047828Y0141458D02*
X0046494Y0141458D01*
X0045618Y0141791D02*
X0045618Y0143793D01*
X0044618Y0143793D01*
X0044284Y0143459D01*
X0044284Y0142792D01*
X0044618Y0142459D01*
X0045618Y0142459D01*
X0043408Y0141791D02*
X0043408Y0143793D01*
X0042074Y0143793D02*
X0042074Y0141791D01*
X0042741Y0142459D01*
X0043408Y0141791D01*
X0043179Y0092612D02*
X0043179Y0090610D01*
X0043846Y0091277D01*
X0044513Y0090610D01*
X0044513Y0092612D01*
X0045389Y0092278D02*
X0045389Y0091611D01*
X0045722Y0091277D01*
X0046723Y0091277D01*
X0046723Y0090610D02*
X0046723Y0092612D01*
X0045722Y0092612D01*
X0045389Y0092278D01*
X0047599Y0090277D02*
X0048933Y0090277D01*
X0049809Y0090610D02*
X0049809Y0092612D01*
X0051143Y0092612D02*
X0051143Y0090610D01*
X0050476Y0091277D01*
X0049809Y0090610D01*
X0052018Y0090944D02*
X0052352Y0090610D01*
X0053019Y0090610D01*
X0053353Y0090944D01*
X0053019Y0091611D02*
X0053353Y0091945D01*
X0053353Y0092278D01*
X0053019Y0092612D01*
X0052352Y0092612D01*
X0052018Y0092278D01*
X0052352Y0091611D02*
X0052018Y0091277D01*
X0052018Y0090944D01*
X0052352Y0091611D02*
X0053019Y0091611D01*
X0043707Y0084738D02*
X0043040Y0084738D01*
X0043373Y0084738D02*
X0043373Y0083070D01*
X0043707Y0082736D01*
X0044040Y0082736D01*
X0044374Y0083070D01*
X0042164Y0082403D02*
X0040830Y0082403D01*
X0039954Y0082736D02*
X0039954Y0084738D01*
X0038953Y0084738D01*
X0038620Y0084404D01*
X0038620Y0083737D01*
X0038953Y0083403D01*
X0039954Y0083403D01*
X0037744Y0082736D02*
X0037077Y0083403D01*
X0036410Y0082736D01*
X0036410Y0084738D01*
X0037744Y0084738D02*
X0037744Y0082736D01*
X0097192Y0116534D02*
X0097526Y0116201D01*
X0098193Y0116201D01*
X0098527Y0116534D01*
X0097192Y0117869D01*
X0097192Y0116534D01*
X0098527Y0116534D02*
X0098527Y0117869D01*
X0098193Y0118202D01*
X0097526Y0118202D01*
X0097192Y0117869D01*
X0099402Y0115867D02*
X0100736Y0115867D01*
X0101612Y0116201D02*
X0102279Y0116868D01*
X0101945Y0116868D02*
X0102946Y0116868D01*
X0102946Y0116201D02*
X0102946Y0118202D01*
X0101945Y0118202D01*
X0101612Y0117869D01*
X0101612Y0117202D01*
X0101945Y0116868D01*
X0103822Y0116868D02*
X0103822Y0118202D01*
X0103822Y0116868D02*
X0104489Y0116201D01*
X0105156Y0116868D01*
X0105156Y0118202D01*
X0106032Y0115867D02*
X0107366Y0115867D01*
X0108242Y0116534D02*
X0108242Y0118202D01*
X0109576Y0118202D02*
X0109576Y0116534D01*
X0109242Y0116201D01*
X0108575Y0116201D01*
X0108242Y0116534D01*
X0129372Y0111103D02*
X0129372Y0109768D01*
X0129705Y0108893D02*
X0130373Y0108225D01*
X0130373Y0108559D02*
X0130373Y0107558D01*
X0129705Y0107558D02*
X0131707Y0107558D01*
X0131707Y0108559D01*
X0131373Y0108893D01*
X0130706Y0108893D01*
X0130373Y0108559D01*
X0130373Y0106683D02*
X0131707Y0106683D01*
X0130373Y0106683D02*
X0129705Y0106016D01*
X0130373Y0105348D01*
X0131707Y0105348D01*
X0129372Y0104473D02*
X0129372Y0103138D01*
X0130039Y0102263D02*
X0129705Y0101929D01*
X0129705Y0101262D01*
X0130039Y0100929D01*
X0131373Y0100929D01*
X0131707Y0101262D01*
X0131707Y0101929D01*
X0131373Y0102263D01*
X0131373Y0093627D02*
X0131707Y0093294D01*
X0131707Y0092627D01*
X0131373Y0092293D01*
X0131373Y0093627D02*
X0131040Y0093627D01*
X0129705Y0092293D01*
X0129705Y0093627D01*
X0129372Y0091418D02*
X0129372Y0090083D01*
X0129705Y0089208D02*
X0130373Y0088540D01*
X0130373Y0088874D02*
X0130373Y0087873D01*
X0129705Y0087873D02*
X0131707Y0087873D01*
X0131707Y0088874D01*
X0131373Y0089208D01*
X0130706Y0089208D01*
X0130373Y0088874D01*
X0130373Y0086998D02*
X0131707Y0086998D01*
X0130373Y0086998D02*
X0129705Y0086331D01*
X0130373Y0085663D01*
X0131707Y0085663D01*
X0129372Y0084788D02*
X0129372Y0083453D01*
X0130039Y0082578D02*
X0129705Y0082244D01*
X0129705Y0081577D01*
X0130039Y0081244D01*
X0131373Y0081244D01*
X0131707Y0081577D01*
X0131707Y0082244D01*
X0131373Y0082578D01*
X0133442Y0072927D02*
X0133108Y0072593D01*
X0133108Y0072260D01*
X0133442Y0071926D01*
X0133108Y0071592D01*
X0133108Y0071259D01*
X0133442Y0070925D01*
X0134109Y0070925D01*
X0134442Y0071259D01*
X0135318Y0071259D02*
X0135318Y0072593D01*
X0135651Y0072927D01*
X0136652Y0072927D01*
X0136652Y0070925D01*
X0135651Y0070925D01*
X0135318Y0071259D01*
X0134442Y0072593D02*
X0134109Y0072927D01*
X0133442Y0072927D01*
X0133442Y0071926D02*
X0133775Y0071926D01*
X0143433Y0084123D02*
X0143433Y0085991D01*
X0143433Y0085057D02*
X0146235Y0085057D01*
X0145301Y0084123D01*
X0145731Y0092635D02*
X0146198Y0093102D01*
X0146198Y0094036D01*
X0145731Y0094503D01*
X0145264Y0094503D01*
X0143396Y0092635D01*
X0143396Y0094503D01*
X0143900Y0101735D02*
X0143433Y0102202D01*
X0143433Y0103136D01*
X0143900Y0103603D01*
X0144367Y0103603D01*
X0144834Y0103136D01*
X0144834Y0102669D01*
X0144834Y0103136D02*
X0145301Y0103603D01*
X0145768Y0103603D01*
X0146235Y0103136D01*
X0146235Y0102202D01*
X0145768Y0101735D01*
X0154279Y0112264D02*
X0155613Y0112264D01*
X0154946Y0112264D02*
X0154946Y0114265D01*
X0155613Y0113598D01*
X0156489Y0111930D02*
X0157823Y0111930D01*
X0158698Y0112264D02*
X0159366Y0112931D01*
X0159032Y0112931D02*
X0160033Y0112931D01*
X0160033Y0112264D02*
X0160033Y0114265D01*
X0159032Y0114265D01*
X0158698Y0113932D01*
X0158698Y0113265D01*
X0159032Y0112931D01*
X0160908Y0112931D02*
X0160908Y0114265D01*
X0160908Y0112931D02*
X0161576Y0112264D01*
X0162243Y0112931D01*
X0162243Y0114265D01*
X0163118Y0111930D02*
X0164453Y0111930D01*
X0165328Y0112597D02*
X0165328Y0114265D01*
X0166663Y0114265D02*
X0166663Y0112597D01*
X0166329Y0112264D01*
X0165662Y0112264D01*
X0165328Y0112597D01*
X0170433Y0106617D02*
X0173235Y0106617D01*
X0171834Y0105216D01*
X0171834Y0107084D01*
X0169495Y0121773D02*
X0168160Y0121773D01*
X0167285Y0122106D02*
X0165950Y0122106D01*
X0165075Y0122440D02*
X0164741Y0122106D01*
X0164074Y0122106D01*
X0163740Y0122440D01*
X0163740Y0122774D01*
X0164074Y0123107D01*
X0164741Y0123107D01*
X0165075Y0123441D01*
X0165075Y0123774D01*
X0164741Y0124108D01*
X0164074Y0124108D01*
X0163740Y0123774D01*
X0162865Y0124108D02*
X0161864Y0124108D01*
X0161531Y0123774D01*
X0161531Y0123107D01*
X0161864Y0122774D01*
X0162865Y0122774D01*
X0162865Y0122106D02*
X0162865Y0124108D01*
X0165950Y0124108D02*
X0167285Y0124108D01*
X0167285Y0122106D01*
X0167285Y0123107D02*
X0166618Y0123107D01*
X0170370Y0123107D02*
X0170704Y0122774D01*
X0171705Y0122774D01*
X0171037Y0122774D02*
X0170370Y0122106D01*
X0170370Y0123107D02*
X0170370Y0123774D01*
X0170704Y0124108D01*
X0171705Y0124108D01*
X0171705Y0122106D01*
X0160655Y0121773D02*
X0159321Y0121773D01*
X0158445Y0123107D02*
X0157111Y0123107D01*
X0157444Y0122106D02*
X0157444Y0124108D01*
X0158445Y0123107D01*
X0152020Y0122440D02*
X0151686Y0122106D01*
X0151019Y0122106D01*
X0150685Y0122440D01*
X0149810Y0121773D02*
X0148475Y0121773D01*
X0147600Y0122106D02*
X0146265Y0122106D01*
X0145390Y0122440D02*
X0145056Y0122106D01*
X0144389Y0122106D01*
X0144055Y0122440D01*
X0144055Y0122774D01*
X0144389Y0123107D01*
X0145056Y0123107D01*
X0145390Y0123441D01*
X0145390Y0123774D01*
X0145056Y0124108D01*
X0144389Y0124108D01*
X0144055Y0123774D01*
X0143180Y0124108D02*
X0142179Y0124108D01*
X0141846Y0123774D01*
X0141846Y0123107D01*
X0142179Y0122774D01*
X0143180Y0122774D01*
X0143180Y0122106D02*
X0143180Y0124108D01*
X0146265Y0124108D02*
X0147600Y0124108D01*
X0147600Y0122106D01*
X0147600Y0123107D02*
X0146933Y0123107D01*
X0150685Y0123774D02*
X0151019Y0124108D01*
X0151686Y0124108D01*
X0152020Y0123774D01*
X0152020Y0122440D01*
X0140970Y0121773D02*
X0139636Y0121773D01*
X0138760Y0122440D02*
X0138427Y0122106D01*
X0137759Y0122106D01*
X0137426Y0122440D01*
X0137426Y0122774D01*
X0137759Y0123107D01*
X0138093Y0123107D01*
X0137759Y0123107D02*
X0137426Y0123441D01*
X0137426Y0123774D01*
X0137759Y0124108D01*
X0138427Y0124108D01*
X0138760Y0123774D01*
X0131373Y0113312D02*
X0131040Y0113312D01*
X0130706Y0112979D01*
X0130373Y0113312D01*
X0130039Y0113312D01*
X0129705Y0112979D01*
X0129705Y0112312D01*
X0130039Y0111978D01*
X0130706Y0112645D02*
X0130706Y0112979D01*
X0131373Y0113312D02*
X0131707Y0112979D01*
X0131707Y0112312D01*
X0131373Y0111978D01*
X0137426Y0133917D02*
X0138760Y0133917D01*
X0138093Y0133917D02*
X0138093Y0135919D01*
X0138760Y0135252D01*
X0139636Y0133584D02*
X0140970Y0133584D01*
X0142179Y0134585D02*
X0143180Y0134585D01*
X0143180Y0133917D02*
X0143180Y0135919D01*
X0142179Y0135919D01*
X0141846Y0135585D01*
X0141846Y0134918D01*
X0142179Y0134585D01*
X0144055Y0134585D02*
X0144055Y0134251D01*
X0144389Y0133917D01*
X0145056Y0133917D01*
X0145390Y0134251D01*
X0145056Y0134918D02*
X0144389Y0134918D01*
X0144055Y0134585D01*
X0144055Y0135585D02*
X0144389Y0135919D01*
X0145056Y0135919D01*
X0145390Y0135585D01*
X0145390Y0135252D01*
X0145056Y0134918D01*
X0146265Y0133917D02*
X0147600Y0133917D01*
X0147600Y0135919D01*
X0146265Y0135919D01*
X0146933Y0134918D02*
X0147600Y0134918D01*
X0148475Y0133584D02*
X0149810Y0133584D01*
X0150685Y0134251D02*
X0151019Y0133917D01*
X0151686Y0133917D01*
X0152020Y0134251D01*
X0152020Y0135585D01*
X0151686Y0135919D01*
X0151019Y0135919D01*
X0150685Y0135585D01*
X0157111Y0135585D02*
X0157444Y0135919D01*
X0158112Y0135919D01*
X0158445Y0135585D01*
X0157111Y0135585D02*
X0157111Y0135252D01*
X0158445Y0133917D01*
X0157111Y0133917D01*
X0159321Y0133584D02*
X0160655Y0133584D01*
X0161864Y0134585D02*
X0162865Y0134585D01*
X0162865Y0133917D02*
X0162865Y0135919D01*
X0161864Y0135919D01*
X0161531Y0135585D01*
X0161531Y0134918D01*
X0161864Y0134585D01*
X0163740Y0134585D02*
X0163740Y0134251D01*
X0164074Y0133917D01*
X0164741Y0133917D01*
X0165075Y0134251D01*
X0164741Y0134918D02*
X0164074Y0134918D01*
X0163740Y0134585D01*
X0163740Y0135585D02*
X0164074Y0135919D01*
X0164741Y0135919D01*
X0165075Y0135585D01*
X0165075Y0135252D01*
X0164741Y0134918D01*
X0165950Y0133917D02*
X0167285Y0133917D01*
X0167285Y0135919D01*
X0165950Y0135919D01*
X0166618Y0134918D02*
X0167285Y0134918D01*
X0168160Y0133584D02*
X0169495Y0133584D01*
X0170370Y0134251D02*
X0170704Y0133917D01*
X0171371Y0133917D01*
X0171705Y0134251D01*
X0171705Y0135585D01*
X0171371Y0135919D01*
X0170704Y0135919D01*
X0170370Y0135585D01*
X0165799Y0153602D02*
X0165799Y0155604D01*
X0164798Y0155604D01*
X0164465Y0155270D01*
X0164465Y0154603D01*
X0164798Y0154270D01*
X0165799Y0154270D01*
X0165132Y0154270D02*
X0164465Y0153602D01*
X0163589Y0153269D02*
X0162255Y0153269D01*
X0161379Y0153602D02*
X0160045Y0153602D01*
X0159169Y0153936D02*
X0158836Y0153602D01*
X0158169Y0153602D01*
X0157835Y0153936D01*
X0157835Y0154270D01*
X0158169Y0154603D01*
X0158836Y0154603D01*
X0159169Y0154937D01*
X0159169Y0155270D01*
X0158836Y0155604D01*
X0158169Y0155604D01*
X0157835Y0155270D01*
X0156960Y0155604D02*
X0155959Y0155604D01*
X0155625Y0155270D01*
X0155625Y0154603D01*
X0155959Y0154270D01*
X0156960Y0154270D01*
X0156960Y0153602D02*
X0156960Y0155604D01*
X0160045Y0155604D02*
X0161379Y0155604D01*
X0161379Y0153602D01*
X0161379Y0154603D02*
X0160712Y0154603D01*
X0154750Y0153269D02*
X0153415Y0153269D01*
X0152540Y0153936D02*
X0151205Y0155270D01*
X0151205Y0153936D01*
X0151539Y0153602D01*
X0152206Y0153602D01*
X0152540Y0153936D01*
X0152540Y0155270D01*
X0152206Y0155604D01*
X0151539Y0155604D01*
X0151205Y0155270D01*
X0109093Y0072927D02*
X0108092Y0072927D01*
X0107759Y0072593D01*
X0107759Y0071259D01*
X0108092Y0070925D01*
X0109093Y0070925D01*
X0109093Y0072927D01*
X0106883Y0072593D02*
X0106550Y0072927D01*
X0105882Y0072927D01*
X0105549Y0072593D01*
X0105549Y0072260D01*
X0106883Y0070925D01*
X0105549Y0070925D01*
D13*
X0045744Y0146593D02*
X0046010Y0146836D01*
X0046010Y0146835D02*
X0046081Y0146761D01*
X0046155Y0146689D01*
X0046232Y0146620D01*
X0046311Y0146554D01*
X0046392Y0146491D01*
X0046476Y0146431D01*
X0046562Y0146375D01*
X0046651Y0146321D01*
X0046741Y0146271D01*
X0046833Y0146225D01*
X0046926Y0146182D01*
X0047021Y0146142D01*
X0047118Y0146106D01*
X0047216Y0146074D01*
X0047315Y0146045D01*
X0047415Y0146020D01*
X0047516Y0145999D01*
X0047617Y0145982D01*
X0047719Y0145968D01*
X0047822Y0145959D01*
X0047925Y0145953D01*
X0048028Y0145951D01*
X0048131Y0145953D01*
X0048234Y0145959D01*
X0048337Y0145968D01*
X0048439Y0145982D01*
X0048540Y0145999D01*
X0048641Y0146020D01*
X0048741Y0146045D01*
X0048840Y0146074D01*
X0048938Y0146106D01*
X0049035Y0146142D01*
X0049130Y0146182D01*
X0049223Y0146225D01*
X0049315Y0146271D01*
X0049405Y0146321D01*
X0049494Y0146375D01*
X0049580Y0146431D01*
X0049664Y0146491D01*
X0049745Y0146554D01*
X0049824Y0146620D01*
X0049901Y0146689D01*
X0049975Y0146761D01*
X0050046Y0146835D01*
X0050312Y0146593D01*
X0050313Y0146593D01*
X0050237Y0146514D01*
X0050159Y0146438D01*
X0050078Y0146364D01*
X0049995Y0146293D01*
X0049909Y0146226D01*
X0049821Y0146161D01*
X0049731Y0146100D01*
X0049639Y0146041D01*
X0049544Y0145986D01*
X0049448Y0145935D01*
X0049350Y0145886D01*
X0049250Y0145842D01*
X0049149Y0145800D01*
X0049047Y0145763D01*
X0048943Y0145729D01*
X0048838Y0145698D01*
X0048732Y0145672D01*
X0048625Y0145649D01*
X0048518Y0145630D01*
X0048409Y0145615D01*
X0048301Y0145603D01*
X0048192Y0145595D01*
X0048083Y0145591D01*
X0047973Y0145591D01*
X0047864Y0145595D01*
X0047755Y0145603D01*
X0047647Y0145615D01*
X0047538Y0145630D01*
X0047431Y0145649D01*
X0047324Y0145672D01*
X0047218Y0145698D01*
X0047113Y0145729D01*
X0047009Y0145763D01*
X0046907Y0145800D01*
X0046806Y0145842D01*
X0046706Y0145886D01*
X0046608Y0145935D01*
X0046512Y0145986D01*
X0046417Y0146041D01*
X0046325Y0146100D01*
X0046235Y0146161D01*
X0046147Y0146226D01*
X0046061Y0146293D01*
X0045978Y0146364D01*
X0045897Y0146438D01*
X0045819Y0146514D01*
X0045743Y0146593D01*
X0045771Y0146618D01*
X0045845Y0146540D01*
X0045922Y0146464D01*
X0046002Y0146392D01*
X0046084Y0146322D01*
X0046169Y0146255D01*
X0046256Y0146191D01*
X0046345Y0146130D01*
X0046437Y0146073D01*
X0046530Y0146018D01*
X0046625Y0145967D01*
X0046722Y0145920D01*
X0046820Y0145876D01*
X0046920Y0145835D01*
X0047022Y0145798D01*
X0047124Y0145764D01*
X0047228Y0145734D01*
X0047333Y0145708D01*
X0047438Y0145685D01*
X0047544Y0145666D01*
X0047651Y0145651D01*
X0047759Y0145640D01*
X0047866Y0145632D01*
X0047974Y0145628D01*
X0048082Y0145628D01*
X0048190Y0145632D01*
X0048297Y0145640D01*
X0048405Y0145651D01*
X0048512Y0145666D01*
X0048618Y0145685D01*
X0048723Y0145708D01*
X0048828Y0145734D01*
X0048932Y0145764D01*
X0049034Y0145798D01*
X0049136Y0145835D01*
X0049236Y0145876D01*
X0049334Y0145920D01*
X0049431Y0145967D01*
X0049526Y0146018D01*
X0049619Y0146073D01*
X0049711Y0146130D01*
X0049800Y0146191D01*
X0049887Y0146255D01*
X0049972Y0146322D01*
X0050054Y0146392D01*
X0050134Y0146464D01*
X0050211Y0146540D01*
X0050285Y0146618D01*
X0050258Y0146643D01*
X0050183Y0146564D01*
X0050105Y0146488D01*
X0050024Y0146415D01*
X0049941Y0146344D01*
X0049855Y0146277D01*
X0049767Y0146213D01*
X0049677Y0146152D01*
X0049584Y0146095D01*
X0049490Y0146041D01*
X0049393Y0145990D01*
X0049295Y0145942D01*
X0049195Y0145899D01*
X0049094Y0145859D01*
X0048991Y0145822D01*
X0048888Y0145789D01*
X0048783Y0145760D01*
X0048677Y0145735D01*
X0048570Y0145714D01*
X0048462Y0145696D01*
X0048354Y0145683D01*
X0048246Y0145673D01*
X0048137Y0145667D01*
X0048028Y0145665D01*
X0047919Y0145667D01*
X0047810Y0145673D01*
X0047702Y0145683D01*
X0047594Y0145696D01*
X0047486Y0145714D01*
X0047379Y0145735D01*
X0047273Y0145760D01*
X0047168Y0145789D01*
X0047065Y0145822D01*
X0046962Y0145859D01*
X0046861Y0145899D01*
X0046761Y0145942D01*
X0046663Y0145990D01*
X0046566Y0146041D01*
X0046472Y0146095D01*
X0046379Y0146152D01*
X0046289Y0146213D01*
X0046201Y0146277D01*
X0046115Y0146344D01*
X0046032Y0146415D01*
X0045951Y0146488D01*
X0045873Y0146564D01*
X0045798Y0146643D01*
X0045825Y0146668D01*
X0045900Y0146590D01*
X0045977Y0146515D01*
X0046056Y0146442D01*
X0046139Y0146373D01*
X0046223Y0146307D01*
X0046310Y0146243D01*
X0046400Y0146183D01*
X0046491Y0146126D01*
X0046584Y0146073D01*
X0046680Y0146023D01*
X0046776Y0145976D01*
X0046875Y0145933D01*
X0046975Y0145893D01*
X0047076Y0145857D01*
X0047179Y0145825D01*
X0047283Y0145796D01*
X0047387Y0145771D01*
X0047493Y0145750D01*
X0047599Y0145733D01*
X0047706Y0145719D01*
X0047813Y0145710D01*
X0047920Y0145704D01*
X0048028Y0145702D01*
X0048136Y0145704D01*
X0048243Y0145710D01*
X0048350Y0145719D01*
X0048457Y0145733D01*
X0048563Y0145750D01*
X0048669Y0145771D01*
X0048773Y0145796D01*
X0048877Y0145825D01*
X0048980Y0145857D01*
X0049081Y0145893D01*
X0049181Y0145933D01*
X0049280Y0145976D01*
X0049376Y0146023D01*
X0049472Y0146073D01*
X0049565Y0146126D01*
X0049656Y0146183D01*
X0049746Y0146243D01*
X0049833Y0146307D01*
X0049917Y0146373D01*
X0050000Y0146442D01*
X0050079Y0146515D01*
X0050156Y0146590D01*
X0050231Y0146668D01*
X0050203Y0146692D01*
X0050128Y0146614D01*
X0050050Y0146538D01*
X0049970Y0146465D01*
X0049886Y0146396D01*
X0049801Y0146329D01*
X0049713Y0146266D01*
X0049622Y0146205D01*
X0049530Y0146148D01*
X0049435Y0146095D01*
X0049339Y0146045D01*
X0049240Y0145999D01*
X0049140Y0145956D01*
X0049039Y0145917D01*
X0048936Y0145882D01*
X0048832Y0145850D01*
X0048727Y0145823D01*
X0048621Y0145799D01*
X0048515Y0145779D01*
X0048407Y0145763D01*
X0048299Y0145751D01*
X0048191Y0145743D01*
X0048082Y0145739D01*
X0047974Y0145739D01*
X0047865Y0145743D01*
X0047757Y0145751D01*
X0047649Y0145763D01*
X0047541Y0145779D01*
X0047435Y0145799D01*
X0047329Y0145823D01*
X0047224Y0145850D01*
X0047120Y0145882D01*
X0047017Y0145917D01*
X0046916Y0145956D01*
X0046816Y0145999D01*
X0046717Y0146045D01*
X0046621Y0146095D01*
X0046526Y0146148D01*
X0046434Y0146205D01*
X0046343Y0146266D01*
X0046255Y0146329D01*
X0046170Y0146396D01*
X0046086Y0146465D01*
X0046006Y0146538D01*
X0045928Y0146614D01*
X0045853Y0146692D01*
X0045880Y0146717D01*
X0045954Y0146640D01*
X0046031Y0146565D01*
X0046111Y0146493D01*
X0046193Y0146424D01*
X0046278Y0146359D01*
X0046365Y0146296D01*
X0046454Y0146236D01*
X0046545Y0146180D01*
X0046639Y0146128D01*
X0046734Y0146078D01*
X0046831Y0146033D01*
X0046930Y0145990D01*
X0047030Y0145952D01*
X0047131Y0145917D01*
X0047234Y0145886D01*
X0047337Y0145859D01*
X0047442Y0145835D01*
X0047548Y0145816D01*
X0047654Y0145800D01*
X0047760Y0145788D01*
X0047867Y0145780D01*
X0047974Y0145776D01*
X0048082Y0145776D01*
X0048189Y0145780D01*
X0048296Y0145788D01*
X0048402Y0145800D01*
X0048508Y0145816D01*
X0048614Y0145835D01*
X0048719Y0145859D01*
X0048822Y0145886D01*
X0048925Y0145917D01*
X0049026Y0145952D01*
X0049126Y0145990D01*
X0049225Y0146033D01*
X0049322Y0146078D01*
X0049417Y0146128D01*
X0049511Y0146180D01*
X0049602Y0146236D01*
X0049691Y0146296D01*
X0049778Y0146359D01*
X0049863Y0146424D01*
X0049945Y0146493D01*
X0050025Y0146565D01*
X0050102Y0146640D01*
X0050176Y0146717D01*
X0050148Y0146742D01*
X0050075Y0146666D01*
X0049999Y0146592D01*
X0049921Y0146521D01*
X0049840Y0146453D01*
X0049756Y0146388D01*
X0049670Y0146326D01*
X0049582Y0146267D01*
X0049492Y0146212D01*
X0049400Y0146160D01*
X0049306Y0146111D01*
X0049210Y0146066D01*
X0049112Y0146025D01*
X0049014Y0145987D01*
X0048913Y0145952D01*
X0048812Y0145922D01*
X0048710Y0145895D01*
X0048606Y0145872D01*
X0048502Y0145852D01*
X0048398Y0145837D01*
X0048292Y0145825D01*
X0048187Y0145817D01*
X0048081Y0145813D01*
X0047975Y0145813D01*
X0047869Y0145817D01*
X0047764Y0145825D01*
X0047658Y0145837D01*
X0047554Y0145852D01*
X0047450Y0145872D01*
X0047346Y0145895D01*
X0047244Y0145922D01*
X0047143Y0145952D01*
X0047042Y0145987D01*
X0046944Y0146025D01*
X0046846Y0146066D01*
X0046750Y0146111D01*
X0046656Y0146160D01*
X0046564Y0146212D01*
X0046474Y0146267D01*
X0046386Y0146326D01*
X0046300Y0146388D01*
X0046216Y0146453D01*
X0046135Y0146521D01*
X0046057Y0146592D01*
X0045981Y0146666D01*
X0045908Y0146742D01*
X0045935Y0146767D01*
X0046007Y0146692D01*
X0046082Y0146619D01*
X0046160Y0146549D01*
X0046240Y0146482D01*
X0046322Y0146418D01*
X0046407Y0146356D01*
X0046494Y0146299D01*
X0046583Y0146244D01*
X0046674Y0146193D01*
X0046767Y0146145D01*
X0046862Y0146100D01*
X0046958Y0146059D01*
X0047055Y0146021D01*
X0047154Y0145987D01*
X0047254Y0145957D01*
X0047355Y0145931D01*
X0047457Y0145908D01*
X0047560Y0145889D01*
X0047663Y0145873D01*
X0047767Y0145862D01*
X0047871Y0145854D01*
X0047976Y0145850D01*
X0048080Y0145850D01*
X0048185Y0145854D01*
X0048289Y0145862D01*
X0048393Y0145873D01*
X0048496Y0145889D01*
X0048599Y0145908D01*
X0048701Y0145931D01*
X0048802Y0145957D01*
X0048902Y0145987D01*
X0049001Y0146021D01*
X0049098Y0146059D01*
X0049194Y0146100D01*
X0049289Y0146145D01*
X0049382Y0146193D01*
X0049473Y0146244D01*
X0049562Y0146299D01*
X0049649Y0146356D01*
X0049734Y0146418D01*
X0049816Y0146482D01*
X0049896Y0146549D01*
X0049974Y0146619D01*
X0050049Y0146692D01*
X0050121Y0146767D01*
X0050094Y0146792D01*
X0050021Y0146716D01*
X0049945Y0146642D01*
X0049867Y0146572D01*
X0049786Y0146504D01*
X0049702Y0146440D01*
X0049616Y0146379D01*
X0049528Y0146321D01*
X0049438Y0146266D01*
X0049346Y0146215D01*
X0049251Y0146167D01*
X0049156Y0146123D01*
X0049058Y0146083D01*
X0048959Y0146046D01*
X0048859Y0146013D01*
X0048758Y0145983D01*
X0048656Y0145958D01*
X0048552Y0145936D01*
X0048448Y0145919D01*
X0048344Y0145905D01*
X0048239Y0145895D01*
X0048133Y0145889D01*
X0048028Y0145887D01*
X0047923Y0145889D01*
X0047817Y0145895D01*
X0047712Y0145905D01*
X0047608Y0145919D01*
X0047504Y0145936D01*
X0047400Y0145958D01*
X0047298Y0145983D01*
X0047197Y0146013D01*
X0047097Y0146046D01*
X0046998Y0146083D01*
X0046900Y0146123D01*
X0046805Y0146167D01*
X0046710Y0146215D01*
X0046618Y0146266D01*
X0046528Y0146321D01*
X0046440Y0146379D01*
X0046354Y0146440D01*
X0046270Y0146504D01*
X0046189Y0146572D01*
X0046111Y0146642D01*
X0046035Y0146716D01*
X0045962Y0146792D01*
X0045990Y0146817D01*
X0046062Y0146742D01*
X0046136Y0146669D01*
X0046214Y0146600D01*
X0046294Y0146533D01*
X0046376Y0146470D01*
X0046461Y0146409D01*
X0046548Y0146352D01*
X0046637Y0146298D01*
X0046728Y0146248D01*
X0046821Y0146201D01*
X0046915Y0146157D01*
X0047011Y0146117D01*
X0047109Y0146081D01*
X0047208Y0146048D01*
X0047308Y0146019D01*
X0047409Y0145994D01*
X0047511Y0145973D01*
X0047613Y0145955D01*
X0047716Y0145942D01*
X0047820Y0145932D01*
X0047924Y0145926D01*
X0048028Y0145924D01*
X0048132Y0145926D01*
X0048236Y0145932D01*
X0048340Y0145942D01*
X0048443Y0145955D01*
X0048545Y0145973D01*
X0048647Y0145994D01*
X0048748Y0146019D01*
X0048848Y0146048D01*
X0048947Y0146081D01*
X0049045Y0146117D01*
X0049141Y0146157D01*
X0049235Y0146201D01*
X0049328Y0146248D01*
X0049419Y0146298D01*
X0049508Y0146352D01*
X0049595Y0146409D01*
X0049680Y0146470D01*
X0049762Y0146533D01*
X0049842Y0146600D01*
X0049920Y0146669D01*
X0049994Y0146742D01*
X0050066Y0146817D01*
X0050312Y0150801D02*
X0050046Y0150558D01*
X0050046Y0150559D02*
X0049975Y0150633D01*
X0049901Y0150705D01*
X0049824Y0150774D01*
X0049745Y0150840D01*
X0049664Y0150903D01*
X0049580Y0150963D01*
X0049494Y0151019D01*
X0049405Y0151073D01*
X0049315Y0151123D01*
X0049223Y0151169D01*
X0049130Y0151212D01*
X0049035Y0151252D01*
X0048938Y0151288D01*
X0048840Y0151320D01*
X0048741Y0151349D01*
X0048641Y0151374D01*
X0048540Y0151395D01*
X0048439Y0151412D01*
X0048337Y0151426D01*
X0048234Y0151435D01*
X0048131Y0151441D01*
X0048028Y0151443D01*
X0047925Y0151441D01*
X0047822Y0151435D01*
X0047719Y0151426D01*
X0047617Y0151412D01*
X0047516Y0151395D01*
X0047415Y0151374D01*
X0047315Y0151349D01*
X0047216Y0151320D01*
X0047118Y0151288D01*
X0047021Y0151252D01*
X0046926Y0151212D01*
X0046833Y0151169D01*
X0046741Y0151123D01*
X0046651Y0151073D01*
X0046562Y0151019D01*
X0046476Y0150963D01*
X0046392Y0150903D01*
X0046311Y0150840D01*
X0046232Y0150774D01*
X0046155Y0150705D01*
X0046081Y0150633D01*
X0046010Y0150559D01*
X0045744Y0150801D01*
X0045743Y0150801D01*
X0045819Y0150880D01*
X0045897Y0150956D01*
X0045978Y0151030D01*
X0046061Y0151101D01*
X0046147Y0151168D01*
X0046235Y0151233D01*
X0046325Y0151294D01*
X0046417Y0151353D01*
X0046512Y0151408D01*
X0046608Y0151459D01*
X0046706Y0151508D01*
X0046806Y0151552D01*
X0046907Y0151594D01*
X0047009Y0151631D01*
X0047113Y0151665D01*
X0047218Y0151696D01*
X0047324Y0151722D01*
X0047431Y0151745D01*
X0047538Y0151764D01*
X0047647Y0151779D01*
X0047755Y0151791D01*
X0047864Y0151799D01*
X0047973Y0151803D01*
X0048083Y0151803D01*
X0048192Y0151799D01*
X0048301Y0151791D01*
X0048409Y0151779D01*
X0048518Y0151764D01*
X0048625Y0151745D01*
X0048732Y0151722D01*
X0048838Y0151696D01*
X0048943Y0151665D01*
X0049047Y0151631D01*
X0049149Y0151594D01*
X0049250Y0151552D01*
X0049350Y0151508D01*
X0049448Y0151459D01*
X0049544Y0151408D01*
X0049639Y0151353D01*
X0049731Y0151294D01*
X0049821Y0151233D01*
X0049909Y0151168D01*
X0049995Y0151101D01*
X0050078Y0151030D01*
X0050159Y0150956D01*
X0050237Y0150880D01*
X0050313Y0150801D01*
X0050285Y0150776D01*
X0050211Y0150854D01*
X0050134Y0150930D01*
X0050054Y0151002D01*
X0049972Y0151072D01*
X0049887Y0151139D01*
X0049800Y0151203D01*
X0049711Y0151264D01*
X0049619Y0151321D01*
X0049526Y0151376D01*
X0049431Y0151427D01*
X0049334Y0151474D01*
X0049236Y0151518D01*
X0049136Y0151559D01*
X0049034Y0151596D01*
X0048932Y0151630D01*
X0048828Y0151660D01*
X0048723Y0151686D01*
X0048618Y0151709D01*
X0048512Y0151728D01*
X0048405Y0151743D01*
X0048297Y0151754D01*
X0048190Y0151762D01*
X0048082Y0151766D01*
X0047974Y0151766D01*
X0047866Y0151762D01*
X0047759Y0151754D01*
X0047651Y0151743D01*
X0047544Y0151728D01*
X0047438Y0151709D01*
X0047333Y0151686D01*
X0047228Y0151660D01*
X0047124Y0151630D01*
X0047022Y0151596D01*
X0046920Y0151559D01*
X0046820Y0151518D01*
X0046722Y0151474D01*
X0046625Y0151427D01*
X0046530Y0151376D01*
X0046437Y0151321D01*
X0046345Y0151264D01*
X0046256Y0151203D01*
X0046169Y0151139D01*
X0046084Y0151072D01*
X0046002Y0151002D01*
X0045922Y0150930D01*
X0045845Y0150854D01*
X0045771Y0150776D01*
X0045798Y0150751D01*
X0045873Y0150830D01*
X0045951Y0150906D01*
X0046032Y0150979D01*
X0046115Y0151050D01*
X0046201Y0151117D01*
X0046289Y0151181D01*
X0046379Y0151242D01*
X0046472Y0151299D01*
X0046566Y0151353D01*
X0046663Y0151404D01*
X0046761Y0151452D01*
X0046861Y0151495D01*
X0046962Y0151535D01*
X0047065Y0151572D01*
X0047168Y0151605D01*
X0047273Y0151634D01*
X0047379Y0151659D01*
X0047486Y0151680D01*
X0047594Y0151698D01*
X0047702Y0151711D01*
X0047810Y0151721D01*
X0047919Y0151727D01*
X0048028Y0151729D01*
X0048137Y0151727D01*
X0048246Y0151721D01*
X0048354Y0151711D01*
X0048462Y0151698D01*
X0048570Y0151680D01*
X0048677Y0151659D01*
X0048783Y0151634D01*
X0048888Y0151605D01*
X0048991Y0151572D01*
X0049094Y0151535D01*
X0049195Y0151495D01*
X0049295Y0151452D01*
X0049393Y0151404D01*
X0049490Y0151353D01*
X0049584Y0151299D01*
X0049677Y0151242D01*
X0049767Y0151181D01*
X0049855Y0151117D01*
X0049941Y0151050D01*
X0050024Y0150979D01*
X0050105Y0150906D01*
X0050183Y0150830D01*
X0050258Y0150751D01*
X0050231Y0150726D01*
X0050156Y0150804D01*
X0050079Y0150879D01*
X0050000Y0150952D01*
X0049917Y0151021D01*
X0049833Y0151087D01*
X0049746Y0151151D01*
X0049656Y0151211D01*
X0049565Y0151268D01*
X0049472Y0151321D01*
X0049376Y0151371D01*
X0049280Y0151418D01*
X0049181Y0151461D01*
X0049081Y0151501D01*
X0048980Y0151537D01*
X0048877Y0151569D01*
X0048773Y0151598D01*
X0048669Y0151623D01*
X0048563Y0151644D01*
X0048457Y0151661D01*
X0048350Y0151675D01*
X0048243Y0151684D01*
X0048136Y0151690D01*
X0048028Y0151692D01*
X0047920Y0151690D01*
X0047813Y0151684D01*
X0047706Y0151675D01*
X0047599Y0151661D01*
X0047493Y0151644D01*
X0047387Y0151623D01*
X0047283Y0151598D01*
X0047179Y0151569D01*
X0047076Y0151537D01*
X0046975Y0151501D01*
X0046875Y0151461D01*
X0046776Y0151418D01*
X0046680Y0151371D01*
X0046584Y0151321D01*
X0046491Y0151268D01*
X0046400Y0151211D01*
X0046310Y0151151D01*
X0046223Y0151087D01*
X0046139Y0151021D01*
X0046056Y0150952D01*
X0045977Y0150879D01*
X0045900Y0150804D01*
X0045825Y0150726D01*
X0045853Y0150702D01*
X0045928Y0150780D01*
X0046006Y0150856D01*
X0046086Y0150929D01*
X0046170Y0150998D01*
X0046255Y0151065D01*
X0046343Y0151128D01*
X0046434Y0151189D01*
X0046526Y0151246D01*
X0046621Y0151299D01*
X0046717Y0151349D01*
X0046816Y0151395D01*
X0046916Y0151438D01*
X0047017Y0151477D01*
X0047120Y0151512D01*
X0047224Y0151544D01*
X0047329Y0151571D01*
X0047435Y0151595D01*
X0047541Y0151615D01*
X0047649Y0151631D01*
X0047757Y0151643D01*
X0047865Y0151651D01*
X0047974Y0151655D01*
X0048082Y0151655D01*
X0048191Y0151651D01*
X0048299Y0151643D01*
X0048407Y0151631D01*
X0048515Y0151615D01*
X0048621Y0151595D01*
X0048727Y0151571D01*
X0048832Y0151544D01*
X0048936Y0151512D01*
X0049039Y0151477D01*
X0049140Y0151438D01*
X0049240Y0151395D01*
X0049339Y0151349D01*
X0049435Y0151299D01*
X0049530Y0151246D01*
X0049622Y0151189D01*
X0049713Y0151128D01*
X0049801Y0151065D01*
X0049886Y0150998D01*
X0049970Y0150929D01*
X0050050Y0150856D01*
X0050128Y0150780D01*
X0050203Y0150702D01*
X0050176Y0150677D01*
X0050102Y0150754D01*
X0050025Y0150829D01*
X0049945Y0150901D01*
X0049863Y0150970D01*
X0049778Y0151035D01*
X0049691Y0151098D01*
X0049602Y0151158D01*
X0049511Y0151214D01*
X0049417Y0151266D01*
X0049322Y0151316D01*
X0049225Y0151361D01*
X0049126Y0151404D01*
X0049026Y0151442D01*
X0048925Y0151477D01*
X0048822Y0151508D01*
X0048719Y0151535D01*
X0048614Y0151559D01*
X0048508Y0151578D01*
X0048402Y0151594D01*
X0048296Y0151606D01*
X0048189Y0151614D01*
X0048082Y0151618D01*
X0047974Y0151618D01*
X0047867Y0151614D01*
X0047760Y0151606D01*
X0047654Y0151594D01*
X0047548Y0151578D01*
X0047442Y0151559D01*
X0047337Y0151535D01*
X0047234Y0151508D01*
X0047131Y0151477D01*
X0047030Y0151442D01*
X0046930Y0151404D01*
X0046831Y0151361D01*
X0046734Y0151316D01*
X0046639Y0151266D01*
X0046545Y0151214D01*
X0046454Y0151158D01*
X0046365Y0151098D01*
X0046278Y0151035D01*
X0046193Y0150970D01*
X0046111Y0150901D01*
X0046031Y0150829D01*
X0045954Y0150754D01*
X0045880Y0150677D01*
X0045908Y0150652D01*
X0045981Y0150728D01*
X0046057Y0150802D01*
X0046135Y0150873D01*
X0046216Y0150941D01*
X0046300Y0151006D01*
X0046386Y0151068D01*
X0046474Y0151127D01*
X0046564Y0151182D01*
X0046656Y0151234D01*
X0046750Y0151283D01*
X0046846Y0151328D01*
X0046944Y0151369D01*
X0047042Y0151407D01*
X0047143Y0151442D01*
X0047244Y0151472D01*
X0047346Y0151499D01*
X0047450Y0151522D01*
X0047554Y0151542D01*
X0047658Y0151557D01*
X0047764Y0151569D01*
X0047869Y0151577D01*
X0047975Y0151581D01*
X0048081Y0151581D01*
X0048187Y0151577D01*
X0048292Y0151569D01*
X0048398Y0151557D01*
X0048502Y0151542D01*
X0048606Y0151522D01*
X0048710Y0151499D01*
X0048812Y0151472D01*
X0048913Y0151442D01*
X0049014Y0151407D01*
X0049112Y0151369D01*
X0049210Y0151328D01*
X0049306Y0151283D01*
X0049400Y0151234D01*
X0049492Y0151182D01*
X0049582Y0151127D01*
X0049670Y0151068D01*
X0049756Y0151006D01*
X0049840Y0150941D01*
X0049921Y0150873D01*
X0049999Y0150802D01*
X0050075Y0150728D01*
X0050148Y0150652D01*
X0050121Y0150627D01*
X0050049Y0150702D01*
X0049974Y0150775D01*
X0049896Y0150845D01*
X0049816Y0150912D01*
X0049734Y0150976D01*
X0049649Y0151038D01*
X0049562Y0151095D01*
X0049473Y0151150D01*
X0049382Y0151201D01*
X0049289Y0151249D01*
X0049194Y0151294D01*
X0049098Y0151335D01*
X0049001Y0151373D01*
X0048902Y0151407D01*
X0048802Y0151437D01*
X0048701Y0151463D01*
X0048599Y0151486D01*
X0048496Y0151505D01*
X0048393Y0151521D01*
X0048289Y0151532D01*
X0048185Y0151540D01*
X0048080Y0151544D01*
X0047976Y0151544D01*
X0047871Y0151540D01*
X0047767Y0151532D01*
X0047663Y0151521D01*
X0047560Y0151505D01*
X0047457Y0151486D01*
X0047355Y0151463D01*
X0047254Y0151437D01*
X0047154Y0151407D01*
X0047055Y0151373D01*
X0046958Y0151335D01*
X0046862Y0151294D01*
X0046767Y0151249D01*
X0046674Y0151201D01*
X0046583Y0151150D01*
X0046494Y0151095D01*
X0046407Y0151038D01*
X0046322Y0150976D01*
X0046240Y0150912D01*
X0046160Y0150845D01*
X0046082Y0150775D01*
X0046007Y0150702D01*
X0045935Y0150627D01*
X0045962Y0150602D01*
X0046035Y0150678D01*
X0046111Y0150752D01*
X0046189Y0150822D01*
X0046270Y0150890D01*
X0046354Y0150954D01*
X0046440Y0151015D01*
X0046528Y0151073D01*
X0046618Y0151128D01*
X0046710Y0151179D01*
X0046805Y0151227D01*
X0046900Y0151271D01*
X0046998Y0151311D01*
X0047097Y0151348D01*
X0047197Y0151381D01*
X0047298Y0151411D01*
X0047400Y0151436D01*
X0047504Y0151458D01*
X0047608Y0151475D01*
X0047712Y0151489D01*
X0047817Y0151499D01*
X0047923Y0151505D01*
X0048028Y0151507D01*
X0048133Y0151505D01*
X0048239Y0151499D01*
X0048344Y0151489D01*
X0048448Y0151475D01*
X0048552Y0151458D01*
X0048656Y0151436D01*
X0048758Y0151411D01*
X0048859Y0151381D01*
X0048959Y0151348D01*
X0049058Y0151311D01*
X0049156Y0151271D01*
X0049251Y0151227D01*
X0049346Y0151179D01*
X0049438Y0151128D01*
X0049528Y0151073D01*
X0049616Y0151015D01*
X0049702Y0150954D01*
X0049786Y0150890D01*
X0049867Y0150822D01*
X0049945Y0150752D01*
X0050021Y0150678D01*
X0050094Y0150602D01*
X0050066Y0150577D01*
X0049994Y0150652D01*
X0049920Y0150725D01*
X0049842Y0150794D01*
X0049762Y0150861D01*
X0049680Y0150924D01*
X0049595Y0150985D01*
X0049508Y0151042D01*
X0049419Y0151096D01*
X0049328Y0151146D01*
X0049235Y0151193D01*
X0049141Y0151237D01*
X0049045Y0151277D01*
X0048947Y0151313D01*
X0048848Y0151346D01*
X0048748Y0151375D01*
X0048647Y0151400D01*
X0048545Y0151421D01*
X0048443Y0151439D01*
X0048340Y0151452D01*
X0048236Y0151462D01*
X0048132Y0151468D01*
X0048028Y0151470D01*
X0047924Y0151468D01*
X0047820Y0151462D01*
X0047716Y0151452D01*
X0047613Y0151439D01*
X0047511Y0151421D01*
X0047409Y0151400D01*
X0047308Y0151375D01*
X0047208Y0151346D01*
X0047109Y0151313D01*
X0047011Y0151277D01*
X0046915Y0151237D01*
X0046821Y0151193D01*
X0046728Y0151146D01*
X0046637Y0151096D01*
X0046548Y0151042D01*
X0046461Y0150985D01*
X0046376Y0150924D01*
X0046294Y0150861D01*
X0046214Y0150794D01*
X0046136Y0150725D01*
X0046062Y0150652D01*
X0045990Y0150577D01*
D14*
X0048028Y0148697D03*
D15*
X0050095Y0150961D03*
D16*
X0097792Y0112732D02*
X0097792Y0086236D01*
X0122280Y0086236D01*
X0122280Y0112732D02*
X0097792Y0112732D01*
D17*
X0096611Y0108500D03*
X0096611Y0090469D03*
D18*
X0095823Y0099484D03*
D19*
X0071821Y0166306D02*
X0070019Y0166306D01*
X0068874Y0166756D02*
X0068874Y0168558D01*
X0067974Y0169459D01*
X0067073Y0168558D01*
X0067073Y0166756D01*
X0067073Y0168107D02*
X0068874Y0168107D01*
X0067398Y0164878D02*
X0053304Y0164878D01*
X0053304Y0174878D01*
X0051965Y0176256D02*
X0051965Y0180193D01*
X0055902Y0180193D01*
X0055902Y0176256D01*
X0051965Y0176256D01*
X0055902Y0176256D02*
X0055902Y0172319D01*
X0105115Y0172319D01*
X0114957Y0172319D01*
X0114957Y0192988D01*
X0114957Y0198894D02*
X0114957Y0219563D01*
X0105115Y0219563D01*
X0055902Y0219563D01*
X0055902Y0215626D01*
X0051965Y0215626D01*
X0051965Y0211689D01*
X0055902Y0211689D01*
X0055902Y0203815D01*
X0053934Y0203815D01*
X0053934Y0188067D01*
X0055902Y0188067D01*
X0055902Y0180193D01*
X0055902Y0188067D02*
X0055902Y0203815D01*
X0055902Y0211689D02*
X0055902Y0215626D01*
X0053304Y0217004D02*
X0053304Y0227004D01*
X0067398Y0227004D01*
X0068008Y0224577D02*
X0066657Y0224577D01*
X0066207Y0224126D01*
X0066207Y0223676D01*
X0066657Y0223226D01*
X0068008Y0223226D01*
X0068008Y0224577D02*
X0068008Y0221874D01*
X0066657Y0221874D01*
X0066207Y0222325D01*
X0066207Y0222775D01*
X0066657Y0223226D01*
X0069153Y0221424D02*
X0070955Y0221424D01*
X0073000Y0221874D02*
X0073000Y0224577D01*
X0072100Y0224577D02*
X0073901Y0224577D01*
X0075046Y0224126D02*
X0075497Y0224577D01*
X0076397Y0224577D01*
X0076848Y0224126D01*
X0076848Y0222325D01*
X0076397Y0221874D01*
X0075497Y0221874D01*
X0075046Y0222325D01*
X0075046Y0224126D01*
X0077993Y0224577D02*
X0077993Y0221874D01*
X0079794Y0221874D02*
X0079794Y0224577D01*
X0078894Y0223676D01*
X0077993Y0224577D01*
X0114957Y0219563D02*
X0126768Y0219563D01*
X0126768Y0200862D01*
X0126768Y0194957D02*
X0126768Y0176256D01*
X0120863Y0172319D02*
X0120863Y0191020D01*
X0120863Y0196925D02*
X0120863Y0215626D01*
X0126768Y0219563D02*
X0138579Y0219563D01*
X0138579Y0200862D01*
X0138579Y0194957D02*
X0138579Y0176256D01*
X0132674Y0172319D02*
X0132674Y0190035D01*
X0132674Y0195941D02*
X0132674Y0213657D01*
X0138579Y0219563D02*
X0150390Y0219563D01*
X0156296Y0217594D02*
X0156296Y0201846D01*
X0156296Y0190035D01*
X0154327Y0190035D01*
X0154327Y0201846D01*
X0156296Y0201846D01*
X0154327Y0201846D02*
X0154327Y0203815D01*
X0152359Y0203815D01*
X0150390Y0203815D01*
X0152359Y0203815D02*
X0154327Y0201846D01*
X0152359Y0201846D01*
X0152359Y0197909D01*
X0152359Y0193972D02*
X0152359Y0190035D01*
X0154327Y0190035D01*
X0154327Y0188067D01*
X0152359Y0188067D01*
X0150390Y0188067D01*
X0152359Y0188067D02*
X0154327Y0190035D01*
X0152359Y0190035D02*
X0152359Y0188067D01*
X0156296Y0190035D02*
X0156296Y0174287D01*
X0156295Y0174287D02*
X0156297Y0174201D01*
X0156302Y0174115D01*
X0156312Y0174030D01*
X0156325Y0173945D01*
X0156342Y0173861D01*
X0156362Y0173777D01*
X0156386Y0173695D01*
X0156414Y0173614D01*
X0156445Y0173533D01*
X0156479Y0173455D01*
X0156517Y0173378D01*
X0156559Y0173303D01*
X0156603Y0173229D01*
X0156651Y0173158D01*
X0156702Y0173088D01*
X0156756Y0173021D01*
X0156812Y0172957D01*
X0156872Y0172895D01*
X0156934Y0172835D01*
X0156998Y0172779D01*
X0157065Y0172725D01*
X0157135Y0172674D01*
X0157206Y0172626D01*
X0157280Y0172582D01*
X0157355Y0172540D01*
X0157432Y0172502D01*
X0157510Y0172468D01*
X0157591Y0172437D01*
X0157672Y0172409D01*
X0157754Y0172385D01*
X0157838Y0172365D01*
X0157922Y0172348D01*
X0158007Y0172335D01*
X0158092Y0172325D01*
X0158178Y0172320D01*
X0158264Y0172318D01*
X0158264Y0172319D02*
X0166138Y0172319D01*
X0166138Y0172318D02*
X0166224Y0172320D01*
X0166310Y0172325D01*
X0166395Y0172335D01*
X0166480Y0172348D01*
X0166564Y0172365D01*
X0166648Y0172385D01*
X0166730Y0172409D01*
X0166811Y0172437D01*
X0166892Y0172468D01*
X0166970Y0172502D01*
X0167047Y0172540D01*
X0167123Y0172582D01*
X0167196Y0172626D01*
X0167267Y0172674D01*
X0167337Y0172725D01*
X0167404Y0172779D01*
X0167468Y0172835D01*
X0167530Y0172895D01*
X0167590Y0172957D01*
X0167646Y0173021D01*
X0167700Y0173088D01*
X0167751Y0173158D01*
X0167799Y0173229D01*
X0167843Y0173303D01*
X0167885Y0173378D01*
X0167923Y0173455D01*
X0167957Y0173533D01*
X0167988Y0173614D01*
X0168016Y0173695D01*
X0168040Y0173777D01*
X0168060Y0173861D01*
X0168077Y0173945D01*
X0168090Y0174030D01*
X0168100Y0174115D01*
X0168105Y0174201D01*
X0168107Y0174287D01*
X0168107Y0190035D01*
X0183855Y0190035D01*
X0183979Y0190037D01*
X0184102Y0190043D01*
X0184226Y0190052D01*
X0184348Y0190066D01*
X0184471Y0190083D01*
X0184593Y0190105D01*
X0184714Y0190130D01*
X0184834Y0190159D01*
X0184953Y0190191D01*
X0185072Y0190228D01*
X0185189Y0190268D01*
X0185304Y0190311D01*
X0185419Y0190359D01*
X0185531Y0190410D01*
X0185642Y0190464D01*
X0185752Y0190522D01*
X0185859Y0190583D01*
X0185965Y0190648D01*
X0186068Y0190716D01*
X0186169Y0190787D01*
X0186268Y0190861D01*
X0186365Y0190938D01*
X0186459Y0191019D01*
X0186550Y0191102D01*
X0186639Y0191188D01*
X0186725Y0191277D01*
X0186808Y0191368D01*
X0186889Y0191462D01*
X0186966Y0191559D01*
X0187040Y0191658D01*
X0187111Y0191759D01*
X0187179Y0191862D01*
X0187244Y0191968D01*
X0187305Y0192075D01*
X0187363Y0192185D01*
X0187417Y0192296D01*
X0187468Y0192408D01*
X0187516Y0192523D01*
X0187559Y0192638D01*
X0187599Y0192755D01*
X0187636Y0192874D01*
X0187668Y0192993D01*
X0187697Y0193113D01*
X0187722Y0193234D01*
X0187744Y0193356D01*
X0187761Y0193479D01*
X0187775Y0193601D01*
X0187784Y0193725D01*
X0187790Y0193848D01*
X0187792Y0193972D01*
X0187792Y0197909D01*
X0187792Y0193972D01*
X0187792Y0197909D02*
X0187790Y0198033D01*
X0187784Y0198156D01*
X0187775Y0198280D01*
X0187761Y0198402D01*
X0187744Y0198525D01*
X0187722Y0198647D01*
X0187697Y0198768D01*
X0187668Y0198888D01*
X0187636Y0199007D01*
X0187599Y0199126D01*
X0187559Y0199243D01*
X0187516Y0199358D01*
X0187468Y0199473D01*
X0187417Y0199585D01*
X0187363Y0199696D01*
X0187305Y0199806D01*
X0187244Y0199913D01*
X0187179Y0200019D01*
X0187111Y0200122D01*
X0187040Y0200223D01*
X0186966Y0200322D01*
X0186889Y0200419D01*
X0186808Y0200513D01*
X0186725Y0200604D01*
X0186639Y0200693D01*
X0186550Y0200779D01*
X0186459Y0200862D01*
X0186365Y0200943D01*
X0186268Y0201020D01*
X0186169Y0201094D01*
X0186068Y0201165D01*
X0185965Y0201233D01*
X0185859Y0201298D01*
X0185752Y0201359D01*
X0185642Y0201417D01*
X0185531Y0201471D01*
X0185419Y0201522D01*
X0185304Y0201570D01*
X0185189Y0201613D01*
X0185072Y0201653D01*
X0184953Y0201690D01*
X0184834Y0201722D01*
X0184714Y0201751D01*
X0184593Y0201776D01*
X0184471Y0201798D01*
X0184348Y0201815D01*
X0184226Y0201829D01*
X0184102Y0201838D01*
X0183979Y0201844D01*
X0183855Y0201846D01*
X0168107Y0201846D01*
X0168107Y0217594D01*
X0168105Y0217680D01*
X0168100Y0217766D01*
X0168090Y0217851D01*
X0168077Y0217936D01*
X0168060Y0218020D01*
X0168040Y0218104D01*
X0168016Y0218186D01*
X0167988Y0218267D01*
X0167957Y0218348D01*
X0167923Y0218426D01*
X0167885Y0218503D01*
X0167843Y0218579D01*
X0167799Y0218652D01*
X0167751Y0218723D01*
X0167700Y0218793D01*
X0167646Y0218860D01*
X0167590Y0218924D01*
X0167530Y0218986D01*
X0167468Y0219046D01*
X0167404Y0219102D01*
X0167337Y0219156D01*
X0167267Y0219207D01*
X0167196Y0219255D01*
X0167123Y0219299D01*
X0167047Y0219341D01*
X0166970Y0219379D01*
X0166892Y0219413D01*
X0166811Y0219444D01*
X0166730Y0219472D01*
X0166648Y0219496D01*
X0166564Y0219516D01*
X0166480Y0219533D01*
X0166395Y0219546D01*
X0166310Y0219556D01*
X0166224Y0219561D01*
X0166138Y0219563D01*
X0158264Y0219563D01*
X0158178Y0219561D01*
X0158092Y0219556D01*
X0158007Y0219546D01*
X0157922Y0219533D01*
X0157838Y0219516D01*
X0157754Y0219496D01*
X0157672Y0219472D01*
X0157591Y0219444D01*
X0157510Y0219413D01*
X0157432Y0219379D01*
X0157355Y0219341D01*
X0157280Y0219299D01*
X0157206Y0219255D01*
X0157135Y0219207D01*
X0157065Y0219156D01*
X0156998Y0219102D01*
X0156934Y0219046D01*
X0156872Y0218986D01*
X0156812Y0218924D01*
X0156756Y0218860D01*
X0156702Y0218793D01*
X0156651Y0218723D01*
X0156603Y0218652D01*
X0156559Y0218579D01*
X0156517Y0218503D01*
X0156479Y0218426D01*
X0156445Y0218348D01*
X0156414Y0218267D01*
X0156386Y0218186D01*
X0156362Y0218104D01*
X0156342Y0218020D01*
X0156325Y0217936D01*
X0156312Y0217851D01*
X0156302Y0217766D01*
X0156297Y0217680D01*
X0156295Y0217594D01*
X0144485Y0215626D02*
X0144485Y0196925D01*
X0144485Y0191020D02*
X0144485Y0172319D01*
X0150390Y0172319D01*
X0144485Y0172319D02*
X0132674Y0172319D01*
X0120863Y0172319D01*
X0114957Y0172319D01*
X0080660Y0169459D02*
X0079760Y0168558D01*
X0078859Y0169459D01*
X0078859Y0166756D01*
X0077714Y0167207D02*
X0077264Y0166756D01*
X0076363Y0166756D01*
X0075912Y0167207D01*
X0075912Y0169008D01*
X0076363Y0169459D01*
X0077264Y0169459D01*
X0077714Y0169008D01*
X0077714Y0167207D01*
X0080660Y0166756D02*
X0080660Y0169459D01*
X0074767Y0169459D02*
X0072966Y0169459D01*
X0073867Y0169459D02*
X0073867Y0166756D01*
X0152359Y0201846D02*
X0152359Y0203815D01*
X0168107Y0201846D02*
X0168107Y0190035D01*
X0211847Y0165075D02*
X0211847Y0150980D01*
X0213725Y0151306D02*
X0215527Y0151306D01*
X0216428Y0150405D01*
X0215527Y0149504D01*
X0213725Y0149504D01*
X0213275Y0148359D02*
X0213275Y0146558D01*
X0213725Y0144512D02*
X0216428Y0144512D01*
X0216428Y0143611D02*
X0216428Y0145413D01*
X0215977Y0142466D02*
X0216428Y0142016D01*
X0216428Y0141115D01*
X0215977Y0140665D01*
X0214176Y0140665D01*
X0213725Y0141115D01*
X0213725Y0142016D01*
X0214176Y0142466D01*
X0215977Y0142466D01*
X0216428Y0139520D02*
X0213725Y0139520D01*
X0213725Y0137718D02*
X0216428Y0137718D01*
X0215527Y0138619D01*
X0216428Y0139520D01*
X0215077Y0149504D02*
X0215077Y0151306D01*
X0219288Y0162476D02*
X0219288Y0113264D01*
X0219288Y0103421D01*
X0239957Y0103421D01*
X0245863Y0103421D02*
X0266532Y0103421D01*
X0266532Y0113264D01*
X0266532Y0162476D01*
X0262595Y0162476D01*
X0262595Y0166413D01*
X0258658Y0166413D01*
X0258658Y0162476D01*
X0250784Y0162476D01*
X0250784Y0164445D01*
X0235036Y0164445D01*
X0235036Y0162476D01*
X0227162Y0162476D01*
X0227162Y0166413D01*
X0223225Y0166413D01*
X0223225Y0162476D01*
X0219288Y0162476D01*
X0221847Y0165075D02*
X0211847Y0165075D01*
X0223225Y0162476D02*
X0227162Y0162476D01*
X0235036Y0162476D02*
X0250784Y0162476D01*
X0258658Y0162476D02*
X0262595Y0162476D01*
X0263973Y0165075D02*
X0273973Y0165075D01*
X0273973Y0150980D01*
X0271546Y0150370D02*
X0271546Y0151722D01*
X0271095Y0152172D01*
X0270645Y0152172D01*
X0270195Y0151722D01*
X0270195Y0150370D01*
X0268844Y0150370D02*
X0271546Y0150370D01*
X0270195Y0151722D02*
X0269744Y0152172D01*
X0269294Y0152172D01*
X0268844Y0151722D01*
X0268844Y0150370D01*
X0268393Y0149225D02*
X0268393Y0147424D01*
X0268844Y0145378D02*
X0271546Y0145378D01*
X0271546Y0144477D02*
X0271546Y0146279D01*
X0271095Y0143332D02*
X0269294Y0143332D01*
X0268844Y0142882D01*
X0268844Y0141981D01*
X0269294Y0141531D01*
X0271095Y0141531D01*
X0271546Y0141981D01*
X0271546Y0142882D01*
X0271095Y0143332D01*
X0271546Y0140386D02*
X0268844Y0140386D01*
X0268844Y0138584D02*
X0271546Y0138584D01*
X0270645Y0139485D01*
X0271546Y0140386D01*
X0266532Y0103421D02*
X0266532Y0091610D01*
X0247831Y0091610D01*
X0241926Y0091610D02*
X0223225Y0091610D01*
X0219288Y0085705D02*
X0237005Y0085705D01*
X0242910Y0085705D02*
X0260627Y0085705D01*
X0266532Y0091610D02*
X0266532Y0079799D01*
X0247831Y0079799D01*
X0241926Y0079799D02*
X0223225Y0079799D01*
X0219288Y0073894D02*
X0237989Y0073894D01*
X0243894Y0073894D02*
X0262595Y0073894D01*
X0266532Y0067988D02*
X0266532Y0079799D01*
X0250784Y0067988D02*
X0250784Y0066020D01*
X0250784Y0064051D01*
X0248816Y0064051D01*
X0248816Y0062083D01*
X0237005Y0062083D01*
X0237005Y0064051D01*
X0248816Y0064051D01*
X0248816Y0066020D01*
X0244879Y0066020D01*
X0248816Y0066020D02*
X0250784Y0066020D01*
X0248816Y0064051D01*
X0248816Y0062083D02*
X0264564Y0062083D01*
X0264650Y0062081D01*
X0264736Y0062076D01*
X0264821Y0062066D01*
X0264906Y0062053D01*
X0264990Y0062036D01*
X0265074Y0062016D01*
X0265156Y0061992D01*
X0265237Y0061964D01*
X0265318Y0061933D01*
X0265396Y0061899D01*
X0265473Y0061861D01*
X0265549Y0061819D01*
X0265622Y0061775D01*
X0265693Y0061727D01*
X0265763Y0061676D01*
X0265830Y0061622D01*
X0265894Y0061566D01*
X0265956Y0061506D01*
X0266016Y0061444D01*
X0266072Y0061380D01*
X0266126Y0061313D01*
X0266177Y0061243D01*
X0266225Y0061172D01*
X0266269Y0061099D01*
X0266311Y0061023D01*
X0266349Y0060946D01*
X0266383Y0060868D01*
X0266414Y0060787D01*
X0266442Y0060706D01*
X0266466Y0060624D01*
X0266486Y0060540D01*
X0266503Y0060456D01*
X0266516Y0060371D01*
X0266526Y0060286D01*
X0266531Y0060200D01*
X0266533Y0060114D01*
X0266532Y0060114D02*
X0266532Y0052240D01*
X0266533Y0052240D02*
X0266531Y0052154D01*
X0266526Y0052068D01*
X0266516Y0051983D01*
X0266503Y0051898D01*
X0266486Y0051814D01*
X0266466Y0051730D01*
X0266442Y0051648D01*
X0266414Y0051567D01*
X0266383Y0051486D01*
X0266349Y0051408D01*
X0266311Y0051331D01*
X0266269Y0051256D01*
X0266225Y0051182D01*
X0266177Y0051111D01*
X0266126Y0051041D01*
X0266072Y0050974D01*
X0266016Y0050910D01*
X0265956Y0050848D01*
X0265894Y0050788D01*
X0265830Y0050732D01*
X0265763Y0050678D01*
X0265693Y0050627D01*
X0265622Y0050579D01*
X0265549Y0050535D01*
X0265473Y0050493D01*
X0265396Y0050455D01*
X0265318Y0050421D01*
X0265237Y0050390D01*
X0265156Y0050362D01*
X0265074Y0050338D01*
X0264990Y0050318D01*
X0264906Y0050301D01*
X0264821Y0050288D01*
X0264736Y0050278D01*
X0264650Y0050273D01*
X0264564Y0050271D01*
X0264564Y0050272D02*
X0248816Y0050272D01*
X0248816Y0034524D01*
X0248814Y0034400D01*
X0248808Y0034277D01*
X0248799Y0034153D01*
X0248785Y0034031D01*
X0248768Y0033908D01*
X0248746Y0033786D01*
X0248721Y0033665D01*
X0248692Y0033545D01*
X0248660Y0033426D01*
X0248623Y0033307D01*
X0248583Y0033190D01*
X0248540Y0033075D01*
X0248492Y0032960D01*
X0248441Y0032848D01*
X0248387Y0032737D01*
X0248329Y0032627D01*
X0248268Y0032520D01*
X0248203Y0032414D01*
X0248135Y0032311D01*
X0248064Y0032210D01*
X0247990Y0032111D01*
X0247913Y0032014D01*
X0247832Y0031920D01*
X0247749Y0031829D01*
X0247663Y0031740D01*
X0247574Y0031654D01*
X0247483Y0031571D01*
X0247389Y0031490D01*
X0247292Y0031413D01*
X0247193Y0031339D01*
X0247092Y0031268D01*
X0246989Y0031200D01*
X0246883Y0031135D01*
X0246776Y0031074D01*
X0246666Y0031016D01*
X0246555Y0030962D01*
X0246443Y0030911D01*
X0246328Y0030863D01*
X0246213Y0030820D01*
X0246096Y0030780D01*
X0245977Y0030743D01*
X0245858Y0030711D01*
X0245738Y0030682D01*
X0245617Y0030657D01*
X0245495Y0030635D01*
X0245372Y0030618D01*
X0245250Y0030604D01*
X0245126Y0030595D01*
X0245003Y0030589D01*
X0244879Y0030587D01*
X0240942Y0030587D01*
X0244879Y0030587D01*
X0240942Y0030587D02*
X0240818Y0030589D01*
X0240695Y0030595D01*
X0240571Y0030604D01*
X0240449Y0030618D01*
X0240326Y0030635D01*
X0240204Y0030657D01*
X0240083Y0030682D01*
X0239963Y0030711D01*
X0239844Y0030743D01*
X0239725Y0030780D01*
X0239608Y0030820D01*
X0239493Y0030863D01*
X0239378Y0030911D01*
X0239266Y0030962D01*
X0239155Y0031016D01*
X0239045Y0031074D01*
X0238938Y0031135D01*
X0238832Y0031200D01*
X0238729Y0031268D01*
X0238628Y0031339D01*
X0238529Y0031413D01*
X0238432Y0031490D01*
X0238338Y0031571D01*
X0238247Y0031654D01*
X0238158Y0031740D01*
X0238072Y0031829D01*
X0237989Y0031920D01*
X0237908Y0032014D01*
X0237831Y0032111D01*
X0237757Y0032210D01*
X0237686Y0032311D01*
X0237618Y0032414D01*
X0237553Y0032520D01*
X0237492Y0032627D01*
X0237434Y0032737D01*
X0237380Y0032848D01*
X0237329Y0032960D01*
X0237281Y0033075D01*
X0237238Y0033190D01*
X0237198Y0033307D01*
X0237161Y0033426D01*
X0237129Y0033545D01*
X0237100Y0033665D01*
X0237075Y0033786D01*
X0237053Y0033908D01*
X0237036Y0034031D01*
X0237022Y0034153D01*
X0237013Y0034277D01*
X0237007Y0034400D01*
X0237005Y0034524D01*
X0237005Y0050272D01*
X0248816Y0050272D01*
X0237005Y0050272D02*
X0221257Y0050272D01*
X0221257Y0050271D02*
X0221171Y0050273D01*
X0221085Y0050278D01*
X0221000Y0050288D01*
X0220915Y0050301D01*
X0220831Y0050318D01*
X0220747Y0050338D01*
X0220665Y0050362D01*
X0220584Y0050390D01*
X0220503Y0050421D01*
X0220425Y0050455D01*
X0220348Y0050493D01*
X0220273Y0050535D01*
X0220199Y0050579D01*
X0220128Y0050627D01*
X0220058Y0050678D01*
X0219991Y0050732D01*
X0219927Y0050788D01*
X0219865Y0050848D01*
X0219805Y0050910D01*
X0219749Y0050974D01*
X0219695Y0051041D01*
X0219644Y0051111D01*
X0219596Y0051182D01*
X0219552Y0051256D01*
X0219510Y0051331D01*
X0219472Y0051408D01*
X0219438Y0051486D01*
X0219407Y0051567D01*
X0219379Y0051648D01*
X0219355Y0051730D01*
X0219335Y0051814D01*
X0219318Y0051898D01*
X0219305Y0051983D01*
X0219295Y0052068D01*
X0219290Y0052154D01*
X0219288Y0052240D01*
X0219288Y0060114D01*
X0219290Y0060200D01*
X0219295Y0060286D01*
X0219305Y0060371D01*
X0219318Y0060456D01*
X0219335Y0060540D01*
X0219355Y0060624D01*
X0219379Y0060706D01*
X0219407Y0060787D01*
X0219438Y0060868D01*
X0219472Y0060946D01*
X0219510Y0061023D01*
X0219552Y0061099D01*
X0219596Y0061172D01*
X0219644Y0061243D01*
X0219695Y0061313D01*
X0219749Y0061380D01*
X0219805Y0061444D01*
X0219865Y0061506D01*
X0219927Y0061566D01*
X0219991Y0061622D01*
X0220058Y0061676D01*
X0220128Y0061727D01*
X0220199Y0061775D01*
X0220273Y0061819D01*
X0220348Y0061861D01*
X0220425Y0061899D01*
X0220503Y0061933D01*
X0220584Y0061964D01*
X0220665Y0061992D01*
X0220747Y0062016D01*
X0220831Y0062036D01*
X0220915Y0062053D01*
X0221000Y0062066D01*
X0221085Y0062076D01*
X0221171Y0062081D01*
X0221257Y0062083D01*
X0237005Y0062083D01*
X0237005Y0064051D02*
X0235036Y0064051D01*
X0235036Y0066020D01*
X0235036Y0067988D01*
X0235036Y0066020D02*
X0237005Y0064051D01*
X0237005Y0066020D01*
X0235036Y0066020D01*
X0237005Y0066020D02*
X0240942Y0066020D01*
X0219288Y0067988D02*
X0219288Y0073894D01*
X0219288Y0085705D01*
X0219288Y0097516D01*
X0237989Y0097516D01*
X0243894Y0097516D02*
X0262595Y0097516D01*
X0219288Y0097516D02*
X0219288Y0103421D01*
D20*
X0167233Y0110416D02*
X0167233Y0084616D01*
X0153233Y0084616D01*
X0153233Y0110416D01*
X0167233Y0110416D01*
X0129918Y0081571D02*
X0111808Y0081571D01*
X0111808Y0079799D01*
X0111808Y0071925D02*
X0111808Y0070154D01*
X0129918Y0070154D01*
X0129918Y0071925D01*
X0124800Y0071925D02*
X0124800Y0079799D01*
X0129918Y0079799D02*
X0129918Y0081571D01*
X0102359Y0081571D02*
X0084249Y0081571D01*
X0084249Y0079799D01*
X0089367Y0079799D02*
X0089367Y0071925D01*
X0084249Y0071925D02*
X0084249Y0070154D01*
X0102359Y0070154D01*
X0102359Y0071925D01*
X0102359Y0079799D02*
X0102359Y0081571D01*
X0079565Y0071349D02*
X0069822Y0061605D01*
X0070378Y0066616D02*
X0077338Y0073576D01*
X0079565Y0071349D01*
X0070378Y0066616D02*
X0067038Y0069957D01*
X0055902Y0081092D02*
X0052562Y0084433D01*
X0059521Y0091393D01*
X0057294Y0093620D01*
X0047551Y0083876D01*
X0043028Y0097201D02*
X0038028Y0097201D01*
X0038028Y0137201D01*
X0043028Y0137201D01*
X0053028Y0137201D02*
X0058028Y0137201D01*
X0058028Y0097201D01*
X0053028Y0097201D01*
X0041983Y0067173D02*
X0053118Y0056037D01*
X0161831Y0176100D02*
X0164634Y0176100D01*
X0163233Y0214384D02*
X0163233Y0217186D01*
X0164634Y0215785D02*
X0161831Y0215785D01*
X0223069Y0056547D02*
X0223069Y0053745D01*
X0261353Y0055146D02*
X0264156Y0055146D01*
X0262754Y0053745D02*
X0262754Y0056547D01*
M02*
